%TF.GenerationSoftware,KiCad,Pcbnew,6.0.11+dfsg-1*%
%TF.CreationDate,2023-05-03T21:30:49-05:00*%
%TF.ProjectId,CubesatPwrBoard,43756265-7361-4745-9077-72426f617264,rev?*%
%TF.SameCoordinates,Original*%
%TF.FileFunction,Soldermask,Bot*%
%TF.FilePolarity,Negative*%
%FSLAX46Y46*%
G04 Gerber Fmt 4.6, Leading zero omitted, Abs format (unit mm)*
G04 Created by KiCad (PCBNEW 6.0.11+dfsg-1) date 2023-05-03 21:30:49*
%MOMM*%
%LPD*%
G01*
G04 APERTURE LIST*
%ADD10C,0.010000*%
%ADD11C,1.700000*%
%ADD12R,1.700000X1.700000*%
%ADD13O,1.700000X1.700000*%
G04 APERTURE END LIST*
%TO.C,J3*%
G36*
X135380000Y-107700000D02*
G01*
X130940000Y-107700000D01*
X130940000Y-102300000D01*
X135380000Y-102300000D01*
X135380000Y-107700000D01*
G37*
D10*
X135380000Y-107700000D02*
X130940000Y-107700000D01*
X130940000Y-102300000D01*
X135380000Y-102300000D01*
X135380000Y-107700000D01*
G36*
X119370000Y-106750000D02*
G01*
X114930000Y-106750000D01*
X114930000Y-103250000D01*
X119370000Y-103250000D01*
X119370000Y-106750000D01*
G37*
X119370000Y-106750000D02*
X114930000Y-106750000D01*
X114930000Y-103250000D01*
X119370000Y-103250000D01*
X119370000Y-106750000D01*
%TO.C,J6*%
G36*
X172760000Y-130200000D02*
G01*
X168320000Y-130200000D01*
X168320000Y-124800000D01*
X172760000Y-124800000D01*
X172760000Y-130200000D01*
G37*
X172760000Y-130200000D02*
X168320000Y-130200000D01*
X168320000Y-124800000D01*
X172760000Y-124800000D01*
X172760000Y-130200000D01*
G36*
X188770000Y-129250000D02*
G01*
X184330000Y-129250000D01*
X184330000Y-125750000D01*
X188770000Y-125750000D01*
X188770000Y-129250000D01*
G37*
X188770000Y-129250000D02*
X184330000Y-129250000D01*
X184330000Y-125750000D01*
X188770000Y-125750000D01*
X188770000Y-129250000D01*
%TO.C,J5*%
G36*
X135380000Y-130200000D02*
G01*
X130940000Y-130200000D01*
X130940000Y-124800000D01*
X135380000Y-124800000D01*
X135380000Y-130200000D01*
G37*
X135380000Y-130200000D02*
X130940000Y-130200000D01*
X130940000Y-124800000D01*
X135380000Y-124800000D01*
X135380000Y-130200000D01*
G36*
X119370000Y-129250000D02*
G01*
X114930000Y-129250000D01*
X114930000Y-125750000D01*
X119370000Y-125750000D01*
X119370000Y-129250000D01*
G37*
X119370000Y-129250000D02*
X114930000Y-129250000D01*
X114930000Y-125750000D01*
X119370000Y-125750000D01*
X119370000Y-129250000D01*
%TO.C,J4*%
G36*
X172760000Y-107700000D02*
G01*
X168320000Y-107700000D01*
X168320000Y-102300000D01*
X172760000Y-102300000D01*
X172760000Y-107700000D01*
G37*
X172760000Y-107700000D02*
X168320000Y-107700000D01*
X168320000Y-102300000D01*
X172760000Y-102300000D01*
X172760000Y-107700000D01*
G36*
X188770000Y-106750000D02*
G01*
X184330000Y-106750000D01*
X184330000Y-103250000D01*
X188770000Y-103250000D01*
X188770000Y-106750000D01*
G37*
X188770000Y-106750000D02*
X184330000Y-106750000D01*
X184330000Y-103250000D01*
X188770000Y-103250000D01*
X188770000Y-106750000D01*
%TD*%
D11*
%TO.C,J11*%
X170100000Y-52790000D03*
D12*
X170100000Y-50250000D03*
D13*
X167560000Y-52790000D03*
D12*
X167560000Y-50250000D03*
%TD*%
D11*
%TO.C,J12*%
X156585000Y-52790000D03*
D12*
X156585000Y-50250000D03*
D13*
X154045000Y-52790000D03*
D12*
X154045000Y-50250000D03*
%TD*%
D11*
%TO.C,J2*%
X155545000Y-71316250D03*
D13*
X158085000Y-71316250D03*
X160625000Y-71316250D03*
X163165000Y-71316250D03*
%TD*%
D11*
%TO.C,J15*%
X156585000Y-59290000D03*
D12*
X156585000Y-56750000D03*
D13*
X154045000Y-59290000D03*
D12*
X154045000Y-56750000D03*
%TD*%
D11*
%TO.C,J8*%
X191286300Y-90928977D03*
D13*
X188746300Y-90928977D03*
X186206300Y-90928977D03*
%TD*%
D11*
%TO.C,J1*%
X113382500Y-66510000D03*
D13*
X115922500Y-66510000D03*
X118462500Y-66510000D03*
X121002500Y-66510000D03*
%TD*%
D11*
%TO.C,J13*%
X143155000Y-52790000D03*
D12*
X143155000Y-50250000D03*
D13*
X140615000Y-52790000D03*
D12*
X140615000Y-50250000D03*
%TD*%
D11*
%TO.C,J7*%
X145930000Y-90000000D03*
D13*
X143390000Y-90000000D03*
X140850000Y-90000000D03*
%TD*%
D11*
%TO.C,J9*%
X178610000Y-53000000D03*
D13*
X181150000Y-53000000D03*
%TD*%
D11*
%TO.C,J14*%
X143155000Y-59290000D03*
D12*
X143155000Y-56750000D03*
D13*
X140615000Y-59290000D03*
D12*
X140615000Y-56750000D03*
%TD*%
D11*
%TO.C,J10*%
X170100000Y-59290000D03*
D12*
X170100000Y-56750000D03*
D13*
X167560000Y-59290000D03*
D12*
X167560000Y-56750000D03*
%TD*%
M02*
