M48
; DRILL file {KiCad 6.0.11+dfsg-1} date Wed 03 May 2023 09:30:57 PM CDT
; FORMAT={-:-/ absolute / metric / decimal}
; #@! TF.CreationDate,2023-05-03T21:30:57-05:00
; #@! TF.GenerationSoftware,Kicad,Pcbnew,6.0.11+dfsg-1
; #@! TF.FileFunction,Plated,1,2,PTH
FMAT,2
METRIC
; #@! TA.AperFunction,Plated,PTH,ViaDrill
T1C0.400
; #@! TA.AperFunction,Plated,PTH,ComponentDrill
T2C1.000
; #@! TA.AperFunction,Plated,PTH,ComponentDrill
T3C1.850
; #@! TA.AperFunction,Plated,PTH,ComponentDrill
T4C4.200
%
G90
G05
T1
X111.242Y-82.56
X113.992Y-72.56
X113.992Y-83.31
X115.992Y-85.81
X116.492Y-75.31
X120.442Y-76.36
X120.492Y-74.56
X120.492Y-86.81
X121.742Y-74.56
X121.742Y-76.31
X121.995Y-79.312
X125.35Y-70.5
X125.992Y-78.31
X126.992Y-62.81
X126.992Y-69.31
X126.992Y-79.31
X129.993Y-69.31
X130.995Y-87.05
X131.493Y-61.81
X134.85Y-72.0
X140.202Y-84.786
X142.715Y-77.241
X146.515Y-84.841
X146.715Y-77.241
X147.715Y-70.241
X150.1Y-71.0
X151.9Y-127.5
X152.447Y-104.5
X153.1Y-127.5
X153.748Y-104.5
X154.405Y-87.366
X157.405Y-78.616
X157.405Y-87.866
X158.955Y-79.516
X159.355Y-89.716
X162.905Y-91.616
X163.205Y-79.166
X163.205Y-81.066
X164.305Y-79.166
X164.305Y-81.066
X164.655Y-83.616
X167.6Y-73.75
X168.155Y-82.916
X168.755Y-83.716
X169.132Y-67.366
X169.405Y-72.616
X171.405Y-72.616
X173.905Y-65.366
X173.905Y-92.619
X178.35Y-55.25
X178.85Y-73.5
X183.95Y-83.35
X186.6Y-76.0
X190.35Y-76.0
X190.35Y-83.25
X191.49Y-69.1
T2
X113.382Y-66.51
X115.922Y-66.51
X118.462Y-66.51
X121.002Y-66.51
X140.615Y-50.25
X140.615Y-52.79
X140.615Y-56.75
X140.615Y-59.29
X140.85Y-90.0
X143.155Y-50.25
X143.155Y-52.79
X143.155Y-56.75
X143.155Y-59.29
X143.39Y-90.0
X145.93Y-90.0
X154.045Y-50.25
X154.045Y-52.79
X154.045Y-56.75
X154.045Y-59.29
X155.545Y-71.316
X156.585Y-50.25
X156.585Y-52.79
X156.585Y-56.75
X156.585Y-59.29
X158.085Y-71.316
X160.625Y-71.316
X163.165Y-71.316
X167.56Y-50.25
X167.56Y-52.79
X167.56Y-56.75
X167.56Y-59.29
X170.1Y-50.25
X170.1Y-52.79
X170.1Y-56.75
X170.1Y-59.29
X178.61Y-53.0
X181.15Y-53.0
X186.206Y-90.929
X188.746Y-90.929
X191.286Y-90.929
T3
X117.35Y-105.0
X117.35Y-127.5
X133.35Y-105.0
X133.35Y-127.5
X170.35Y-105.0
X170.35Y-127.5
X186.35Y-105.0
X186.35Y-127.5
T4
X111.5Y-50.5
X111.5Y-136.5
X191.5Y-50.5
X191.5Y-136.5
T0
M30
