M48
; DRILL file {KiCad 6.0.7} date Mon 21 Nov 2022 09:52:06 PM CST
; FORMAT={-:-/ absolute / metric / decimal}
; #@! TF.CreationDate,2022-11-21T21:52:06-06:00
; #@! TF.GenerationSoftware,Kicad,Pcbnew,6.0.7
; #@! TF.FileFunction,Plated,1,2,PTH
FMAT,2
METRIC
; #@! TA.AperFunction,Plated,PTH,ViaDrill
T1C0.400
; #@! TA.AperFunction,Plated,PTH,ComponentDrill
T2C1.000
; #@! TA.AperFunction,Plated,PTH,ComponentDrill
T3C1.850
; #@! TA.AperFunction,Plated,PTH,ComponentDrill
T4C4.300
%
G90
G05
T1
X112.237Y-63.45
X112.4Y-65.037
X113.825Y-61.287
X113.825Y-67.287
X114.325Y-57.287
X115.65Y-63.787
X115.65Y-64.787
X115.825Y-67.287
X116.65Y-63.787
X116.65Y-64.787
X117.325Y-61.287
X117.65Y-63.787
X117.65Y-64.787
X118.325Y-57.925
X118.325Y-59.787
X119.825Y-57.787
X120.825Y-67.787
X121.337Y-57.938
X121.337Y-59.662
X121.605Y-69.332
X122.737Y-52.95
X123.325Y-63.787
X123.935Y-85.089
X124.4Y-65.0
X124.9Y-68.1
X125.885Y-68.875
X128.65Y-78.01
X128.725Y-73.035
X128.9Y-70.623
X129.925Y-73.035
X132.9Y-50.0
X132.9Y-56.5
X134.4Y-70.51
X135.035Y-78.0
X135.15Y-62.0
X135.4Y-50.0
X135.4Y-56.5
X137.9Y-50.0
X137.9Y-56.5
X142.9Y-82.362
X144.452Y-74.0
X144.539Y-72.0
X145.327Y-69.375
X146.4Y-50.0
X146.452Y-70.5
X146.452Y-78.388
X146.452Y-80.112
X146.7Y-56.5
X147.952Y-80.112
X148.4Y-81.5
X148.9Y-50.0
X149.1Y-56.5
X149.452Y-78.388
X149.952Y-73.75
X149.952Y-74.75
X149.952Y-77.25
X150.952Y-73.75
X150.952Y-74.75
X151.5Y-49.9
X151.7Y-56.5
X151.8Y-112.4
X151.8Y-129.5
X151.952Y-73.75
X151.952Y-74.75
X152.8Y-95.0
X152.952Y-71.25
X153.0Y-112.5
X153.0Y-129.5
X153.452Y-69.75
X153.452Y-80.75
X154.0Y-95.0
X155.452Y-72.888
X155.452Y-74.75
X156.9Y-81.5
X160.1Y-49.9
X160.1Y-56.5
X161.4Y-69.525
X161.4Y-74.475
X161.575Y-67.112
X162.5Y-49.9
X162.5Y-56.5
X162.67Y-69.525
X165.1Y-56.5
X165.3Y-49.9
X167.825Y-74.5
X169.075Y-65.25
X177.161Y-59.0
X177.249Y-57.0
X177.661Y-70.25
X178.244Y-53.818
X179.161Y-55.25
X179.161Y-63.137
X179.161Y-64.862
X179.205Y-73.385
X179.205Y-79.885
X180.661Y-64.862
X182.161Y-63.137
X182.661Y-58.25
X182.661Y-59.25
X182.911Y-61.75
X183.661Y-58.25
X183.661Y-59.25
X184.135Y-73.46
X184.135Y-74.73
X184.661Y-58.25
X184.661Y-59.25
X185.661Y-54.5
X185.911Y-55.75
X186.161Y-65.5
X186.535Y-73.61
X187.911Y-57.887
X187.911Y-59.5
X188.335Y-81.11
X188.4Y-70.5
T2
X111.4Y-78.0
X111.4Y-80.54
X111.4Y-83.08
X119.6Y-49.475
X122.14Y-49.475
X124.68Y-49.475
X127.22Y-49.475
X128.48Y-81.525
X131.02Y-81.525
X133.56Y-81.525
X133.64Y-51.25
X133.64Y-53.79
X133.64Y-57.75
X133.64Y-60.29
X136.18Y-51.25
X136.18Y-53.79
X136.18Y-57.75
X136.18Y-60.29
X138.72Y-51.25
X138.72Y-53.79
X138.72Y-57.75
X138.72Y-60.29
X141.177Y-72.43
X141.177Y-74.97
X141.177Y-77.51
X141.177Y-80.05
X147.07Y-51.25
X147.07Y-53.79
X147.07Y-57.75
X147.07Y-60.29
X149.61Y-51.25
X149.61Y-53.79
X149.61Y-57.75
X149.61Y-60.29
X152.15Y-51.25
X152.15Y-53.79
X152.15Y-57.75
X152.15Y-60.29
X160.585Y-51.25
X160.585Y-53.79
X160.585Y-57.75
X160.585Y-60.29
X161.245Y-78.025
X163.125Y-51.25
X163.125Y-53.79
X163.125Y-57.75
X163.125Y-60.29
X163.785Y-78.025
X165.665Y-51.25
X165.665Y-53.79
X165.665Y-57.75
X165.665Y-60.29
X166.325Y-78.025
X174.161Y-58.18
X174.161Y-60.72
X174.161Y-63.26
X174.161Y-65.8
X175.66Y-73.155
X175.66Y-75.695
X175.66Y-78.235
T3
X118.4Y-94.5
X118.4Y-112.0
X118.4Y-129.5
X134.4Y-94.5
X134.4Y-112.0
X134.4Y-129.5
X171.4Y-94.5
X171.4Y-112.0
X171.4Y-129.5
X187.4Y-94.5
X187.4Y-112.0
X187.4Y-129.5
T4
X111.9Y-50.5
X111.9Y-136.5
X191.9Y-50.5
X191.9Y-136.5
T0
M30
