%TF.GenerationSoftware,KiCad,Pcbnew,6.0.11+dfsg-1*%
%TF.CreationDate,2023-05-03T21:30:59-05:00*%
%TF.ProjectId,CubesatPwrBoard,43756265-7361-4745-9077-72426f617264,rev?*%
%TF.SameCoordinates,Original*%
%TF.FileFunction,Drillmap*%
%TF.FilePolarity,Positive*%
%FSLAX45Y45*%
G04 Gerber Fmt 4.5, Leading zero omitted, Abs format (unit mm)*
G04 Created by KiCad (PCBNEW 6.0.11+dfsg-1) date 2023-05-03 21:30:59*
%MOMM*%
%LPD*%
G01*
G04 APERTURE LIST*
%ADD10C,0.050000*%
%ADD11C,0.200000*%
G04 APERTURE END LIST*
D10*
X10650000Y-13950000D02*
X10650000Y-4800000D01*
X19450000Y-14150000D02*
G75*
G03*
X19650000Y-13950000I0J200000D01*
G01*
X10900000Y-4550000D02*
X19450000Y-4550000D01*
X19650000Y-4750000D02*
G75*
G03*
X19450000Y-4550000I-200000J0D01*
G01*
X10850000Y-14150000D02*
X19450000Y-14150000D01*
X10650000Y-13950000D02*
G75*
G03*
X10850000Y-14150000I200000J0D01*
G01*
X10900000Y-4550000D02*
G75*
G03*
X10650000Y-4800000I0J-250000D01*
G01*
X19650000Y-13950000D02*
X19650000Y-4750000D01*
D11*
X10905119Y-14462976D02*
X10905119Y-14262976D01*
X10952738Y-14262976D01*
X10981310Y-14272500D01*
X11000357Y-14291548D01*
X11009881Y-14310595D01*
X11019405Y-14348690D01*
X11019405Y-14377262D01*
X11009881Y-14415357D01*
X11000357Y-14434405D01*
X10981310Y-14453452D01*
X10952738Y-14462976D01*
X10905119Y-14462976D01*
X11105119Y-14462976D02*
X11105119Y-14329643D01*
X11105119Y-14367738D02*
X11114643Y-14348690D01*
X11124167Y-14339167D01*
X11143214Y-14329643D01*
X11162262Y-14329643D01*
X11228928Y-14462976D02*
X11228928Y-14329643D01*
X11228928Y-14262976D02*
X11219405Y-14272500D01*
X11228928Y-14282024D01*
X11238452Y-14272500D01*
X11228928Y-14262976D01*
X11228928Y-14282024D01*
X11352738Y-14462976D02*
X11333690Y-14453452D01*
X11324167Y-14434405D01*
X11324167Y-14262976D01*
X11457500Y-14462976D02*
X11438452Y-14453452D01*
X11428928Y-14434405D01*
X11428928Y-14262976D01*
X11686071Y-14462976D02*
X11686071Y-14262976D01*
X11752738Y-14405833D01*
X11819405Y-14262976D01*
X11819405Y-14462976D01*
X12000357Y-14462976D02*
X12000357Y-14358214D01*
X11990833Y-14339167D01*
X11971786Y-14329643D01*
X11933690Y-14329643D01*
X11914643Y-14339167D01*
X12000357Y-14453452D02*
X11981309Y-14462976D01*
X11933690Y-14462976D01*
X11914643Y-14453452D01*
X11905119Y-14434405D01*
X11905119Y-14415357D01*
X11914643Y-14396309D01*
X11933690Y-14386786D01*
X11981309Y-14386786D01*
X12000357Y-14377262D01*
X12095595Y-14329643D02*
X12095595Y-14529643D01*
X12095595Y-14339167D02*
X12114643Y-14329643D01*
X12152738Y-14329643D01*
X12171786Y-14339167D01*
X12181309Y-14348690D01*
X12190833Y-14367738D01*
X12190833Y-14424881D01*
X12181309Y-14443928D01*
X12171786Y-14453452D01*
X12152738Y-14462976D01*
X12114643Y-14462976D01*
X12095595Y-14453452D01*
X12276548Y-14443928D02*
X12286071Y-14453452D01*
X12276548Y-14462976D01*
X12267024Y-14453452D01*
X12276548Y-14443928D01*
X12276548Y-14462976D01*
X12276548Y-14339167D02*
X12286071Y-14348690D01*
X12276548Y-14358214D01*
X12267024Y-14348690D01*
X12276548Y-14339167D01*
X12276548Y-14358214D01*
M02*
