%TF.GenerationSoftware,KiCad,Pcbnew,6.0.7*%
%TF.CreationDate,2022-11-21T21:51:02-06:00*%
%TF.ProjectId,CubesatPwrBoard,43756265-7361-4745-9077-72426f617264,rev?*%
%TF.SameCoordinates,Original*%
%TF.FileFunction,Soldermask,Top*%
%TF.FilePolarity,Negative*%
%FSLAX46Y46*%
G04 Gerber Fmt 4.6, Leading zero omitted, Abs format (unit mm)*
G04 Created by KiCad (PCBNEW 6.0.7) date 2022-11-21 21:51:02*
%MOMM*%
%LPD*%
G01*
G04 APERTURE LIST*
G04 Aperture macros list*
%AMRoundRect*
0 Rectangle with rounded corners*
0 $1 Rounding radius*
0 $2 $3 $4 $5 $6 $7 $8 $9 X,Y pos of 4 corners*
0 Add a 4 corners polygon primitive as box body*
4,1,4,$2,$3,$4,$5,$6,$7,$8,$9,$2,$3,0*
0 Add four circle primitives for the rounded corners*
1,1,$1+$1,$2,$3*
1,1,$1+$1,$4,$5*
1,1,$1+$1,$6,$7*
1,1,$1+$1,$8,$9*
0 Add four rect primitives between the rounded corners*
20,1,$1+$1,$2,$3,$4,$5,0*
20,1,$1+$1,$4,$5,$6,$7,0*
20,1,$1+$1,$6,$7,$8,$9,0*
20,1,$1+$1,$8,$9,$2,$3,0*%
G04 Aperture macros list end*
%ADD10C,0.010000*%
%ADD11RoundRect,0.237500X-0.237500X0.300000X-0.237500X-0.300000X0.237500X-0.300000X0.237500X0.300000X0*%
%ADD12RoundRect,0.237500X0.237500X-0.300000X0.237500X0.300000X-0.237500X0.300000X-0.237500X-0.300000X0*%
%ADD13R,1.700000X1.700000*%
%ADD14O,1.700000X1.700000*%
%ADD15R,1.000000X1.400000*%
%ADD16C,7.500000*%
%ADD17RoundRect,0.237500X-0.237500X0.287500X-0.237500X-0.287500X0.237500X-0.287500X0.237500X0.287500X0*%
%ADD18RoundRect,0.237500X0.237500X-0.250000X0.237500X0.250000X-0.237500X0.250000X-0.237500X-0.250000X0*%
%ADD19RoundRect,0.237500X-0.237500X0.250000X-0.237500X-0.250000X0.237500X-0.250000X0.237500X0.250000X0*%
%ADD20RoundRect,0.237500X0.300000X0.237500X-0.300000X0.237500X-0.300000X-0.237500X0.300000X-0.237500X0*%
%ADD21R,1.270000X0.750000*%
%ADD22RoundRect,0.041300X0.253700X-0.943700X0.253700X0.943700X-0.253700X0.943700X-0.253700X-0.943700X0*%
%ADD23RoundRect,0.237500X-0.250000X-0.237500X0.250000X-0.237500X0.250000X0.237500X-0.250000X0.237500X0*%
%ADD24RoundRect,0.237500X-0.300000X-0.237500X0.300000X-0.237500X0.300000X0.237500X-0.300000X0.237500X0*%
%ADD25RoundRect,0.237500X0.250000X0.237500X-0.250000X0.237500X-0.250000X-0.237500X0.250000X-0.237500X0*%
%ADD26RoundRect,0.018900X-0.116100X0.411100X-0.116100X-0.411100X0.116100X-0.411100X0.116100X0.411100X0*%
%ADD27RoundRect,0.018900X-0.411100X-0.116100X0.411100X-0.116100X0.411100X0.116100X-0.411100X0.116100X0*%
%ADD28RoundRect,0.018900X0.116100X-0.411100X0.116100X0.411100X-0.116100X0.411100X-0.116100X-0.411100X0*%
%ADD29RoundRect,0.018900X0.411100X0.116100X-0.411100X0.116100X-0.411100X-0.116100X0.411100X-0.116100X0*%
%ADD30R,3.650000X2.650000*%
%ADD31R,0.900000X0.800000*%
%ADD32RoundRect,0.160000X-0.197500X-0.160000X0.197500X-0.160000X0.197500X0.160000X-0.197500X0.160000X0*%
%ADD33RoundRect,0.041300X-0.943700X-0.253700X0.943700X-0.253700X0.943700X0.253700X-0.943700X0.253700X0*%
%ADD34RoundRect,0.237500X0.287500X0.237500X-0.287500X0.237500X-0.287500X-0.237500X0.287500X-0.237500X0*%
%ADD35RoundRect,0.237500X0.237500X-0.287500X0.237500X0.287500X-0.237500X0.287500X-0.237500X-0.287500X0*%
%ADD36R,0.800000X0.900000*%
G04 APERTURE END LIST*
%TO.C,BT4*%
G36*
X189820000Y-113750000D02*
G01*
X185380000Y-113750000D01*
X185380000Y-110250000D01*
X189820000Y-110250000D01*
X189820000Y-113750000D01*
G37*
D10*
X189820000Y-113750000D02*
X185380000Y-113750000D01*
X185380000Y-110250000D01*
X189820000Y-110250000D01*
X189820000Y-113750000D01*
G36*
X173810000Y-114700000D02*
G01*
X169370000Y-114700000D01*
X169370000Y-109300000D01*
X173810000Y-109300000D01*
X173810000Y-114700000D01*
G37*
X173810000Y-114700000D02*
X169370000Y-114700000D01*
X169370000Y-109300000D01*
X173810000Y-109300000D01*
X173810000Y-114700000D01*
%TO.C,Q3*%
G36*
X184566250Y-49070000D02*
G01*
X183856250Y-49070000D01*
X183856250Y-49390000D01*
X184566250Y-49390000D01*
X184566250Y-50340000D01*
X183856250Y-50340000D01*
X183856250Y-50660000D01*
X184566250Y-50660000D01*
X184566250Y-51610000D01*
X183856250Y-51610000D01*
X183856250Y-51930000D01*
X184566250Y-51930000D01*
X184566250Y-52880000D01*
X183346250Y-52880000D01*
X183346250Y-52555000D01*
X179846250Y-52555000D01*
X179846250Y-48445000D01*
X183346250Y-48445000D01*
X183346250Y-48120000D01*
X184566250Y-48120000D01*
X184566250Y-49070000D01*
G37*
X184566250Y-49070000D02*
X183856250Y-49070000D01*
X183856250Y-49390000D01*
X184566250Y-49390000D01*
X184566250Y-50340000D01*
X183856250Y-50340000D01*
X183856250Y-50660000D01*
X184566250Y-50660000D01*
X184566250Y-51610000D01*
X183856250Y-51610000D01*
X183856250Y-51930000D01*
X184566250Y-51930000D01*
X184566250Y-52880000D01*
X183346250Y-52880000D01*
X183346250Y-52555000D01*
X179846250Y-52555000D01*
X179846250Y-48445000D01*
X183346250Y-48445000D01*
X183346250Y-48120000D01*
X184566250Y-48120000D01*
X184566250Y-49070000D01*
%TO.C,BT6*%
G36*
X189820000Y-131250000D02*
G01*
X185380000Y-131250000D01*
X185380000Y-127750000D01*
X189820000Y-127750000D01*
X189820000Y-131250000D01*
G37*
X189820000Y-131250000D02*
X185380000Y-131250000D01*
X185380000Y-127750000D01*
X189820000Y-127750000D01*
X189820000Y-131250000D01*
G36*
X173810000Y-132200000D02*
G01*
X169370000Y-132200000D01*
X169370000Y-126800000D01*
X173810000Y-126800000D01*
X173810000Y-132200000D01*
G37*
X173810000Y-132200000D02*
X169370000Y-132200000D01*
X169370000Y-126800000D01*
X173810000Y-126800000D01*
X173810000Y-132200000D01*
%TO.C,BT5*%
G36*
X120420000Y-131250000D02*
G01*
X115980000Y-131250000D01*
X115980000Y-127750000D01*
X120420000Y-127750000D01*
X120420000Y-131250000D01*
G37*
X120420000Y-131250000D02*
X115980000Y-131250000D01*
X115980000Y-127750000D01*
X120420000Y-127750000D01*
X120420000Y-131250000D01*
G36*
X136430000Y-132200000D02*
G01*
X131990000Y-132200000D01*
X131990000Y-126800000D01*
X136430000Y-126800000D01*
X136430000Y-132200000D01*
G37*
X136430000Y-132200000D02*
X131990000Y-132200000D01*
X131990000Y-126800000D01*
X136430000Y-126800000D01*
X136430000Y-132200000D01*
%TO.C,BT3*%
G36*
X120420000Y-113750000D02*
G01*
X115980000Y-113750000D01*
X115980000Y-110250000D01*
X120420000Y-110250000D01*
X120420000Y-113750000D01*
G37*
X120420000Y-113750000D02*
X115980000Y-113750000D01*
X115980000Y-110250000D01*
X120420000Y-110250000D01*
X120420000Y-113750000D01*
G36*
X136430000Y-114700000D02*
G01*
X131990000Y-114700000D01*
X131990000Y-109300000D01*
X136430000Y-109300000D01*
X136430000Y-114700000D01*
G37*
X136430000Y-114700000D02*
X131990000Y-114700000D01*
X131990000Y-109300000D01*
X136430000Y-109300000D01*
X136430000Y-114700000D01*
%TO.C,Q1*%
G36*
X116640000Y-70732500D02*
G01*
X120140000Y-70732500D01*
X120140000Y-74842500D01*
X116640000Y-74842500D01*
X116640000Y-75167500D01*
X115420000Y-75167500D01*
X115420000Y-74217500D01*
X116130000Y-74217500D01*
X116130000Y-73897500D01*
X115420000Y-73897500D01*
X115420000Y-72947500D01*
X116130000Y-72947500D01*
X116130000Y-72627500D01*
X115420000Y-72627500D01*
X115420000Y-71677500D01*
X116130000Y-71677500D01*
X116130000Y-71357500D01*
X115420000Y-71357500D01*
X115420000Y-70407500D01*
X116640000Y-70407500D01*
X116640000Y-70732500D01*
G37*
X116640000Y-70732500D02*
X120140000Y-70732500D01*
X120140000Y-74842500D01*
X116640000Y-74842500D01*
X116640000Y-75167500D01*
X115420000Y-75167500D01*
X115420000Y-74217500D01*
X116130000Y-74217500D01*
X116130000Y-73897500D01*
X115420000Y-73897500D01*
X115420000Y-72947500D01*
X116130000Y-72947500D01*
X116130000Y-72627500D01*
X115420000Y-72627500D01*
X115420000Y-71677500D01*
X116130000Y-71677500D01*
X116130000Y-71357500D01*
X115420000Y-71357500D01*
X115420000Y-70407500D01*
X116640000Y-70407500D01*
X116640000Y-70732500D01*
%TO.C,BT1*%
G36*
X120420000Y-96250000D02*
G01*
X115980000Y-96250000D01*
X115980000Y-92750000D01*
X120420000Y-92750000D01*
X120420000Y-96250000D01*
G37*
X120420000Y-96250000D02*
X115980000Y-96250000D01*
X115980000Y-92750000D01*
X120420000Y-92750000D01*
X120420000Y-96250000D01*
G36*
X136430000Y-97200000D02*
G01*
X131990000Y-97200000D01*
X131990000Y-91800000D01*
X136430000Y-91800000D01*
X136430000Y-97200000D01*
G37*
X136430000Y-97200000D02*
X131990000Y-97200000D01*
X131990000Y-91800000D01*
X136430000Y-91800000D01*
X136430000Y-97200000D01*
%TO.C,Q5*%
G36*
X151606554Y-64570000D02*
G01*
X150896554Y-64570000D01*
X150896554Y-64890000D01*
X151606554Y-64890000D01*
X151606554Y-65840000D01*
X150896554Y-65840000D01*
X150896554Y-66160000D01*
X151606554Y-66160000D01*
X151606554Y-67110000D01*
X150896554Y-67110000D01*
X150896554Y-67430000D01*
X151606554Y-67430000D01*
X151606554Y-68380000D01*
X150386554Y-68380000D01*
X150386554Y-68055000D01*
X146886554Y-68055000D01*
X146886554Y-63945000D01*
X150386554Y-63945000D01*
X150386554Y-63620000D01*
X151606554Y-63620000D01*
X151606554Y-64570000D01*
G37*
X151606554Y-64570000D02*
X150896554Y-64570000D01*
X150896554Y-64890000D01*
X151606554Y-64890000D01*
X151606554Y-65840000D01*
X150896554Y-65840000D01*
X150896554Y-66160000D01*
X151606554Y-66160000D01*
X151606554Y-67110000D01*
X150896554Y-67110000D01*
X150896554Y-67430000D01*
X151606554Y-67430000D01*
X151606554Y-68380000D01*
X150386554Y-68380000D01*
X150386554Y-68055000D01*
X146886554Y-68055000D01*
X146886554Y-63945000D01*
X150386554Y-63945000D01*
X150386554Y-63620000D01*
X151606554Y-63620000D01*
X151606554Y-64570000D01*
%TO.C,BT2*%
G36*
X173810000Y-97200000D02*
G01*
X169370000Y-97200000D01*
X169370000Y-91800000D01*
X173810000Y-91800000D01*
X173810000Y-97200000D01*
G37*
X173810000Y-97200000D02*
X169370000Y-97200000D01*
X169370000Y-91800000D01*
X173810000Y-91800000D01*
X173810000Y-97200000D01*
G36*
X189820000Y-96250000D02*
G01*
X185380000Y-96250000D01*
X185380000Y-92750000D01*
X189820000Y-92750000D01*
X189820000Y-96250000D01*
G37*
X189820000Y-96250000D02*
X185380000Y-96250000D01*
X185380000Y-92750000D01*
X189820000Y-92750000D01*
X189820000Y-96250000D01*
%TD*%
D11*
%TO.C,C14*%
X187911250Y-57887500D03*
X187911250Y-59612500D03*
%TD*%
%TO.C,C2*%
X121337500Y-57937500D03*
X121337500Y-59662500D03*
%TD*%
D12*
%TO.C,C9*%
X179161250Y-64862500D03*
X179161250Y-63137500D03*
%TD*%
D13*
%TO.C,J11*%
X165665000Y-53790000D03*
D14*
X165665000Y-51250000D03*
X163125000Y-53790000D03*
X163125000Y-51250000D03*
X160585000Y-53790000D03*
X160585000Y-51250000D03*
%TD*%
D13*
%TO.C,J12*%
X152150000Y-53790000D03*
D14*
X152150000Y-51250000D03*
X149610000Y-53790000D03*
X149610000Y-51250000D03*
X147070000Y-53790000D03*
X147070000Y-51250000D03*
%TD*%
D11*
%TO.C,C19*%
X156951554Y-72887500D03*
X156951554Y-74612500D03*
%TD*%
D15*
%TO.C,Q2*%
X113375000Y-59387500D03*
X115275000Y-59387500D03*
X114325000Y-57187500D03*
%TD*%
D12*
%TO.C,C4*%
X119825000Y-59650000D03*
X119825000Y-57925000D03*
%TD*%
D11*
%TO.C,C21*%
X155451554Y-72887500D03*
X155451554Y-74612500D03*
%TD*%
D16*
%TO.C,H2*%
X111900000Y-136500000D03*
%TD*%
D13*
%TO.C,J5*%
X111400000Y-78000000D03*
D14*
X111400000Y-80540000D03*
X111400000Y-83080000D03*
%TD*%
D11*
%TO.C,C11*%
X180661250Y-63137500D03*
X180661250Y-64862500D03*
%TD*%
D12*
%TO.C,C20*%
X149451554Y-80112500D03*
X149451554Y-78387500D03*
%TD*%
D16*
%TO.C,H1*%
X191900000Y-136500000D03*
%TD*%
D17*
%TO.C,L5*%
X125885000Y-68875000D03*
X125885000Y-70625000D03*
%TD*%
D13*
%TO.C,J15*%
X152150000Y-60290000D03*
D14*
X152150000Y-57750000D03*
X149610000Y-60290000D03*
X149610000Y-57750000D03*
X147070000Y-60290000D03*
X147070000Y-57750000D03*
%TD*%
D18*
%TO.C,R11*%
X144951554Y-80162500D03*
X144951554Y-78337500D03*
%TD*%
D16*
%TO.C,H3*%
X111900000Y-50500000D03*
%TD*%
D11*
%TO.C,C12*%
X189411250Y-57887500D03*
X189411250Y-59612500D03*
%TD*%
D16*
%TO.C,H4*%
X191900000Y-50500000D03*
%TD*%
D19*
%TO.C,R10*%
X183661250Y-63087500D03*
X183661250Y-64912500D03*
%TD*%
D17*
%TO.C,L2*%
X188661250Y-62875000D03*
X188661250Y-64625000D03*
%TD*%
D12*
%TO.C,C1*%
X122737500Y-54562500D03*
X122737500Y-52837500D03*
%TD*%
D20*
%TO.C,C32*%
X188297074Y-73610000D03*
X186572074Y-73610000D03*
%TD*%
D11*
%TO.C,C6*%
X118325000Y-57925000D03*
X118325000Y-59650000D03*
%TD*%
D12*
%TO.C,C16*%
X146451554Y-80112500D03*
X146451554Y-78387500D03*
%TD*%
D21*
%TO.C,Q3*%
X178491250Y-48595000D03*
X178491250Y-49865000D03*
X178491250Y-51135000D03*
X178491250Y-52405000D03*
%TD*%
D22*
%TO.C,U5*%
X127455000Y-77985426D03*
X128725000Y-77985426D03*
X129995000Y-77985426D03*
X131265000Y-77985426D03*
X132535000Y-77985426D03*
X133805000Y-77985426D03*
X135075000Y-77985426D03*
X136345000Y-77985426D03*
X136345000Y-73035426D03*
X135075000Y-73035426D03*
X133805000Y-73035426D03*
X132535000Y-73035426D03*
X131265000Y-73035426D03*
X129995000Y-73035426D03*
X128725000Y-73035426D03*
X127455000Y-73035426D03*
%TD*%
D23*
%TO.C,R14*%
X144539054Y-74000000D03*
X146364054Y-74000000D03*
%TD*%
D24*
%TO.C,C10*%
X179298750Y-55250000D03*
X181023750Y-55250000D03*
%TD*%
D25*
%TO.C,R12*%
X146364054Y-72000000D03*
X144539054Y-72000000D03*
%TD*%
D17*
%TO.C,L3*%
X155951554Y-78375000D03*
X155951554Y-80125000D03*
%TD*%
D25*
%TO.C,R8*%
X185823750Y-54250000D03*
X183998750Y-54250000D03*
%TD*%
D13*
%TO.C,J13*%
X138720000Y-53790000D03*
D14*
X138720000Y-51250000D03*
X136180000Y-53790000D03*
X136180000Y-51250000D03*
X133640000Y-53790000D03*
X133640000Y-51250000D03*
%TD*%
D26*
%TO.C,U3*%
X152701554Y-72315000D03*
X152201554Y-72315000D03*
X151701554Y-72315000D03*
X151201554Y-72315000D03*
X150701554Y-72315000D03*
X150201554Y-72315000D03*
X149701554Y-72315000D03*
X149201554Y-72315000D03*
D27*
X148516554Y-73000000D03*
X148516554Y-73500000D03*
X148516554Y-74000000D03*
X148516554Y-74500000D03*
X148516554Y-75000000D03*
X148516554Y-75500000D03*
D28*
X149201554Y-76185000D03*
X149701554Y-76185000D03*
X150201554Y-76185000D03*
X150701554Y-76185000D03*
X151201554Y-76185000D03*
X151701554Y-76185000D03*
X152201554Y-76185000D03*
X152701554Y-76185000D03*
D29*
X153386554Y-75500000D03*
X153386554Y-75000000D03*
X153386554Y-74500000D03*
X153386554Y-74000000D03*
X153386554Y-73500000D03*
X153386554Y-73000000D03*
D30*
X150951554Y-74250000D03*
%TD*%
D17*
%TO.C,D5*%
X127400000Y-68885426D03*
X127400000Y-70635426D03*
%TD*%
D23*
%TO.C,R2*%
X121412500Y-65787500D03*
X123237500Y-65787500D03*
%TD*%
D15*
%TO.C,Q6*%
X154401554Y-78650000D03*
X152501554Y-78650000D03*
X153451554Y-80850000D03*
%TD*%
D22*
%TO.C,U7*%
X160130000Y-74475000D03*
X161400000Y-74475000D03*
X162670000Y-74475000D03*
X163940000Y-74475000D03*
X165210000Y-74475000D03*
X166480000Y-74475000D03*
X167750000Y-74475000D03*
X169020000Y-74475000D03*
X169020000Y-69525000D03*
X167750000Y-69525000D03*
X166480000Y-69525000D03*
X165210000Y-69525000D03*
X163940000Y-69525000D03*
X162670000Y-69525000D03*
X161400000Y-69525000D03*
X160130000Y-69525000D03*
%TD*%
D31*
%TO.C,D2*%
X134650000Y-65650000D03*
X134650000Y-63350000D03*
%TD*%
D32*
%TO.C,TH1*%
X152802500Y-95000000D03*
X153997500Y-95000000D03*
%TD*%
D26*
%TO.C,U2*%
X185411250Y-56815000D03*
X184911250Y-56815000D03*
X184411250Y-56815000D03*
X183911250Y-56815000D03*
X183411250Y-56815000D03*
X182911250Y-56815000D03*
X182411250Y-56815000D03*
X181911250Y-56815000D03*
D27*
X181226250Y-57500000D03*
X181226250Y-58000000D03*
X181226250Y-58500000D03*
X181226250Y-59000000D03*
X181226250Y-59500000D03*
X181226250Y-60000000D03*
D28*
X181911250Y-60685000D03*
X182411250Y-60685000D03*
X182911250Y-60685000D03*
X183411250Y-60685000D03*
X183911250Y-60685000D03*
X184411250Y-60685000D03*
X184911250Y-60685000D03*
X185411250Y-60685000D03*
D29*
X186096250Y-60000000D03*
X186096250Y-59500000D03*
X186096250Y-59000000D03*
X186096250Y-58500000D03*
X186096250Y-58000000D03*
X186096250Y-57500000D03*
D30*
X183661250Y-58750000D03*
%TD*%
D17*
%TO.C,L7*%
X158575000Y-65375000D03*
X158575000Y-67125000D03*
%TD*%
D19*
%TO.C,R1*%
X122837500Y-57887500D03*
X122837500Y-59712500D03*
%TD*%
D11*
%TO.C,C18*%
X147951554Y-78387500D03*
X147951554Y-80112500D03*
%TD*%
%TO.C,C34*%
X161575000Y-65387500D03*
X161575000Y-67112500D03*
%TD*%
D13*
%TO.C,J7*%
X175659574Y-78235000D03*
D14*
X175659574Y-75695000D03*
X175659574Y-73155000D03*
%TD*%
D20*
%TO.C,C29*%
X136262500Y-70510426D03*
X134537500Y-70510426D03*
%TD*%
D17*
%TO.C,D7*%
X160075000Y-65375000D03*
X160075000Y-67125000D03*
%TD*%
D33*
%TO.C,U6*%
X179184574Y-72190000D03*
X179184574Y-73460000D03*
X179184574Y-74730000D03*
X179184574Y-76000000D03*
X179184574Y-77270000D03*
X179184574Y-78540000D03*
X179184574Y-79810000D03*
X179184574Y-81080000D03*
X184134574Y-81080000D03*
X184134574Y-79810000D03*
X184134574Y-78540000D03*
X184134574Y-77270000D03*
X184134574Y-76000000D03*
X184134574Y-74730000D03*
X184134574Y-73460000D03*
X184134574Y-72190000D03*
%TD*%
D32*
%TO.C,TH2*%
X151802500Y-112500000D03*
X152997500Y-112500000D03*
%TD*%
D12*
%TO.C,C13*%
X182161250Y-64862500D03*
X182161250Y-63137500D03*
%TD*%
%TO.C,C15*%
X142900000Y-84225000D03*
X142900000Y-82500000D03*
%TD*%
D23*
%TO.C,R3*%
X114412500Y-68787500D03*
X116237500Y-68787500D03*
%TD*%
D21*
%TO.C,Q1*%
X121495000Y-74692500D03*
X121495000Y-73422500D03*
X121495000Y-72152500D03*
X121495000Y-70882500D03*
%TD*%
D19*
%TO.C,R15*%
X150951554Y-78337500D03*
X150951554Y-80162500D03*
%TD*%
D12*
%TO.C,C7*%
X112325000Y-65150000D03*
X112325000Y-63425000D03*
%TD*%
D13*
%TO.C,J6*%
X133560000Y-81525000D03*
D14*
X131020000Y-81525000D03*
X128480000Y-81525000D03*
%TD*%
D24*
%TO.C,C31*%
X186572074Y-81110000D03*
X188297074Y-81110000D03*
%TD*%
D13*
%TO.C,J2*%
X174161250Y-65800000D03*
D14*
X174161250Y-63260000D03*
X174161250Y-60720000D03*
X174161250Y-58180000D03*
%TD*%
D13*
%TO.C,J1*%
X119600000Y-49475000D03*
D14*
X122140000Y-49475000D03*
X124680000Y-49475000D03*
X127220000Y-49475000D03*
%TD*%
D13*
%TO.C,J8*%
X166325000Y-78025000D03*
D14*
X163785000Y-78025000D03*
X161245000Y-78025000D03*
%TD*%
D13*
%TO.C,J14*%
X138720000Y-60290000D03*
D14*
X138720000Y-57750000D03*
X136180000Y-60290000D03*
X136180000Y-57750000D03*
X133640000Y-60290000D03*
X133640000Y-57750000D03*
%TD*%
D21*
%TO.C,Q5*%
X145531554Y-64095000D03*
X145531554Y-65365000D03*
X145531554Y-66635000D03*
X145531554Y-67905000D03*
%TD*%
D18*
%TO.C,R6*%
X177661250Y-64912500D03*
X177661250Y-63087500D03*
%TD*%
D11*
%TO.C,C8*%
X177661250Y-68637500D03*
X177661250Y-70362500D03*
%TD*%
%TO.C,C30*%
X128900000Y-68897926D03*
X128900000Y-70622926D03*
%TD*%
D24*
%TO.C,C17*%
X146476554Y-70500000D03*
X148201554Y-70500000D03*
%TD*%
D13*
%TO.C,J3*%
X141176554Y-80050000D03*
D14*
X141176554Y-77510000D03*
X141176554Y-74970000D03*
X141176554Y-72430000D03*
%TD*%
D25*
%TO.C,R13*%
X153364054Y-69750000D03*
X151539054Y-69750000D03*
%TD*%
D34*
%TO.C,D6*%
X188309574Y-72110000D03*
X186559574Y-72110000D03*
%TD*%
D35*
%TO.C,L1*%
X111825000Y-60162500D03*
X111825000Y-58412500D03*
%TD*%
D34*
%TO.C,L6*%
X188309574Y-70610000D03*
X186559574Y-70610000D03*
%TD*%
D23*
%TO.C,R9*%
X177248750Y-59000000D03*
X179073750Y-59000000D03*
%TD*%
D15*
%TO.C,Q4*%
X187111250Y-63150000D03*
X185211250Y-63150000D03*
X186161250Y-65350000D03*
%TD*%
D12*
%TO.C,C33*%
X169075000Y-67112500D03*
X169075000Y-65387500D03*
%TD*%
D20*
%TO.C,C3*%
X120825000Y-67787500D03*
X119100000Y-67787500D03*
%TD*%
D12*
%TO.C,C5*%
X110825000Y-65150000D03*
X110825000Y-63425000D03*
%TD*%
D28*
%TO.C,U1*%
X114825000Y-66157500D03*
X115325000Y-66157500D03*
X115825000Y-66157500D03*
X116325000Y-66157500D03*
X116825000Y-66157500D03*
X117325000Y-66157500D03*
X117825000Y-66157500D03*
X118325000Y-66157500D03*
D29*
X119010000Y-65472500D03*
X119010000Y-64972500D03*
X119010000Y-64472500D03*
X119010000Y-63972500D03*
X119010000Y-63472500D03*
X119010000Y-62972500D03*
D26*
X118325000Y-62287500D03*
X117825000Y-62287500D03*
X117325000Y-62287500D03*
X116825000Y-62287500D03*
X116325000Y-62287500D03*
X115825000Y-62287500D03*
X115325000Y-62287500D03*
X114825000Y-62287500D03*
D27*
X114140000Y-62972500D03*
X114140000Y-63472500D03*
X114140000Y-63972500D03*
X114140000Y-64472500D03*
X114140000Y-64972500D03*
X114140000Y-65472500D03*
D30*
X116575000Y-64222500D03*
%TD*%
D36*
%TO.C,D3*%
X171300000Y-56000000D03*
X169000000Y-56000000D03*
%TD*%
D32*
%TO.C,TH3*%
X151802500Y-129500000D03*
X152997500Y-129500000D03*
%TD*%
D13*
%TO.C,J10*%
X165665000Y-60290000D03*
D14*
X165665000Y-57750000D03*
X163125000Y-60290000D03*
X163125000Y-57750000D03*
X160585000Y-60290000D03*
X160585000Y-57750000D03*
%TD*%
D18*
%TO.C,R5*%
X116825000Y-59700000D03*
X116825000Y-57875000D03*
%TD*%
D31*
%TO.C,D1*%
X128150000Y-59900000D03*
X128150000Y-57600000D03*
%TD*%
D25*
%TO.C,R4*%
X123237500Y-63787500D03*
X121412500Y-63787500D03*
%TD*%
%TO.C,R7*%
X179073750Y-57000000D03*
X177248750Y-57000000D03*
%TD*%
M02*
