%TF.GenerationSoftware,KiCad,Pcbnew,6.0.7*%
%TF.CreationDate,2022-11-21T21:51:01-06:00*%
%TF.ProjectId,CubesatPwrBoard,43756265-7361-4745-9077-72426f617264,rev?*%
%TF.SameCoordinates,Original*%
%TF.FileFunction,Paste,Top*%
%TF.FilePolarity,Positive*%
%FSLAX46Y46*%
G04 Gerber Fmt 4.6, Leading zero omitted, Abs format (unit mm)*
G04 Created by KiCad (PCBNEW 6.0.7) date 2022-11-21 21:51:01*
%MOMM*%
%LPD*%
G01*
G04 APERTURE LIST*
G04 Aperture macros list*
%AMRoundRect*
0 Rectangle with rounded corners*
0 $1 Rounding radius*
0 $2 $3 $4 $5 $6 $7 $8 $9 X,Y pos of 4 corners*
0 Add a 4 corners polygon primitive as box body*
4,1,4,$2,$3,$4,$5,$6,$7,$8,$9,$2,$3,0*
0 Add four circle primitives for the rounded corners*
1,1,$1+$1,$2,$3*
1,1,$1+$1,$4,$5*
1,1,$1+$1,$6,$7*
1,1,$1+$1,$8,$9*
0 Add four rect primitives between the rounded corners*
20,1,$1+$1,$2,$3,$4,$5,0*
20,1,$1+$1,$4,$5,$6,$7,0*
20,1,$1+$1,$6,$7,$8,$9,0*
20,1,$1+$1,$8,$9,$2,$3,0*%
G04 Aperture macros list end*
%ADD10C,0.010000*%
%ADD11RoundRect,0.237500X-0.237500X0.300000X-0.237500X-0.300000X0.237500X-0.300000X0.237500X0.300000X0*%
%ADD12RoundRect,0.237500X0.237500X-0.300000X0.237500X0.300000X-0.237500X0.300000X-0.237500X-0.300000X0*%
%ADD13R,1.000000X1.400000*%
%ADD14RoundRect,0.237500X-0.237500X0.287500X-0.237500X-0.287500X0.237500X-0.287500X0.237500X0.287500X0*%
%ADD15RoundRect,0.237500X0.237500X-0.250000X0.237500X0.250000X-0.237500X0.250000X-0.237500X-0.250000X0*%
%ADD16RoundRect,0.237500X-0.237500X0.250000X-0.237500X-0.250000X0.237500X-0.250000X0.237500X0.250000X0*%
%ADD17RoundRect,0.237500X0.300000X0.237500X-0.300000X0.237500X-0.300000X-0.237500X0.300000X-0.237500X0*%
%ADD18R,1.270000X0.750000*%
%ADD19RoundRect,0.041300X0.253700X-0.943700X0.253700X0.943700X-0.253700X0.943700X-0.253700X-0.943700X0*%
%ADD20RoundRect,0.237500X-0.250000X-0.237500X0.250000X-0.237500X0.250000X0.237500X-0.250000X0.237500X0*%
%ADD21RoundRect,0.237500X-0.300000X-0.237500X0.300000X-0.237500X0.300000X0.237500X-0.300000X0.237500X0*%
%ADD22RoundRect,0.237500X0.250000X0.237500X-0.250000X0.237500X-0.250000X-0.237500X0.250000X-0.237500X0*%
%ADD23RoundRect,0.018900X-0.116100X0.411100X-0.116100X-0.411100X0.116100X-0.411100X0.116100X0.411100X0*%
%ADD24RoundRect,0.018900X-0.411100X-0.116100X0.411100X-0.116100X0.411100X0.116100X-0.411100X0.116100X0*%
%ADD25RoundRect,0.018900X0.116100X-0.411100X0.116100X0.411100X-0.116100X0.411100X-0.116100X-0.411100X0*%
%ADD26RoundRect,0.018900X0.411100X0.116100X-0.411100X0.116100X-0.411100X-0.116100X0.411100X-0.116100X0*%
%ADD27R,0.900000X0.800000*%
%ADD28RoundRect,0.160000X-0.197500X-0.160000X0.197500X-0.160000X0.197500X0.160000X-0.197500X0.160000X0*%
%ADD29RoundRect,0.041300X-0.943700X-0.253700X0.943700X-0.253700X0.943700X0.253700X-0.943700X0.253700X0*%
%ADD30RoundRect,0.237500X0.287500X0.237500X-0.287500X0.237500X-0.287500X-0.237500X0.287500X-0.237500X0*%
%ADD31RoundRect,0.237500X0.237500X-0.287500X0.237500X0.287500X-0.237500X0.287500X-0.237500X-0.287500X0*%
%ADD32R,0.800000X0.900000*%
G04 APERTURE END LIST*
%TO.C,Q3*%
G36*
X184471250Y-48975000D02*
G01*
X183761250Y-48975000D01*
X183761250Y-48215000D01*
X184471250Y-48215000D01*
X184471250Y-48975000D01*
G37*
D10*
X184471250Y-48975000D02*
X183761250Y-48975000D01*
X183761250Y-48215000D01*
X184471250Y-48215000D01*
X184471250Y-48975000D01*
G36*
X181616250Y-50265000D02*
G01*
X180416250Y-50265000D01*
X180416250Y-49015000D01*
X181616250Y-49015000D01*
X181616250Y-50265000D01*
G37*
X181616250Y-50265000D02*
X180416250Y-50265000D01*
X180416250Y-49015000D01*
X181616250Y-49015000D01*
X181616250Y-50265000D01*
G36*
X183286250Y-51985000D02*
G01*
X182086250Y-51985000D01*
X182086250Y-50735000D01*
X183286250Y-50735000D01*
X183286250Y-51985000D01*
G37*
X183286250Y-51985000D02*
X182086250Y-51985000D01*
X182086250Y-50735000D01*
X183286250Y-50735000D01*
X183286250Y-51985000D01*
G36*
X181616250Y-51985000D02*
G01*
X180416250Y-51985000D01*
X180416250Y-50735000D01*
X181616250Y-50735000D01*
X181616250Y-51985000D01*
G37*
X181616250Y-51985000D02*
X180416250Y-51985000D01*
X180416250Y-50735000D01*
X181616250Y-50735000D01*
X181616250Y-51985000D01*
G36*
X184471250Y-52785000D02*
G01*
X183761250Y-52785000D01*
X183761250Y-52025000D01*
X184471250Y-52025000D01*
X184471250Y-52785000D01*
G37*
X184471250Y-52785000D02*
X183761250Y-52785000D01*
X183761250Y-52025000D01*
X184471250Y-52025000D01*
X184471250Y-52785000D01*
G36*
X183286250Y-50265000D02*
G01*
X182086250Y-50265000D01*
X182086250Y-49015000D01*
X183286250Y-49015000D01*
X183286250Y-50265000D01*
G37*
X183286250Y-50265000D02*
X182086250Y-50265000D01*
X182086250Y-49015000D01*
X183286250Y-49015000D01*
X183286250Y-50265000D01*
G36*
X184471250Y-50245000D02*
G01*
X183761250Y-50245000D01*
X183761250Y-49485000D01*
X184471250Y-49485000D01*
X184471250Y-50245000D01*
G37*
X184471250Y-50245000D02*
X183761250Y-50245000D01*
X183761250Y-49485000D01*
X184471250Y-49485000D01*
X184471250Y-50245000D01*
G36*
X184471250Y-51515000D02*
G01*
X183761250Y-51515000D01*
X183761250Y-50755000D01*
X184471250Y-50755000D01*
X184471250Y-51515000D01*
G37*
X184471250Y-51515000D02*
X183761250Y-51515000D01*
X183761250Y-50755000D01*
X184471250Y-50755000D01*
X184471250Y-51515000D01*
%TO.C,U3*%
G36*
X152481554Y-75280000D02*
G01*
X151101554Y-75280000D01*
X151101554Y-74400000D01*
X152481554Y-74400000D01*
X152481554Y-75280000D01*
G37*
X152481554Y-75280000D02*
X151101554Y-75280000D01*
X151101554Y-74400000D01*
X152481554Y-74400000D01*
X152481554Y-75280000D01*
G36*
X152481554Y-74100000D02*
G01*
X151101554Y-74100000D01*
X151101554Y-73220000D01*
X152481554Y-73220000D01*
X152481554Y-74100000D01*
G37*
X152481554Y-74100000D02*
X151101554Y-74100000D01*
X151101554Y-73220000D01*
X152481554Y-73220000D01*
X152481554Y-74100000D01*
G36*
X150801554Y-75280000D02*
G01*
X149421554Y-75280000D01*
X149421554Y-74400000D01*
X150801554Y-74400000D01*
X150801554Y-75280000D01*
G37*
X150801554Y-75280000D02*
X149421554Y-75280000D01*
X149421554Y-74400000D01*
X150801554Y-74400000D01*
X150801554Y-75280000D01*
G36*
X150801554Y-74100000D02*
G01*
X149421554Y-74100000D01*
X149421554Y-73220000D01*
X150801554Y-73220000D01*
X150801554Y-74100000D01*
G37*
X150801554Y-74100000D02*
X149421554Y-74100000D01*
X149421554Y-73220000D01*
X150801554Y-73220000D01*
X150801554Y-74100000D01*
%TO.C,U2*%
G36*
X185191250Y-58600000D02*
G01*
X183811250Y-58600000D01*
X183811250Y-57720000D01*
X185191250Y-57720000D01*
X185191250Y-58600000D01*
G37*
X185191250Y-58600000D02*
X183811250Y-58600000D01*
X183811250Y-57720000D01*
X185191250Y-57720000D01*
X185191250Y-58600000D01*
G36*
X183511250Y-58600000D02*
G01*
X182131250Y-58600000D01*
X182131250Y-57720000D01*
X183511250Y-57720000D01*
X183511250Y-58600000D01*
G37*
X183511250Y-58600000D02*
X182131250Y-58600000D01*
X182131250Y-57720000D01*
X183511250Y-57720000D01*
X183511250Y-58600000D01*
G36*
X183511250Y-59780000D02*
G01*
X182131250Y-59780000D01*
X182131250Y-58900000D01*
X183511250Y-58900000D01*
X183511250Y-59780000D01*
G37*
X183511250Y-59780000D02*
X182131250Y-59780000D01*
X182131250Y-58900000D01*
X183511250Y-58900000D01*
X183511250Y-59780000D01*
G36*
X185191250Y-59780000D02*
G01*
X183811250Y-59780000D01*
X183811250Y-58900000D01*
X185191250Y-58900000D01*
X185191250Y-59780000D01*
G37*
X185191250Y-59780000D02*
X183811250Y-59780000D01*
X183811250Y-58900000D01*
X185191250Y-58900000D01*
X185191250Y-59780000D01*
%TO.C,Q1*%
G36*
X119570000Y-74272500D02*
G01*
X118370000Y-74272500D01*
X118370000Y-73022500D01*
X119570000Y-73022500D01*
X119570000Y-74272500D01*
G37*
X119570000Y-74272500D02*
X118370000Y-74272500D01*
X118370000Y-73022500D01*
X119570000Y-73022500D01*
X119570000Y-74272500D01*
G36*
X117900000Y-74272500D02*
G01*
X116700000Y-74272500D01*
X116700000Y-73022500D01*
X117900000Y-73022500D01*
X117900000Y-74272500D01*
G37*
X117900000Y-74272500D02*
X116700000Y-74272500D01*
X116700000Y-73022500D01*
X117900000Y-73022500D01*
X117900000Y-74272500D01*
G36*
X116225000Y-72532500D02*
G01*
X115515000Y-72532500D01*
X115515000Y-71772500D01*
X116225000Y-71772500D01*
X116225000Y-72532500D01*
G37*
X116225000Y-72532500D02*
X115515000Y-72532500D01*
X115515000Y-71772500D01*
X116225000Y-71772500D01*
X116225000Y-72532500D01*
G36*
X116225000Y-73802500D02*
G01*
X115515000Y-73802500D01*
X115515000Y-73042500D01*
X116225000Y-73042500D01*
X116225000Y-73802500D01*
G37*
X116225000Y-73802500D02*
X115515000Y-73802500D01*
X115515000Y-73042500D01*
X116225000Y-73042500D01*
X116225000Y-73802500D01*
G36*
X116225000Y-71262500D02*
G01*
X115515000Y-71262500D01*
X115515000Y-70502500D01*
X116225000Y-70502500D01*
X116225000Y-71262500D01*
G37*
X116225000Y-71262500D02*
X115515000Y-71262500D01*
X115515000Y-70502500D01*
X116225000Y-70502500D01*
X116225000Y-71262500D01*
G36*
X116225000Y-75072500D02*
G01*
X115515000Y-75072500D01*
X115515000Y-74312500D01*
X116225000Y-74312500D01*
X116225000Y-75072500D01*
G37*
X116225000Y-75072500D02*
X115515000Y-75072500D01*
X115515000Y-74312500D01*
X116225000Y-74312500D01*
X116225000Y-75072500D01*
G36*
X117900000Y-72552500D02*
G01*
X116700000Y-72552500D01*
X116700000Y-71302500D01*
X117900000Y-71302500D01*
X117900000Y-72552500D01*
G37*
X117900000Y-72552500D02*
X116700000Y-72552500D01*
X116700000Y-71302500D01*
X117900000Y-71302500D01*
X117900000Y-72552500D01*
G36*
X119570000Y-72552500D02*
G01*
X118370000Y-72552500D01*
X118370000Y-71302500D01*
X119570000Y-71302500D01*
X119570000Y-72552500D01*
G37*
X119570000Y-72552500D02*
X118370000Y-72552500D01*
X118370000Y-71302500D01*
X119570000Y-71302500D01*
X119570000Y-72552500D01*
%TO.C,Q5*%
G36*
X151511554Y-64475000D02*
G01*
X150801554Y-64475000D01*
X150801554Y-63715000D01*
X151511554Y-63715000D01*
X151511554Y-64475000D01*
G37*
X151511554Y-64475000D02*
X150801554Y-64475000D01*
X150801554Y-63715000D01*
X151511554Y-63715000D01*
X151511554Y-64475000D01*
G36*
X151511554Y-65745000D02*
G01*
X150801554Y-65745000D01*
X150801554Y-64985000D01*
X151511554Y-64985000D01*
X151511554Y-65745000D01*
G37*
X151511554Y-65745000D02*
X150801554Y-65745000D01*
X150801554Y-64985000D01*
X151511554Y-64985000D01*
X151511554Y-65745000D01*
G36*
X151511554Y-68285000D02*
G01*
X150801554Y-68285000D01*
X150801554Y-67525000D01*
X151511554Y-67525000D01*
X151511554Y-68285000D01*
G37*
X151511554Y-68285000D02*
X150801554Y-68285000D01*
X150801554Y-67525000D01*
X151511554Y-67525000D01*
X151511554Y-68285000D01*
G36*
X150326554Y-65765000D02*
G01*
X149126554Y-65765000D01*
X149126554Y-64515000D01*
X150326554Y-64515000D01*
X150326554Y-65765000D01*
G37*
X150326554Y-65765000D02*
X149126554Y-65765000D01*
X149126554Y-64515000D01*
X150326554Y-64515000D01*
X150326554Y-65765000D01*
G36*
X151511554Y-67015000D02*
G01*
X150801554Y-67015000D01*
X150801554Y-66255000D01*
X151511554Y-66255000D01*
X151511554Y-67015000D01*
G37*
X151511554Y-67015000D02*
X150801554Y-67015000D01*
X150801554Y-66255000D01*
X151511554Y-66255000D01*
X151511554Y-67015000D01*
G36*
X148656554Y-65765000D02*
G01*
X147456554Y-65765000D01*
X147456554Y-64515000D01*
X148656554Y-64515000D01*
X148656554Y-65765000D01*
G37*
X148656554Y-65765000D02*
X147456554Y-65765000D01*
X147456554Y-64515000D01*
X148656554Y-64515000D01*
X148656554Y-65765000D01*
G36*
X148656554Y-67485000D02*
G01*
X147456554Y-67485000D01*
X147456554Y-66235000D01*
X148656554Y-66235000D01*
X148656554Y-67485000D01*
G37*
X148656554Y-67485000D02*
X147456554Y-67485000D01*
X147456554Y-66235000D01*
X148656554Y-66235000D01*
X148656554Y-67485000D01*
G36*
X150326554Y-67485000D02*
G01*
X149126554Y-67485000D01*
X149126554Y-66235000D01*
X150326554Y-66235000D01*
X150326554Y-67485000D01*
G37*
X150326554Y-67485000D02*
X149126554Y-67485000D01*
X149126554Y-66235000D01*
X150326554Y-66235000D01*
X150326554Y-67485000D01*
%TO.C,U1*%
G36*
X116425000Y-64072500D02*
G01*
X115045000Y-64072500D01*
X115045000Y-63192500D01*
X116425000Y-63192500D01*
X116425000Y-64072500D01*
G37*
X116425000Y-64072500D02*
X115045000Y-64072500D01*
X115045000Y-63192500D01*
X116425000Y-63192500D01*
X116425000Y-64072500D01*
G36*
X116425000Y-65252500D02*
G01*
X115045000Y-65252500D01*
X115045000Y-64372500D01*
X116425000Y-64372500D01*
X116425000Y-65252500D01*
G37*
X116425000Y-65252500D02*
X115045000Y-65252500D01*
X115045000Y-64372500D01*
X116425000Y-64372500D01*
X116425000Y-65252500D01*
G36*
X118105000Y-65252500D02*
G01*
X116725000Y-65252500D01*
X116725000Y-64372500D01*
X118105000Y-64372500D01*
X118105000Y-65252500D01*
G37*
X118105000Y-65252500D02*
X116725000Y-65252500D01*
X116725000Y-64372500D01*
X118105000Y-64372500D01*
X118105000Y-65252500D01*
G36*
X118105000Y-64072500D02*
G01*
X116725000Y-64072500D01*
X116725000Y-63192500D01*
X118105000Y-63192500D01*
X118105000Y-64072500D01*
G37*
X118105000Y-64072500D02*
X116725000Y-64072500D01*
X116725000Y-63192500D01*
X118105000Y-63192500D01*
X118105000Y-64072500D01*
%TD*%
D11*
%TO.C,C14*%
X187911250Y-57887500D03*
X187911250Y-59612500D03*
%TD*%
%TO.C,C2*%
X121337500Y-57937500D03*
X121337500Y-59662500D03*
%TD*%
D12*
%TO.C,C9*%
X179161250Y-64862500D03*
X179161250Y-63137500D03*
%TD*%
D11*
%TO.C,C19*%
X156951554Y-72887500D03*
X156951554Y-74612500D03*
%TD*%
D13*
%TO.C,Q2*%
X113375000Y-59387500D03*
X115275000Y-59387500D03*
X114325000Y-57187500D03*
%TD*%
D12*
%TO.C,C4*%
X119825000Y-59650000D03*
X119825000Y-57925000D03*
%TD*%
D11*
%TO.C,C21*%
X155451554Y-72887500D03*
X155451554Y-74612500D03*
%TD*%
%TO.C,C11*%
X180661250Y-63137500D03*
X180661250Y-64862500D03*
%TD*%
D12*
%TO.C,C20*%
X149451554Y-80112500D03*
X149451554Y-78387500D03*
%TD*%
D14*
%TO.C,L5*%
X125885000Y-68875000D03*
X125885000Y-70625000D03*
%TD*%
D15*
%TO.C,R11*%
X144951554Y-80162500D03*
X144951554Y-78337500D03*
%TD*%
D11*
%TO.C,C12*%
X189411250Y-57887500D03*
X189411250Y-59612500D03*
%TD*%
D16*
%TO.C,R10*%
X183661250Y-63087500D03*
X183661250Y-64912500D03*
%TD*%
D14*
%TO.C,L2*%
X188661250Y-62875000D03*
X188661250Y-64625000D03*
%TD*%
D12*
%TO.C,C1*%
X122737500Y-54562500D03*
X122737500Y-52837500D03*
%TD*%
D17*
%TO.C,C32*%
X188297074Y-73610000D03*
X186572074Y-73610000D03*
%TD*%
D11*
%TO.C,C6*%
X118325000Y-57925000D03*
X118325000Y-59650000D03*
%TD*%
D12*
%TO.C,C16*%
X146451554Y-80112500D03*
X146451554Y-78387500D03*
%TD*%
D18*
%TO.C,Q3*%
X178491250Y-48595000D03*
X178491250Y-49865000D03*
X178491250Y-51135000D03*
X178491250Y-52405000D03*
%TD*%
D19*
%TO.C,U5*%
X127455000Y-77985426D03*
X128725000Y-77985426D03*
X129995000Y-77985426D03*
X131265000Y-77985426D03*
X132535000Y-77985426D03*
X133805000Y-77985426D03*
X135075000Y-77985426D03*
X136345000Y-77985426D03*
X136345000Y-73035426D03*
X135075000Y-73035426D03*
X133805000Y-73035426D03*
X132535000Y-73035426D03*
X131265000Y-73035426D03*
X129995000Y-73035426D03*
X128725000Y-73035426D03*
X127455000Y-73035426D03*
%TD*%
D20*
%TO.C,R14*%
X144539054Y-74000000D03*
X146364054Y-74000000D03*
%TD*%
D21*
%TO.C,C10*%
X179298750Y-55250000D03*
X181023750Y-55250000D03*
%TD*%
D22*
%TO.C,R12*%
X146364054Y-72000000D03*
X144539054Y-72000000D03*
%TD*%
D14*
%TO.C,L3*%
X155951554Y-78375000D03*
X155951554Y-80125000D03*
%TD*%
D22*
%TO.C,R8*%
X185823750Y-54250000D03*
X183998750Y-54250000D03*
%TD*%
D23*
%TO.C,U3*%
X152701554Y-72315000D03*
X152201554Y-72315000D03*
X151701554Y-72315000D03*
X151201554Y-72315000D03*
X150701554Y-72315000D03*
X150201554Y-72315000D03*
X149701554Y-72315000D03*
X149201554Y-72315000D03*
D24*
X148516554Y-73000000D03*
X148516554Y-73500000D03*
X148516554Y-74000000D03*
X148516554Y-74500000D03*
X148516554Y-75000000D03*
X148516554Y-75500000D03*
D25*
X149201554Y-76185000D03*
X149701554Y-76185000D03*
X150201554Y-76185000D03*
X150701554Y-76185000D03*
X151201554Y-76185000D03*
X151701554Y-76185000D03*
X152201554Y-76185000D03*
X152701554Y-76185000D03*
D26*
X153386554Y-75500000D03*
X153386554Y-75000000D03*
X153386554Y-74500000D03*
X153386554Y-74000000D03*
X153386554Y-73500000D03*
X153386554Y-73000000D03*
%TD*%
D14*
%TO.C,D5*%
X127400000Y-68885426D03*
X127400000Y-70635426D03*
%TD*%
D20*
%TO.C,R2*%
X121412500Y-65787500D03*
X123237500Y-65787500D03*
%TD*%
D13*
%TO.C,Q6*%
X154401554Y-78650000D03*
X152501554Y-78650000D03*
X153451554Y-80850000D03*
%TD*%
D19*
%TO.C,U7*%
X160130000Y-74475000D03*
X161400000Y-74475000D03*
X162670000Y-74475000D03*
X163940000Y-74475000D03*
X165210000Y-74475000D03*
X166480000Y-74475000D03*
X167750000Y-74475000D03*
X169020000Y-74475000D03*
X169020000Y-69525000D03*
X167750000Y-69525000D03*
X166480000Y-69525000D03*
X165210000Y-69525000D03*
X163940000Y-69525000D03*
X162670000Y-69525000D03*
X161400000Y-69525000D03*
X160130000Y-69525000D03*
%TD*%
D27*
%TO.C,D2*%
X134650000Y-65650000D03*
X134650000Y-63350000D03*
%TD*%
D28*
%TO.C,TH1*%
X152802500Y-95000000D03*
X153997500Y-95000000D03*
%TD*%
D23*
%TO.C,U2*%
X185411250Y-56815000D03*
X184911250Y-56815000D03*
X184411250Y-56815000D03*
X183911250Y-56815000D03*
X183411250Y-56815000D03*
X182911250Y-56815000D03*
X182411250Y-56815000D03*
X181911250Y-56815000D03*
D24*
X181226250Y-57500000D03*
X181226250Y-58000000D03*
X181226250Y-58500000D03*
X181226250Y-59000000D03*
X181226250Y-59500000D03*
X181226250Y-60000000D03*
D25*
X181911250Y-60685000D03*
X182411250Y-60685000D03*
X182911250Y-60685000D03*
X183411250Y-60685000D03*
X183911250Y-60685000D03*
X184411250Y-60685000D03*
X184911250Y-60685000D03*
X185411250Y-60685000D03*
D26*
X186096250Y-60000000D03*
X186096250Y-59500000D03*
X186096250Y-59000000D03*
X186096250Y-58500000D03*
X186096250Y-58000000D03*
X186096250Y-57500000D03*
%TD*%
D14*
%TO.C,L7*%
X158575000Y-65375000D03*
X158575000Y-67125000D03*
%TD*%
D16*
%TO.C,R1*%
X122837500Y-57887500D03*
X122837500Y-59712500D03*
%TD*%
D11*
%TO.C,C18*%
X147951554Y-78387500D03*
X147951554Y-80112500D03*
%TD*%
%TO.C,C34*%
X161575000Y-65387500D03*
X161575000Y-67112500D03*
%TD*%
D17*
%TO.C,C29*%
X136262500Y-70510426D03*
X134537500Y-70510426D03*
%TD*%
D14*
%TO.C,D7*%
X160075000Y-65375000D03*
X160075000Y-67125000D03*
%TD*%
D29*
%TO.C,U6*%
X179184574Y-72190000D03*
X179184574Y-73460000D03*
X179184574Y-74730000D03*
X179184574Y-76000000D03*
X179184574Y-77270000D03*
X179184574Y-78540000D03*
X179184574Y-79810000D03*
X179184574Y-81080000D03*
X184134574Y-81080000D03*
X184134574Y-79810000D03*
X184134574Y-78540000D03*
X184134574Y-77270000D03*
X184134574Y-76000000D03*
X184134574Y-74730000D03*
X184134574Y-73460000D03*
X184134574Y-72190000D03*
%TD*%
D28*
%TO.C,TH2*%
X151802500Y-112500000D03*
X152997500Y-112500000D03*
%TD*%
D12*
%TO.C,C13*%
X182161250Y-64862500D03*
X182161250Y-63137500D03*
%TD*%
%TO.C,C15*%
X142900000Y-84225000D03*
X142900000Y-82500000D03*
%TD*%
D20*
%TO.C,R3*%
X114412500Y-68787500D03*
X116237500Y-68787500D03*
%TD*%
D18*
%TO.C,Q1*%
X121495000Y-74692500D03*
X121495000Y-73422500D03*
X121495000Y-72152500D03*
X121495000Y-70882500D03*
%TD*%
D16*
%TO.C,R15*%
X150951554Y-78337500D03*
X150951554Y-80162500D03*
%TD*%
D12*
%TO.C,C7*%
X112325000Y-65150000D03*
X112325000Y-63425000D03*
%TD*%
D21*
%TO.C,C31*%
X186572074Y-81110000D03*
X188297074Y-81110000D03*
%TD*%
D18*
%TO.C,Q5*%
X145531554Y-64095000D03*
X145531554Y-65365000D03*
X145531554Y-66635000D03*
X145531554Y-67905000D03*
%TD*%
D15*
%TO.C,R6*%
X177661250Y-64912500D03*
X177661250Y-63087500D03*
%TD*%
D11*
%TO.C,C8*%
X177661250Y-68637500D03*
X177661250Y-70362500D03*
%TD*%
%TO.C,C30*%
X128900000Y-68897926D03*
X128900000Y-70622926D03*
%TD*%
D21*
%TO.C,C17*%
X146476554Y-70500000D03*
X148201554Y-70500000D03*
%TD*%
D22*
%TO.C,R13*%
X153364054Y-69750000D03*
X151539054Y-69750000D03*
%TD*%
D30*
%TO.C,D6*%
X188309574Y-72110000D03*
X186559574Y-72110000D03*
%TD*%
D31*
%TO.C,L1*%
X111825000Y-60162500D03*
X111825000Y-58412500D03*
%TD*%
D30*
%TO.C,L6*%
X188309574Y-70610000D03*
X186559574Y-70610000D03*
%TD*%
D20*
%TO.C,R9*%
X177248750Y-59000000D03*
X179073750Y-59000000D03*
%TD*%
D13*
%TO.C,Q4*%
X187111250Y-63150000D03*
X185211250Y-63150000D03*
X186161250Y-65350000D03*
%TD*%
D12*
%TO.C,C33*%
X169075000Y-67112500D03*
X169075000Y-65387500D03*
%TD*%
D17*
%TO.C,C3*%
X120825000Y-67787500D03*
X119100000Y-67787500D03*
%TD*%
D12*
%TO.C,C5*%
X110825000Y-65150000D03*
X110825000Y-63425000D03*
%TD*%
D25*
%TO.C,U1*%
X114825000Y-66157500D03*
X115325000Y-66157500D03*
X115825000Y-66157500D03*
X116325000Y-66157500D03*
X116825000Y-66157500D03*
X117325000Y-66157500D03*
X117825000Y-66157500D03*
X118325000Y-66157500D03*
D26*
X119010000Y-65472500D03*
X119010000Y-64972500D03*
X119010000Y-64472500D03*
X119010000Y-63972500D03*
X119010000Y-63472500D03*
X119010000Y-62972500D03*
D23*
X118325000Y-62287500D03*
X117825000Y-62287500D03*
X117325000Y-62287500D03*
X116825000Y-62287500D03*
X116325000Y-62287500D03*
X115825000Y-62287500D03*
X115325000Y-62287500D03*
X114825000Y-62287500D03*
D24*
X114140000Y-62972500D03*
X114140000Y-63472500D03*
X114140000Y-63972500D03*
X114140000Y-64472500D03*
X114140000Y-64972500D03*
X114140000Y-65472500D03*
%TD*%
D32*
%TO.C,D3*%
X171300000Y-56000000D03*
X169000000Y-56000000D03*
%TD*%
D28*
%TO.C,TH3*%
X151802500Y-129500000D03*
X152997500Y-129500000D03*
%TD*%
D15*
%TO.C,R5*%
X116825000Y-59700000D03*
X116825000Y-57875000D03*
%TD*%
D27*
%TO.C,D1*%
X128150000Y-59900000D03*
X128150000Y-57600000D03*
%TD*%
D22*
%TO.C,R4*%
X123237500Y-63787500D03*
X121412500Y-63787500D03*
%TD*%
%TO.C,R7*%
X179073750Y-57000000D03*
X177248750Y-57000000D03*
%TD*%
M02*
