%TF.GenerationSoftware,KiCad,Pcbnew,6.0.11+dfsg-1*%
%TF.CreationDate,2023-05-03T21:30:49-05:00*%
%TF.ProjectId,CubesatPwrBoard,43756265-7361-4745-9077-72426f617264,rev?*%
%TF.SameCoordinates,Original*%
%TF.FileFunction,Legend,Top*%
%TF.FilePolarity,Positive*%
%FSLAX46Y46*%
G04 Gerber Fmt 4.6, Leading zero omitted, Abs format (unit mm)*
G04 Created by KiCad (PCBNEW 6.0.11+dfsg-1) date 2023-05-03 21:30:49*
%MOMM*%
%LPD*%
G01*
G04 APERTURE LIST*
G04 Aperture macros list*
%AMRoundRect*
0 Rectangle with rounded corners*
0 $1 Rounding radius*
0 $2 $3 $4 $5 $6 $7 $8 $9 X,Y pos of 4 corners*
0 Add a 4 corners polygon primitive as box body*
4,1,4,$2,$3,$4,$5,$6,$7,$8,$9,$2,$3,0*
0 Add four circle primitives for the rounded corners*
1,1,$1+$1,$2,$3*
1,1,$1+$1,$4,$5*
1,1,$1+$1,$6,$7*
1,1,$1+$1,$8,$9*
0 Add four rect primitives between the rounded corners*
20,1,$1+$1,$2,$3,$4,$5,0*
20,1,$1+$1,$4,$5,$6,$7,0*
20,1,$1+$1,$6,$7,$8,$9,0*
20,1,$1+$1,$8,$9,$2,$3,0*%
G04 Aperture macros list end*
%ADD10C,0.150000*%
%ADD11C,0.137500*%
%ADD12C,0.500000*%
%ADD13C,0.120000*%
%ADD14C,0.300000*%
%ADD15C,0.127000*%
%ADD16C,0.600000*%
%ADD17C,0.200000*%
%ADD18C,0.203200*%
%ADD19C,0.010000*%
%ADD20R,0.700000X1.850000*%
%ADD21RoundRect,0.237500X0.237500X-0.300000X0.237500X0.300000X-0.237500X0.300000X-0.237500X-0.300000X0*%
%ADD22C,1.700000*%
%ADD23R,1.700000X1.700000*%
%ADD24O,1.700000X1.700000*%
%ADD25RoundRect,0.041300X0.253700X-2.213700X0.253700X2.213700X-0.253700X2.213700X-0.253700X-2.213700X0*%
%ADD26RoundRect,0.018900X1.228600X0.116100X-1.228600X0.116100X-1.228600X-0.116100X1.228600X-0.116100X0*%
%ADD27RoundRect,0.018900X-0.116100X1.478600X-0.116100X-1.478600X0.116100X-1.478600X0.116100X1.478600X0*%
%ADD28RoundRect,0.018900X-1.228600X-0.116100X1.228600X-0.116100X1.228600X0.116100X-1.228600X0.116100X0*%
%ADD29RoundRect,0.018900X0.116100X-1.478600X0.116100X1.478600X-0.116100X1.478600X-0.116100X-1.478600X0*%
%ADD30R,2.650000X3.650000*%
%ADD31RoundRect,0.237500X0.237500X-0.250000X0.237500X0.250000X-0.237500X0.250000X-0.237500X-0.250000X0*%
%ADD32R,0.750000X2.965000*%
%ADD33R,0.740000X2.965000*%
%ADD34RoundRect,0.237500X-0.237500X0.300000X-0.237500X-0.300000X0.237500X-0.300000X0.237500X0.300000X0*%
%ADD35R,1.000000X3.600000*%
%ADD36RoundRect,0.237500X-0.237500X0.287500X-0.237500X-0.287500X0.237500X-0.287500X0.237500X0.287500X0*%
%ADD37RoundRect,0.237500X-0.300000X-0.237500X0.300000X-0.237500X0.300000X0.237500X-0.300000X0.237500X0*%
%ADD38RoundRect,0.250000X1.100000X-0.412500X1.100000X0.412500X-1.100000X0.412500X-1.100000X-0.412500X0*%
%ADD39RoundRect,0.237500X-0.237500X0.250000X-0.237500X-0.250000X0.237500X-0.250000X0.237500X0.250000X0*%
%ADD40RoundRect,0.250000X-0.475000X0.337500X-0.475000X-0.337500X0.475000X-0.337500X0.475000X0.337500X0*%
%ADD41RoundRect,0.160000X-0.197500X-0.160000X0.197500X-0.160000X0.197500X0.160000X-0.197500X0.160000X0*%
%ADD42R,0.900000X2.250000*%
G04 APERTURE END LIST*
D10*
X181803571Y-71625000D02*
X181767857Y-71732142D01*
X181732142Y-71767857D01*
X181660714Y-71803571D01*
X181553571Y-71803571D01*
X181482142Y-71767857D01*
X181446428Y-71732142D01*
X181410714Y-71660714D01*
X181410714Y-71375000D01*
X182160714Y-71375000D01*
X182160714Y-71625000D01*
X182125000Y-71696428D01*
X182089285Y-71732142D01*
X182017857Y-71767857D01*
X181946428Y-71767857D01*
X181875000Y-71732142D01*
X181839285Y-71696428D01*
X181803571Y-71625000D01*
X181803571Y-71375000D01*
X181625000Y-72089285D02*
X181625000Y-72446428D01*
X181410714Y-72017857D02*
X182160714Y-72267857D01*
X181410714Y-72517857D01*
X181446428Y-72732142D02*
X181410714Y-72839285D01*
X181410714Y-73017857D01*
X181446428Y-73089285D01*
X181482142Y-73125000D01*
X181553571Y-73160714D01*
X181625000Y-73160714D01*
X181696428Y-73125000D01*
X181732142Y-73089285D01*
X181767857Y-73017857D01*
X181803571Y-72875000D01*
X181839285Y-72803571D01*
X181875000Y-72767857D01*
X181946428Y-72732142D01*
X182017857Y-72732142D01*
X182089285Y-72767857D01*
X182125000Y-72803571D01*
X182160714Y-72875000D01*
X182160714Y-73053571D01*
X182125000Y-73160714D01*
X138053571Y-72875000D02*
X138017857Y-72982142D01*
X137982142Y-73017857D01*
X137910714Y-73053571D01*
X137803571Y-73053571D01*
X137732142Y-73017857D01*
X137696428Y-72982142D01*
X137660714Y-72910714D01*
X137660714Y-72625000D01*
X138410714Y-72625000D01*
X138410714Y-72875000D01*
X138375000Y-72946428D01*
X138339285Y-72982142D01*
X138267857Y-73017857D01*
X138196428Y-73017857D01*
X138125000Y-72982142D01*
X138089285Y-72946428D01*
X138053571Y-72875000D01*
X138053571Y-72625000D01*
X137875000Y-73339285D02*
X137875000Y-73696428D01*
X137660714Y-73267857D02*
X138410714Y-73517857D01*
X137660714Y-73767857D01*
X137696428Y-73982142D02*
X137660714Y-74089285D01*
X137660714Y-74267857D01*
X137696428Y-74339285D01*
X137732142Y-74375000D01*
X137803571Y-74410714D01*
X137875000Y-74410714D01*
X137946428Y-74375000D01*
X137982142Y-74339285D01*
X138017857Y-74267857D01*
X138053571Y-74125000D01*
X138089285Y-74053571D01*
X138125000Y-74017857D01*
X138196428Y-73982142D01*
X138267857Y-73982142D01*
X138339285Y-74017857D01*
X138375000Y-74053571D01*
X138410714Y-74125000D01*
X138410714Y-74303571D01*
X138375000Y-74410714D01*
X160839285Y-89785714D02*
X160875000Y-89821428D01*
X160910714Y-89892857D01*
X160910714Y-90071428D01*
X160875000Y-90142857D01*
X160839285Y-90178571D01*
X160767857Y-90214285D01*
X160696428Y-90214285D01*
X160589285Y-90178571D01*
X160160714Y-89750000D01*
X160160714Y-90214285D01*
X160160714Y-90535714D02*
X160910714Y-90535714D01*
X160160714Y-90964285D01*
X160910714Y-90964285D01*
X160910714Y-91250000D02*
X160910714Y-91750000D01*
X160160714Y-91428571D01*
X117589285Y-85285714D02*
X117625000Y-85321428D01*
X117660714Y-85392857D01*
X117660714Y-85571428D01*
X117625000Y-85642857D01*
X117589285Y-85678571D01*
X117517857Y-85714285D01*
X117446428Y-85714285D01*
X117339285Y-85678571D01*
X116910714Y-85250000D01*
X116910714Y-85714285D01*
X116910714Y-86035714D02*
X117660714Y-86035714D01*
X116910714Y-86464285D01*
X117660714Y-86464285D01*
X117660714Y-86750000D02*
X117660714Y-87250000D01*
X116910714Y-86928571D01*
X176160714Y-85214285D02*
X176160714Y-85642857D01*
X175410714Y-85428571D02*
X176160714Y-85428571D01*
X175339285Y-86392857D02*
X175375000Y-86321428D01*
X175446428Y-86250000D01*
X175553571Y-86142857D01*
X175589285Y-86071428D01*
X175589285Y-86000000D01*
X175410714Y-86035714D02*
X175446428Y-85964285D01*
X175517857Y-85892857D01*
X175660714Y-85857142D01*
X175910714Y-85857142D01*
X176053571Y-85892857D01*
X176125000Y-85964285D01*
X176160714Y-86035714D01*
X176160714Y-86178571D01*
X176125000Y-86250000D01*
X176053571Y-86321428D01*
X175910714Y-86357142D01*
X175660714Y-86357142D01*
X175517857Y-86321428D01*
X175446428Y-86250000D01*
X175410714Y-86178571D01*
X175410714Y-86035714D01*
X175410714Y-86678571D02*
X176160714Y-86678571D01*
X175625000Y-86928571D01*
X176160714Y-87178571D01*
X175410714Y-87178571D01*
X134410714Y-81964285D02*
X134410714Y-82392857D01*
X133660714Y-82178571D02*
X134410714Y-82178571D01*
X133589285Y-83142857D02*
X133625000Y-83071428D01*
X133696428Y-83000000D01*
X133803571Y-82892857D01*
X133839285Y-82821428D01*
X133839285Y-82750000D01*
X133660714Y-82785714D02*
X133696428Y-82714285D01*
X133767857Y-82642857D01*
X133910714Y-82607142D01*
X134160714Y-82607142D01*
X134303571Y-82642857D01*
X134375000Y-82714285D01*
X134410714Y-82785714D01*
X134410714Y-82928571D01*
X134375000Y-83000000D01*
X134303571Y-83071428D01*
X134160714Y-83107142D01*
X133910714Y-83107142D01*
X133767857Y-83071428D01*
X133696428Y-83000000D01*
X133660714Y-82928571D01*
X133660714Y-82785714D01*
X133660714Y-83428571D02*
X134410714Y-83428571D01*
X133875000Y-83678571D01*
X134410714Y-83928571D01*
X133660714Y-83928571D01*
X179232142Y-64482142D02*
X179196428Y-64446428D01*
X179160714Y-64339285D01*
X179160714Y-64267857D01*
X179196428Y-64160714D01*
X179267857Y-64089285D01*
X179339285Y-64053571D01*
X179482142Y-64017857D01*
X179589285Y-64017857D01*
X179732142Y-64053571D01*
X179803571Y-64089285D01*
X179875000Y-64160714D01*
X179910714Y-64267857D01*
X179910714Y-64339285D01*
X179875000Y-64446428D01*
X179839285Y-64482142D01*
X179910714Y-64803571D02*
X179303571Y-64803571D01*
X179232142Y-64839285D01*
X179196428Y-64875000D01*
X179160714Y-64946428D01*
X179160714Y-65089285D01*
X179196428Y-65160714D01*
X179232142Y-65196428D01*
X179303571Y-65232142D01*
X179910714Y-65232142D01*
X179196428Y-65553571D02*
X179160714Y-65660714D01*
X179160714Y-65839285D01*
X179196428Y-65910714D01*
X179232142Y-65946428D01*
X179303571Y-65982142D01*
X179375000Y-65982142D01*
X179446428Y-65946428D01*
X179482142Y-65910714D01*
X179517857Y-65839285D01*
X179553571Y-65696428D01*
X179589285Y-65625000D01*
X179625000Y-65589285D01*
X179696428Y-65553571D01*
X179767857Y-65553571D01*
X179839285Y-65589285D01*
X179875000Y-65625000D01*
X179910714Y-65696428D01*
X179910714Y-65875000D01*
X179875000Y-65982142D01*
X135482142Y-63232142D02*
X135446428Y-63196428D01*
X135410714Y-63089285D01*
X135410714Y-63017857D01*
X135446428Y-62910714D01*
X135517857Y-62839285D01*
X135589285Y-62803571D01*
X135732142Y-62767857D01*
X135839285Y-62767857D01*
X135982142Y-62803571D01*
X136053571Y-62839285D01*
X136125000Y-62910714D01*
X136160714Y-63017857D01*
X136160714Y-63089285D01*
X136125000Y-63196428D01*
X136089285Y-63232142D01*
X136160714Y-63553571D02*
X135553571Y-63553571D01*
X135482142Y-63589285D01*
X135446428Y-63625000D01*
X135410714Y-63696428D01*
X135410714Y-63839285D01*
X135446428Y-63910714D01*
X135482142Y-63946428D01*
X135553571Y-63982142D01*
X136160714Y-63982142D01*
X135446428Y-64303571D02*
X135410714Y-64410714D01*
X135410714Y-64589285D01*
X135446428Y-64660714D01*
X135482142Y-64696428D01*
X135553571Y-64732142D01*
X135625000Y-64732142D01*
X135696428Y-64696428D01*
X135732142Y-64660714D01*
X135767857Y-64589285D01*
X135803571Y-64446428D01*
X135839285Y-64375000D01*
X135875000Y-64339285D01*
X135946428Y-64303571D01*
X136017857Y-64303571D01*
X136089285Y-64339285D01*
X136125000Y-64375000D01*
X136160714Y-64446428D01*
X136160714Y-64625000D01*
X136125000Y-64732142D01*
X154728571Y-84235714D02*
X154728571Y-83892857D01*
X154728571Y-84064285D02*
X155328571Y-84064285D01*
X155242857Y-84007142D01*
X155185714Y-83950000D01*
X155157142Y-83892857D01*
X155328571Y-84607142D02*
X155328571Y-84664285D01*
X155300000Y-84721428D01*
X155271428Y-84750000D01*
X155214285Y-84778571D01*
X155100000Y-84807142D01*
X154957142Y-84807142D01*
X154842857Y-84778571D01*
X154785714Y-84750000D01*
X154757142Y-84721428D01*
X154728571Y-84664285D01*
X154728571Y-84607142D01*
X154757142Y-84550000D01*
X154785714Y-84521428D01*
X154842857Y-84492857D01*
X154957142Y-84464285D01*
X155100000Y-84464285D01*
X155214285Y-84492857D01*
X155271428Y-84521428D01*
X155300000Y-84550000D01*
X155328571Y-84607142D01*
X154728571Y-85064285D02*
X155128571Y-85064285D01*
X155071428Y-85064285D02*
X155100000Y-85092857D01*
X155128571Y-85150000D01*
X155128571Y-85235714D01*
X155100000Y-85292857D01*
X155042857Y-85321428D01*
X154728571Y-85321428D01*
X155042857Y-85321428D02*
X155100000Y-85350000D01*
X155128571Y-85407142D01*
X155128571Y-85492857D01*
X155100000Y-85550000D01*
X155042857Y-85578571D01*
X154728571Y-85578571D01*
X151978571Y-84364285D02*
X151978571Y-84021428D01*
X151978571Y-84192857D02*
X152578571Y-84192857D01*
X152492857Y-84135714D01*
X152435714Y-84078571D01*
X152407142Y-84021428D01*
X152578571Y-84735714D02*
X152578571Y-84792857D01*
X152550000Y-84850000D01*
X152521428Y-84878571D01*
X152464285Y-84907142D01*
X152350000Y-84935714D01*
X152207142Y-84935714D01*
X152092857Y-84907142D01*
X152035714Y-84878571D01*
X152007142Y-84850000D01*
X151978571Y-84792857D01*
X151978571Y-84735714D01*
X152007142Y-84678571D01*
X152035714Y-84650000D01*
X152092857Y-84621428D01*
X152207142Y-84592857D01*
X152350000Y-84592857D01*
X152464285Y-84621428D01*
X152521428Y-84650000D01*
X152550000Y-84678571D01*
X152578571Y-84735714D01*
X152378571Y-85450000D02*
X151978571Y-85450000D01*
X152378571Y-85192857D02*
X152064285Y-85192857D01*
X152007142Y-85221428D01*
X151978571Y-85278571D01*
X151978571Y-85364285D01*
X152007142Y-85421428D01*
X152035714Y-85450000D01*
X155128571Y-78914285D02*
X154728571Y-78914285D01*
X155357142Y-78771428D02*
X154928571Y-78628571D01*
X154928571Y-79000000D01*
X154785714Y-79228571D02*
X154757142Y-79257142D01*
X154728571Y-79228571D01*
X154757142Y-79200000D01*
X154785714Y-79228571D01*
X154728571Y-79228571D01*
X155328571Y-79457142D02*
X155328571Y-79857142D01*
X154728571Y-79600000D01*
X155128571Y-80342857D02*
X154728571Y-80342857D01*
X155128571Y-80085714D02*
X154814285Y-80085714D01*
X154757142Y-80114285D01*
X154728571Y-80171428D01*
X154728571Y-80257142D01*
X154757142Y-80314285D01*
X154785714Y-80342857D01*
X169228571Y-92114285D02*
X169228571Y-91771428D01*
X169228571Y-91942857D02*
X169828571Y-91942857D01*
X169742857Y-91885714D01*
X169685714Y-91828571D01*
X169657142Y-91771428D01*
X169828571Y-92485714D02*
X169828571Y-92542857D01*
X169800000Y-92600000D01*
X169771428Y-92628571D01*
X169714285Y-92657142D01*
X169600000Y-92685714D01*
X169457142Y-92685714D01*
X169342857Y-92657142D01*
X169285714Y-92628571D01*
X169257142Y-92600000D01*
X169228571Y-92542857D01*
X169228571Y-92485714D01*
X169257142Y-92428571D01*
X169285714Y-92400000D01*
X169342857Y-92371428D01*
X169457142Y-92342857D01*
X169600000Y-92342857D01*
X169714285Y-92371428D01*
X169771428Y-92400000D01*
X169800000Y-92428571D01*
X169828571Y-92485714D01*
X169628571Y-93200000D02*
X169228571Y-93200000D01*
X169628571Y-92942857D02*
X169314285Y-92942857D01*
X169257142Y-92971428D01*
X169228571Y-93028571D01*
X169228571Y-93114285D01*
X169257142Y-93171428D01*
X169285714Y-93200000D01*
X164771428Y-88521428D02*
X164800000Y-88550000D01*
X164828571Y-88607142D01*
X164828571Y-88750000D01*
X164800000Y-88807142D01*
X164771428Y-88835714D01*
X164714285Y-88864285D01*
X164657142Y-88864285D01*
X164571428Y-88835714D01*
X164228571Y-88492857D01*
X164228571Y-88864285D01*
X164771428Y-89092857D02*
X164800000Y-89121428D01*
X164828571Y-89178571D01*
X164828571Y-89321428D01*
X164800000Y-89378571D01*
X164771428Y-89407142D01*
X164714285Y-89435714D01*
X164657142Y-89435714D01*
X164571428Y-89407142D01*
X164228571Y-89064285D01*
X164228571Y-89435714D01*
X164628571Y-89692857D02*
X164228571Y-89692857D01*
X164571428Y-89692857D02*
X164600000Y-89721428D01*
X164628571Y-89778571D01*
X164628571Y-89864285D01*
X164600000Y-89921428D01*
X164542857Y-89950000D01*
X164228571Y-89950000D01*
X166728571Y-88985714D02*
X166728571Y-88642857D01*
X166728571Y-88814285D02*
X167328571Y-88814285D01*
X167242857Y-88757142D01*
X167185714Y-88700000D01*
X167157142Y-88642857D01*
X167328571Y-89500000D02*
X167328571Y-89385714D01*
X167300000Y-89328571D01*
X167271428Y-89300000D01*
X167185714Y-89242857D01*
X167071428Y-89214285D01*
X166842857Y-89214285D01*
X166785714Y-89242857D01*
X166757142Y-89271428D01*
X166728571Y-89328571D01*
X166728571Y-89442857D01*
X166757142Y-89500000D01*
X166785714Y-89528571D01*
X166842857Y-89557142D01*
X166985714Y-89557142D01*
X167042857Y-89528571D01*
X167071428Y-89500000D01*
X167100000Y-89442857D01*
X167100000Y-89328571D01*
X167071428Y-89271428D01*
X167042857Y-89242857D01*
X166985714Y-89214285D01*
X166728571Y-89814285D02*
X167128571Y-89814285D01*
X167071428Y-89814285D02*
X167100000Y-89842857D01*
X167128571Y-89900000D01*
X167128571Y-89985714D01*
X167100000Y-90042857D01*
X167042857Y-90071428D01*
X166728571Y-90071428D01*
X167042857Y-90071428D02*
X167100000Y-90100000D01*
X167128571Y-90157142D01*
X167128571Y-90242857D01*
X167100000Y-90300000D01*
X167042857Y-90328571D01*
X166728571Y-90328571D01*
X161878571Y-88914285D02*
X161478571Y-88914285D01*
X162107142Y-88771428D02*
X161678571Y-88628571D01*
X161678571Y-89000000D01*
X161535714Y-89228571D02*
X161507142Y-89257142D01*
X161478571Y-89228571D01*
X161507142Y-89200000D01*
X161535714Y-89228571D01*
X161478571Y-89228571D01*
X162078571Y-89457142D02*
X162078571Y-89857142D01*
X161478571Y-89600000D01*
X161878571Y-90342857D02*
X161478571Y-90342857D01*
X161878571Y-90085714D02*
X161564285Y-90085714D01*
X161507142Y-90114285D01*
X161478571Y-90171428D01*
X161478571Y-90257142D01*
X161507142Y-90314285D01*
X161535714Y-90342857D01*
X126228571Y-86614285D02*
X126228571Y-86271428D01*
X126228571Y-86442857D02*
X126828571Y-86442857D01*
X126742857Y-86385714D01*
X126685714Y-86328571D01*
X126657142Y-86271428D01*
X126828571Y-86985714D02*
X126828571Y-87042857D01*
X126800000Y-87100000D01*
X126771428Y-87128571D01*
X126714285Y-87157142D01*
X126600000Y-87185714D01*
X126457142Y-87185714D01*
X126342857Y-87157142D01*
X126285714Y-87128571D01*
X126257142Y-87100000D01*
X126228571Y-87042857D01*
X126228571Y-86985714D01*
X126257142Y-86928571D01*
X126285714Y-86900000D01*
X126342857Y-86871428D01*
X126457142Y-86842857D01*
X126600000Y-86842857D01*
X126714285Y-86871428D01*
X126771428Y-86900000D01*
X126800000Y-86928571D01*
X126828571Y-86985714D01*
X126628571Y-87700000D02*
X126228571Y-87700000D01*
X126628571Y-87442857D02*
X126314285Y-87442857D01*
X126257142Y-87471428D01*
X126228571Y-87528571D01*
X126228571Y-87614285D01*
X126257142Y-87671428D01*
X126285714Y-87700000D01*
X123978571Y-83735714D02*
X123978571Y-83392857D01*
X123978571Y-83564285D02*
X124578571Y-83564285D01*
X124492857Y-83507142D01*
X124435714Y-83450000D01*
X124407142Y-83392857D01*
X124578571Y-84250000D02*
X124578571Y-84135714D01*
X124550000Y-84078571D01*
X124521428Y-84050000D01*
X124435714Y-83992857D01*
X124321428Y-83964285D01*
X124092857Y-83964285D01*
X124035714Y-83992857D01*
X124007142Y-84021428D01*
X123978571Y-84078571D01*
X123978571Y-84192857D01*
X124007142Y-84250000D01*
X124035714Y-84278571D01*
X124092857Y-84307142D01*
X124235714Y-84307142D01*
X124292857Y-84278571D01*
X124321428Y-84250000D01*
X124350000Y-84192857D01*
X124350000Y-84078571D01*
X124321428Y-84021428D01*
X124292857Y-83992857D01*
X124235714Y-83964285D01*
X123978571Y-84564285D02*
X124378571Y-84564285D01*
X124321428Y-84564285D02*
X124350000Y-84592857D01*
X124378571Y-84650000D01*
X124378571Y-84735714D01*
X124350000Y-84792857D01*
X124292857Y-84821428D01*
X123978571Y-84821428D01*
X124292857Y-84821428D02*
X124350000Y-84850000D01*
X124378571Y-84907142D01*
X124378571Y-84992857D01*
X124350000Y-85050000D01*
X124292857Y-85078571D01*
X123978571Y-85078571D01*
X122021428Y-83521428D02*
X122050000Y-83550000D01*
X122078571Y-83607142D01*
X122078571Y-83750000D01*
X122050000Y-83807142D01*
X122021428Y-83835714D01*
X121964285Y-83864285D01*
X121907142Y-83864285D01*
X121821428Y-83835714D01*
X121478571Y-83492857D01*
X121478571Y-83864285D01*
X122021428Y-84092857D02*
X122050000Y-84121428D01*
X122078571Y-84178571D01*
X122078571Y-84321428D01*
X122050000Y-84378571D01*
X122021428Y-84407142D01*
X121964285Y-84435714D01*
X121907142Y-84435714D01*
X121821428Y-84407142D01*
X121478571Y-84064285D01*
X121478571Y-84435714D01*
X121878571Y-84692857D02*
X121478571Y-84692857D01*
X121821428Y-84692857D02*
X121850000Y-84721428D01*
X121878571Y-84778571D01*
X121878571Y-84864285D01*
X121850000Y-84921428D01*
X121792857Y-84950000D01*
X121478571Y-84950000D01*
X119378571Y-83664285D02*
X118978571Y-83664285D01*
X119607142Y-83521428D02*
X119178571Y-83378571D01*
X119178571Y-83750000D01*
X119035714Y-83978571D02*
X119007142Y-84007142D01*
X118978571Y-83978571D01*
X119007142Y-83950000D01*
X119035714Y-83978571D01*
X118978571Y-83978571D01*
X119578571Y-84207142D02*
X119578571Y-84607142D01*
X118978571Y-84350000D01*
X119378571Y-85092857D02*
X118978571Y-85092857D01*
X119378571Y-84835714D02*
X119064285Y-84835714D01*
X119007142Y-84864285D01*
X118978571Y-84921428D01*
X118978571Y-85007142D01*
X119007142Y-85064285D01*
X119035714Y-85092857D01*
X111228571Y-80235714D02*
X111228571Y-79892857D01*
X111228571Y-80064285D02*
X111828571Y-80064285D01*
X111742857Y-80007142D01*
X111685714Y-79950000D01*
X111657142Y-79892857D01*
X111828571Y-80607142D02*
X111828571Y-80664285D01*
X111800000Y-80721428D01*
X111771428Y-80750000D01*
X111714285Y-80778571D01*
X111600000Y-80807142D01*
X111457142Y-80807142D01*
X111342857Y-80778571D01*
X111285714Y-80750000D01*
X111257142Y-80721428D01*
X111228571Y-80664285D01*
X111228571Y-80607142D01*
X111257142Y-80550000D01*
X111285714Y-80521428D01*
X111342857Y-80492857D01*
X111457142Y-80464285D01*
X111600000Y-80464285D01*
X111714285Y-80492857D01*
X111771428Y-80521428D01*
X111800000Y-80550000D01*
X111828571Y-80607142D01*
X111228571Y-81064285D02*
X111628571Y-81064285D01*
X111571428Y-81064285D02*
X111600000Y-81092857D01*
X111628571Y-81150000D01*
X111628571Y-81235714D01*
X111600000Y-81292857D01*
X111542857Y-81321428D01*
X111228571Y-81321428D01*
X111542857Y-81321428D02*
X111600000Y-81350000D01*
X111628571Y-81407142D01*
X111628571Y-81492857D01*
X111600000Y-81550000D01*
X111542857Y-81578571D01*
X111228571Y-81578571D01*
X108478571Y-80114285D02*
X108478571Y-79771428D01*
X108478571Y-79942857D02*
X109078571Y-79942857D01*
X108992857Y-79885714D01*
X108935714Y-79828571D01*
X108907142Y-79771428D01*
X109078571Y-80485714D02*
X109078571Y-80542857D01*
X109050000Y-80600000D01*
X109021428Y-80628571D01*
X108964285Y-80657142D01*
X108850000Y-80685714D01*
X108707142Y-80685714D01*
X108592857Y-80657142D01*
X108535714Y-80628571D01*
X108507142Y-80600000D01*
X108478571Y-80542857D01*
X108478571Y-80485714D01*
X108507142Y-80428571D01*
X108535714Y-80400000D01*
X108592857Y-80371428D01*
X108707142Y-80342857D01*
X108850000Y-80342857D01*
X108964285Y-80371428D01*
X109021428Y-80400000D01*
X109050000Y-80428571D01*
X109078571Y-80485714D01*
X108878571Y-81200000D02*
X108478571Y-81200000D01*
X108878571Y-80942857D02*
X108564285Y-80942857D01*
X108507142Y-80971428D01*
X108478571Y-81028571D01*
X108478571Y-81114285D01*
X108507142Y-81171428D01*
X108535714Y-81200000D01*
X111628571Y-73414285D02*
X111228571Y-73414285D01*
X111857142Y-73271428D02*
X111428571Y-73128571D01*
X111428571Y-73500000D01*
X111285714Y-73728571D02*
X111257142Y-73757142D01*
X111228571Y-73728571D01*
X111257142Y-73700000D01*
X111285714Y-73728571D01*
X111228571Y-73728571D01*
X111828571Y-73957142D02*
X111828571Y-74357142D01*
X111228571Y-74100000D01*
X111628571Y-74842857D02*
X111228571Y-74842857D01*
X111628571Y-74585714D02*
X111314285Y-74585714D01*
X111257142Y-74614285D01*
X111228571Y-74671428D01*
X111228571Y-74757142D01*
X111257142Y-74814285D01*
X111285714Y-74842857D01*
X190378571Y-69164285D02*
X189978571Y-69164285D01*
X190607142Y-69021428D02*
X190178571Y-68878571D01*
X190178571Y-69250000D01*
X190035714Y-69478571D02*
X190007142Y-69507142D01*
X189978571Y-69478571D01*
X190007142Y-69450000D01*
X190035714Y-69478571D01*
X189978571Y-69478571D01*
X190578571Y-69707142D02*
X190578571Y-70107142D01*
X189978571Y-69850000D01*
X190378571Y-70592857D02*
X189978571Y-70592857D01*
X190378571Y-70335714D02*
X190064285Y-70335714D01*
X190007142Y-70364285D01*
X189978571Y-70421428D01*
X189978571Y-70507142D01*
X190007142Y-70564285D01*
X190035714Y-70592857D01*
X146628571Y-70664285D02*
X146228571Y-70664285D01*
X146857142Y-70521428D02*
X146428571Y-70378571D01*
X146428571Y-70750000D01*
X146285714Y-70978571D02*
X146257142Y-71007142D01*
X146228571Y-70978571D01*
X146257142Y-70950000D01*
X146285714Y-70978571D01*
X146228571Y-70978571D01*
X146828571Y-71207142D02*
X146828571Y-71607142D01*
X146228571Y-71350000D01*
X146628571Y-72092857D02*
X146228571Y-72092857D01*
X146628571Y-71835714D02*
X146314285Y-71835714D01*
X146257142Y-71864285D01*
X146228571Y-71921428D01*
X146228571Y-72007142D01*
X146257142Y-72064285D01*
X146285714Y-72092857D01*
D11*
X183501190Y-69178571D02*
X183501190Y-68835714D01*
X183501190Y-69007142D02*
X184051190Y-69007142D01*
X183972619Y-68950000D01*
X183920238Y-68892857D01*
X183894047Y-68835714D01*
X184051190Y-69550000D02*
X184051190Y-69607142D01*
X184025000Y-69664285D01*
X183998809Y-69692857D01*
X183946428Y-69721428D01*
X183841666Y-69750000D01*
X183710714Y-69750000D01*
X183605952Y-69721428D01*
X183553571Y-69692857D01*
X183527380Y-69664285D01*
X183501190Y-69607142D01*
X183501190Y-69550000D01*
X183527380Y-69492857D01*
X183553571Y-69464285D01*
X183605952Y-69435714D01*
X183710714Y-69407142D01*
X183841666Y-69407142D01*
X183946428Y-69435714D01*
X183998809Y-69464285D01*
X184025000Y-69492857D01*
X184051190Y-69550000D01*
X184051190Y-70121428D02*
X184051190Y-70178571D01*
X184025000Y-70235714D01*
X183998809Y-70264285D01*
X183946428Y-70292857D01*
X183841666Y-70321428D01*
X183710714Y-70321428D01*
X183605952Y-70292857D01*
X183553571Y-70264285D01*
X183527380Y-70235714D01*
X183501190Y-70178571D01*
X183501190Y-70121428D01*
X183527380Y-70064285D01*
X183553571Y-70035714D01*
X183605952Y-70007142D01*
X183710714Y-69978571D01*
X183841666Y-69978571D01*
X183946428Y-70007142D01*
X183998809Y-70035714D01*
X184025000Y-70064285D01*
X184051190Y-70121428D01*
X183867857Y-70835714D02*
X183501190Y-70835714D01*
X183867857Y-70578571D02*
X183579761Y-70578571D01*
X183527380Y-70607142D01*
X183501190Y-70664285D01*
X183501190Y-70750000D01*
X183527380Y-70807142D01*
X183553571Y-70835714D01*
X139751190Y-70569423D02*
X139751190Y-70226566D01*
X139751190Y-70397994D02*
X140301190Y-70397994D01*
X140222619Y-70340852D01*
X140170238Y-70283709D01*
X140144047Y-70226566D01*
X140301190Y-70940852D02*
X140301190Y-70997994D01*
X140275000Y-71055137D01*
X140248809Y-71083709D01*
X140196428Y-71112280D01*
X140091666Y-71140852D01*
X139960714Y-71140852D01*
X139855952Y-71112280D01*
X139803571Y-71083709D01*
X139777380Y-71055137D01*
X139751190Y-70997994D01*
X139751190Y-70940852D01*
X139777380Y-70883709D01*
X139803571Y-70855137D01*
X139855952Y-70826566D01*
X139960714Y-70797994D01*
X140091666Y-70797994D01*
X140196428Y-70826566D01*
X140248809Y-70855137D01*
X140275000Y-70883709D01*
X140301190Y-70940852D01*
X140301190Y-71512280D02*
X140301190Y-71569423D01*
X140275000Y-71626566D01*
X140248809Y-71655137D01*
X140196428Y-71683709D01*
X140091666Y-71712280D01*
X139960714Y-71712280D01*
X139855952Y-71683709D01*
X139803571Y-71655137D01*
X139777380Y-71626566D01*
X139751190Y-71569423D01*
X139751190Y-71512280D01*
X139777380Y-71455137D01*
X139803571Y-71426566D01*
X139855952Y-71397994D01*
X139960714Y-71369423D01*
X140091666Y-71369423D01*
X140196428Y-71397994D01*
X140248809Y-71426566D01*
X140275000Y-71455137D01*
X140301190Y-71512280D01*
X140117857Y-72226566D02*
X139751190Y-72226566D01*
X140117857Y-71969423D02*
X139829761Y-71969423D01*
X139777380Y-71997994D01*
X139751190Y-72055137D01*
X139751190Y-72140852D01*
X139777380Y-72197994D01*
X139803571Y-72226566D01*
D10*
X179521428Y-69021428D02*
X179550000Y-69050000D01*
X179578571Y-69107142D01*
X179578571Y-69250000D01*
X179550000Y-69307142D01*
X179521428Y-69335714D01*
X179464285Y-69364285D01*
X179407142Y-69364285D01*
X179321428Y-69335714D01*
X178978571Y-68992857D01*
X178978571Y-69364285D01*
X179521428Y-69592857D02*
X179550000Y-69621428D01*
X179578571Y-69678571D01*
X179578571Y-69821428D01*
X179550000Y-69878571D01*
X179521428Y-69907142D01*
X179464285Y-69935714D01*
X179407142Y-69935714D01*
X179321428Y-69907142D01*
X178978571Y-69564285D01*
X178978571Y-69935714D01*
X179378571Y-70450000D02*
X178978571Y-70450000D01*
X179378571Y-70192857D02*
X179064285Y-70192857D01*
X179007142Y-70221428D01*
X178978571Y-70278571D01*
X178978571Y-70364285D01*
X179007142Y-70421428D01*
X179035714Y-70450000D01*
X135771428Y-70521428D02*
X135800000Y-70550000D01*
X135828571Y-70607142D01*
X135828571Y-70750000D01*
X135800000Y-70807142D01*
X135771428Y-70835714D01*
X135714285Y-70864285D01*
X135657142Y-70864285D01*
X135571428Y-70835714D01*
X135228571Y-70492857D01*
X135228571Y-70864285D01*
X135771428Y-71092857D02*
X135800000Y-71121428D01*
X135828571Y-71178571D01*
X135828571Y-71321428D01*
X135800000Y-71378571D01*
X135771428Y-71407142D01*
X135714285Y-71435714D01*
X135657142Y-71435714D01*
X135571428Y-71407142D01*
X135228571Y-71064285D01*
X135228571Y-71435714D01*
X135628571Y-71950000D02*
X135228571Y-71950000D01*
X135628571Y-71692857D02*
X135314285Y-71692857D01*
X135257142Y-71721428D01*
X135228571Y-71778571D01*
X135228571Y-71864285D01*
X135257142Y-71921428D01*
X135285714Y-71950000D01*
X174271428Y-73900000D02*
X174300000Y-73928571D01*
X174328571Y-73985714D01*
X174328571Y-74128571D01*
X174300000Y-74185714D01*
X174271428Y-74214285D01*
X174214285Y-74242857D01*
X174157142Y-74242857D01*
X174071428Y-74214285D01*
X173728571Y-73871428D01*
X173728571Y-74242857D01*
X173785714Y-74500000D02*
X173757142Y-74528571D01*
X173728571Y-74500000D01*
X173757142Y-74471428D01*
X173785714Y-74500000D01*
X173728571Y-74500000D01*
X174328571Y-75071428D02*
X174328571Y-74785714D01*
X174042857Y-74757142D01*
X174071428Y-74785714D01*
X174100000Y-74842857D01*
X174100000Y-74985714D01*
X174071428Y-75042857D01*
X174042857Y-75071428D01*
X173985714Y-75100000D01*
X173842857Y-75100000D01*
X173785714Y-75071428D01*
X173757142Y-75042857D01*
X173728571Y-74985714D01*
X173728571Y-74842857D01*
X173757142Y-74785714D01*
X173785714Y-74757142D01*
X132021428Y-70650000D02*
X132050000Y-70678571D01*
X132078571Y-70735714D01*
X132078571Y-70878571D01*
X132050000Y-70935714D01*
X132021428Y-70964285D01*
X131964285Y-70992857D01*
X131907142Y-70992857D01*
X131821428Y-70964285D01*
X131478571Y-70621428D01*
X131478571Y-70992857D01*
X131535714Y-71250000D02*
X131507142Y-71278571D01*
X131478571Y-71250000D01*
X131507142Y-71221428D01*
X131535714Y-71250000D01*
X131478571Y-71250000D01*
X132078571Y-71821428D02*
X132078571Y-71535714D01*
X131792857Y-71507142D01*
X131821428Y-71535714D01*
X131850000Y-71592857D01*
X131850000Y-71735714D01*
X131821428Y-71792857D01*
X131792857Y-71821428D01*
X131735714Y-71850000D01*
X131592857Y-71850000D01*
X131535714Y-71821428D01*
X131507142Y-71792857D01*
X131478571Y-71735714D01*
X131478571Y-71592857D01*
X131507142Y-71535714D01*
X131535714Y-71507142D01*
X171828571Y-74021428D02*
X171828571Y-74078571D01*
X171800000Y-74135714D01*
X171771428Y-74164285D01*
X171714285Y-74192857D01*
X171600000Y-74221428D01*
X171457142Y-74221428D01*
X171342857Y-74192857D01*
X171285714Y-74164285D01*
X171257142Y-74135714D01*
X171228571Y-74078571D01*
X171228571Y-74021428D01*
X171257142Y-73964285D01*
X171285714Y-73935714D01*
X171342857Y-73907142D01*
X171457142Y-73878571D01*
X171600000Y-73878571D01*
X171714285Y-73907142D01*
X171771428Y-73935714D01*
X171800000Y-73964285D01*
X171828571Y-74021428D01*
X171285714Y-74478571D02*
X171257142Y-74507142D01*
X171228571Y-74478571D01*
X171257142Y-74450000D01*
X171285714Y-74478571D01*
X171228571Y-74478571D01*
X171228571Y-75078571D02*
X171228571Y-74735714D01*
X171228571Y-74907142D02*
X171828571Y-74907142D01*
X171742857Y-74850000D01*
X171685714Y-74792857D01*
X171657142Y-74735714D01*
X171628571Y-75592857D02*
X171228571Y-75592857D01*
X171628571Y-75335714D02*
X171314285Y-75335714D01*
X171257142Y-75364285D01*
X171228571Y-75421428D01*
X171228571Y-75507142D01*
X171257142Y-75564285D01*
X171285714Y-75592857D01*
X129578571Y-70771428D02*
X129578571Y-70828571D01*
X129550000Y-70885714D01*
X129521428Y-70914285D01*
X129464285Y-70942857D01*
X129350000Y-70971428D01*
X129207142Y-70971428D01*
X129092857Y-70942857D01*
X129035714Y-70914285D01*
X129007142Y-70885714D01*
X128978571Y-70828571D01*
X128978571Y-70771428D01*
X129007142Y-70714285D01*
X129035714Y-70685714D01*
X129092857Y-70657142D01*
X129207142Y-70628571D01*
X129350000Y-70628571D01*
X129464285Y-70657142D01*
X129521428Y-70685714D01*
X129550000Y-70714285D01*
X129578571Y-70771428D01*
X129035714Y-71228571D02*
X129007142Y-71257142D01*
X128978571Y-71228571D01*
X129007142Y-71200000D01*
X129035714Y-71228571D01*
X128978571Y-71228571D01*
X128978571Y-71828571D02*
X128978571Y-71485714D01*
X128978571Y-71657142D02*
X129578571Y-71657142D01*
X129492857Y-71600000D01*
X129435714Y-71542857D01*
X129407142Y-71485714D01*
X129378571Y-72342857D02*
X128978571Y-72342857D01*
X129378571Y-72085714D02*
X129064285Y-72085714D01*
X129007142Y-72114285D01*
X128978571Y-72171428D01*
X128978571Y-72257142D01*
X129007142Y-72314285D01*
X129035714Y-72342857D01*
D12*
X110850000Y-125500000D02*
X110850000Y-129500000D01*
D13*
X108250000Y-94600000D02*
X108250000Y-58000000D01*
X173850000Y-60000000D02*
X173850000Y-64000000D01*
X151750000Y-64000000D02*
X151750000Y-96000000D01*
X149850000Y-65000000D02*
X149850000Y-94600000D01*
D12*
X190850000Y-105000000D02*
X194350000Y-105000000D01*
D13*
X108250000Y-58000000D02*
X136500000Y-58000000D01*
D12*
X109350000Y-105000000D02*
X112850000Y-105000000D01*
D13*
X151750000Y-96000000D02*
X194850000Y-96000000D01*
X136500000Y-65000000D02*
X149850000Y-65000000D01*
X194850000Y-60000000D02*
X173850000Y-60000000D01*
X173850000Y-64000000D02*
X151750000Y-64000000D01*
X194850000Y-96000000D02*
X194850000Y-60000000D01*
D12*
X111100000Y-103000000D02*
X111100000Y-107000000D01*
X109100000Y-127500000D02*
X112600000Y-127500000D01*
D13*
X136500000Y-58000000D02*
X136500000Y-65000000D01*
X149850000Y-94600000D02*
X108250000Y-94600000D01*
D12*
X190600000Y-127500000D02*
X194100000Y-127500000D01*
D10*
X183600000Y-52452380D02*
X183790476Y-52452380D01*
X183885714Y-52500000D01*
X183980952Y-52595238D01*
X184028571Y-52785714D01*
X184028571Y-53119047D01*
X183980952Y-53309523D01*
X183885714Y-53404761D01*
X183790476Y-53452380D01*
X183600000Y-53452380D01*
X183504761Y-53404761D01*
X183409523Y-53309523D01*
X183361904Y-53119047D01*
X183361904Y-52785714D01*
X183409523Y-52595238D01*
X183504761Y-52500000D01*
X183600000Y-52452380D01*
X184457142Y-52452380D02*
X184457142Y-53261904D01*
X184504761Y-53357142D01*
X184552380Y-53404761D01*
X184647619Y-53452380D01*
X184838095Y-53452380D01*
X184933333Y-53404761D01*
X184980952Y-53357142D01*
X185028571Y-53261904D01*
X185028571Y-52452380D01*
X185361904Y-52452380D02*
X185933333Y-52452380D01*
X185647619Y-53452380D02*
X185647619Y-52452380D01*
X185613578Y-93343400D02*
X186143908Y-92813070D01*
X186270177Y-92939339D01*
X186320685Y-93040355D01*
X186320685Y-93141370D01*
X186295431Y-93217131D01*
X186219669Y-93343400D01*
X186143908Y-93419162D01*
X186017639Y-93494923D01*
X185941877Y-93520177D01*
X185840862Y-93520177D01*
X185739847Y-93469669D01*
X185613578Y-93343400D01*
X186598477Y-93267639D02*
X186244923Y-93974746D01*
X186952030Y-93621192D01*
X186952030Y-94580837D02*
X186901522Y-94580837D01*
X186800507Y-94530330D01*
X186750000Y-94479822D01*
X186699492Y-94378807D01*
X186699492Y-94277791D01*
X186724746Y-94202030D01*
X186800507Y-94075761D01*
X186876269Y-94000000D01*
X187002538Y-93924238D01*
X187078299Y-93898984D01*
X187179314Y-93898984D01*
X187280330Y-93949492D01*
X187330837Y-94000000D01*
X187381345Y-94101015D01*
X187381345Y-94151522D01*
X187482360Y-95111167D02*
X187431852Y-95111167D01*
X187330837Y-95060660D01*
X187280330Y-95010152D01*
X187229822Y-94909137D01*
X187229822Y-94808122D01*
X187255076Y-94732360D01*
X187330837Y-94606091D01*
X187406599Y-94530330D01*
X187532868Y-94454568D01*
X187608629Y-94429314D01*
X187709644Y-94429314D01*
X187810660Y-94479822D01*
X187861167Y-94530330D01*
X187911675Y-94631345D01*
X187911675Y-94681852D01*
X142991370Y-92370685D02*
X143041877Y-92471700D01*
X143168147Y-92597969D01*
X143243908Y-92623223D01*
X143294416Y-92623223D01*
X143370177Y-92597969D01*
X143420685Y-92547461D01*
X143445938Y-92471700D01*
X143445938Y-92421192D01*
X143420685Y-92345431D01*
X143344923Y-92219162D01*
X143319669Y-92143400D01*
X143319669Y-92092893D01*
X143344923Y-92017131D01*
X143395431Y-91966624D01*
X143471192Y-91941370D01*
X143521700Y-91941370D01*
X143597461Y-91966624D01*
X143723730Y-92092893D01*
X143774238Y-92193908D01*
X143496446Y-92926269D02*
X144026776Y-92395938D01*
X144153045Y-92522208D01*
X144203553Y-92623223D01*
X144203553Y-92724238D01*
X144178299Y-92800000D01*
X144102538Y-92926269D01*
X144026776Y-93002030D01*
X143900507Y-93077791D01*
X143824746Y-93103045D01*
X143723730Y-93103045D01*
X143622715Y-93052538D01*
X143496446Y-92926269D01*
X144153045Y-93279822D02*
X144405583Y-93532360D01*
X143951015Y-93380837D02*
X144658122Y-93027284D01*
X144304568Y-93734391D01*
X145413282Y-52985702D02*
X145547969Y-52918358D01*
X145615312Y-52918358D01*
X145716328Y-52952030D01*
X145817343Y-53053045D01*
X145851015Y-53154061D01*
X145851015Y-53221404D01*
X145817343Y-53322419D01*
X145547969Y-53591793D01*
X144840862Y-52884687D01*
X145076564Y-52648984D01*
X145177580Y-52615312D01*
X145244923Y-52615312D01*
X145345938Y-52648984D01*
X145413282Y-52716328D01*
X145446954Y-52817343D01*
X145446954Y-52884687D01*
X145413282Y-52985702D01*
X145177580Y-53221404D01*
X145581641Y-52278595D02*
X145581641Y-52211251D01*
X145615312Y-52110236D01*
X145783671Y-51941877D01*
X145884687Y-51908206D01*
X145952030Y-51908206D01*
X146053045Y-51941877D01*
X146120389Y-52009221D01*
X146187732Y-52143908D01*
X146187732Y-52952030D01*
X146625465Y-52514297D01*
X154793400Y-69436421D02*
X154263070Y-68906091D01*
X154389339Y-68779822D01*
X154490355Y-68729314D01*
X154591370Y-68729314D01*
X154667131Y-68754568D01*
X154793400Y-68830330D01*
X154869162Y-68906091D01*
X154944923Y-69032360D01*
X154970177Y-69108122D01*
X154970177Y-69209137D01*
X154919669Y-69310152D01*
X154793400Y-69436421D01*
X154717639Y-68451522D02*
X155424746Y-68805076D01*
X155071192Y-68097969D01*
X156030837Y-68097969D02*
X156030837Y-68148477D01*
X155980330Y-68249492D01*
X155929822Y-68299999D01*
X155828807Y-68350507D01*
X155727791Y-68350507D01*
X155652030Y-68325253D01*
X155525761Y-68249492D01*
X155450000Y-68173730D01*
X155374238Y-68047461D01*
X155348984Y-67971700D01*
X155348984Y-67870685D01*
X155399492Y-67769669D01*
X155450000Y-67719162D01*
X155551015Y-67668654D01*
X155601522Y-67668654D01*
X156561167Y-67567639D02*
X156561167Y-67618147D01*
X156510660Y-67719162D01*
X156460152Y-67769669D01*
X156359137Y-67820177D01*
X156258122Y-67820177D01*
X156182360Y-67794923D01*
X156056091Y-67719162D01*
X155980330Y-67643400D01*
X155904568Y-67517131D01*
X155879314Y-67441370D01*
X155879314Y-67340355D01*
X155929822Y-67239339D01*
X155980330Y-67188832D01*
X156081345Y-67138324D01*
X156131852Y-67138324D01*
X115420685Y-64558629D02*
X115521700Y-64508122D01*
X115647969Y-64381852D01*
X115673223Y-64306091D01*
X115673223Y-64255583D01*
X115647969Y-64179822D01*
X115597461Y-64129314D01*
X115521700Y-64104061D01*
X115471192Y-64104061D01*
X115395431Y-64129314D01*
X115269162Y-64205076D01*
X115193400Y-64230330D01*
X115142893Y-64230330D01*
X115067131Y-64205076D01*
X115016624Y-64154568D01*
X114991370Y-64078807D01*
X114991370Y-64028299D01*
X115016624Y-63952538D01*
X115142893Y-63826269D01*
X115243908Y-63775761D01*
X115976269Y-64053553D02*
X115445938Y-63523223D01*
X115572208Y-63396954D01*
X115673223Y-63346446D01*
X115774238Y-63346446D01*
X115850000Y-63371700D01*
X115976269Y-63447461D01*
X116052030Y-63523223D01*
X116127791Y-63649492D01*
X116153045Y-63725253D01*
X116153045Y-63826269D01*
X116102538Y-63927284D01*
X115976269Y-64053553D01*
X116329822Y-63396954D02*
X116582360Y-63144416D01*
X116430837Y-63598984D02*
X116077284Y-62891877D01*
X116784391Y-63245431D01*
X166410714Y-67446428D02*
X166410714Y-67303571D01*
X166375000Y-67232142D01*
X166339285Y-67196428D01*
X166232142Y-67125000D01*
X166089285Y-67089285D01*
X165803571Y-67089285D01*
X165732142Y-67125000D01*
X165696428Y-67160714D01*
X165660714Y-67232142D01*
X165660714Y-67375000D01*
X165696428Y-67446428D01*
X165732142Y-67482142D01*
X165803571Y-67517857D01*
X165982142Y-67517857D01*
X166053571Y-67482142D01*
X166089285Y-67446428D01*
X166125000Y-67375000D01*
X166125000Y-67232142D01*
X166089285Y-67160714D01*
X166053571Y-67125000D01*
X165982142Y-67089285D01*
X166410714Y-67767857D02*
X166410714Y-68232142D01*
X166125000Y-67982142D01*
X166125000Y-68089285D01*
X166089285Y-68160714D01*
X166053571Y-68196428D01*
X165982142Y-68232142D01*
X165803571Y-68232142D01*
X165732142Y-68196428D01*
X165696428Y-68160714D01*
X165660714Y-68089285D01*
X165660714Y-67875000D01*
X165696428Y-67803571D01*
X165732142Y-67767857D01*
X165732142Y-68553571D02*
X165696428Y-68589285D01*
X165660714Y-68553571D01*
X165696428Y-68517857D01*
X165732142Y-68553571D01*
X165660714Y-68553571D01*
X166160714Y-69232142D02*
X165660714Y-69232142D01*
X166446428Y-69053571D02*
X165910714Y-68875000D01*
X165910714Y-69339285D01*
X165660714Y-69625000D02*
X166410714Y-69625000D01*
X165946428Y-69696428D02*
X165660714Y-69910714D01*
X166160714Y-69910714D02*
X165875000Y-69625000D01*
X120231725Y-63486929D02*
X120459009Y-64623350D01*
X120913578Y-63865736D02*
X121014593Y-63815228D01*
X121140862Y-63688959D01*
X121166116Y-63613198D01*
X121166116Y-63562690D01*
X121140862Y-63486929D01*
X121090355Y-63436421D01*
X121014593Y-63411167D01*
X120964086Y-63411167D01*
X120888324Y-63436421D01*
X120762055Y-63512183D01*
X120686294Y-63537436D01*
X120635786Y-63537436D01*
X120560024Y-63512183D01*
X120509517Y-63461675D01*
X120484263Y-63385913D01*
X120484263Y-63335406D01*
X120509517Y-63259644D01*
X120635786Y-63133375D01*
X120736801Y-63082868D01*
X121469162Y-63360660D02*
X120938832Y-62830330D01*
X121494416Y-63032360D01*
X121292385Y-62476776D01*
X121822715Y-63007106D01*
X121974238Y-62300000D02*
X122075253Y-62249492D01*
X122125761Y-62249492D01*
X122201522Y-62274746D01*
X122277284Y-62350507D01*
X122302538Y-62426269D01*
X122302538Y-62476776D01*
X122277284Y-62552538D01*
X122075253Y-62754568D01*
X121544923Y-62224238D01*
X121721700Y-62047461D01*
X121797461Y-62022208D01*
X121847969Y-62022208D01*
X121923730Y-62047461D01*
X121974238Y-62097969D01*
X121999492Y-62173730D01*
X121999492Y-62224238D01*
X121974238Y-62300000D01*
X121797461Y-62476776D01*
X122428807Y-62097969D02*
X122681345Y-61845431D01*
X122529822Y-62300000D02*
X122176269Y-61592893D01*
X122883375Y-61946446D01*
X123312690Y-61517131D02*
X123060152Y-61769669D01*
X122529822Y-61239339D01*
X123792513Y-61037309D02*
X123363198Y-60961547D01*
X123489467Y-61340355D02*
X122959137Y-60810024D01*
X123161167Y-60607994D01*
X123236929Y-60582740D01*
X123287436Y-60582740D01*
X123363198Y-60607994D01*
X123438959Y-60683755D01*
X123464213Y-60759517D01*
X123464213Y-60810024D01*
X123438959Y-60885786D01*
X123236929Y-61087816D01*
X123413705Y-60355456D02*
X123716751Y-60052410D01*
X124095558Y-60734263D02*
X123565228Y-60203933D01*
X123978571Y-70892857D02*
X123978571Y-70550000D01*
X123978571Y-70721428D02*
X124578571Y-70721428D01*
X124492857Y-70664285D01*
X124435714Y-70607142D01*
X124407142Y-70550000D01*
X124578571Y-71264285D02*
X124578571Y-71321428D01*
X124550000Y-71378571D01*
X124521428Y-71407142D01*
X124464285Y-71435714D01*
X124350000Y-71464285D01*
X124207142Y-71464285D01*
X124092857Y-71435714D01*
X124035714Y-71407142D01*
X124007142Y-71378571D01*
X123978571Y-71321428D01*
X123978571Y-71264285D01*
X124007142Y-71207142D01*
X124035714Y-71178571D01*
X124092857Y-71150000D01*
X124207142Y-71121428D01*
X124350000Y-71121428D01*
X124464285Y-71150000D01*
X124521428Y-71178571D01*
X124550000Y-71207142D01*
X124578571Y-71264285D01*
X123978571Y-71721428D02*
X124578571Y-71721428D01*
X124207142Y-71778571D02*
X123978571Y-71950000D01*
X124378571Y-71950000D02*
X124150000Y-71721428D01*
X178088095Y-50428571D02*
X178230952Y-50476190D01*
X178278571Y-50523809D01*
X178326190Y-50619047D01*
X178326190Y-50761904D01*
X178278571Y-50857142D01*
X178230952Y-50904761D01*
X178135714Y-50952380D01*
X177754761Y-50952380D01*
X177754761Y-49952380D01*
X178088095Y-49952380D01*
X178183333Y-50000000D01*
X178230952Y-50047619D01*
X178278571Y-50142857D01*
X178278571Y-50238095D01*
X178230952Y-50333333D01*
X178183333Y-50380952D01*
X178088095Y-50428571D01*
X177754761Y-50428571D01*
X179278571Y-50952380D02*
X178707142Y-50952380D01*
X178992857Y-50952380D02*
X178992857Y-49952380D01*
X178897619Y-50095238D01*
X178802380Y-50190476D01*
X178707142Y-50238095D01*
X180802380Y-50428571D02*
X180945238Y-50476190D01*
X180992857Y-50523809D01*
X181040476Y-50619047D01*
X181040476Y-50761904D01*
X180992857Y-50857142D01*
X180945238Y-50904761D01*
X180850000Y-50952380D01*
X180469047Y-50952380D01*
X180469047Y-49952380D01*
X180802380Y-49952380D01*
X180897619Y-50000000D01*
X180945238Y-50047619D01*
X180992857Y-50142857D01*
X180992857Y-50238095D01*
X180945238Y-50333333D01*
X180897619Y-50380952D01*
X180802380Y-50428571D01*
X180469047Y-50428571D01*
X181421428Y-50047619D02*
X181469047Y-50000000D01*
X181564285Y-49952380D01*
X181802380Y-49952380D01*
X181897619Y-50000000D01*
X181945238Y-50047619D01*
X181992857Y-50142857D01*
X181992857Y-50238095D01*
X181945238Y-50380952D01*
X181373809Y-50952380D01*
X181992857Y-50952380D01*
D14*
X142564285Y-136971071D02*
X142564285Y-135471071D01*
X143135714Y-135471071D01*
X143278571Y-135542500D01*
X143350000Y-135613928D01*
X143421428Y-135756785D01*
X143421428Y-135971071D01*
X143350000Y-136113928D01*
X143278571Y-136185357D01*
X143135714Y-136256785D01*
X142564285Y-136256785D01*
X144278571Y-136971071D02*
X144135714Y-136899642D01*
X144064285Y-136828214D01*
X143992857Y-136685357D01*
X143992857Y-136256785D01*
X144064285Y-136113928D01*
X144135714Y-136042500D01*
X144278571Y-135971071D01*
X144492857Y-135971071D01*
X144635714Y-136042500D01*
X144707142Y-136113928D01*
X144778571Y-136256785D01*
X144778571Y-136685357D01*
X144707142Y-136828214D01*
X144635714Y-136899642D01*
X144492857Y-136971071D01*
X144278571Y-136971071D01*
X145278571Y-135971071D02*
X145564285Y-136971071D01*
X145850000Y-136256785D01*
X146135714Y-136971071D01*
X146421428Y-135971071D01*
X147564285Y-136899642D02*
X147421428Y-136971071D01*
X147135714Y-136971071D01*
X146992857Y-136899642D01*
X146921428Y-136756785D01*
X146921428Y-136185357D01*
X146992857Y-136042500D01*
X147135714Y-135971071D01*
X147421428Y-135971071D01*
X147564285Y-136042500D01*
X147635714Y-136185357D01*
X147635714Y-136328214D01*
X146921428Y-136471071D01*
X148278571Y-136971071D02*
X148278571Y-135971071D01*
X148278571Y-136256785D02*
X148350000Y-136113928D01*
X148421428Y-136042500D01*
X148564285Y-135971071D01*
X148707142Y-135971071D01*
X150850000Y-136185357D02*
X151064285Y-136256785D01*
X151135714Y-136328214D01*
X151207142Y-136471071D01*
X151207142Y-136685357D01*
X151135714Y-136828214D01*
X151064285Y-136899642D01*
X150921428Y-136971071D01*
X150350000Y-136971071D01*
X150350000Y-135471071D01*
X150850000Y-135471071D01*
X150992857Y-135542500D01*
X151064285Y-135613928D01*
X151135714Y-135756785D01*
X151135714Y-135899642D01*
X151064285Y-136042500D01*
X150992857Y-136113928D01*
X150850000Y-136185357D01*
X150350000Y-136185357D01*
X152064285Y-136971071D02*
X151921428Y-136899642D01*
X151850000Y-136828214D01*
X151778571Y-136685357D01*
X151778571Y-136256785D01*
X151850000Y-136113928D01*
X151921428Y-136042500D01*
X152064285Y-135971071D01*
X152278571Y-135971071D01*
X152421428Y-136042500D01*
X152492857Y-136113928D01*
X152564285Y-136256785D01*
X152564285Y-136685357D01*
X152492857Y-136828214D01*
X152421428Y-136899642D01*
X152278571Y-136971071D01*
X152064285Y-136971071D01*
X153850000Y-136971071D02*
X153850000Y-136185357D01*
X153778571Y-136042500D01*
X153635714Y-135971071D01*
X153350000Y-135971071D01*
X153207142Y-136042500D01*
X153850000Y-136899642D02*
X153707142Y-136971071D01*
X153350000Y-136971071D01*
X153207142Y-136899642D01*
X153135714Y-136756785D01*
X153135714Y-136613928D01*
X153207142Y-136471071D01*
X153350000Y-136399642D01*
X153707142Y-136399642D01*
X153850000Y-136328214D01*
X154564285Y-136971071D02*
X154564285Y-135971071D01*
X154564285Y-136256785D02*
X154635714Y-136113928D01*
X154707142Y-136042500D01*
X154850000Y-135971071D01*
X154992857Y-135971071D01*
X156135714Y-136971071D02*
X156135714Y-135471071D01*
X156135714Y-136899642D02*
X155992857Y-136971071D01*
X155707142Y-136971071D01*
X155564285Y-136899642D01*
X155492857Y-136828214D01*
X155421428Y-136685357D01*
X155421428Y-136256785D01*
X155492857Y-136113928D01*
X155564285Y-136042500D01*
X155707142Y-135971071D01*
X155992857Y-135971071D01*
X156135714Y-136042500D01*
X157778571Y-135471071D02*
X158278571Y-136971071D01*
X158778571Y-135471071D01*
X159992857Y-135471071D02*
X159278571Y-135471071D01*
X159207142Y-136185357D01*
X159278571Y-136113928D01*
X159421428Y-136042500D01*
X159778571Y-136042500D01*
X159921428Y-136113928D01*
X159992857Y-136185357D01*
X160064285Y-136328214D01*
X160064285Y-136685357D01*
X159992857Y-136828214D01*
X159921428Y-136899642D01*
X159778571Y-136971071D01*
X159421428Y-136971071D01*
X159278571Y-136899642D01*
X159207142Y-136828214D01*
X160707142Y-136828214D02*
X160778571Y-136899642D01*
X160707142Y-136971071D01*
X160635714Y-136899642D01*
X160707142Y-136828214D01*
X160707142Y-136971071D01*
X161707142Y-135471071D02*
X161850000Y-135471071D01*
X161992857Y-135542500D01*
X162064285Y-135613928D01*
X162135714Y-135756785D01*
X162207142Y-136042500D01*
X162207142Y-136399642D01*
X162135714Y-136685357D01*
X162064285Y-136828214D01*
X161992857Y-136899642D01*
X161850000Y-136971071D01*
X161707142Y-136971071D01*
X161564285Y-136899642D01*
X161492857Y-136828214D01*
X161421428Y-136685357D01*
X161350000Y-136399642D01*
X161350000Y-136042500D01*
X161421428Y-135756785D01*
X161492857Y-135613928D01*
X161564285Y-135542500D01*
X161707142Y-135471071D01*
X143778571Y-139386071D02*
X143278571Y-138671785D01*
X142921428Y-139386071D02*
X142921428Y-137886071D01*
X143492857Y-137886071D01*
X143635714Y-137957500D01*
X143707142Y-138028928D01*
X143778571Y-138171785D01*
X143778571Y-138386071D01*
X143707142Y-138528928D01*
X143635714Y-138600357D01*
X143492857Y-138671785D01*
X142921428Y-138671785D01*
X144992857Y-139314642D02*
X144850000Y-139386071D01*
X144564285Y-139386071D01*
X144421428Y-139314642D01*
X144350000Y-139171785D01*
X144350000Y-138600357D01*
X144421428Y-138457500D01*
X144564285Y-138386071D01*
X144850000Y-138386071D01*
X144992857Y-138457500D01*
X145064285Y-138600357D01*
X145064285Y-138743214D01*
X144350000Y-138886071D01*
X145564285Y-138386071D02*
X145921428Y-139386071D01*
X146278571Y-138386071D01*
X147850000Y-137886071D02*
X148778571Y-137886071D01*
X148278571Y-138457500D01*
X148492857Y-138457500D01*
X148635714Y-138528928D01*
X148707142Y-138600357D01*
X148778571Y-138743214D01*
X148778571Y-139100357D01*
X148707142Y-139243214D01*
X148635714Y-139314642D01*
X148492857Y-139386071D01*
X148064285Y-139386071D01*
X147921428Y-139314642D01*
X147850000Y-139243214D01*
X150492857Y-138957500D02*
X151207142Y-138957500D01*
X150350000Y-139386071D02*
X150850000Y-137886071D01*
X151350000Y-139386071D01*
X151850000Y-138386071D02*
X151850000Y-139886071D01*
X151850000Y-138457500D02*
X151992857Y-138386071D01*
X152278571Y-138386071D01*
X152421428Y-138457500D01*
X152492857Y-138528928D01*
X152564285Y-138671785D01*
X152564285Y-139100357D01*
X152492857Y-139243214D01*
X152421428Y-139314642D01*
X152278571Y-139386071D01*
X151992857Y-139386071D01*
X151850000Y-139314642D01*
X153207142Y-139386071D02*
X153207142Y-138386071D01*
X153207142Y-138671785D02*
X153278571Y-138528928D01*
X153350000Y-138457500D01*
X153492857Y-138386071D01*
X153635714Y-138386071D01*
X154135714Y-139386071D02*
X154135714Y-138386071D01*
X154135714Y-137886071D02*
X154064285Y-137957500D01*
X154135714Y-138028928D01*
X154207142Y-137957500D01*
X154135714Y-137886071D01*
X154135714Y-138028928D01*
X155064285Y-139386071D02*
X154921428Y-139314642D01*
X154850000Y-139171785D01*
X154850000Y-137886071D01*
X156707142Y-138028928D02*
X156778571Y-137957500D01*
X156921428Y-137886071D01*
X157278571Y-137886071D01*
X157421428Y-137957500D01*
X157492857Y-138028928D01*
X157564285Y-138171785D01*
X157564285Y-138314642D01*
X157492857Y-138528928D01*
X156635714Y-139386071D01*
X157564285Y-139386071D01*
X158492857Y-137886071D02*
X158635714Y-137886071D01*
X158778571Y-137957500D01*
X158850000Y-138028928D01*
X158921428Y-138171785D01*
X158992857Y-138457500D01*
X158992857Y-138814642D01*
X158921428Y-139100357D01*
X158850000Y-139243214D01*
X158778571Y-139314642D01*
X158635714Y-139386071D01*
X158492857Y-139386071D01*
X158350000Y-139314642D01*
X158278571Y-139243214D01*
X158207142Y-139100357D01*
X158135714Y-138814642D01*
X158135714Y-138457500D01*
X158207142Y-138171785D01*
X158278571Y-138028928D01*
X158350000Y-137957500D01*
X158492857Y-137886071D01*
X159564285Y-138028928D02*
X159635714Y-137957500D01*
X159778571Y-137886071D01*
X160135714Y-137886071D01*
X160278571Y-137957500D01*
X160350000Y-138028928D01*
X160421428Y-138171785D01*
X160421428Y-138314642D01*
X160350000Y-138528928D01*
X159492857Y-139386071D01*
X160421428Y-139386071D01*
X160921428Y-137886071D02*
X161850000Y-137886071D01*
X161350000Y-138457500D01*
X161564285Y-138457500D01*
X161707142Y-138528928D01*
X161778571Y-138600357D01*
X161850000Y-138743214D01*
X161850000Y-139100357D01*
X161778571Y-139243214D01*
X161707142Y-139314642D01*
X161564285Y-139386071D01*
X161135714Y-139386071D01*
X160992857Y-139314642D01*
X160921428Y-139243214D01*
X168032142Y-47827142D02*
X168246428Y-47898571D01*
X168603571Y-47898571D01*
X168746428Y-47827142D01*
X168817857Y-47755714D01*
X168889285Y-47612857D01*
X168889285Y-47470000D01*
X168817857Y-47327142D01*
X168746428Y-47255714D01*
X168603571Y-47184285D01*
X168317857Y-47112857D01*
X168175000Y-47041428D01*
X168103571Y-46970000D01*
X168032142Y-46827142D01*
X168032142Y-46684285D01*
X168103571Y-46541428D01*
X168175000Y-46470000D01*
X168317857Y-46398571D01*
X168675000Y-46398571D01*
X168889285Y-46470000D01*
X170317857Y-47898571D02*
X169460714Y-47898571D01*
X169889285Y-47898571D02*
X169889285Y-46398571D01*
X169746428Y-46612857D01*
X169603571Y-46755714D01*
X169460714Y-46827142D01*
D10*
X171478571Y-68078571D02*
X171478571Y-67735714D01*
X171478571Y-67907142D02*
X172078571Y-67907142D01*
X171992857Y-67850000D01*
X171935714Y-67792857D01*
X171907142Y-67735714D01*
X172078571Y-68621428D02*
X172078571Y-68335714D01*
X171792857Y-68307142D01*
X171821428Y-68335714D01*
X171850000Y-68392857D01*
X171850000Y-68535714D01*
X171821428Y-68592857D01*
X171792857Y-68621428D01*
X171735714Y-68650000D01*
X171592857Y-68650000D01*
X171535714Y-68621428D01*
X171507142Y-68592857D01*
X171478571Y-68535714D01*
X171478571Y-68392857D01*
X171507142Y-68335714D01*
X171535714Y-68307142D01*
X172078571Y-69021428D02*
X172078571Y-69078571D01*
X172050000Y-69135714D01*
X172021428Y-69164285D01*
X171964285Y-69192857D01*
X171850000Y-69221428D01*
X171707142Y-69221428D01*
X171592857Y-69192857D01*
X171535714Y-69164285D01*
X171507142Y-69135714D01*
X171478571Y-69078571D01*
X171478571Y-69021428D01*
X171507142Y-68964285D01*
X171535714Y-68935714D01*
X171592857Y-68907142D01*
X171707142Y-68878571D01*
X171850000Y-68878571D01*
X171964285Y-68907142D01*
X172021428Y-68935714D01*
X172050000Y-68964285D01*
X172078571Y-69021428D01*
X171878571Y-69735714D02*
X171478571Y-69735714D01*
X171878571Y-69478571D02*
X171564285Y-69478571D01*
X171507142Y-69507142D01*
X171478571Y-69564285D01*
X171478571Y-69650000D01*
X171507142Y-69707142D01*
X171535714Y-69735714D01*
X145503997Y-92383312D02*
X145554504Y-92484327D01*
X145680773Y-92610596D01*
X145756535Y-92635850D01*
X145807043Y-92635850D01*
X145882804Y-92610596D01*
X145933312Y-92560088D01*
X145958565Y-92484327D01*
X145958565Y-92433819D01*
X145933312Y-92358058D01*
X145857550Y-92231789D01*
X145832296Y-92156027D01*
X145832296Y-92105520D01*
X145857550Y-92029758D01*
X145908058Y-91979251D01*
X145983819Y-91953997D01*
X146034327Y-91953997D01*
X146110088Y-91979251D01*
X146236357Y-92105520D01*
X146286865Y-92206535D01*
X146362626Y-93191434D02*
X146312119Y-93191434D01*
X146211104Y-93140926D01*
X146160596Y-93090418D01*
X146110088Y-92989403D01*
X146110088Y-92888388D01*
X146135342Y-92812626D01*
X146211104Y-92686357D01*
X146286865Y-92610596D01*
X146413134Y-92534834D01*
X146488895Y-92509581D01*
X146589911Y-92509581D01*
X146690926Y-92560088D01*
X146741434Y-92610596D01*
X146791941Y-92711611D01*
X146791941Y-92762119D01*
X146791941Y-93721764D02*
X146539403Y-93469226D01*
X147069733Y-92938895D01*
X160033312Y-69346002D02*
X160134327Y-69295495D01*
X160260596Y-69169226D01*
X160285850Y-69093464D01*
X160285850Y-69042956D01*
X160260596Y-68967195D01*
X160210088Y-68916687D01*
X160134327Y-68891434D01*
X160083819Y-68891434D01*
X160008058Y-68916687D01*
X159881789Y-68992449D01*
X159806027Y-69017703D01*
X159755520Y-69017703D01*
X159679758Y-68992449D01*
X159629251Y-68941941D01*
X159603997Y-68866180D01*
X159603997Y-68815672D01*
X159629251Y-68739911D01*
X159755520Y-68613642D01*
X159856535Y-68563134D01*
X160841434Y-68487373D02*
X160841434Y-68537880D01*
X160790926Y-68638895D01*
X160740418Y-68689403D01*
X160639403Y-68739911D01*
X160538388Y-68739911D01*
X160462626Y-68714657D01*
X160336357Y-68638895D01*
X160260596Y-68563134D01*
X160184834Y-68436865D01*
X160159581Y-68361104D01*
X160159581Y-68260088D01*
X160210088Y-68159073D01*
X160260596Y-68108565D01*
X160361611Y-68058058D01*
X160412119Y-68058058D01*
X161371764Y-68058058D02*
X161119226Y-68310596D01*
X160588895Y-67780266D01*
D14*
X140532142Y-47827142D02*
X140746428Y-47898571D01*
X141103571Y-47898571D01*
X141246428Y-47827142D01*
X141317857Y-47755714D01*
X141389285Y-47612857D01*
X141389285Y-47470000D01*
X141317857Y-47327142D01*
X141246428Y-47255714D01*
X141103571Y-47184285D01*
X140817857Y-47112857D01*
X140675000Y-47041428D01*
X140603571Y-46970000D01*
X140532142Y-46827142D01*
X140532142Y-46684285D01*
X140603571Y-46541428D01*
X140675000Y-46470000D01*
X140817857Y-46398571D01*
X141175000Y-46398571D01*
X141389285Y-46470000D01*
X141889285Y-46398571D02*
X142817857Y-46398571D01*
X142317857Y-46970000D01*
X142532142Y-46970000D01*
X142675000Y-47041428D01*
X142746428Y-47112857D01*
X142817857Y-47255714D01*
X142817857Y-47612857D01*
X142746428Y-47755714D01*
X142675000Y-47827142D01*
X142532142Y-47898571D01*
X142103571Y-47898571D01*
X141960714Y-47827142D01*
X141889285Y-47755714D01*
X110635714Y-59892857D02*
X110850000Y-59964285D01*
X110921428Y-60035714D01*
X110992857Y-60178571D01*
X110992857Y-60392857D01*
X110921428Y-60535714D01*
X110850000Y-60607142D01*
X110707142Y-60678571D01*
X110135714Y-60678571D01*
X110135714Y-59178571D01*
X110635714Y-59178571D01*
X110778571Y-59250000D01*
X110850000Y-59321428D01*
X110921428Y-59464285D01*
X110921428Y-59607142D01*
X110850000Y-59750000D01*
X110778571Y-59821428D01*
X110635714Y-59892857D01*
X110135714Y-59892857D01*
X112278571Y-60678571D02*
X112278571Y-59892857D01*
X112207142Y-59750000D01*
X112064285Y-59678571D01*
X111778571Y-59678571D01*
X111635714Y-59750000D01*
X112278571Y-60607142D02*
X112135714Y-60678571D01*
X111778571Y-60678571D01*
X111635714Y-60607142D01*
X111564285Y-60464285D01*
X111564285Y-60321428D01*
X111635714Y-60178571D01*
X111778571Y-60107142D01*
X112135714Y-60107142D01*
X112278571Y-60035714D01*
X112778571Y-59678571D02*
X113350000Y-59678571D01*
X112992857Y-59178571D02*
X112992857Y-60464285D01*
X113064285Y-60607142D01*
X113207142Y-60678571D01*
X113350000Y-60678571D01*
X114635714Y-60678571D02*
X113778571Y-60678571D01*
X114207142Y-60678571D02*
X114207142Y-59178571D01*
X114064285Y-59392857D01*
X113921428Y-59535714D01*
X113778571Y-59607142D01*
D10*
X126728571Y-70900000D02*
X126728571Y-70557142D01*
X126728571Y-70728571D02*
X127328571Y-70728571D01*
X127242857Y-70671428D01*
X127185714Y-70614285D01*
X127157142Y-70557142D01*
X127128571Y-71414285D02*
X126728571Y-71414285D01*
X127128571Y-71157142D02*
X126814285Y-71157142D01*
X126757142Y-71185714D01*
X126728571Y-71242857D01*
X126728571Y-71328571D01*
X126757142Y-71385714D01*
X126785714Y-71414285D01*
X112693400Y-64536421D02*
X112163070Y-64006091D01*
X112289339Y-63879822D01*
X112390355Y-63829314D01*
X112491370Y-63829314D01*
X112567131Y-63854568D01*
X112693400Y-63930330D01*
X112769162Y-64006091D01*
X112844923Y-64132360D01*
X112870177Y-64208122D01*
X112870177Y-64309137D01*
X112819669Y-64410152D01*
X112693400Y-64536421D01*
X112617639Y-63551522D02*
X113324746Y-63905076D01*
X112971192Y-63197969D01*
X113930837Y-63197969D02*
X113930837Y-63248477D01*
X113880330Y-63349492D01*
X113829822Y-63400000D01*
X113728807Y-63450507D01*
X113627791Y-63450507D01*
X113552030Y-63425253D01*
X113425761Y-63349492D01*
X113350000Y-63273730D01*
X113274238Y-63147461D01*
X113248984Y-63071700D01*
X113248984Y-62970685D01*
X113299492Y-62869669D01*
X113350000Y-62819162D01*
X113451015Y-62768654D01*
X113501522Y-62768654D01*
X114461167Y-62667639D02*
X114461167Y-62718147D01*
X114410660Y-62819162D01*
X114360152Y-62869669D01*
X114259137Y-62920177D01*
X114158122Y-62920177D01*
X114082360Y-62894923D01*
X113956091Y-62819162D01*
X113880330Y-62743400D01*
X113804568Y-62617131D01*
X113779314Y-62541370D01*
X113779314Y-62440355D01*
X113829822Y-62339339D01*
X113880330Y-62288832D01*
X113981345Y-62238324D01*
X114031852Y-62238324D01*
X128978571Y-64078571D02*
X128978571Y-63735714D01*
X128978571Y-63907142D02*
X129578571Y-63907142D01*
X129492857Y-63850000D01*
X129435714Y-63792857D01*
X129407142Y-63735714D01*
X129578571Y-64621428D02*
X129578571Y-64335714D01*
X129292857Y-64307142D01*
X129321428Y-64335714D01*
X129350000Y-64392857D01*
X129350000Y-64535714D01*
X129321428Y-64592857D01*
X129292857Y-64621428D01*
X129235714Y-64650000D01*
X129092857Y-64650000D01*
X129035714Y-64621428D01*
X129007142Y-64592857D01*
X128978571Y-64535714D01*
X128978571Y-64392857D01*
X129007142Y-64335714D01*
X129035714Y-64307142D01*
X129578571Y-65021428D02*
X129578571Y-65078571D01*
X129550000Y-65135714D01*
X129521428Y-65164285D01*
X129464285Y-65192857D01*
X129350000Y-65221428D01*
X129207142Y-65221428D01*
X129092857Y-65192857D01*
X129035714Y-65164285D01*
X129007142Y-65135714D01*
X128978571Y-65078571D01*
X128978571Y-65021428D01*
X129007142Y-64964285D01*
X129035714Y-64935714D01*
X129092857Y-64907142D01*
X129207142Y-64878571D01*
X129350000Y-64878571D01*
X129464285Y-64907142D01*
X129521428Y-64935714D01*
X129550000Y-64964285D01*
X129578571Y-65021428D01*
X129378571Y-65735714D02*
X128978571Y-65735714D01*
X129378571Y-65478571D02*
X129064285Y-65478571D01*
X129007142Y-65507142D01*
X128978571Y-65564285D01*
X128978571Y-65650000D01*
X129007142Y-65707142D01*
X129035714Y-65735714D01*
X117933312Y-64546002D02*
X118034327Y-64495495D01*
X118160596Y-64369226D01*
X118185850Y-64293464D01*
X118185850Y-64242956D01*
X118160596Y-64167195D01*
X118110088Y-64116687D01*
X118034327Y-64091434D01*
X117983819Y-64091434D01*
X117908058Y-64116687D01*
X117781789Y-64192449D01*
X117706027Y-64217703D01*
X117655520Y-64217703D01*
X117579758Y-64192449D01*
X117529251Y-64141941D01*
X117503997Y-64066180D01*
X117503997Y-64015672D01*
X117529251Y-63939911D01*
X117655520Y-63813642D01*
X117756535Y-63763134D01*
X118741434Y-63687373D02*
X118741434Y-63737880D01*
X118690926Y-63838895D01*
X118640418Y-63889403D01*
X118539403Y-63939911D01*
X118438388Y-63939911D01*
X118362626Y-63914657D01*
X118236357Y-63838895D01*
X118160596Y-63763134D01*
X118084834Y-63636865D01*
X118059581Y-63561104D01*
X118059581Y-63460088D01*
X118110088Y-63359073D01*
X118160596Y-63308565D01*
X118261611Y-63258058D01*
X118312119Y-63258058D01*
X119271764Y-63258058D02*
X119019226Y-63510596D01*
X118488895Y-62980266D01*
D14*
X141032142Y-62827142D02*
X141246428Y-62898571D01*
X141603571Y-62898571D01*
X141746428Y-62827142D01*
X141817857Y-62755714D01*
X141889285Y-62612857D01*
X141889285Y-62470000D01*
X141817857Y-62327142D01*
X141746428Y-62255714D01*
X141603571Y-62184285D01*
X141317857Y-62112857D01*
X141175000Y-62041428D01*
X141103571Y-61970000D01*
X141032142Y-61827142D01*
X141032142Y-61684285D01*
X141103571Y-61541428D01*
X141175000Y-61470000D01*
X141317857Y-61398571D01*
X141675000Y-61398571D01*
X141889285Y-61470000D01*
X143175000Y-61898571D02*
X143175000Y-62898571D01*
X142817857Y-61327142D02*
X142460714Y-62398571D01*
X143389285Y-62398571D01*
D10*
X124410714Y-63196428D02*
X124410714Y-63053571D01*
X124375000Y-62982142D01*
X124339285Y-62946428D01*
X124232142Y-62875000D01*
X124089285Y-62839285D01*
X123803571Y-62839285D01*
X123732142Y-62875000D01*
X123696428Y-62910714D01*
X123660714Y-62982142D01*
X123660714Y-63125000D01*
X123696428Y-63196428D01*
X123732142Y-63232142D01*
X123803571Y-63267857D01*
X123982142Y-63267857D01*
X124053571Y-63232142D01*
X124089285Y-63196428D01*
X124125000Y-63125000D01*
X124125000Y-62982142D01*
X124089285Y-62910714D01*
X124053571Y-62875000D01*
X123982142Y-62839285D01*
X124410714Y-63517857D02*
X124410714Y-63982142D01*
X124125000Y-63732142D01*
X124125000Y-63839285D01*
X124089285Y-63910714D01*
X124053571Y-63946428D01*
X123982142Y-63982142D01*
X123803571Y-63982142D01*
X123732142Y-63946428D01*
X123696428Y-63910714D01*
X123660714Y-63839285D01*
X123660714Y-63625000D01*
X123696428Y-63553571D01*
X123732142Y-63517857D01*
X123732142Y-64303571D02*
X123696428Y-64339285D01*
X123660714Y-64303571D01*
X123696428Y-64267857D01*
X123732142Y-64303571D01*
X123660714Y-64303571D01*
X124160714Y-64982142D02*
X123660714Y-64982142D01*
X124446428Y-64803571D02*
X123910714Y-64625000D01*
X123910714Y-65089285D01*
X123660714Y-65375000D02*
X124410714Y-65375000D01*
X123946428Y-65446428D02*
X123660714Y-65660714D01*
X124160714Y-65660714D02*
X123875000Y-65375000D01*
D14*
X108885714Y-130892857D02*
X109100000Y-130964285D01*
X109171428Y-131035714D01*
X109242857Y-131178571D01*
X109242857Y-131392857D01*
X109171428Y-131535714D01*
X109100000Y-131607142D01*
X108957142Y-131678571D01*
X108385714Y-131678571D01*
X108385714Y-130178571D01*
X108885714Y-130178571D01*
X109028571Y-130250000D01*
X109100000Y-130321428D01*
X109171428Y-130464285D01*
X109171428Y-130607142D01*
X109100000Y-130750000D01*
X109028571Y-130821428D01*
X108885714Y-130892857D01*
X108385714Y-130892857D01*
X110528571Y-131678571D02*
X110528571Y-130892857D01*
X110457142Y-130750000D01*
X110314285Y-130678571D01*
X110028571Y-130678571D01*
X109885714Y-130750000D01*
X110528571Y-131607142D02*
X110385714Y-131678571D01*
X110028571Y-131678571D01*
X109885714Y-131607142D01*
X109814285Y-131464285D01*
X109814285Y-131321428D01*
X109885714Y-131178571D01*
X110028571Y-131107142D01*
X110385714Y-131107142D01*
X110528571Y-131035714D01*
X111028571Y-130678571D02*
X111600000Y-130678571D01*
X111242857Y-130178571D02*
X111242857Y-131464285D01*
X111314285Y-131607142D01*
X111457142Y-131678571D01*
X111600000Y-131678571D01*
X112028571Y-130321428D02*
X112100000Y-130250000D01*
X112242857Y-130178571D01*
X112600000Y-130178571D01*
X112742857Y-130250000D01*
X112814285Y-130321428D01*
X112885714Y-130464285D01*
X112885714Y-130607142D01*
X112814285Y-130821428D01*
X111957142Y-131678571D01*
X112885714Y-131678571D01*
D10*
X168728571Y-74150000D02*
X168728571Y-73807142D01*
X168728571Y-73978571D02*
X169328571Y-73978571D01*
X169242857Y-73921428D01*
X169185714Y-73864285D01*
X169157142Y-73807142D01*
X169128571Y-74664285D02*
X168728571Y-74664285D01*
X169128571Y-74407142D02*
X168814285Y-74407142D01*
X168757142Y-74435714D01*
X168728571Y-74492857D01*
X168728571Y-74578571D01*
X168757142Y-74635714D01*
X168785714Y-74664285D01*
X140213578Y-92443400D02*
X140743908Y-91913070D01*
X140870177Y-92039339D01*
X140920685Y-92140355D01*
X140920685Y-92241370D01*
X140895431Y-92317131D01*
X140819669Y-92443400D01*
X140743908Y-92519162D01*
X140617639Y-92594923D01*
X140541877Y-92620177D01*
X140440862Y-92620177D01*
X140339847Y-92569669D01*
X140213578Y-92443400D01*
X141198477Y-92367639D02*
X140844923Y-93074746D01*
X141552030Y-92721192D01*
X141552030Y-93680837D02*
X141501522Y-93680837D01*
X141400507Y-93630330D01*
X141350000Y-93579822D01*
X141299492Y-93478807D01*
X141299492Y-93377791D01*
X141324746Y-93302030D01*
X141400507Y-93175761D01*
X141476269Y-93100000D01*
X141602538Y-93024238D01*
X141678299Y-92998984D01*
X141779314Y-92998984D01*
X141880330Y-93049492D01*
X141930837Y-93100000D01*
X141981345Y-93201015D01*
X141981345Y-93251522D01*
X142082360Y-94211167D02*
X142031852Y-94211167D01*
X141930837Y-94160660D01*
X141880330Y-94110152D01*
X141829822Y-94009137D01*
X141829822Y-93908122D01*
X141855076Y-93832360D01*
X141930837Y-93706091D01*
X142006599Y-93630330D01*
X142132868Y-93554568D01*
X142208629Y-93529314D01*
X142309644Y-93529314D01*
X142410660Y-93579822D01*
X142461167Y-93630330D01*
X142511675Y-93731345D01*
X142511675Y-93781852D01*
X166228571Y-74142857D02*
X166228571Y-73800000D01*
X166228571Y-73971428D02*
X166828571Y-73971428D01*
X166742857Y-73914285D01*
X166685714Y-73857142D01*
X166657142Y-73800000D01*
X166828571Y-74514285D02*
X166828571Y-74571428D01*
X166800000Y-74628571D01*
X166771428Y-74657142D01*
X166714285Y-74685714D01*
X166600000Y-74714285D01*
X166457142Y-74714285D01*
X166342857Y-74685714D01*
X166285714Y-74657142D01*
X166257142Y-74628571D01*
X166228571Y-74571428D01*
X166228571Y-74514285D01*
X166257142Y-74457142D01*
X166285714Y-74428571D01*
X166342857Y-74400000D01*
X166457142Y-74371428D01*
X166600000Y-74371428D01*
X166714285Y-74400000D01*
X166771428Y-74428571D01*
X166800000Y-74457142D01*
X166828571Y-74514285D01*
X166228571Y-74971428D02*
X166828571Y-74971428D01*
X166457142Y-75028571D02*
X166228571Y-75200000D01*
X166628571Y-75200000D02*
X166400000Y-74971428D01*
X188391370Y-93270685D02*
X188441877Y-93371700D01*
X188568147Y-93497969D01*
X188643908Y-93523223D01*
X188694416Y-93523223D01*
X188770177Y-93497969D01*
X188820685Y-93447461D01*
X188845938Y-93371700D01*
X188845938Y-93321192D01*
X188820685Y-93245431D01*
X188744923Y-93119162D01*
X188719669Y-93043400D01*
X188719669Y-92992893D01*
X188744923Y-92917131D01*
X188795431Y-92866624D01*
X188871192Y-92841370D01*
X188921700Y-92841370D01*
X188997461Y-92866624D01*
X189123730Y-92992893D01*
X189174238Y-93093908D01*
X188896446Y-93826269D02*
X189426776Y-93295938D01*
X189553045Y-93422208D01*
X189603553Y-93523223D01*
X189603553Y-93624238D01*
X189578299Y-93700000D01*
X189502538Y-93826269D01*
X189426776Y-93902030D01*
X189300507Y-93977791D01*
X189224746Y-94003045D01*
X189123730Y-94003045D01*
X189022715Y-93952538D01*
X188896446Y-93826269D01*
X189553045Y-94179822D02*
X189805583Y-94432360D01*
X189351015Y-94280837D02*
X190058122Y-93927284D01*
X189704568Y-94634391D01*
D14*
X189785714Y-61892857D02*
X190000000Y-61964285D01*
X190071428Y-62035714D01*
X190142857Y-62178571D01*
X190142857Y-62392857D01*
X190071428Y-62535714D01*
X190000000Y-62607142D01*
X189857142Y-62678571D01*
X189285714Y-62678571D01*
X189285714Y-61178571D01*
X189785714Y-61178571D01*
X189928571Y-61250000D01*
X190000000Y-61321428D01*
X190071428Y-61464285D01*
X190071428Y-61607142D01*
X190000000Y-61750000D01*
X189928571Y-61821428D01*
X189785714Y-61892857D01*
X189285714Y-61892857D01*
X191428571Y-62678571D02*
X191428571Y-61892857D01*
X191357142Y-61750000D01*
X191214285Y-61678571D01*
X190928571Y-61678571D01*
X190785714Y-61750000D01*
X191428571Y-62607142D02*
X191285714Y-62678571D01*
X190928571Y-62678571D01*
X190785714Y-62607142D01*
X190714285Y-62464285D01*
X190714285Y-62321428D01*
X190785714Y-62178571D01*
X190928571Y-62107142D01*
X191285714Y-62107142D01*
X191428571Y-62035714D01*
X191928571Y-61678571D02*
X192500000Y-61678571D01*
X192142857Y-61178571D02*
X192142857Y-62464285D01*
X192214285Y-62607142D01*
X192357142Y-62678571D01*
X192500000Y-62678571D01*
X192928571Y-61321428D02*
X193000000Y-61250000D01*
X193142857Y-61178571D01*
X193500000Y-61178571D01*
X193642857Y-61250000D01*
X193714285Y-61321428D01*
X193785714Y-61464285D01*
X193785714Y-61607142D01*
X193714285Y-61821428D01*
X192857142Y-62678571D01*
X193785714Y-62678571D01*
D10*
X157520685Y-69358629D02*
X157621700Y-69308122D01*
X157747969Y-69181852D01*
X157773223Y-69106091D01*
X157773223Y-69055583D01*
X157747969Y-68979822D01*
X157697461Y-68929314D01*
X157621700Y-68904061D01*
X157571192Y-68904061D01*
X157495431Y-68929314D01*
X157369162Y-69005076D01*
X157293400Y-69030330D01*
X157242893Y-69030330D01*
X157167131Y-69005076D01*
X157116624Y-68954568D01*
X157091370Y-68878807D01*
X157091370Y-68828299D01*
X157116624Y-68752538D01*
X157242893Y-68626269D01*
X157343908Y-68575761D01*
X158076269Y-68853553D02*
X157545938Y-68323223D01*
X157672208Y-68196954D01*
X157773223Y-68146446D01*
X157874238Y-68146446D01*
X157950000Y-68171700D01*
X158076269Y-68247461D01*
X158152030Y-68323223D01*
X158227791Y-68449492D01*
X158253045Y-68525253D01*
X158253045Y-68626269D01*
X158202538Y-68727284D01*
X158076269Y-68853553D01*
X158429822Y-68196954D02*
X158682360Y-67944416D01*
X158530837Y-68398984D02*
X158177284Y-67691877D01*
X158884391Y-68045431D01*
D14*
X154532142Y-62827142D02*
X154746428Y-62898571D01*
X155103571Y-62898571D01*
X155246428Y-62827142D01*
X155317857Y-62755714D01*
X155389285Y-62612857D01*
X155389285Y-62470000D01*
X155317857Y-62327142D01*
X155246428Y-62255714D01*
X155103571Y-62184285D01*
X154817857Y-62112857D01*
X154675000Y-62041428D01*
X154603571Y-61970000D01*
X154532142Y-61827142D01*
X154532142Y-61684285D01*
X154603571Y-61541428D01*
X154675000Y-61470000D01*
X154817857Y-61398571D01*
X155175000Y-61398571D01*
X155389285Y-61470000D01*
X156746428Y-61398571D02*
X156032142Y-61398571D01*
X155960714Y-62112857D01*
X156032142Y-62041428D01*
X156175000Y-61970000D01*
X156532142Y-61970000D01*
X156675000Y-62041428D01*
X156746428Y-62112857D01*
X156817857Y-62255714D01*
X156817857Y-62612857D01*
X156746428Y-62755714D01*
X156675000Y-62827142D01*
X156532142Y-62898571D01*
X156175000Y-62898571D01*
X156032142Y-62827142D01*
X155960714Y-62755714D01*
X168032142Y-62827142D02*
X168246428Y-62898571D01*
X168603571Y-62898571D01*
X168746428Y-62827142D01*
X168817857Y-62755714D01*
X168889285Y-62612857D01*
X168889285Y-62470000D01*
X168817857Y-62327142D01*
X168746428Y-62255714D01*
X168603571Y-62184285D01*
X168317857Y-62112857D01*
X168175000Y-62041428D01*
X168103571Y-61970000D01*
X168032142Y-61827142D01*
X168032142Y-61684285D01*
X168103571Y-61541428D01*
X168175000Y-61470000D01*
X168317857Y-61398571D01*
X168675000Y-61398571D01*
X168889285Y-61470000D01*
X170175000Y-61398571D02*
X169889285Y-61398571D01*
X169746428Y-61470000D01*
X169675000Y-61541428D01*
X169532142Y-61755714D01*
X169460714Y-62041428D01*
X169460714Y-62612857D01*
X169532142Y-62755714D01*
X169603571Y-62827142D01*
X169746428Y-62898571D01*
X170032142Y-62898571D01*
X170175000Y-62827142D01*
X170246428Y-62755714D01*
X170317857Y-62612857D01*
X170317857Y-62255714D01*
X170246428Y-62112857D01*
X170175000Y-62041428D01*
X170032142Y-61970000D01*
X169746428Y-61970000D01*
X169603571Y-62041428D01*
X169532142Y-62112857D01*
X169460714Y-62255714D01*
D10*
X162431725Y-68286929D02*
X162659009Y-69423350D01*
X163113578Y-68665736D02*
X163214593Y-68615228D01*
X163340862Y-68488959D01*
X163366116Y-68413198D01*
X163366116Y-68362690D01*
X163340862Y-68286929D01*
X163290355Y-68236421D01*
X163214593Y-68211167D01*
X163164086Y-68211167D01*
X163088324Y-68236421D01*
X162962055Y-68312183D01*
X162886294Y-68337436D01*
X162835786Y-68337436D01*
X162760024Y-68312183D01*
X162709517Y-68261675D01*
X162684263Y-68185913D01*
X162684263Y-68135406D01*
X162709517Y-68059644D01*
X162835786Y-67933375D01*
X162936801Y-67882868D01*
X163669162Y-68160660D02*
X163138832Y-67630330D01*
X163694416Y-67832360D01*
X163492385Y-67276776D01*
X164022715Y-67807106D01*
X164174238Y-67099999D02*
X164275253Y-67049492D01*
X164325761Y-67049492D01*
X164401522Y-67074746D01*
X164477284Y-67150507D01*
X164502538Y-67226269D01*
X164502538Y-67276776D01*
X164477284Y-67352538D01*
X164275253Y-67554568D01*
X163744923Y-67024238D01*
X163921700Y-66847461D01*
X163997461Y-66822208D01*
X164047969Y-66822208D01*
X164123730Y-66847461D01*
X164174238Y-66897969D01*
X164199492Y-66973730D01*
X164199492Y-67024238D01*
X164174238Y-67099999D01*
X163997461Y-67276776D01*
X164628807Y-66897969D02*
X164881345Y-66645431D01*
X164729822Y-67099999D02*
X164376269Y-66392893D01*
X165083375Y-66746446D01*
X165512690Y-66317131D02*
X165260152Y-66569669D01*
X164729822Y-66039339D01*
X165992513Y-65837309D02*
X165563198Y-65761547D01*
X165689467Y-66140355D02*
X165159137Y-65610024D01*
X165361167Y-65407994D01*
X165436929Y-65382740D01*
X165487436Y-65382740D01*
X165563198Y-65407994D01*
X165638959Y-65483755D01*
X165664213Y-65559517D01*
X165664213Y-65610024D01*
X165638959Y-65685786D01*
X165436929Y-65887816D01*
X165613705Y-65155456D02*
X165916751Y-64852410D01*
X166295558Y-65534263D02*
X165765228Y-65003933D01*
D14*
X109635714Y-108892857D02*
X109850000Y-108964285D01*
X109921428Y-109035714D01*
X109992857Y-109178571D01*
X109992857Y-109392857D01*
X109921428Y-109535714D01*
X109850000Y-109607142D01*
X109707142Y-109678571D01*
X109135714Y-109678571D01*
X109135714Y-108178571D01*
X109635714Y-108178571D01*
X109778571Y-108250000D01*
X109850000Y-108321428D01*
X109921428Y-108464285D01*
X109921428Y-108607142D01*
X109850000Y-108750000D01*
X109778571Y-108821428D01*
X109635714Y-108892857D01*
X109135714Y-108892857D01*
X111278571Y-109678571D02*
X111278571Y-108892857D01*
X111207142Y-108750000D01*
X111064285Y-108678571D01*
X110778571Y-108678571D01*
X110635714Y-108750000D01*
X111278571Y-109607142D02*
X111135714Y-109678571D01*
X110778571Y-109678571D01*
X110635714Y-109607142D01*
X110564285Y-109464285D01*
X110564285Y-109321428D01*
X110635714Y-109178571D01*
X110778571Y-109107142D01*
X111135714Y-109107142D01*
X111278571Y-109035714D01*
X111778571Y-108678571D02*
X112350000Y-108678571D01*
X111992857Y-108178571D02*
X111992857Y-109464285D01*
X112064285Y-109607142D01*
X112207142Y-109678571D01*
X112350000Y-109678571D01*
X113635714Y-109678571D02*
X112778571Y-109678571D01*
X113207142Y-109678571D02*
X113207142Y-108178571D01*
X113064285Y-108392857D01*
X112921428Y-108535714D01*
X112778571Y-108607142D01*
X154032142Y-47827142D02*
X154246428Y-47898571D01*
X154603571Y-47898571D01*
X154746428Y-47827142D01*
X154817857Y-47755714D01*
X154889285Y-47612857D01*
X154889285Y-47470000D01*
X154817857Y-47327142D01*
X154746428Y-47255714D01*
X154603571Y-47184285D01*
X154317857Y-47112857D01*
X154175000Y-47041428D01*
X154103571Y-46970000D01*
X154032142Y-46827142D01*
X154032142Y-46684285D01*
X154103571Y-46541428D01*
X154175000Y-46470000D01*
X154317857Y-46398571D01*
X154675000Y-46398571D01*
X154889285Y-46470000D01*
X155460714Y-46541428D02*
X155532142Y-46470000D01*
X155675000Y-46398571D01*
X156032142Y-46398571D01*
X156175000Y-46470000D01*
X156246428Y-46541428D01*
X156317857Y-46684285D01*
X156317857Y-46827142D01*
X156246428Y-47041428D01*
X155389285Y-47898571D01*
X156317857Y-47898571D01*
D10*
X137663282Y-52985702D02*
X137797969Y-52918358D01*
X137865312Y-52918358D01*
X137966328Y-52952030D01*
X138067343Y-53053045D01*
X138101015Y-53154061D01*
X138101015Y-53221404D01*
X138067343Y-53322419D01*
X137797969Y-53591793D01*
X137090862Y-52884687D01*
X137326564Y-52648984D01*
X137427580Y-52615312D01*
X137494923Y-52615312D01*
X137595938Y-52648984D01*
X137663282Y-52716328D01*
X137696954Y-52817343D01*
X137696954Y-52884687D01*
X137663282Y-52985702D01*
X137427580Y-53221404D01*
X138875465Y-52514297D02*
X138471404Y-52918358D01*
X138673435Y-52716328D02*
X137966328Y-52009221D01*
X138000000Y-52177580D01*
X138000000Y-52312267D01*
X137966328Y-52413282D01*
X190903997Y-93283312D02*
X190954504Y-93384327D01*
X191080773Y-93510596D01*
X191156535Y-93535850D01*
X191207043Y-93535850D01*
X191282804Y-93510596D01*
X191333312Y-93460088D01*
X191358565Y-93384327D01*
X191358565Y-93333819D01*
X191333312Y-93258058D01*
X191257550Y-93131789D01*
X191232296Y-93056027D01*
X191232296Y-93005520D01*
X191257550Y-92929758D01*
X191308058Y-92879251D01*
X191383819Y-92853997D01*
X191434327Y-92853997D01*
X191510088Y-92879251D01*
X191636357Y-93005520D01*
X191686865Y-93106535D01*
X191762626Y-94091434D02*
X191712119Y-94091434D01*
X191611104Y-94040926D01*
X191560596Y-93990418D01*
X191510088Y-93889403D01*
X191510088Y-93788388D01*
X191535342Y-93712626D01*
X191611104Y-93586357D01*
X191686865Y-93510596D01*
X191813134Y-93434834D01*
X191888895Y-93409581D01*
X191989911Y-93409581D01*
X192090926Y-93460088D01*
X192141434Y-93510596D01*
X192191941Y-93611611D01*
X192191941Y-93662119D01*
X192191941Y-94621764D02*
X191939403Y-94369226D01*
X192469733Y-93838895D01*
X117333333Y-50952380D02*
X117333333Y-49952380D01*
X117666666Y-50666666D01*
X118000000Y-49952380D01*
X118000000Y-50952380D01*
X119238095Y-50952380D02*
X119238095Y-49952380D01*
X119238095Y-50428571D02*
X119809523Y-50428571D01*
X119809523Y-50952380D02*
X119809523Y-49952380D01*
X120428571Y-50952380D02*
X120333333Y-50904761D01*
X120285714Y-50857142D01*
X120238095Y-50761904D01*
X120238095Y-50476190D01*
X120285714Y-50380952D01*
X120333333Y-50333333D01*
X120428571Y-50285714D01*
X120571428Y-50285714D01*
X120666666Y-50333333D01*
X120714285Y-50380952D01*
X120761904Y-50476190D01*
X120761904Y-50761904D01*
X120714285Y-50857142D01*
X120666666Y-50904761D01*
X120571428Y-50952380D01*
X120428571Y-50952380D01*
X121333333Y-50952380D02*
X121238095Y-50904761D01*
X121190476Y-50809523D01*
X121190476Y-49952380D01*
X122095238Y-50904761D02*
X122000000Y-50952380D01*
X121809523Y-50952380D01*
X121714285Y-50904761D01*
X121666666Y-50809523D01*
X121666666Y-50428571D01*
X121714285Y-50333333D01*
X121809523Y-50285714D01*
X122000000Y-50285714D01*
X122095238Y-50333333D01*
X122142857Y-50428571D01*
X122142857Y-50523809D01*
X121666666Y-50619047D01*
X122523809Y-50904761D02*
X122619047Y-50952380D01*
X122809523Y-50952380D01*
X122904761Y-50904761D01*
X122952380Y-50809523D01*
X122952380Y-50761904D01*
X122904761Y-50666666D01*
X122809523Y-50619047D01*
X122666666Y-50619047D01*
X122571428Y-50571428D01*
X122523809Y-50476190D01*
X122523809Y-50428571D01*
X122571428Y-50333333D01*
X122666666Y-50285714D01*
X122809523Y-50285714D01*
X122904761Y-50333333D01*
X123380952Y-50857142D02*
X123428571Y-50904761D01*
X123380952Y-50952380D01*
X123333333Y-50904761D01*
X123380952Y-50857142D01*
X123380952Y-50952380D01*
X123380952Y-50333333D02*
X123428571Y-50380952D01*
X123380952Y-50428571D01*
X123333333Y-50380952D01*
X123380952Y-50333333D01*
X123380952Y-50428571D01*
X125047619Y-50285714D02*
X125047619Y-50952380D01*
X124809523Y-49904761D02*
X124571428Y-50619047D01*
X125190476Y-50619047D01*
X125571428Y-50857142D02*
X125619047Y-50904761D01*
X125571428Y-50952380D01*
X125523809Y-50904761D01*
X125571428Y-50857142D01*
X125571428Y-50952380D01*
X126000000Y-50047619D02*
X126047619Y-50000000D01*
X126142857Y-49952380D01*
X126380952Y-49952380D01*
X126476190Y-50000000D01*
X126523809Y-50047619D01*
X126571428Y-50142857D01*
X126571428Y-50238095D01*
X126523809Y-50380952D01*
X125952380Y-50952380D01*
X126571428Y-50952380D01*
X127000000Y-50952380D02*
X127000000Y-50285714D01*
X127000000Y-50380952D02*
X127047619Y-50333333D01*
X127142857Y-50285714D01*
X127285714Y-50285714D01*
X127380952Y-50333333D01*
X127428571Y-50428571D01*
X127428571Y-50952380D01*
X127428571Y-50428571D02*
X127476190Y-50333333D01*
X127571428Y-50285714D01*
X127714285Y-50285714D01*
X127809523Y-50333333D01*
X127857142Y-50428571D01*
X127857142Y-50952380D01*
X128333333Y-50952380D02*
X128333333Y-50285714D01*
X128333333Y-50380952D02*
X128380952Y-50333333D01*
X128476190Y-50285714D01*
X128619047Y-50285714D01*
X128714285Y-50333333D01*
X128761904Y-50428571D01*
X128761904Y-50952380D01*
X128761904Y-50428571D02*
X128809523Y-50333333D01*
X128904761Y-50285714D01*
X129047619Y-50285714D01*
X129142857Y-50333333D01*
X129190476Y-50428571D01*
X129190476Y-50952380D01*
X130428571Y-50952380D02*
X130428571Y-49952380D01*
X130666666Y-49952380D01*
X130809523Y-50000000D01*
X130904761Y-50095238D01*
X130952380Y-50190476D01*
X131000000Y-50380952D01*
X131000000Y-50523809D01*
X130952380Y-50714285D01*
X130904761Y-50809523D01*
X130809523Y-50904761D01*
X130666666Y-50952380D01*
X130428571Y-50952380D01*
X131428571Y-50952380D02*
X131428571Y-50285714D01*
X131428571Y-49952380D02*
X131380952Y-50000000D01*
X131428571Y-50047619D01*
X131476190Y-50000000D01*
X131428571Y-49952380D01*
X131428571Y-50047619D01*
X132333333Y-50952380D02*
X132333333Y-50428571D01*
X132285714Y-50333333D01*
X132190476Y-50285714D01*
X132000000Y-50285714D01*
X131904761Y-50333333D01*
X132333333Y-50904761D02*
X132238095Y-50952380D01*
X132000000Y-50952380D01*
X131904761Y-50904761D01*
X131857142Y-50809523D01*
X131857142Y-50714285D01*
X131904761Y-50619047D01*
X132000000Y-50571428D01*
X132238095Y-50571428D01*
X132333333Y-50523809D01*
X132809523Y-50952380D02*
X132809523Y-50285714D01*
X132809523Y-50380952D02*
X132857142Y-50333333D01*
X132952380Y-50285714D01*
X133095238Y-50285714D01*
X133190476Y-50333333D01*
X133238095Y-50428571D01*
X133238095Y-50952380D01*
X133238095Y-50428571D02*
X133285714Y-50333333D01*
X133380952Y-50285714D01*
X133523809Y-50285714D01*
X133619047Y-50333333D01*
X133666666Y-50428571D01*
X133666666Y-50952380D01*
%TO.C,D3*%
X138276904Y-68952380D02*
X138276904Y-67952380D01*
X138515000Y-67952380D01*
X138657857Y-68000000D01*
X138753095Y-68095238D01*
X138800714Y-68190476D01*
X138848333Y-68380952D01*
X138848333Y-68523809D01*
X138800714Y-68714285D01*
X138753095Y-68809523D01*
X138657857Y-68904761D01*
X138515000Y-68952380D01*
X138276904Y-68952380D01*
X139181666Y-67952380D02*
X139800714Y-67952380D01*
X139467380Y-68333333D01*
X139610238Y-68333333D01*
X139705476Y-68380952D01*
X139753095Y-68428571D01*
X139800714Y-68523809D01*
X139800714Y-68761904D01*
X139753095Y-68857142D01*
X139705476Y-68904761D01*
X139610238Y-68952380D01*
X139324523Y-68952380D01*
X139229285Y-68904761D01*
X139181666Y-68857142D01*
%TO.C,C2*%
X130325833Y-74357142D02*
X130278214Y-74404761D01*
X130135357Y-74452380D01*
X130040119Y-74452380D01*
X129897261Y-74404761D01*
X129802023Y-74309523D01*
X129754404Y-74214285D01*
X129706785Y-74023809D01*
X129706785Y-73880952D01*
X129754404Y-73690476D01*
X129802023Y-73595238D01*
X129897261Y-73500000D01*
X130040119Y-73452380D01*
X130135357Y-73452380D01*
X130278214Y-73500000D01*
X130325833Y-73547619D01*
X130706785Y-73547619D02*
X130754404Y-73500000D01*
X130849642Y-73452380D01*
X131087738Y-73452380D01*
X131182976Y-73500000D01*
X131230595Y-73547619D01*
X131278214Y-73642857D01*
X131278214Y-73738095D01*
X131230595Y-73880952D01*
X130659166Y-74452380D01*
X131278214Y-74452380D01*
%TO.C,J11*%
X163540476Y-48952380D02*
X163540476Y-49666666D01*
X163492857Y-49809523D01*
X163397619Y-49904761D01*
X163254761Y-49952380D01*
X163159523Y-49952380D01*
X164540476Y-49952380D02*
X163969047Y-49952380D01*
X164254761Y-49952380D02*
X164254761Y-48952380D01*
X164159523Y-49095238D01*
X164064285Y-49190476D01*
X163969047Y-49238095D01*
X165492857Y-49952380D02*
X164921428Y-49952380D01*
X165207142Y-49952380D02*
X165207142Y-48952380D01*
X165111904Y-49095238D01*
X165016666Y-49190476D01*
X164921428Y-49238095D01*
%TO.C,U4*%
X180088095Y-78452380D02*
X180088095Y-79261904D01*
X180135714Y-79357142D01*
X180183333Y-79404761D01*
X180278571Y-79452380D01*
X180469047Y-79452380D01*
X180564285Y-79404761D01*
X180611904Y-79357142D01*
X180659523Y-79261904D01*
X180659523Y-78452380D01*
X181564285Y-78785714D02*
X181564285Y-79452380D01*
X181326190Y-78404761D02*
X181088095Y-79119047D01*
X181707142Y-79119047D01*
%TO.C,J12*%
X150040476Y-48952380D02*
X150040476Y-49666666D01*
X149992857Y-49809523D01*
X149897619Y-49904761D01*
X149754761Y-49952380D01*
X149659523Y-49952380D01*
X151040476Y-49952380D02*
X150469047Y-49952380D01*
X150754761Y-49952380D02*
X150754761Y-48952380D01*
X150659523Y-49095238D01*
X150564285Y-49190476D01*
X150469047Y-49238095D01*
X151421428Y-49047619D02*
X151469047Y-49000000D01*
X151564285Y-48952380D01*
X151802380Y-48952380D01*
X151897619Y-49000000D01*
X151945238Y-49047619D01*
X151992857Y-49142857D01*
X151992857Y-49238095D01*
X151945238Y-49380952D01*
X151373809Y-49952380D01*
X151992857Y-49952380D01*
%TO.C,U2*%
X159738095Y-75952380D02*
X159738095Y-76761904D01*
X159785714Y-76857142D01*
X159833333Y-76904761D01*
X159928571Y-76952380D01*
X160119047Y-76952380D01*
X160214285Y-76904761D01*
X160261904Y-76857142D01*
X160309523Y-76761904D01*
X160309523Y-75952380D01*
X160738095Y-76047619D02*
X160785714Y-76000000D01*
X160880952Y-75952380D01*
X161119047Y-75952380D01*
X161214285Y-76000000D01*
X161261904Y-76047619D01*
X161309523Y-76142857D01*
X161309523Y-76238095D01*
X161261904Y-76380952D01*
X160690476Y-76952380D01*
X161309523Y-76952380D01*
%TO.C,R1*%
X132825833Y-74452380D02*
X132492500Y-73976190D01*
X132254404Y-74452380D02*
X132254404Y-73452380D01*
X132635357Y-73452380D01*
X132730595Y-73500000D01*
X132778214Y-73547619D01*
X132825833Y-73642857D01*
X132825833Y-73785714D01*
X132778214Y-73880952D01*
X132730595Y-73928571D01*
X132635357Y-73976190D01*
X132254404Y-73976190D01*
X133778214Y-74452380D02*
X133206785Y-74452380D01*
X133492500Y-74452380D02*
X133492500Y-73452380D01*
X133397261Y-73595238D01*
X133302023Y-73690476D01*
X133206785Y-73738095D01*
%TO.C,Q3*%
X175925009Y-82931196D02*
X175850018Y-82893701D01*
X175775028Y-82818710D01*
X175662542Y-82706224D01*
X175587551Y-82668729D01*
X175512560Y-82668729D01*
X175550056Y-82856205D02*
X175475065Y-82818710D01*
X175400074Y-82743719D01*
X175362579Y-82593738D01*
X175362579Y-82331271D01*
X175400074Y-82181289D01*
X175475065Y-82106299D01*
X175550056Y-82068803D01*
X175700037Y-82068803D01*
X175775028Y-82106299D01*
X175850018Y-82181289D01*
X175887514Y-82331271D01*
X175887514Y-82593738D01*
X175850018Y-82743719D01*
X175775028Y-82818710D01*
X175700037Y-82856205D01*
X175550056Y-82856205D01*
X176149981Y-82068803D02*
X176637420Y-82068803D01*
X176374953Y-82368766D01*
X176487439Y-82368766D01*
X176562430Y-82406261D01*
X176599925Y-82443757D01*
X176637420Y-82518747D01*
X176637420Y-82706224D01*
X176599925Y-82781215D01*
X176562430Y-82818710D01*
X176487439Y-82856205D01*
X176262467Y-82856205D01*
X176187476Y-82818710D01*
X176149981Y-82781215D01*
%TO.C,C6*%
X109825833Y-83667142D02*
X109778214Y-83714761D01*
X109635357Y-83762380D01*
X109540119Y-83762380D01*
X109397261Y-83714761D01*
X109302023Y-83619523D01*
X109254404Y-83524285D01*
X109206785Y-83333809D01*
X109206785Y-83190952D01*
X109254404Y-83000476D01*
X109302023Y-82905238D01*
X109397261Y-82810000D01*
X109540119Y-82762380D01*
X109635357Y-82762380D01*
X109778214Y-82810000D01*
X109825833Y-82857619D01*
X110682976Y-82762380D02*
X110492500Y-82762380D01*
X110397261Y-82810000D01*
X110349642Y-82857619D01*
X110254404Y-83000476D01*
X110206785Y-83190952D01*
X110206785Y-83571904D01*
X110254404Y-83667142D01*
X110302023Y-83714761D01*
X110397261Y-83762380D01*
X110587738Y-83762380D01*
X110682976Y-83714761D01*
X110730595Y-83667142D01*
X110778214Y-83571904D01*
X110778214Y-83333809D01*
X110730595Y-83238571D01*
X110682976Y-83190952D01*
X110587738Y-83143333D01*
X110397261Y-83143333D01*
X110302023Y-83190952D01*
X110254404Y-83238571D01*
X110206785Y-83333809D01*
%TO.C,Q4*%
X159259761Y-93547619D02*
X159164523Y-93500000D01*
X159069285Y-93404761D01*
X158926428Y-93261904D01*
X158831190Y-93214285D01*
X158735952Y-93214285D01*
X158783571Y-93452380D02*
X158688333Y-93404761D01*
X158593095Y-93309523D01*
X158545476Y-93119047D01*
X158545476Y-92785714D01*
X158593095Y-92595238D01*
X158688333Y-92500000D01*
X158783571Y-92452380D01*
X158974047Y-92452380D01*
X159069285Y-92500000D01*
X159164523Y-92595238D01*
X159212142Y-92785714D01*
X159212142Y-93119047D01*
X159164523Y-93309523D01*
X159069285Y-93404761D01*
X158974047Y-93452380D01*
X158783571Y-93452380D01*
X160069285Y-92785714D02*
X160069285Y-93452380D01*
X159831190Y-92404761D02*
X159593095Y-93119047D01*
X160212142Y-93119047D01*
X157565714Y-89919821D02*
X158315714Y-89919821D01*
X158315714Y-90098392D01*
X158280000Y-90205535D01*
X158208571Y-90276964D01*
X158137142Y-90312678D01*
X157994285Y-90348392D01*
X157887142Y-90348392D01*
X157744285Y-90312678D01*
X157672857Y-90276964D01*
X157601428Y-90205535D01*
X157565714Y-90098392D01*
X157565714Y-89919821D01*
X158101428Y-82901964D02*
X158065714Y-83009107D01*
X158065714Y-83187678D01*
X158101428Y-83259107D01*
X158137142Y-83294821D01*
X158208571Y-83330535D01*
X158280000Y-83330535D01*
X158351428Y-83294821D01*
X158387142Y-83259107D01*
X158422857Y-83187678D01*
X158458571Y-83044821D01*
X158494285Y-82973392D01*
X158530000Y-82937678D01*
X158601428Y-82901964D01*
X158672857Y-82901964D01*
X158744285Y-82937678D01*
X158780000Y-82973392D01*
X158815714Y-83044821D01*
X158815714Y-83223392D01*
X158780000Y-83330535D01*
X160530000Y-83312678D02*
X160565714Y-83241250D01*
X160565714Y-83134107D01*
X160530000Y-83026964D01*
X160458571Y-82955535D01*
X160387142Y-82919821D01*
X160244285Y-82884107D01*
X160137142Y-82884107D01*
X159994285Y-82919821D01*
X159922857Y-82955535D01*
X159851428Y-83026964D01*
X159815714Y-83134107D01*
X159815714Y-83205535D01*
X159851428Y-83312678D01*
X159887142Y-83348392D01*
X160137142Y-83348392D01*
X160137142Y-83205535D01*
%TO.C,J2*%
X152766666Y-70952380D02*
X152766666Y-71666666D01*
X152719047Y-71809523D01*
X152623809Y-71904761D01*
X152480952Y-71952380D01*
X152385714Y-71952380D01*
X153195238Y-71047619D02*
X153242857Y-71000000D01*
X153338095Y-70952380D01*
X153576190Y-70952380D01*
X153671428Y-71000000D01*
X153719047Y-71047619D01*
X153766666Y-71142857D01*
X153766666Y-71238095D01*
X153719047Y-71380952D01*
X153147619Y-71952380D01*
X153766666Y-71952380D01*
%TO.C,C11*%
X155512142Y-77607142D02*
X155464523Y-77654761D01*
X155321666Y-77702380D01*
X155226428Y-77702380D01*
X155083571Y-77654761D01*
X154988333Y-77559523D01*
X154940714Y-77464285D01*
X154893095Y-77273809D01*
X154893095Y-77130952D01*
X154940714Y-76940476D01*
X154988333Y-76845238D01*
X155083571Y-76750000D01*
X155226428Y-76702380D01*
X155321666Y-76702380D01*
X155464523Y-76750000D01*
X155512142Y-76797619D01*
X156464523Y-77702380D02*
X155893095Y-77702380D01*
X156178809Y-77702380D02*
X156178809Y-76702380D01*
X156083571Y-76845238D01*
X155988333Y-76940476D01*
X155893095Y-76988095D01*
X157416904Y-77702380D02*
X156845476Y-77702380D01*
X157131190Y-77702380D02*
X157131190Y-76702380D01*
X157035952Y-76845238D01*
X156940714Y-76940476D01*
X156845476Y-76988095D01*
%TO.C,J15*%
X150040476Y-55452380D02*
X150040476Y-56166666D01*
X149992857Y-56309523D01*
X149897619Y-56404761D01*
X149754761Y-56452380D01*
X149659523Y-56452380D01*
X151040476Y-56452380D02*
X150469047Y-56452380D01*
X150754761Y-56452380D02*
X150754761Y-55452380D01*
X150659523Y-55595238D01*
X150564285Y-55690476D01*
X150469047Y-55738095D01*
X151945238Y-55452380D02*
X151469047Y-55452380D01*
X151421428Y-55928571D01*
X151469047Y-55880952D01*
X151564285Y-55833333D01*
X151802380Y-55833333D01*
X151897619Y-55880952D01*
X151945238Y-55928571D01*
X151992857Y-56023809D01*
X151992857Y-56261904D01*
X151945238Y-56357142D01*
X151897619Y-56404761D01*
X151802380Y-56452380D01*
X151564285Y-56452380D01*
X151469047Y-56404761D01*
X151421428Y-56357142D01*
%TO.C,J8*%
X193516666Y-90381357D02*
X193516666Y-91095643D01*
X193469047Y-91238500D01*
X193373809Y-91333738D01*
X193230952Y-91381357D01*
X193135714Y-91381357D01*
X194135714Y-90809929D02*
X194040476Y-90762310D01*
X193992857Y-90714691D01*
X193945238Y-90619453D01*
X193945238Y-90571834D01*
X193992857Y-90476596D01*
X194040476Y-90428977D01*
X194135714Y-90381357D01*
X194326190Y-90381357D01*
X194421428Y-90428977D01*
X194469047Y-90476596D01*
X194516666Y-90571834D01*
X194516666Y-90619453D01*
X194469047Y-90714691D01*
X194421428Y-90762310D01*
X194326190Y-90809929D01*
X194135714Y-90809929D01*
X194040476Y-90857548D01*
X193992857Y-90905167D01*
X193945238Y-91000405D01*
X193945238Y-91190881D01*
X193992857Y-91286119D01*
X194040476Y-91333738D01*
X194135714Y-91381357D01*
X194326190Y-91381357D01*
X194421428Y-91333738D01*
X194469047Y-91286119D01*
X194516666Y-91190881D01*
X194516666Y-91000405D01*
X194469047Y-90905167D01*
X194421428Y-90857548D01*
X194326190Y-90809929D01*
%TO.C,L1*%
X120333333Y-82452380D02*
X119857142Y-82452380D01*
X119857142Y-81452380D01*
X121190476Y-82452380D02*
X120619047Y-82452380D01*
X120904761Y-82452380D02*
X120904761Y-81452380D01*
X120809523Y-81595238D01*
X120714285Y-81690476D01*
X120619047Y-81738095D01*
%TO.C,C7*%
X131578333Y-87417142D02*
X131530714Y-87464761D01*
X131387857Y-87512380D01*
X131292619Y-87512380D01*
X131149761Y-87464761D01*
X131054523Y-87369523D01*
X131006904Y-87274285D01*
X130959285Y-87083809D01*
X130959285Y-86940952D01*
X131006904Y-86750476D01*
X131054523Y-86655238D01*
X131149761Y-86560000D01*
X131292619Y-86512380D01*
X131387857Y-86512380D01*
X131530714Y-86560000D01*
X131578333Y-86607619D01*
X131911666Y-86512380D02*
X132578333Y-86512380D01*
X132149761Y-87512380D01*
%TO.C,C17*%
X190847142Y-67857142D02*
X190799523Y-67904761D01*
X190656666Y-67952380D01*
X190561428Y-67952380D01*
X190418571Y-67904761D01*
X190323333Y-67809523D01*
X190275714Y-67714285D01*
X190228095Y-67523809D01*
X190228095Y-67380952D01*
X190275714Y-67190476D01*
X190323333Y-67095238D01*
X190418571Y-67000000D01*
X190561428Y-66952380D01*
X190656666Y-66952380D01*
X190799523Y-67000000D01*
X190847142Y-67047619D01*
X191799523Y-67952380D02*
X191228095Y-67952380D01*
X191513809Y-67952380D02*
X191513809Y-66952380D01*
X191418571Y-67095238D01*
X191323333Y-67190476D01*
X191228095Y-67238095D01*
X192132857Y-66952380D02*
X192799523Y-66952380D01*
X192370952Y-67952380D01*
%TO.C,C13*%
X152707142Y-82607142D02*
X152659523Y-82654761D01*
X152516666Y-82702380D01*
X152421428Y-82702380D01*
X152278571Y-82654761D01*
X152183333Y-82559523D01*
X152135714Y-82464285D01*
X152088095Y-82273809D01*
X152088095Y-82130952D01*
X152135714Y-81940476D01*
X152183333Y-81845238D01*
X152278571Y-81750000D01*
X152421428Y-81702380D01*
X152516666Y-81702380D01*
X152659523Y-81750000D01*
X152707142Y-81797619D01*
X153659523Y-82702380D02*
X153088095Y-82702380D01*
X153373809Y-82702380D02*
X153373809Y-81702380D01*
X153278571Y-81845238D01*
X153183333Y-81940476D01*
X153088095Y-81988095D01*
X153992857Y-81702380D02*
X154611904Y-81702380D01*
X154278571Y-82083333D01*
X154421428Y-82083333D01*
X154516666Y-82130952D01*
X154564285Y-82178571D01*
X154611904Y-82273809D01*
X154611904Y-82511904D01*
X154564285Y-82607142D01*
X154516666Y-82654761D01*
X154421428Y-82702380D01*
X154135714Y-82702380D01*
X154040476Y-82654761D01*
X153992857Y-82607142D01*
%TO.C,C1*%
X129683333Y-61857142D02*
X129635714Y-61904761D01*
X129492857Y-61952380D01*
X129397619Y-61952380D01*
X129254761Y-61904761D01*
X129159523Y-61809523D01*
X129111904Y-61714285D01*
X129064285Y-61523809D01*
X129064285Y-61380952D01*
X129111904Y-61190476D01*
X129159523Y-61095238D01*
X129254761Y-61000000D01*
X129397619Y-60952380D01*
X129492857Y-60952380D01*
X129635714Y-61000000D01*
X129683333Y-61047619D01*
X130635714Y-61952380D02*
X130064285Y-61952380D01*
X130350000Y-61952380D02*
X130350000Y-60952380D01*
X130254761Y-61095238D01*
X130159523Y-61190476D01*
X130064285Y-61238095D01*
%TO.C,J1*%
X110659166Y-66262380D02*
X110659166Y-66976666D01*
X110611547Y-67119523D01*
X110516309Y-67214761D01*
X110373452Y-67262380D01*
X110278214Y-67262380D01*
X111659166Y-67262380D02*
X111087738Y-67262380D01*
X111373452Y-67262380D02*
X111373452Y-66262380D01*
X111278214Y-66405238D01*
X111182976Y-66500476D01*
X111087738Y-66548095D01*
%TO.C,C8*%
X172183333Y-65857142D02*
X172135714Y-65904761D01*
X171992857Y-65952380D01*
X171897619Y-65952380D01*
X171754761Y-65904761D01*
X171659523Y-65809523D01*
X171611904Y-65714285D01*
X171564285Y-65523809D01*
X171564285Y-65380952D01*
X171611904Y-65190476D01*
X171659523Y-65095238D01*
X171754761Y-65000000D01*
X171897619Y-64952380D01*
X171992857Y-64952380D01*
X172135714Y-65000000D01*
X172183333Y-65047619D01*
X172754761Y-65380952D02*
X172659523Y-65333333D01*
X172611904Y-65285714D01*
X172564285Y-65190476D01*
X172564285Y-65142857D01*
X172611904Y-65047619D01*
X172659523Y-65000000D01*
X172754761Y-64952380D01*
X172945238Y-64952380D01*
X173040476Y-65000000D01*
X173088095Y-65047619D01*
X173135714Y-65142857D01*
X173135714Y-65190476D01*
X173088095Y-65285714D01*
X173040476Y-65333333D01*
X172945238Y-65380952D01*
X172754761Y-65380952D01*
X172659523Y-65428571D01*
X172611904Y-65476190D01*
X172564285Y-65571428D01*
X172564285Y-65761904D01*
X172611904Y-65857142D01*
X172659523Y-65904761D01*
X172754761Y-65952380D01*
X172945238Y-65952380D01*
X173040476Y-65904761D01*
X173088095Y-65857142D01*
X173135714Y-65761904D01*
X173135714Y-65571428D01*
X173088095Y-65476190D01*
X173040476Y-65428571D01*
X172945238Y-65380952D01*
%TO.C,R9*%
X167465833Y-66452380D02*
X167132500Y-65976190D01*
X166894404Y-66452380D02*
X166894404Y-65452380D01*
X167275357Y-65452380D01*
X167370595Y-65500000D01*
X167418214Y-65547619D01*
X167465833Y-65642857D01*
X167465833Y-65785714D01*
X167418214Y-65880952D01*
X167370595Y-65928571D01*
X167275357Y-65976190D01*
X166894404Y-65976190D01*
X167942023Y-66452380D02*
X168132500Y-66452380D01*
X168227738Y-66404761D01*
X168275357Y-66357142D01*
X168370595Y-66214285D01*
X168418214Y-66023809D01*
X168418214Y-65642857D01*
X168370595Y-65547619D01*
X168322976Y-65500000D01*
X168227738Y-65452380D01*
X168037261Y-65452380D01*
X167942023Y-65500000D01*
X167894404Y-65547619D01*
X167846785Y-65642857D01*
X167846785Y-65880952D01*
X167894404Y-65976190D01*
X167942023Y-66023809D01*
X168037261Y-66071428D01*
X168227738Y-66071428D01*
X168322976Y-66023809D01*
X168370595Y-65976190D01*
X168418214Y-65880952D01*
%TO.C,U3*%
X136088095Y-81288232D02*
X136088095Y-82097756D01*
X136135714Y-82192994D01*
X136183333Y-82240613D01*
X136278571Y-82288232D01*
X136469047Y-82288232D01*
X136564285Y-82240613D01*
X136611904Y-82192994D01*
X136659523Y-82097756D01*
X136659523Y-81288232D01*
X137040476Y-81288232D02*
X137659523Y-81288232D01*
X137326190Y-81669185D01*
X137469047Y-81669185D01*
X137564285Y-81716804D01*
X137611904Y-81764423D01*
X137659523Y-81859661D01*
X137659523Y-82097756D01*
X137611904Y-82192994D01*
X137564285Y-82240613D01*
X137469047Y-82288232D01*
X137183333Y-82288232D01*
X137088095Y-82240613D01*
X137040476Y-82192994D01*
%TO.C,L4*%
X180323333Y-67802380D02*
X179847142Y-67802380D01*
X179847142Y-66802380D01*
X181085238Y-67135714D02*
X181085238Y-67802380D01*
X180847142Y-66754761D02*
X180609047Y-67469047D01*
X181228095Y-67469047D01*
%TO.C,C10*%
X169207142Y-77857142D02*
X169159523Y-77904761D01*
X169016666Y-77952380D01*
X168921428Y-77952380D01*
X168778571Y-77904761D01*
X168683333Y-77809523D01*
X168635714Y-77714285D01*
X168588095Y-77523809D01*
X168588095Y-77380952D01*
X168635714Y-77190476D01*
X168683333Y-77095238D01*
X168778571Y-77000000D01*
X168921428Y-76952380D01*
X169016666Y-76952380D01*
X169159523Y-77000000D01*
X169207142Y-77047619D01*
X170159523Y-77952380D02*
X169588095Y-77952380D01*
X169873809Y-77952380D02*
X169873809Y-76952380D01*
X169778571Y-77095238D01*
X169683333Y-77190476D01*
X169588095Y-77238095D01*
X170778571Y-76952380D02*
X170873809Y-76952380D01*
X170969047Y-77000000D01*
X171016666Y-77047619D01*
X171064285Y-77142857D01*
X171111904Y-77333333D01*
X171111904Y-77571428D01*
X171064285Y-77761904D01*
X171016666Y-77857142D01*
X170969047Y-77904761D01*
X170873809Y-77952380D01*
X170778571Y-77952380D01*
X170683333Y-77904761D01*
X170635714Y-77857142D01*
X170588095Y-77761904D01*
X170540476Y-77571428D01*
X170540476Y-77333333D01*
X170588095Y-77142857D01*
X170635714Y-77047619D01*
X170683333Y-77000000D01*
X170778571Y-76952380D01*
%TO.C,R8*%
X168083333Y-87702380D02*
X167750000Y-87226190D01*
X167511904Y-87702380D02*
X167511904Y-86702380D01*
X167892857Y-86702380D01*
X167988095Y-86750000D01*
X168035714Y-86797619D01*
X168083333Y-86892857D01*
X168083333Y-87035714D01*
X168035714Y-87130952D01*
X167988095Y-87178571D01*
X167892857Y-87226190D01*
X167511904Y-87226190D01*
X168654761Y-87130952D02*
X168559523Y-87083333D01*
X168511904Y-87035714D01*
X168464285Y-86940476D01*
X168464285Y-86892857D01*
X168511904Y-86797619D01*
X168559523Y-86750000D01*
X168654761Y-86702380D01*
X168845238Y-86702380D01*
X168940476Y-86750000D01*
X168988095Y-86797619D01*
X169035714Y-86892857D01*
X169035714Y-86940476D01*
X168988095Y-87035714D01*
X168940476Y-87083333D01*
X168845238Y-87130952D01*
X168654761Y-87130952D01*
X168559523Y-87178571D01*
X168511904Y-87226190D01*
X168464285Y-87321428D01*
X168464285Y-87511904D01*
X168511904Y-87607142D01*
X168559523Y-87654761D01*
X168654761Y-87702380D01*
X168845238Y-87702380D01*
X168940476Y-87654761D01*
X168988095Y-87607142D01*
X169035714Y-87511904D01*
X169035714Y-87321428D01*
X168988095Y-87226190D01*
X168940476Y-87178571D01*
X168845238Y-87130952D01*
%TO.C,C4*%
X112575833Y-76917142D02*
X112528214Y-76964761D01*
X112385357Y-77012380D01*
X112290119Y-77012380D01*
X112147261Y-76964761D01*
X112052023Y-76869523D01*
X112004404Y-76774285D01*
X111956785Y-76583809D01*
X111956785Y-76440952D01*
X112004404Y-76250476D01*
X112052023Y-76155238D01*
X112147261Y-76060000D01*
X112290119Y-76012380D01*
X112385357Y-76012380D01*
X112528214Y-76060000D01*
X112575833Y-76107619D01*
X113432976Y-76345714D02*
X113432976Y-77012380D01*
X113194880Y-75964761D02*
X112956785Y-76679047D01*
X113575833Y-76679047D01*
%TO.C,R10*%
X155512142Y-87702380D02*
X155178809Y-87226190D01*
X154940714Y-87702380D02*
X154940714Y-86702380D01*
X155321666Y-86702380D01*
X155416904Y-86750000D01*
X155464523Y-86797619D01*
X155512142Y-86892857D01*
X155512142Y-87035714D01*
X155464523Y-87130952D01*
X155416904Y-87178571D01*
X155321666Y-87226190D01*
X154940714Y-87226190D01*
X156464523Y-87702380D02*
X155893095Y-87702380D01*
X156178809Y-87702380D02*
X156178809Y-86702380D01*
X156083571Y-86845238D01*
X155988333Y-86940476D01*
X155893095Y-86988095D01*
X157083571Y-86702380D02*
X157178809Y-86702380D01*
X157274047Y-86750000D01*
X157321666Y-86797619D01*
X157369285Y-86892857D01*
X157416904Y-87083333D01*
X157416904Y-87321428D01*
X157369285Y-87511904D01*
X157321666Y-87607142D01*
X157274047Y-87654761D01*
X157178809Y-87702380D01*
X157083571Y-87702380D01*
X156988333Y-87654761D01*
X156940714Y-87607142D01*
X156893095Y-87511904D01*
X156845476Y-87321428D01*
X156845476Y-87083333D01*
X156893095Y-86892857D01*
X156940714Y-86797619D01*
X156988333Y-86750000D01*
X157083571Y-86702380D01*
%TO.C,J13*%
X136540476Y-48952380D02*
X136540476Y-49666666D01*
X136492857Y-49809523D01*
X136397619Y-49904761D01*
X136254761Y-49952380D01*
X136159523Y-49952380D01*
X137540476Y-49952380D02*
X136969047Y-49952380D01*
X137254761Y-49952380D02*
X137254761Y-48952380D01*
X137159523Y-49095238D01*
X137064285Y-49190476D01*
X136969047Y-49238095D01*
X137873809Y-48952380D02*
X138492857Y-48952380D01*
X138159523Y-49333333D01*
X138302380Y-49333333D01*
X138397619Y-49380952D01*
X138445238Y-49428571D01*
X138492857Y-49523809D01*
X138492857Y-49761904D01*
X138445238Y-49857142D01*
X138397619Y-49904761D01*
X138302380Y-49952380D01*
X138016666Y-49952380D01*
X137921428Y-49904761D01*
X137873809Y-49857142D01*
%TO.C,D4*%
X181921904Y-67452380D02*
X181921904Y-66452380D01*
X182160000Y-66452380D01*
X182302857Y-66500000D01*
X182398095Y-66595238D01*
X182445714Y-66690476D01*
X182493333Y-66880952D01*
X182493333Y-67023809D01*
X182445714Y-67214285D01*
X182398095Y-67309523D01*
X182302857Y-67404761D01*
X182160000Y-67452380D01*
X181921904Y-67452380D01*
X183350476Y-66785714D02*
X183350476Y-67452380D01*
X183112380Y-66404761D02*
X182874285Y-67119047D01*
X183493333Y-67119047D01*
%TO.C,C3*%
X127825833Y-74357142D02*
X127778214Y-74404761D01*
X127635357Y-74452380D01*
X127540119Y-74452380D01*
X127397261Y-74404761D01*
X127302023Y-74309523D01*
X127254404Y-74214285D01*
X127206785Y-74023809D01*
X127206785Y-73880952D01*
X127254404Y-73690476D01*
X127302023Y-73595238D01*
X127397261Y-73500000D01*
X127540119Y-73452380D01*
X127635357Y-73452380D01*
X127778214Y-73500000D01*
X127825833Y-73547619D01*
X128159166Y-73452380D02*
X128778214Y-73452380D01*
X128444880Y-73833333D01*
X128587738Y-73833333D01*
X128682976Y-73880952D01*
X128730595Y-73928571D01*
X128778214Y-74023809D01*
X128778214Y-74261904D01*
X128730595Y-74357142D01*
X128682976Y-74404761D01*
X128587738Y-74452380D01*
X128302023Y-74452380D01*
X128206785Y-74404761D01*
X128159166Y-74357142D01*
%TO.C,C18*%
X184857142Y-67607142D02*
X184809523Y-67654761D01*
X184666666Y-67702380D01*
X184571428Y-67702380D01*
X184428571Y-67654761D01*
X184333333Y-67559523D01*
X184285714Y-67464285D01*
X184238095Y-67273809D01*
X184238095Y-67130952D01*
X184285714Y-66940476D01*
X184333333Y-66845238D01*
X184428571Y-66750000D01*
X184571428Y-66702380D01*
X184666666Y-66702380D01*
X184809523Y-66750000D01*
X184857142Y-66797619D01*
X185809523Y-67702380D02*
X185238095Y-67702380D01*
X185523809Y-67702380D02*
X185523809Y-66702380D01*
X185428571Y-66845238D01*
X185333333Y-66940476D01*
X185238095Y-66988095D01*
X186380952Y-67130952D02*
X186285714Y-67083333D01*
X186238095Y-67035714D01*
X186190476Y-66940476D01*
X186190476Y-66892857D01*
X186238095Y-66797619D01*
X186285714Y-66750000D01*
X186380952Y-66702380D01*
X186571428Y-66702380D01*
X186666666Y-66750000D01*
X186714285Y-66797619D01*
X186761904Y-66892857D01*
X186761904Y-66940476D01*
X186714285Y-67035714D01*
X186666666Y-67083333D01*
X186571428Y-67130952D01*
X186380952Y-67130952D01*
X186285714Y-67178571D01*
X186238095Y-67226190D01*
X186190476Y-67321428D01*
X186190476Y-67511904D01*
X186238095Y-67607142D01*
X186285714Y-67654761D01*
X186380952Y-67702380D01*
X186571428Y-67702380D01*
X186666666Y-67654761D01*
X186714285Y-67607142D01*
X186761904Y-67511904D01*
X186761904Y-67321428D01*
X186714285Y-67226190D01*
X186666666Y-67178571D01*
X186571428Y-67130952D01*
%TO.C,Q2*%
X115897261Y-89047619D02*
X115802023Y-89000000D01*
X115706785Y-88904761D01*
X115563928Y-88761904D01*
X115468690Y-88714285D01*
X115373452Y-88714285D01*
X115421071Y-88952380D02*
X115325833Y-88904761D01*
X115230595Y-88809523D01*
X115182976Y-88619047D01*
X115182976Y-88285714D01*
X115230595Y-88095238D01*
X115325833Y-88000000D01*
X115421071Y-87952380D01*
X115611547Y-87952380D01*
X115706785Y-88000000D01*
X115802023Y-88095238D01*
X115849642Y-88285714D01*
X115849642Y-88619047D01*
X115802023Y-88809523D01*
X115706785Y-88904761D01*
X115611547Y-88952380D01*
X115421071Y-88952380D01*
X116230595Y-88047619D02*
X116278214Y-88000000D01*
X116373452Y-87952380D01*
X116611547Y-87952380D01*
X116706785Y-88000000D01*
X116754404Y-88047619D01*
X116802023Y-88142857D01*
X116802023Y-88238095D01*
X116754404Y-88380952D01*
X116182976Y-88952380D01*
X116802023Y-88952380D01*
X114153214Y-85863571D02*
X114903214Y-85863571D01*
X114903214Y-86042142D01*
X114867500Y-86149285D01*
X114796071Y-86220714D01*
X114724642Y-86256428D01*
X114581785Y-86292142D01*
X114474642Y-86292142D01*
X114331785Y-86256428D01*
X114260357Y-86220714D01*
X114188928Y-86149285D01*
X114153214Y-86042142D01*
X114153214Y-85863571D01*
X114688928Y-78595714D02*
X114653214Y-78702857D01*
X114653214Y-78881428D01*
X114688928Y-78952857D01*
X114724642Y-78988571D01*
X114796071Y-79024285D01*
X114867500Y-79024285D01*
X114938928Y-78988571D01*
X114974642Y-78952857D01*
X115010357Y-78881428D01*
X115046071Y-78738571D01*
X115081785Y-78667142D01*
X115117500Y-78631428D01*
X115188928Y-78595714D01*
X115260357Y-78595714D01*
X115331785Y-78631428D01*
X115367500Y-78667142D01*
X115403214Y-78738571D01*
X115403214Y-78917142D01*
X115367500Y-79024285D01*
X117367500Y-79006428D02*
X117403214Y-78935000D01*
X117403214Y-78827857D01*
X117367500Y-78720714D01*
X117296071Y-78649285D01*
X117224642Y-78613571D01*
X117081785Y-78577857D01*
X116974642Y-78577857D01*
X116831785Y-78613571D01*
X116760357Y-78649285D01*
X116688928Y-78720714D01*
X116653214Y-78827857D01*
X116653214Y-78899285D01*
X116688928Y-79006428D01*
X116724642Y-79042142D01*
X116974642Y-79042142D01*
X116974642Y-78899285D01*
%TO.C,L2*%
X162583333Y-87702380D02*
X162107142Y-87702380D01*
X162107142Y-86702380D01*
X162869047Y-86797619D02*
X162916666Y-86750000D01*
X163011904Y-86702380D01*
X163250000Y-86702380D01*
X163345238Y-86750000D01*
X163392857Y-86797619D01*
X163440476Y-86892857D01*
X163440476Y-86988095D01*
X163392857Y-87130952D01*
X162821428Y-87702380D01*
X163440476Y-87702380D01*
%TO.C,R6*%
X175033333Y-77952380D02*
X174700000Y-77476190D01*
X174461904Y-77952380D02*
X174461904Y-76952380D01*
X174842857Y-76952380D01*
X174938095Y-77000000D01*
X174985714Y-77047619D01*
X175033333Y-77142857D01*
X175033333Y-77285714D01*
X174985714Y-77380952D01*
X174938095Y-77428571D01*
X174842857Y-77476190D01*
X174461904Y-77476190D01*
X175890476Y-76952380D02*
X175700000Y-76952380D01*
X175604761Y-77000000D01*
X175557142Y-77047619D01*
X175461904Y-77190476D01*
X175414285Y-77380952D01*
X175414285Y-77761904D01*
X175461904Y-77857142D01*
X175509523Y-77904761D01*
X175604761Y-77952380D01*
X175795238Y-77952380D01*
X175890476Y-77904761D01*
X175938095Y-77857142D01*
X175985714Y-77761904D01*
X175985714Y-77523809D01*
X175938095Y-77428571D01*
X175890476Y-77380952D01*
X175795238Y-77333333D01*
X175604761Y-77333333D01*
X175509523Y-77380952D01*
X175461904Y-77428571D01*
X175414285Y-77523809D01*
%TO.C,R3*%
X125335833Y-82452380D02*
X125002500Y-81976190D01*
X124764404Y-82452380D02*
X124764404Y-81452380D01*
X125145357Y-81452380D01*
X125240595Y-81500000D01*
X125288214Y-81547619D01*
X125335833Y-81642857D01*
X125335833Y-81785714D01*
X125288214Y-81880952D01*
X125240595Y-81928571D01*
X125145357Y-81976190D01*
X124764404Y-81976190D01*
X125669166Y-81452380D02*
X126288214Y-81452380D01*
X125954880Y-81833333D01*
X126097738Y-81833333D01*
X126192976Y-81880952D01*
X126240595Y-81928571D01*
X126288214Y-82023809D01*
X126288214Y-82261904D01*
X126240595Y-82357142D01*
X126192976Y-82404761D01*
X126097738Y-82452380D01*
X125812023Y-82452380D01*
X125716785Y-82404761D01*
X125669166Y-82357142D01*
%TO.C,TH1*%
X151811785Y-102782380D02*
X152383214Y-102782380D01*
X152097500Y-103782380D02*
X152097500Y-102782380D01*
X152716547Y-103782380D02*
X152716547Y-102782380D01*
X152716547Y-103258571D02*
X153287976Y-103258571D01*
X153287976Y-103782380D02*
X153287976Y-102782380D01*
X154287976Y-103782380D02*
X153716547Y-103782380D01*
X154002261Y-103782380D02*
X154002261Y-102782380D01*
X153907023Y-102925238D01*
X153811785Y-103020476D01*
X153716547Y-103068095D01*
%TO.C,J7*%
X148516666Y-89452380D02*
X148516666Y-90166666D01*
X148469047Y-90309523D01*
X148373809Y-90404761D01*
X148230952Y-90452380D01*
X148135714Y-90452380D01*
X148897619Y-89452380D02*
X149564285Y-89452380D01*
X149135714Y-90452380D01*
%TO.C,R5*%
X112575833Y-83762380D02*
X112242500Y-83286190D01*
X112004404Y-83762380D02*
X112004404Y-82762380D01*
X112385357Y-82762380D01*
X112480595Y-82810000D01*
X112528214Y-82857619D01*
X112575833Y-82952857D01*
X112575833Y-83095714D01*
X112528214Y-83190952D01*
X112480595Y-83238571D01*
X112385357Y-83286190D01*
X112004404Y-83286190D01*
X113480595Y-82762380D02*
X113004404Y-82762380D01*
X112956785Y-83238571D01*
X113004404Y-83190952D01*
X113099642Y-83143333D01*
X113337738Y-83143333D01*
X113432976Y-83190952D01*
X113480595Y-83238571D01*
X113528214Y-83333809D01*
X113528214Y-83571904D01*
X113480595Y-83667142D01*
X113432976Y-83714761D01*
X113337738Y-83762380D01*
X113099642Y-83762380D01*
X113004404Y-83714761D01*
X112956785Y-83667142D01*
%TO.C,L3*%
X136548333Y-68952380D02*
X136072142Y-68952380D01*
X136072142Y-67952380D01*
X136786428Y-67952380D02*
X137405476Y-67952380D01*
X137072142Y-68333333D01*
X137215000Y-68333333D01*
X137310238Y-68380952D01*
X137357857Y-68428571D01*
X137405476Y-68523809D01*
X137405476Y-68761904D01*
X137357857Y-68857142D01*
X137310238Y-68904761D01*
X137215000Y-68952380D01*
X136929285Y-68952380D01*
X136834047Y-68904761D01*
X136786428Y-68857142D01*
%TO.C,C5*%
X122825833Y-82357142D02*
X122778214Y-82404761D01*
X122635357Y-82452380D01*
X122540119Y-82452380D01*
X122397261Y-82404761D01*
X122302023Y-82309523D01*
X122254404Y-82214285D01*
X122206785Y-82023809D01*
X122206785Y-81880952D01*
X122254404Y-81690476D01*
X122302023Y-81595238D01*
X122397261Y-81500000D01*
X122540119Y-81452380D01*
X122635357Y-81452380D01*
X122778214Y-81500000D01*
X122825833Y-81547619D01*
X123730595Y-81452380D02*
X123254404Y-81452380D01*
X123206785Y-81928571D01*
X123254404Y-81880952D01*
X123349642Y-81833333D01*
X123587738Y-81833333D01*
X123682976Y-81880952D01*
X123730595Y-81928571D01*
X123778214Y-82023809D01*
X123778214Y-82261904D01*
X123730595Y-82357142D01*
X123682976Y-82404761D01*
X123587738Y-82452380D01*
X123349642Y-82452380D01*
X123254404Y-82404761D01*
X123206785Y-82357142D01*
%TO.C,U1*%
X117238095Y-71952380D02*
X117238095Y-72761904D01*
X117285714Y-72857142D01*
X117333333Y-72904761D01*
X117428571Y-72952380D01*
X117619047Y-72952380D01*
X117714285Y-72904761D01*
X117761904Y-72857142D01*
X117809523Y-72761904D01*
X117809523Y-71952380D01*
X118809523Y-72952380D02*
X118238095Y-72952380D01*
X118523809Y-72952380D02*
X118523809Y-71952380D01*
X118428571Y-72095238D01*
X118333333Y-72190476D01*
X118238095Y-72238095D01*
%TO.C,Q1*%
X134275009Y-79431196D02*
X134200018Y-79393701D01*
X134125028Y-79318710D01*
X134012542Y-79206224D01*
X133937551Y-79168729D01*
X133862560Y-79168729D01*
X133900056Y-79356205D02*
X133825065Y-79318710D01*
X133750074Y-79243719D01*
X133712579Y-79093738D01*
X133712579Y-78831271D01*
X133750074Y-78681289D01*
X133825065Y-78606299D01*
X133900056Y-78568803D01*
X134050037Y-78568803D01*
X134125028Y-78606299D01*
X134200018Y-78681289D01*
X134237514Y-78831271D01*
X134237514Y-79093738D01*
X134200018Y-79243719D01*
X134125028Y-79318710D01*
X134050037Y-79356205D01*
X133900056Y-79356205D01*
X134987420Y-79356205D02*
X134537476Y-79356205D01*
X134762448Y-79356205D02*
X134762448Y-78568803D01*
X134687458Y-78681289D01*
X134612467Y-78756280D01*
X134537476Y-78793775D01*
%TO.C,C14*%
X174262142Y-92975892D02*
X174214523Y-93023511D01*
X174071666Y-93071130D01*
X173976428Y-93071130D01*
X173833571Y-93023511D01*
X173738333Y-92928273D01*
X173690714Y-92833035D01*
X173643095Y-92642559D01*
X173643095Y-92499702D01*
X173690714Y-92309226D01*
X173738333Y-92213988D01*
X173833571Y-92118750D01*
X173976428Y-92071130D01*
X174071666Y-92071130D01*
X174214523Y-92118750D01*
X174262142Y-92166369D01*
X175214523Y-93071130D02*
X174643095Y-93071130D01*
X174928809Y-93071130D02*
X174928809Y-92071130D01*
X174833571Y-92213988D01*
X174738333Y-92309226D01*
X174643095Y-92356845D01*
X176071666Y-92404464D02*
X176071666Y-93071130D01*
X175833571Y-92023511D02*
X175595476Y-92737797D01*
X176214523Y-92737797D01*
%TO.C,C16*%
X141207142Y-68857142D02*
X141159523Y-68904761D01*
X141016666Y-68952380D01*
X140921428Y-68952380D01*
X140778571Y-68904761D01*
X140683333Y-68809523D01*
X140635714Y-68714285D01*
X140588095Y-68523809D01*
X140588095Y-68380952D01*
X140635714Y-68190476D01*
X140683333Y-68095238D01*
X140778571Y-68000000D01*
X140921428Y-67952380D01*
X141016666Y-67952380D01*
X141159523Y-68000000D01*
X141207142Y-68047619D01*
X142159523Y-68952380D02*
X141588095Y-68952380D01*
X141873809Y-68952380D02*
X141873809Y-67952380D01*
X141778571Y-68095238D01*
X141683333Y-68190476D01*
X141588095Y-68238095D01*
X143016666Y-67952380D02*
X142826190Y-67952380D01*
X142730952Y-68000000D01*
X142683333Y-68047619D01*
X142588095Y-68190476D01*
X142540476Y-68380952D01*
X142540476Y-68761904D01*
X142588095Y-68857142D01*
X142635714Y-68904761D01*
X142730952Y-68952380D01*
X142921428Y-68952380D01*
X143016666Y-68904761D01*
X143064285Y-68857142D01*
X143111904Y-68761904D01*
X143111904Y-68523809D01*
X143064285Y-68428571D01*
X143016666Y-68380952D01*
X142921428Y-68333333D01*
X142730952Y-68333333D01*
X142635714Y-68380952D01*
X142588095Y-68428571D01*
X142540476Y-68523809D01*
%TO.C,J9*%
X175266666Y-52452380D02*
X175266666Y-53166666D01*
X175219047Y-53309523D01*
X175123809Y-53404761D01*
X174980952Y-53452380D01*
X174885714Y-53452380D01*
X175790476Y-53452380D02*
X175980952Y-53452380D01*
X176076190Y-53404761D01*
X176123809Y-53357142D01*
X176219047Y-53214285D01*
X176266666Y-53023809D01*
X176266666Y-52642857D01*
X176219047Y-52547619D01*
X176171428Y-52500000D01*
X176076190Y-52452380D01*
X175885714Y-52452380D01*
X175790476Y-52500000D01*
X175742857Y-52547619D01*
X175695238Y-52642857D01*
X175695238Y-52880952D01*
X175742857Y-52976190D01*
X175790476Y-53023809D01*
X175885714Y-53071428D01*
X176076190Y-53071428D01*
X176171428Y-53023809D01*
X176219047Y-52976190D01*
X176266666Y-52880952D01*
%TO.C,D1*%
X133611904Y-59702380D02*
X133611904Y-58702380D01*
X133850000Y-58702380D01*
X133992857Y-58750000D01*
X134088095Y-58845238D01*
X134135714Y-58940476D01*
X134183333Y-59130952D01*
X134183333Y-59273809D01*
X134135714Y-59464285D01*
X134088095Y-59559523D01*
X133992857Y-59654761D01*
X133850000Y-59702380D01*
X133611904Y-59702380D01*
X135135714Y-59702380D02*
X134564285Y-59702380D01*
X134850000Y-59702380D02*
X134850000Y-58702380D01*
X134754761Y-58845238D01*
X134659523Y-58940476D01*
X134564285Y-58988095D01*
%TO.C,J14*%
X136540476Y-55452380D02*
X136540476Y-56166666D01*
X136492857Y-56309523D01*
X136397619Y-56404761D01*
X136254761Y-56452380D01*
X136159523Y-56452380D01*
X137540476Y-56452380D02*
X136969047Y-56452380D01*
X137254761Y-56452380D02*
X137254761Y-55452380D01*
X137159523Y-55595238D01*
X137064285Y-55690476D01*
X136969047Y-55738095D01*
X138397619Y-55785714D02*
X138397619Y-56452380D01*
X138159523Y-55404761D02*
X137921428Y-56119047D01*
X138540476Y-56119047D01*
%TO.C,C9*%
X172498333Y-77903426D02*
X172450714Y-77951045D01*
X172307857Y-77998664D01*
X172212619Y-77998664D01*
X172069761Y-77951045D01*
X171974523Y-77855807D01*
X171926904Y-77760569D01*
X171879285Y-77570093D01*
X171879285Y-77427236D01*
X171926904Y-77236760D01*
X171974523Y-77141522D01*
X172069761Y-77046284D01*
X172212619Y-76998664D01*
X172307857Y-76998664D01*
X172450714Y-77046284D01*
X172498333Y-77093903D01*
X172974523Y-77998664D02*
X173165000Y-77998664D01*
X173260238Y-77951045D01*
X173307857Y-77903426D01*
X173403095Y-77760569D01*
X173450714Y-77570093D01*
X173450714Y-77189141D01*
X173403095Y-77093903D01*
X173355476Y-77046284D01*
X173260238Y-76998664D01*
X173069761Y-76998664D01*
X172974523Y-77046284D01*
X172926904Y-77093903D01*
X172879285Y-77189141D01*
X172879285Y-77427236D01*
X172926904Y-77522474D01*
X172974523Y-77570093D01*
X173069761Y-77617712D01*
X173260238Y-77617712D01*
X173355476Y-77570093D01*
X173403095Y-77522474D01*
X173450714Y-77427236D01*
%TO.C,R7*%
X167465833Y-72568630D02*
X167132500Y-72092440D01*
X166894404Y-72568630D02*
X166894404Y-71568630D01*
X167275357Y-71568630D01*
X167370595Y-71616250D01*
X167418214Y-71663869D01*
X167465833Y-71759107D01*
X167465833Y-71901964D01*
X167418214Y-71997202D01*
X167370595Y-72044821D01*
X167275357Y-72092440D01*
X166894404Y-72092440D01*
X167799166Y-71568630D02*
X168465833Y-71568630D01*
X168037261Y-72568630D01*
%TO.C,C12*%
X164707142Y-87607142D02*
X164659523Y-87654761D01*
X164516666Y-87702380D01*
X164421428Y-87702380D01*
X164278571Y-87654761D01*
X164183333Y-87559523D01*
X164135714Y-87464285D01*
X164088095Y-87273809D01*
X164088095Y-87130952D01*
X164135714Y-86940476D01*
X164183333Y-86845238D01*
X164278571Y-86750000D01*
X164421428Y-86702380D01*
X164516666Y-86702380D01*
X164659523Y-86750000D01*
X164707142Y-86797619D01*
X165659523Y-87702380D02*
X165088095Y-87702380D01*
X165373809Y-87702380D02*
X165373809Y-86702380D01*
X165278571Y-86845238D01*
X165183333Y-86940476D01*
X165088095Y-86988095D01*
X166040476Y-86797619D02*
X166088095Y-86750000D01*
X166183333Y-86702380D01*
X166421428Y-86702380D01*
X166516666Y-86750000D01*
X166564285Y-86797619D01*
X166611904Y-86892857D01*
X166611904Y-86988095D01*
X166564285Y-87130952D01*
X165992857Y-87702380D01*
X166611904Y-87702380D01*
%TO.C,D2*%
X177361904Y-63452380D02*
X177361904Y-62452380D01*
X177600000Y-62452380D01*
X177742857Y-62500000D01*
X177838095Y-62595238D01*
X177885714Y-62690476D01*
X177933333Y-62880952D01*
X177933333Y-63023809D01*
X177885714Y-63214285D01*
X177838095Y-63309523D01*
X177742857Y-63404761D01*
X177600000Y-63452380D01*
X177361904Y-63452380D01*
X178314285Y-62547619D02*
X178361904Y-62500000D01*
X178457142Y-62452380D01*
X178695238Y-62452380D01*
X178790476Y-62500000D01*
X178838095Y-62547619D01*
X178885714Y-62642857D01*
X178885714Y-62738095D01*
X178838095Y-62880952D01*
X178266666Y-63452380D01*
X178885714Y-63452380D01*
%TO.C,TH2*%
X151214285Y-125782380D02*
X151785714Y-125782380D01*
X151500000Y-126782380D02*
X151500000Y-125782380D01*
X152119047Y-126782380D02*
X152119047Y-125782380D01*
X152119047Y-126258571D02*
X152690476Y-126258571D01*
X152690476Y-126782380D02*
X152690476Y-125782380D01*
X153119047Y-125877619D02*
X153166666Y-125830000D01*
X153261904Y-125782380D01*
X153500000Y-125782380D01*
X153595238Y-125830000D01*
X153642857Y-125877619D01*
X153690476Y-125972857D01*
X153690476Y-126068095D01*
X153642857Y-126210952D01*
X153071428Y-126782380D01*
X153690476Y-126782380D01*
%TO.C,J10*%
X163540476Y-55452380D02*
X163540476Y-56166666D01*
X163492857Y-56309523D01*
X163397619Y-56404761D01*
X163254761Y-56452380D01*
X163159523Y-56452380D01*
X164540476Y-56452380D02*
X163969047Y-56452380D01*
X164254761Y-56452380D02*
X164254761Y-55452380D01*
X164159523Y-55595238D01*
X164064285Y-55690476D01*
X163969047Y-55738095D01*
X165159523Y-55452380D02*
X165254761Y-55452380D01*
X165350000Y-55500000D01*
X165397619Y-55547619D01*
X165445238Y-55642857D01*
X165492857Y-55833333D01*
X165492857Y-56071428D01*
X165445238Y-56261904D01*
X165397619Y-56357142D01*
X165350000Y-56404761D01*
X165254761Y-56452380D01*
X165159523Y-56452380D01*
X165064285Y-56404761D01*
X165016666Y-56357142D01*
X164969047Y-56261904D01*
X164921428Y-56071428D01*
X164921428Y-55833333D01*
X164969047Y-55642857D01*
X165016666Y-55547619D01*
X165064285Y-55500000D01*
X165159523Y-55452380D01*
%TO.C,R2*%
X125348333Y-68952380D02*
X125015000Y-68476190D01*
X124776904Y-68952380D02*
X124776904Y-67952380D01*
X125157857Y-67952380D01*
X125253095Y-68000000D01*
X125300714Y-68047619D01*
X125348333Y-68142857D01*
X125348333Y-68285714D01*
X125300714Y-68380952D01*
X125253095Y-68428571D01*
X125157857Y-68476190D01*
X124776904Y-68476190D01*
X125729285Y-68047619D02*
X125776904Y-68000000D01*
X125872142Y-67952380D01*
X126110238Y-67952380D01*
X126205476Y-68000000D01*
X126253095Y-68047619D01*
X126300714Y-68142857D01*
X126300714Y-68238095D01*
X126253095Y-68380952D01*
X125681666Y-68952380D01*
X126300714Y-68952380D01*
%TO.C,R4*%
X125325833Y-62202380D02*
X124992500Y-61726190D01*
X124754404Y-62202380D02*
X124754404Y-61202380D01*
X125135357Y-61202380D01*
X125230595Y-61250000D01*
X125278214Y-61297619D01*
X125325833Y-61392857D01*
X125325833Y-61535714D01*
X125278214Y-61630952D01*
X125230595Y-61678571D01*
X125135357Y-61726190D01*
X124754404Y-61726190D01*
X126182976Y-61535714D02*
X126182976Y-62202380D01*
X125944880Y-61154761D02*
X125706785Y-61869047D01*
X126325833Y-61869047D01*
%TO.C,C15*%
X147072142Y-68857142D02*
X147024523Y-68904761D01*
X146881666Y-68952380D01*
X146786428Y-68952380D01*
X146643571Y-68904761D01*
X146548333Y-68809523D01*
X146500714Y-68714285D01*
X146453095Y-68523809D01*
X146453095Y-68380952D01*
X146500714Y-68190476D01*
X146548333Y-68095238D01*
X146643571Y-68000000D01*
X146786428Y-67952380D01*
X146881666Y-67952380D01*
X147024523Y-68000000D01*
X147072142Y-68047619D01*
X148024523Y-68952380D02*
X147453095Y-68952380D01*
X147738809Y-68952380D02*
X147738809Y-67952380D01*
X147643571Y-68095238D01*
X147548333Y-68190476D01*
X147453095Y-68238095D01*
X148929285Y-67952380D02*
X148453095Y-67952380D01*
X148405476Y-68428571D01*
X148453095Y-68380952D01*
X148548333Y-68333333D01*
X148786428Y-68333333D01*
X148881666Y-68380952D01*
X148929285Y-68428571D01*
X148976904Y-68523809D01*
X148976904Y-68761904D01*
X148929285Y-68857142D01*
X148881666Y-68904761D01*
X148786428Y-68952380D01*
X148548333Y-68952380D01*
X148453095Y-68904761D01*
X148405476Y-68857142D01*
D13*
%TO.C,D3*%
X137962500Y-71040852D02*
X138362500Y-71040852D01*
X138362500Y-71440852D02*
X138162500Y-71140852D01*
X137962500Y-71440852D02*
X138362500Y-71440852D01*
X139562500Y-71440852D02*
X139562500Y-71040852D01*
X138562500Y-71440852D02*
X138562500Y-71040852D01*
X138162500Y-71140852D02*
X137962500Y-71440852D01*
%TO.C,C2*%
X131002500Y-71456267D02*
X131002500Y-71163733D01*
X129982500Y-71456267D02*
X129982500Y-71163733D01*
%TO.C,J11*%
X171430000Y-48920000D02*
X166230000Y-48920000D01*
X171430000Y-54010000D02*
X166230000Y-54010000D01*
X171430000Y-48920000D02*
X171430000Y-54010000D01*
X166230000Y-48920000D02*
X166230000Y-54010000D01*
D15*
%TO.C,U4*%
X182065000Y-81605000D02*
X182065000Y-77605000D01*
X192185000Y-81605000D02*
X192185000Y-77605000D01*
D16*
X181425000Y-84605000D02*
G75*
G03*
X181425000Y-84605000I-300000J0D01*
G01*
D13*
%TO.C,J12*%
X157915000Y-54010000D02*
X152715000Y-54010000D01*
X157915000Y-48920000D02*
X152715000Y-48920000D01*
X152715000Y-48920000D02*
X152715000Y-54010000D01*
X157915000Y-48920000D02*
X157915000Y-54010000D01*
D15*
%TO.C,U2*%
X165355000Y-82666250D02*
X165705000Y-82666250D01*
X161605000Y-77566250D02*
X161605000Y-77916250D01*
X165705000Y-77566250D02*
X165705000Y-77916250D01*
X165705000Y-82666250D02*
X165705000Y-82316250D01*
X161605000Y-82666250D02*
X161605000Y-82316250D01*
X161955000Y-77566250D02*
X161605000Y-77566250D01*
X165355000Y-77566250D02*
X165705000Y-77566250D01*
X161955000Y-82666250D02*
X161605000Y-82666250D01*
D16*
X167255000Y-83116250D02*
G75*
G03*
X167255000Y-83116250I-300000J0D01*
G01*
D13*
%TO.C,R1*%
X132402500Y-71564724D02*
X132402500Y-71055276D01*
X133447500Y-71564724D02*
X133447500Y-71055276D01*
D15*
%TO.C,Q3*%
X170067500Y-83508750D02*
X170067500Y-87223750D01*
X174967500Y-87223750D02*
X174967500Y-83508750D01*
D17*
X175617500Y-81303750D02*
G75*
G03*
X175617500Y-81303750I-100000J0D01*
G01*
D13*
%TO.C,C6*%
X110502500Y-80413733D02*
X110502500Y-80706267D01*
X109482500Y-80413733D02*
X109482500Y-80706267D01*
D15*
%TO.C,J3*%
X121760000Y-96695000D02*
X131290000Y-96695000D01*
X131290000Y-96695000D02*
X131290000Y-102050000D01*
X118290000Y-103000000D02*
X118290000Y-100555000D01*
X118290000Y-100555000D02*
X121760000Y-100555000D01*
X121760000Y-109445000D02*
X118290000Y-109445000D01*
X131290000Y-113305000D02*
X121760000Y-113305000D01*
X121760000Y-100555000D02*
X121760000Y-96695000D01*
X118290000Y-109445000D02*
X118290000Y-107000000D01*
X121760000Y-113305000D02*
X121760000Y-109445000D01*
X131290000Y-107950000D02*
X131290000Y-113305000D01*
D18*
%TO.C,Q4*%
X160777500Y-87813850D02*
X160777500Y-88626650D01*
X157932700Y-88626650D02*
X157932700Y-87813850D01*
X158591500Y-88626650D02*
X157932700Y-88626650D01*
X160777500Y-88626650D02*
X160118700Y-88626650D01*
D13*
%TO.C,J2*%
X156815000Y-69986250D02*
X164495000Y-69986250D01*
X155545000Y-72646250D02*
X154215000Y-72646250D01*
X154215000Y-72646250D02*
X154215000Y-71316250D01*
X156815000Y-72646250D02*
X156815000Y-69986250D01*
X156815000Y-72646250D02*
X164495000Y-72646250D01*
X164495000Y-72646250D02*
X164495000Y-69986250D01*
%TO.C,C11*%
X155645000Y-79762517D02*
X155645000Y-79469983D01*
X156665000Y-79762517D02*
X156665000Y-79469983D01*
%TO.C,J15*%
X152715000Y-55420000D02*
X152715000Y-60510000D01*
X157915000Y-55420000D02*
X152715000Y-55420000D01*
X157915000Y-55420000D02*
X157915000Y-60510000D01*
X157915000Y-60510000D02*
X152715000Y-60510000D01*
%TO.C,J8*%
X192616300Y-92258977D02*
X191286300Y-92258977D01*
X184876300Y-89598977D02*
X184876300Y-92258977D01*
X192616300Y-90928977D02*
X192616300Y-92258977D01*
X190016300Y-89598977D02*
X190016300Y-92258977D01*
X190016300Y-89598977D02*
X184876300Y-89598977D01*
X190016300Y-92258977D02*
X184876300Y-92258977D01*
%TO.C,L1*%
X119992500Y-84138733D02*
X119992500Y-84481267D01*
X121012500Y-84138733D02*
X121012500Y-84481267D01*
%TO.C,C7*%
X128598733Y-86540000D02*
X128891267Y-86540000D01*
X128598733Y-87560000D02*
X128891267Y-87560000D01*
%TO.C,C17*%
X192000000Y-69996267D02*
X192000000Y-69703733D01*
X190980000Y-69996267D02*
X190980000Y-69703733D01*
%TO.C,C13*%
X153905000Y-84569983D02*
X153905000Y-84862517D01*
X152885000Y-84569983D02*
X152885000Y-84862517D01*
%TO.C,C1*%
X132852500Y-65521252D02*
X132852500Y-64098748D01*
X130132500Y-65521252D02*
X130132500Y-64098748D01*
%TO.C,J1*%
X113382500Y-67840000D02*
X112052500Y-67840000D01*
X114652500Y-67840000D02*
X114652500Y-65180000D01*
X122332500Y-67840000D02*
X122332500Y-65180000D01*
X114652500Y-67840000D02*
X122332500Y-67840000D01*
X112052500Y-67840000D02*
X112052500Y-66510000D01*
X114652500Y-65180000D02*
X122332500Y-65180000D01*
%TO.C,C8*%
X172545000Y-69577502D02*
X172545000Y-68154998D01*
X175265000Y-69577502D02*
X175265000Y-68154998D01*
%TO.C,R9*%
X168155000Y-68111526D02*
X168155000Y-68620974D01*
X167110000Y-68111526D02*
X167110000Y-68620974D01*
D15*
%TO.C,J6*%
X185410000Y-129500000D02*
X185410000Y-131945000D01*
X185410000Y-131945000D02*
X181940000Y-131945000D01*
X172410000Y-119195000D02*
X181940000Y-119195000D01*
X181940000Y-131945000D02*
X181940000Y-135805000D01*
X181940000Y-123055000D02*
X185410000Y-123055000D01*
X172410000Y-135805000D02*
X172410000Y-130450000D01*
X172410000Y-124550000D02*
X172410000Y-119195000D01*
X181940000Y-119195000D02*
X181940000Y-123055000D01*
X181940000Y-135805000D02*
X172410000Y-135805000D01*
X185410000Y-123055000D02*
X185410000Y-125500000D01*
%TO.C,U3*%
X138317500Y-83040852D02*
X138317500Y-79040852D01*
X148437500Y-83040852D02*
X148437500Y-79040852D01*
D16*
X137677500Y-86040852D02*
G75*
G03*
X137677500Y-86040852I-300000J0D01*
G01*
D13*
%TO.C,L4*%
X181000000Y-69678733D02*
X181000000Y-70021267D01*
X179980000Y-69678733D02*
X179980000Y-70021267D01*
%TO.C,C10*%
X169645000Y-74546284D02*
X169645000Y-74838818D01*
X170665000Y-74546284D02*
X170665000Y-74838818D01*
%TO.C,R8*%
X167610000Y-89361526D02*
X167610000Y-89870974D01*
X168655000Y-89361526D02*
X168655000Y-89870974D01*
%TO.C,C4*%
X112232500Y-73956267D02*
X112232500Y-73663733D01*
X113252500Y-73956267D02*
X113252500Y-73663733D01*
%TO.C,R10*%
X156677500Y-84461526D02*
X156677500Y-84970974D01*
X155632500Y-84461526D02*
X155632500Y-84970974D01*
%TO.C,J13*%
X144485000Y-48920000D02*
X144485000Y-54010000D01*
X144485000Y-54010000D02*
X139285000Y-54010000D01*
X139285000Y-48920000D02*
X139285000Y-54010000D01*
X144485000Y-48920000D02*
X139285000Y-48920000D01*
D15*
%TO.C,J5*%
X121760000Y-119195000D02*
X131290000Y-119195000D01*
X131290000Y-119195000D02*
X131290000Y-124550000D01*
X118290000Y-123055000D02*
X121760000Y-123055000D01*
X121760000Y-131945000D02*
X118290000Y-131945000D01*
X121760000Y-123055000D02*
X121760000Y-119195000D01*
X131290000Y-130450000D02*
X131290000Y-135805000D01*
X121760000Y-135805000D02*
X121760000Y-131945000D01*
X118290000Y-131945000D02*
X118290000Y-129500000D01*
X118290000Y-125500000D02*
X118290000Y-123055000D01*
X131290000Y-135805000D02*
X121760000Y-135805000D01*
D13*
%TO.C,D4*%
X181650000Y-69650000D02*
X182050000Y-69650000D01*
X183250000Y-70050000D02*
X183250000Y-69650000D01*
X182250000Y-70050000D02*
X182250000Y-69650000D01*
X181850000Y-69750000D02*
X181650000Y-70050000D01*
X182050000Y-70050000D02*
X181850000Y-69750000D01*
X181650000Y-70050000D02*
X182050000Y-70050000D01*
%TO.C,C3*%
X127482500Y-71163733D02*
X127482500Y-71456267D01*
X128502500Y-71163733D02*
X128502500Y-71456267D01*
D15*
%TO.C,J4*%
X181940000Y-113305000D02*
X172410000Y-113305000D01*
X185410000Y-107000000D02*
X185410000Y-109445000D01*
X181940000Y-100555000D02*
X185410000Y-100555000D01*
X181940000Y-96695000D02*
X181940000Y-100555000D01*
X172410000Y-102050000D02*
X172410000Y-96695000D01*
X185410000Y-109445000D02*
X181940000Y-109445000D01*
X172410000Y-113305000D02*
X172410000Y-107950000D01*
X181940000Y-109445000D02*
X181940000Y-113305000D01*
X172410000Y-96695000D02*
X181940000Y-96695000D01*
X185410000Y-100555000D02*
X185410000Y-103000000D01*
D13*
%TO.C,C18*%
X184505000Y-69588748D02*
X184505000Y-70111252D01*
X185975000Y-69588748D02*
X185975000Y-70111252D01*
D18*
%TO.C,Q2*%
X115229000Y-84270400D02*
X114570200Y-84270400D01*
X117415000Y-84270400D02*
X116756200Y-84270400D01*
X117415000Y-83457600D02*
X117415000Y-84270400D01*
X114570200Y-84270400D02*
X114570200Y-83457600D01*
D13*
%TO.C,L2*%
X162385000Y-89444983D02*
X162385000Y-89787517D01*
X163405000Y-89444983D02*
X163405000Y-89787517D01*
%TO.C,R6*%
X174677500Y-74870974D02*
X174677500Y-74361526D01*
X175722500Y-74870974D02*
X175722500Y-74361526D01*
%TO.C,R3*%
X126025000Y-84055276D02*
X126025000Y-84564724D01*
X124980000Y-84055276D02*
X124980000Y-84564724D01*
%TO.C,TH1*%
X152929879Y-104880000D02*
X153265121Y-104880000D01*
X152929879Y-104120000D02*
X153265121Y-104120000D01*
%TO.C,J7*%
X147260000Y-90000000D02*
X147260000Y-91330000D01*
X144660000Y-88670000D02*
X139520000Y-88670000D01*
X139520000Y-88670000D02*
X139520000Y-91330000D01*
X147260000Y-91330000D02*
X145930000Y-91330000D01*
X144660000Y-88670000D02*
X144660000Y-91330000D01*
X144660000Y-91330000D02*
X139520000Y-91330000D01*
%TO.C,R5*%
X112220000Y-80305276D02*
X112220000Y-80814724D01*
X113265000Y-80305276D02*
X113265000Y-80814724D01*
%TO.C,L3*%
X137225000Y-71069585D02*
X137225000Y-71412119D01*
X136205000Y-71069585D02*
X136205000Y-71412119D01*
%TO.C,C5*%
X123502500Y-84163733D02*
X123502500Y-84456267D01*
X122482500Y-84163733D02*
X122482500Y-84456267D01*
D15*
%TO.C,U1*%
X123042500Y-78360000D02*
X123042500Y-78010000D01*
X122692500Y-78360000D02*
X123042500Y-78360000D01*
X122692500Y-73260000D02*
X123042500Y-73260000D01*
X119292500Y-78360000D02*
X118942500Y-78360000D01*
X118942500Y-78360000D02*
X118942500Y-78010000D01*
X123042500Y-73260000D02*
X123042500Y-73610000D01*
X118942500Y-73260000D02*
X118942500Y-73610000D01*
X119292500Y-73260000D02*
X118942500Y-73260000D01*
D16*
X124592500Y-78810000D02*
G75*
G03*
X124592500Y-78810000I-300000J0D01*
G01*
D15*
%TO.C,Q1*%
X128305000Y-79802500D02*
X128305000Y-83517500D01*
X133205000Y-83517500D02*
X133205000Y-79802500D01*
D17*
X133855000Y-77597500D02*
G75*
G03*
X133855000Y-77597500I-100000J0D01*
G01*
D13*
%TO.C,C14*%
X171508733Y-93128750D02*
X171801267Y-93128750D01*
X171508733Y-92108750D02*
X171801267Y-92108750D01*
%TO.C,C16*%
X140480000Y-70979600D02*
X140480000Y-71502104D01*
X141950000Y-70979600D02*
X141950000Y-71502104D01*
%TO.C,J9*%
X177280000Y-51730000D02*
X177280000Y-51670000D01*
X182480000Y-51670000D02*
X177280000Y-51670000D01*
X179880000Y-54330000D02*
X179880000Y-51730000D01*
X182480000Y-54330000D02*
X179880000Y-54330000D01*
X182480000Y-54330000D02*
X182480000Y-51670000D01*
X179880000Y-51730000D02*
X177280000Y-51730000D01*
X177280000Y-54330000D02*
X177280000Y-53000000D01*
X178610000Y-54330000D02*
X177280000Y-54330000D01*
%TO.C,D1*%
X133050000Y-63550000D02*
X133250000Y-63250000D01*
D15*
X133580000Y-64350000D02*
X133580000Y-62650000D01*
D13*
X132850000Y-63250000D02*
X133050000Y-63550000D01*
X133250000Y-63250000D02*
X132850000Y-63250000D01*
D15*
X135120000Y-64350000D02*
X135120000Y-62650000D01*
D13*
X133250000Y-63650000D02*
X132850000Y-63650000D01*
%TO.C,J14*%
X144485000Y-55420000D02*
X139285000Y-55420000D01*
X144485000Y-55420000D02*
X144485000Y-60510000D01*
X139285000Y-55420000D02*
X139285000Y-60510000D01*
X144485000Y-60510000D02*
X139285000Y-60510000D01*
%TO.C,C9*%
X173175000Y-74692551D02*
X173175000Y-74400017D01*
X172155000Y-74692551D02*
X172155000Y-74400017D01*
%TO.C,R7*%
X168155000Y-74947275D02*
X168155000Y-74437827D01*
X167110000Y-74947275D02*
X167110000Y-74437827D01*
%TO.C,C12*%
X166165000Y-89469983D02*
X166165000Y-89762517D01*
X165145000Y-89469983D02*
X165145000Y-89762517D01*
%TO.C,D2*%
X176600000Y-66750000D02*
X176800000Y-67050000D01*
D15*
X178870000Y-67850000D02*
X178870000Y-66150000D01*
X177330000Y-67850000D02*
X177330000Y-66150000D01*
D13*
X176800000Y-67050000D02*
X177000000Y-66750000D01*
X177000000Y-67150000D02*
X176600000Y-67150000D01*
X177000000Y-66750000D02*
X176600000Y-66750000D01*
%TO.C,TH2*%
X152332379Y-127880000D02*
X152667621Y-127880000D01*
X152332379Y-127120000D02*
X152667621Y-127120000D01*
%TO.C,J10*%
X171430000Y-55420000D02*
X171430000Y-60510000D01*
X171430000Y-55420000D02*
X166230000Y-55420000D01*
X171430000Y-60510000D02*
X166230000Y-60510000D01*
X166230000Y-55420000D02*
X166230000Y-60510000D01*
%TO.C,R2*%
X126037500Y-71564724D02*
X126037500Y-71055276D01*
X124992500Y-71564724D02*
X124992500Y-71055276D01*
%TO.C,R4*%
X124970000Y-64064724D02*
X124970000Y-64574172D01*
X126015000Y-64064724D02*
X126015000Y-64574172D01*
%TO.C,C15*%
X148225000Y-71387119D02*
X148225000Y-71094585D01*
X147205000Y-71387119D02*
X147205000Y-71094585D01*
%TD*%
%LPC*%
%TO.C,Q3*%
G36*
X174572500Y-87408750D02*
G01*
X174897500Y-87408750D01*
X174897500Y-88628750D01*
X173947500Y-88628750D01*
X173947500Y-87918750D01*
X173627500Y-87918750D01*
X173627500Y-88628750D01*
X172677500Y-88628750D01*
X172677500Y-87918750D01*
X172357500Y-87918750D01*
X172357500Y-88628750D01*
X171407500Y-88628750D01*
X171407500Y-87918750D01*
X171087500Y-87918750D01*
X171087500Y-88628750D01*
X170137500Y-88628750D01*
X170137500Y-87408750D01*
X170462500Y-87408750D01*
X170462500Y-83908750D01*
X174572500Y-83908750D01*
X174572500Y-87408750D01*
G37*
D19*
X174572500Y-87408750D02*
X174897500Y-87408750D01*
X174897500Y-88628750D01*
X173947500Y-88628750D01*
X173947500Y-87918750D01*
X173627500Y-87918750D01*
X173627500Y-88628750D01*
X172677500Y-88628750D01*
X172677500Y-87918750D01*
X172357500Y-87918750D01*
X172357500Y-88628750D01*
X171407500Y-88628750D01*
X171407500Y-87918750D01*
X171087500Y-87918750D01*
X171087500Y-88628750D01*
X170137500Y-88628750D01*
X170137500Y-87408750D01*
X170462500Y-87408750D01*
X170462500Y-83908750D01*
X174572500Y-83908750D01*
X174572500Y-87408750D01*
%TO.C,J3*%
G36*
X135380000Y-107700000D02*
G01*
X130940000Y-107700000D01*
X130940000Y-102300000D01*
X135380000Y-102300000D01*
X135380000Y-107700000D01*
G37*
X135380000Y-107700000D02*
X130940000Y-107700000D01*
X130940000Y-102300000D01*
X135380000Y-102300000D01*
X135380000Y-107700000D01*
G36*
X119370000Y-106750000D02*
G01*
X114930000Y-106750000D01*
X114930000Y-103250000D01*
X119370000Y-103250000D01*
X119370000Y-106750000D01*
G37*
X119370000Y-106750000D02*
X114930000Y-106750000D01*
X114930000Y-103250000D01*
X119370000Y-103250000D01*
X119370000Y-106750000D01*
%TO.C,J6*%
G36*
X172760000Y-130200000D02*
G01*
X168320000Y-130200000D01*
X168320000Y-124800000D01*
X172760000Y-124800000D01*
X172760000Y-130200000D01*
G37*
X172760000Y-130200000D02*
X168320000Y-130200000D01*
X168320000Y-124800000D01*
X172760000Y-124800000D01*
X172760000Y-130200000D01*
G36*
X188770000Y-129250000D02*
G01*
X184330000Y-129250000D01*
X184330000Y-125750000D01*
X188770000Y-125750000D01*
X188770000Y-129250000D01*
G37*
X188770000Y-129250000D02*
X184330000Y-129250000D01*
X184330000Y-125750000D01*
X188770000Y-125750000D01*
X188770000Y-129250000D01*
%TO.C,J5*%
G36*
X135380000Y-130200000D02*
G01*
X130940000Y-130200000D01*
X130940000Y-124800000D01*
X135380000Y-124800000D01*
X135380000Y-130200000D01*
G37*
X135380000Y-130200000D02*
X130940000Y-130200000D01*
X130940000Y-124800000D01*
X135380000Y-124800000D01*
X135380000Y-130200000D01*
G36*
X119370000Y-129250000D02*
G01*
X114930000Y-129250000D01*
X114930000Y-125750000D01*
X119370000Y-125750000D01*
X119370000Y-129250000D01*
G37*
X119370000Y-129250000D02*
X114930000Y-129250000D01*
X114930000Y-125750000D01*
X119370000Y-125750000D01*
X119370000Y-129250000D01*
%TO.C,J4*%
G36*
X188770000Y-106750000D02*
G01*
X184330000Y-106750000D01*
X184330000Y-103250000D01*
X188770000Y-103250000D01*
X188770000Y-106750000D01*
G37*
X188770000Y-106750000D02*
X184330000Y-106750000D01*
X184330000Y-103250000D01*
X188770000Y-103250000D01*
X188770000Y-106750000D01*
G36*
X172760000Y-107700000D02*
G01*
X168320000Y-107700000D01*
X168320000Y-102300000D01*
X172760000Y-102300000D01*
X172760000Y-107700000D01*
G37*
X172760000Y-107700000D02*
X168320000Y-107700000D01*
X168320000Y-102300000D01*
X172760000Y-102300000D01*
X172760000Y-107700000D01*
%TO.C,Q1*%
G36*
X132810000Y-83702500D02*
G01*
X133135000Y-83702500D01*
X133135000Y-84922500D01*
X132185000Y-84922500D01*
X132185000Y-84212500D01*
X131865000Y-84212500D01*
X131865000Y-84922500D01*
X130915000Y-84922500D01*
X130915000Y-84212500D01*
X130595000Y-84212500D01*
X130595000Y-84922500D01*
X129645000Y-84922500D01*
X129645000Y-84212500D01*
X129325000Y-84212500D01*
X129325000Y-84922500D01*
X128375000Y-84922500D01*
X128375000Y-83702500D01*
X128700000Y-83702500D01*
X128700000Y-80202500D01*
X132810000Y-80202500D01*
X132810000Y-83702500D01*
G37*
X132810000Y-83702500D02*
X133135000Y-83702500D01*
X133135000Y-84922500D01*
X132185000Y-84922500D01*
X132185000Y-84212500D01*
X131865000Y-84212500D01*
X131865000Y-84922500D01*
X130915000Y-84922500D01*
X130915000Y-84212500D01*
X130595000Y-84212500D01*
X130595000Y-84922500D01*
X129645000Y-84922500D01*
X129645000Y-84212500D01*
X129325000Y-84212500D01*
X129325000Y-84922500D01*
X128375000Y-84922500D01*
X128375000Y-83702500D01*
X128700000Y-83702500D01*
X128700000Y-80202500D01*
X132810000Y-80202500D01*
X132810000Y-83702500D01*
%TD*%
D20*
%TO.C,D3*%
X139062500Y-70165852D03*
X139062500Y-72315852D03*
%TD*%
D21*
%TO.C,C2*%
X130492500Y-72172500D03*
X130492500Y-70447500D03*
%TD*%
D22*
%TO.C,J11*%
X170100000Y-52790000D03*
D23*
X170100000Y-50250000D03*
D24*
X167560000Y-52790000D03*
D23*
X167560000Y-50250000D03*
%TD*%
D25*
%TO.C,U4*%
X182680000Y-83350000D03*
X183950000Y-83350000D03*
X185220000Y-83350000D03*
X186490000Y-83350000D03*
X187760000Y-83350000D03*
X189030000Y-83350000D03*
X190300000Y-83350000D03*
X191570000Y-83350000D03*
X191570000Y-75860000D03*
X190300000Y-75860000D03*
X189030000Y-75860000D03*
X187760000Y-75860000D03*
X186490000Y-75860000D03*
X185220000Y-75860000D03*
X183950000Y-75860000D03*
X182680000Y-75860000D03*
%TD*%
D22*
%TO.C,J12*%
X156585000Y-52790000D03*
D23*
X156585000Y-50250000D03*
D24*
X154045000Y-52790000D03*
D23*
X154045000Y-50250000D03*
%TD*%
D26*
%TO.C,U2*%
X166407500Y-81866250D03*
X166407500Y-81366250D03*
X166407500Y-80866250D03*
X166407500Y-80366250D03*
X166407500Y-79866250D03*
X166407500Y-79366250D03*
X166407500Y-78866250D03*
X166407500Y-78366250D03*
D27*
X164905000Y-76613750D03*
X164405000Y-76613750D03*
X163905000Y-76613750D03*
X163405000Y-76613750D03*
X162905000Y-76613750D03*
X162405000Y-76613750D03*
D28*
X160902500Y-78366250D03*
X160902500Y-78866250D03*
X160902500Y-79366250D03*
X160902500Y-79866250D03*
X160902500Y-80366250D03*
X160902500Y-80866250D03*
X160902500Y-81366250D03*
X160902500Y-81866250D03*
D29*
X162405000Y-83618750D03*
X162905000Y-83618750D03*
X163405000Y-83618750D03*
X163905000Y-83618750D03*
X164405000Y-83618750D03*
X164905000Y-83618750D03*
D30*
X163655000Y-80116250D03*
%TD*%
D31*
%TO.C,R1*%
X132925000Y-72222500D03*
X132925000Y-70397500D03*
%TD*%
D32*
%TO.C,Q3*%
X174422500Y-81706250D03*
X173152500Y-81706250D03*
D33*
X171887500Y-81706250D03*
D32*
X170612500Y-81706250D03*
%TD*%
D34*
%TO.C,C6*%
X109992500Y-79697500D03*
X109992500Y-81422500D03*
%TD*%
D35*
%TO.C,Q4*%
X160305100Y-85766250D03*
X158405100Y-85766250D03*
X159355100Y-90166250D03*
%TD*%
D22*
%TO.C,J2*%
X155545000Y-71316250D03*
D24*
X158085000Y-71316250D03*
X160625000Y-71316250D03*
X163165000Y-71316250D03*
%TD*%
D21*
%TO.C,C11*%
X156155000Y-80478750D03*
X156155000Y-78753750D03*
%TD*%
D22*
%TO.C,J15*%
X156585000Y-59290000D03*
D23*
X156585000Y-56750000D03*
D24*
X154045000Y-59290000D03*
D23*
X154045000Y-56750000D03*
%TD*%
D22*
%TO.C,J8*%
X191286300Y-90928977D03*
D24*
X188746300Y-90928977D03*
X186206300Y-90928977D03*
%TD*%
D36*
%TO.C,L1*%
X120502500Y-83435000D03*
X120502500Y-85185000D03*
%TD*%
D37*
%TO.C,C7*%
X127882500Y-87050000D03*
X129607500Y-87050000D03*
%TD*%
D21*
%TO.C,C17*%
X191490000Y-70712500D03*
X191490000Y-68987500D03*
%TD*%
D34*
%TO.C,C13*%
X153395000Y-83853750D03*
X153395000Y-85578750D03*
%TD*%
D38*
%TO.C,C1*%
X131492500Y-66372500D03*
X131492500Y-63247500D03*
%TD*%
D22*
%TO.C,J1*%
X113382500Y-66510000D03*
D24*
X115922500Y-66510000D03*
X118462500Y-66510000D03*
X121002500Y-66510000D03*
%TD*%
D38*
%TO.C,C8*%
X173905000Y-70428750D03*
X173905000Y-67303750D03*
%TD*%
D39*
%TO.C,R9*%
X167632500Y-67453750D03*
X167632500Y-69278750D03*
%TD*%
D25*
%TO.C,U3*%
X138932500Y-84785852D03*
X140202500Y-84785852D03*
X141472500Y-84785852D03*
X142742500Y-84785852D03*
X144012500Y-84785852D03*
X145282500Y-84785852D03*
X146552500Y-84785852D03*
X147822500Y-84785852D03*
X147822500Y-77295852D03*
X146552500Y-77295852D03*
X145282500Y-77295852D03*
X144012500Y-77295852D03*
X142742500Y-77295852D03*
X141472500Y-77295852D03*
X140202500Y-77295852D03*
X138932500Y-77295852D03*
%TD*%
D36*
%TO.C,L4*%
X180490000Y-68975000D03*
X180490000Y-70725000D03*
%TD*%
D34*
%TO.C,C10*%
X170155000Y-73830051D03*
X170155000Y-75555051D03*
%TD*%
D39*
%TO.C,R8*%
X168132500Y-88703750D03*
X168132500Y-90528750D03*
%TD*%
D21*
%TO.C,C4*%
X112742500Y-74672500D03*
X112742500Y-72947500D03*
%TD*%
D39*
%TO.C,R10*%
X156155000Y-83803750D03*
X156155000Y-85628750D03*
%TD*%
D22*
%TO.C,J13*%
X143155000Y-52790000D03*
D23*
X143155000Y-50250000D03*
D24*
X140615000Y-52790000D03*
D23*
X140615000Y-50250000D03*
%TD*%
D20*
%TO.C,D4*%
X182750000Y-68775000D03*
X182750000Y-70925000D03*
%TD*%
D34*
%TO.C,C3*%
X127992500Y-70447500D03*
X127992500Y-72172500D03*
%TD*%
D40*
%TO.C,C18*%
X185240000Y-68812500D03*
X185240000Y-70887500D03*
%TD*%
D35*
%TO.C,Q2*%
X116942600Y-81410000D03*
X115042600Y-81410000D03*
X115992600Y-85810000D03*
%TD*%
D36*
%TO.C,L2*%
X162895000Y-88741250D03*
X162895000Y-90491250D03*
%TD*%
D31*
%TO.C,R6*%
X175200000Y-75528750D03*
X175200000Y-73703750D03*
%TD*%
D39*
%TO.C,R3*%
X125502500Y-83397500D03*
X125502500Y-85222500D03*
%TD*%
D41*
%TO.C,TH1*%
X152500000Y-104500000D03*
X153695000Y-104500000D03*
%TD*%
D22*
%TO.C,J7*%
X145930000Y-90000000D03*
D24*
X143390000Y-90000000D03*
X140850000Y-90000000D03*
%TD*%
D39*
%TO.C,R5*%
X112742500Y-79647500D03*
X112742500Y-81472500D03*
%TD*%
D36*
%TO.C,L3*%
X136715000Y-70365852D03*
X136715000Y-72115852D03*
%TD*%
D34*
%TO.C,C5*%
X122992500Y-83447500D03*
X122992500Y-85172500D03*
%TD*%
D26*
%TO.C,U1*%
X123745000Y-77560000D03*
X123745000Y-77060000D03*
X123745000Y-76560000D03*
X123745000Y-76060000D03*
X123745000Y-75560000D03*
X123745000Y-75060000D03*
X123745000Y-74560000D03*
X123745000Y-74060000D03*
D27*
X122242500Y-72307500D03*
X121742500Y-72307500D03*
X121242500Y-72307500D03*
X120742500Y-72307500D03*
X120242500Y-72307500D03*
X119742500Y-72307500D03*
D28*
X118240000Y-74060000D03*
X118240000Y-74560000D03*
X118240000Y-75060000D03*
X118240000Y-75560000D03*
X118240000Y-76060000D03*
X118240000Y-76560000D03*
X118240000Y-77060000D03*
X118240000Y-77560000D03*
D29*
X119742500Y-79312500D03*
X120242500Y-79312500D03*
X120742500Y-79312500D03*
X121242500Y-79312500D03*
X121742500Y-79312500D03*
X122242500Y-79312500D03*
D30*
X120992500Y-75810000D03*
%TD*%
D32*
%TO.C,Q1*%
X132660000Y-78000000D03*
X131390000Y-78000000D03*
D33*
X130125000Y-78000000D03*
D32*
X128850000Y-78000000D03*
%TD*%
D37*
%TO.C,C14*%
X170792500Y-92618750D03*
X172517500Y-92618750D03*
%TD*%
D40*
%TO.C,C16*%
X141215000Y-70203352D03*
X141215000Y-72278352D03*
%TD*%
D22*
%TO.C,J9*%
X178610000Y-53000000D03*
D24*
X181150000Y-53000000D03*
%TD*%
D42*
%TO.C,D1*%
X134350000Y-65375000D03*
X134350000Y-61625000D03*
%TD*%
D22*
%TO.C,J14*%
X143155000Y-59290000D03*
D23*
X143155000Y-56750000D03*
D24*
X140615000Y-59290000D03*
D23*
X140615000Y-56750000D03*
%TD*%
D21*
%TO.C,C9*%
X172665000Y-75408784D03*
X172665000Y-73683784D03*
%TD*%
D31*
%TO.C,R7*%
X167632500Y-75605051D03*
X167632500Y-73780051D03*
%TD*%
D34*
%TO.C,C12*%
X165655000Y-88753750D03*
X165655000Y-90478750D03*
%TD*%
D42*
%TO.C,D2*%
X178100000Y-68875000D03*
X178100000Y-65125000D03*
%TD*%
D41*
%TO.C,TH2*%
X151902500Y-127500000D03*
X153097500Y-127500000D03*
%TD*%
D22*
%TO.C,J10*%
X170100000Y-59290000D03*
D23*
X170100000Y-56750000D03*
D24*
X167560000Y-59290000D03*
D23*
X167560000Y-56750000D03*
%TD*%
D31*
%TO.C,R2*%
X125515000Y-72222500D03*
X125515000Y-70397500D03*
%TD*%
D39*
%TO.C,R4*%
X125492500Y-63406948D03*
X125492500Y-65231948D03*
%TD*%
D21*
%TO.C,C15*%
X147715000Y-72103352D03*
X147715000Y-70378352D03*
%TD*%
M02*
