%TF.GenerationSoftware,KiCad,Pcbnew,6.0.11+dfsg-1*%
%TF.CreationDate,2023-05-03T21:30:48-05:00*%
%TF.ProjectId,CubesatPwrBoard,43756265-7361-4745-9077-72426f617264,rev?*%
%TF.SameCoordinates,Original*%
%TF.FileFunction,Paste,Top*%
%TF.FilePolarity,Positive*%
%FSLAX46Y46*%
G04 Gerber Fmt 4.6, Leading zero omitted, Abs format (unit mm)*
G04 Created by KiCad (PCBNEW 6.0.11+dfsg-1) date 2023-05-03 21:30:48*
%MOMM*%
%LPD*%
G01*
G04 APERTURE LIST*
G04 Aperture macros list*
%AMRoundRect*
0 Rectangle with rounded corners*
0 $1 Rounding radius*
0 $2 $3 $4 $5 $6 $7 $8 $9 X,Y pos of 4 corners*
0 Add a 4 corners polygon primitive as box body*
4,1,4,$2,$3,$4,$5,$6,$7,$8,$9,$2,$3,0*
0 Add four circle primitives for the rounded corners*
1,1,$1+$1,$2,$3*
1,1,$1+$1,$4,$5*
1,1,$1+$1,$6,$7*
1,1,$1+$1,$8,$9*
0 Add four rect primitives between the rounded corners*
20,1,$1+$1,$2,$3,$4,$5,0*
20,1,$1+$1,$4,$5,$6,$7,0*
20,1,$1+$1,$6,$7,$8,$9,0*
20,1,$1+$1,$8,$9,$2,$3,0*%
G04 Aperture macros list end*
%ADD10C,2.088486*%
%ADD11C,0.010000*%
%ADD12C,2.100000*%
%ADD13C,0.120000*%
%ADD14R,0.700000X1.850000*%
%ADD15RoundRect,0.237500X0.237500X-0.300000X0.237500X0.300000X-0.237500X0.300000X-0.237500X-0.300000X0*%
%ADD16RoundRect,0.041300X0.253700X-2.213700X0.253700X2.213700X-0.253700X2.213700X-0.253700X-2.213700X0*%
%ADD17RoundRect,0.018900X1.228600X0.116100X-1.228600X0.116100X-1.228600X-0.116100X1.228600X-0.116100X0*%
%ADD18RoundRect,0.018900X-0.116100X1.478600X-0.116100X-1.478600X0.116100X-1.478600X0.116100X1.478600X0*%
%ADD19RoundRect,0.018900X-1.228600X-0.116100X1.228600X-0.116100X1.228600X0.116100X-1.228600X0.116100X0*%
%ADD20RoundRect,0.018900X0.116100X-1.478600X0.116100X1.478600X-0.116100X1.478600X-0.116100X-1.478600X0*%
%ADD21RoundRect,0.237500X0.237500X-0.250000X0.237500X0.250000X-0.237500X0.250000X-0.237500X-0.250000X0*%
%ADD22R,0.750000X2.965000*%
%ADD23R,0.740000X2.965000*%
%ADD24RoundRect,0.237500X-0.237500X0.300000X-0.237500X-0.300000X0.237500X-0.300000X0.237500X0.300000X0*%
%ADD25R,1.000000X3.600000*%
%ADD26RoundRect,0.237500X-0.237500X0.287500X-0.237500X-0.287500X0.237500X-0.287500X0.237500X0.287500X0*%
%ADD27RoundRect,0.237500X-0.300000X-0.237500X0.300000X-0.237500X0.300000X0.237500X-0.300000X0.237500X0*%
%ADD28RoundRect,0.250000X1.100000X-0.412500X1.100000X0.412500X-1.100000X0.412500X-1.100000X-0.412500X0*%
%ADD29RoundRect,0.237500X-0.237500X0.250000X-0.237500X-0.250000X0.237500X-0.250000X0.237500X0.250000X0*%
%ADD30RoundRect,0.250000X-0.475000X0.337500X-0.475000X-0.337500X0.475000X-0.337500X0.475000X0.337500X0*%
%ADD31RoundRect,0.160000X-0.197500X-0.160000X0.197500X-0.160000X0.197500X0.160000X-0.197500X0.160000X0*%
%ADD32R,0.900000X2.250000*%
G04 APERTURE END LIST*
D10*
X192544243Y-136500000D02*
G75*
G03*
X192544243Y-136500000I-1044243J0D01*
G01*
X112544243Y-136500000D02*
G75*
G03*
X112544243Y-136500000I-1044243J0D01*
G01*
X192544243Y-50500000D02*
G75*
G03*
X192544243Y-50500000I-1044243J0D01*
G01*
X112544243Y-50500000D02*
G75*
G03*
X112544243Y-50500000I-1044243J0D01*
G01*
%TO.C,U2*%
G36*
X164685000Y-81646250D02*
G01*
X163805000Y-81646250D01*
X163805000Y-80266250D01*
X164685000Y-80266250D01*
X164685000Y-81646250D01*
G37*
D11*
X164685000Y-81646250D02*
X163805000Y-81646250D01*
X163805000Y-80266250D01*
X164685000Y-80266250D01*
X164685000Y-81646250D01*
G36*
X164685000Y-79966250D02*
G01*
X163805000Y-79966250D01*
X163805000Y-78586250D01*
X164685000Y-78586250D01*
X164685000Y-79966250D01*
G37*
X164685000Y-79966250D02*
X163805000Y-79966250D01*
X163805000Y-78586250D01*
X164685000Y-78586250D01*
X164685000Y-79966250D01*
G36*
X163505000Y-81646250D02*
G01*
X162625000Y-81646250D01*
X162625000Y-80266250D01*
X163505000Y-80266250D01*
X163505000Y-81646250D01*
G37*
X163505000Y-81646250D02*
X162625000Y-81646250D01*
X162625000Y-80266250D01*
X163505000Y-80266250D01*
X163505000Y-81646250D01*
G36*
X163505000Y-79966250D02*
G01*
X162625000Y-79966250D01*
X162625000Y-78586250D01*
X163505000Y-78586250D01*
X163505000Y-79966250D01*
G37*
X163505000Y-79966250D02*
X162625000Y-79966250D01*
X162625000Y-78586250D01*
X163505000Y-78586250D01*
X163505000Y-79966250D01*
%TO.C,Q3*%
G36*
X172282500Y-85678750D02*
G01*
X171032500Y-85678750D01*
X171032500Y-84478750D01*
X172282500Y-84478750D01*
X172282500Y-85678750D01*
G37*
X172282500Y-85678750D02*
X171032500Y-85678750D01*
X171032500Y-84478750D01*
X172282500Y-84478750D01*
X172282500Y-85678750D01*
G36*
X174002500Y-85678750D02*
G01*
X172752500Y-85678750D01*
X172752500Y-84478750D01*
X174002500Y-84478750D01*
X174002500Y-85678750D01*
G37*
X174002500Y-85678750D02*
X172752500Y-85678750D01*
X172752500Y-84478750D01*
X174002500Y-84478750D01*
X174002500Y-85678750D01*
G36*
X170992500Y-88533750D02*
G01*
X170232500Y-88533750D01*
X170232500Y-87823750D01*
X170992500Y-87823750D01*
X170992500Y-88533750D01*
G37*
X170992500Y-88533750D02*
X170232500Y-88533750D01*
X170232500Y-87823750D01*
X170992500Y-87823750D01*
X170992500Y-88533750D01*
G36*
X172262500Y-88533750D02*
G01*
X171502500Y-88533750D01*
X171502500Y-87823750D01*
X172262500Y-87823750D01*
X172262500Y-88533750D01*
G37*
X172262500Y-88533750D02*
X171502500Y-88533750D01*
X171502500Y-87823750D01*
X172262500Y-87823750D01*
X172262500Y-88533750D01*
G36*
X173532500Y-88533750D02*
G01*
X172772500Y-88533750D01*
X172772500Y-87823750D01*
X173532500Y-87823750D01*
X173532500Y-88533750D01*
G37*
X173532500Y-88533750D02*
X172772500Y-88533750D01*
X172772500Y-87823750D01*
X173532500Y-87823750D01*
X173532500Y-88533750D01*
G36*
X174802500Y-88533750D02*
G01*
X174042500Y-88533750D01*
X174042500Y-87823750D01*
X174802500Y-87823750D01*
X174802500Y-88533750D01*
G37*
X174802500Y-88533750D02*
X174042500Y-88533750D01*
X174042500Y-87823750D01*
X174802500Y-87823750D01*
X174802500Y-88533750D01*
G36*
X174002500Y-87348750D02*
G01*
X172752500Y-87348750D01*
X172752500Y-86148750D01*
X174002500Y-86148750D01*
X174002500Y-87348750D01*
G37*
X174002500Y-87348750D02*
X172752500Y-87348750D01*
X172752500Y-86148750D01*
X174002500Y-86148750D01*
X174002500Y-87348750D01*
G36*
X172282500Y-87348750D02*
G01*
X171032500Y-87348750D01*
X171032500Y-86148750D01*
X172282500Y-86148750D01*
X172282500Y-87348750D01*
G37*
X172282500Y-87348750D02*
X171032500Y-87348750D01*
X171032500Y-86148750D01*
X172282500Y-86148750D01*
X172282500Y-87348750D01*
%TO.C,H1*%
D12*
X112550000Y-136500000D02*
G75*
G03*
X112550000Y-136500000I-1050000J0D01*
G01*
D13*
%TO.C,J3*%
X119350000Y-106700000D02*
X114950000Y-106700000D01*
X114950000Y-106700000D02*
X114950000Y-103300000D01*
X114950000Y-103300000D02*
X119350000Y-103300000D01*
X119350000Y-103300000D02*
X119350000Y-106700000D01*
G36*
X119350000Y-106700000D02*
G01*
X114950000Y-106700000D01*
X114950000Y-103300000D01*
X119350000Y-103300000D01*
X119350000Y-106700000D01*
G37*
X135350000Y-107700000D02*
X130950000Y-107700000D01*
X130950000Y-107700000D02*
X130950000Y-102300000D01*
X130950000Y-102300000D02*
X135350000Y-102300000D01*
X135350000Y-102300000D02*
X135350000Y-107700000D01*
G36*
X135350000Y-107700000D02*
G01*
X130950000Y-107700000D01*
X130950000Y-102300000D01*
X135350000Y-102300000D01*
X135350000Y-107700000D01*
G37*
%TO.C,H3*%
D12*
X192550000Y-136500000D02*
G75*
G03*
X192550000Y-136500000I-1050000J0D01*
G01*
%TO.C,H4*%
X112550000Y-50500000D02*
G75*
G03*
X112550000Y-50500000I-1050000J0D01*
G01*
%TO.C,H2*%
X192550000Y-50500000D02*
G75*
G03*
X192550000Y-50500000I-1050000J0D01*
G01*
D13*
%TO.C,J6*%
X184350000Y-125800000D02*
X188750000Y-125800000D01*
X188750000Y-125800000D02*
X188750000Y-129200000D01*
X188750000Y-129200000D02*
X184350000Y-129200000D01*
X184350000Y-129200000D02*
X184350000Y-125800000D01*
G36*
X184350000Y-125800000D02*
G01*
X188750000Y-125800000D01*
X188750000Y-129200000D01*
X184350000Y-129200000D01*
X184350000Y-125800000D01*
G37*
X168350000Y-124800000D02*
X172750000Y-124800000D01*
X172750000Y-124800000D02*
X172750000Y-130200000D01*
X172750000Y-130200000D02*
X168350000Y-130200000D01*
X168350000Y-130200000D02*
X168350000Y-124800000D01*
G36*
X168350000Y-124800000D02*
G01*
X172750000Y-124800000D01*
X172750000Y-130200000D01*
X168350000Y-130200000D01*
X168350000Y-124800000D01*
G37*
%TO.C,J5*%
X135350000Y-130200000D02*
X130950000Y-130200000D01*
X130950000Y-130200000D02*
X130950000Y-124800000D01*
X130950000Y-124800000D02*
X135350000Y-124800000D01*
X135350000Y-124800000D02*
X135350000Y-130200000D01*
G36*
X135350000Y-130200000D02*
G01*
X130950000Y-130200000D01*
X130950000Y-124800000D01*
X135350000Y-124800000D01*
X135350000Y-130200000D01*
G37*
X119350000Y-129200000D02*
X114950000Y-129200000D01*
X114950000Y-129200000D02*
X114950000Y-125800000D01*
X114950000Y-125800000D02*
X119350000Y-125800000D01*
X119350000Y-125800000D02*
X119350000Y-129200000D01*
G36*
X119350000Y-129200000D02*
G01*
X114950000Y-129200000D01*
X114950000Y-125800000D01*
X119350000Y-125800000D01*
X119350000Y-129200000D01*
G37*
%TO.C,J4*%
X184350000Y-103300000D02*
X188750000Y-103300000D01*
X188750000Y-103300000D02*
X188750000Y-106700000D01*
X188750000Y-106700000D02*
X184350000Y-106700000D01*
X184350000Y-106700000D02*
X184350000Y-103300000D01*
G36*
X184350000Y-103300000D02*
G01*
X188750000Y-103300000D01*
X188750000Y-106700000D01*
X184350000Y-106700000D01*
X184350000Y-103300000D01*
G37*
X168350000Y-102300000D02*
X172750000Y-102300000D01*
X172750000Y-102300000D02*
X172750000Y-107700000D01*
X172750000Y-107700000D02*
X168350000Y-107700000D01*
X168350000Y-107700000D02*
X168350000Y-102300000D01*
G36*
X168350000Y-102300000D02*
G01*
X172750000Y-102300000D01*
X172750000Y-107700000D01*
X168350000Y-107700000D01*
X168350000Y-102300000D01*
G37*
%TO.C,U1*%
G36*
X120842500Y-77340000D02*
G01*
X119962500Y-77340000D01*
X119962500Y-75960000D01*
X120842500Y-75960000D01*
X120842500Y-77340000D01*
G37*
D11*
X120842500Y-77340000D02*
X119962500Y-77340000D01*
X119962500Y-75960000D01*
X120842500Y-75960000D01*
X120842500Y-77340000D01*
G36*
X122022500Y-77340000D02*
G01*
X121142500Y-77340000D01*
X121142500Y-75960000D01*
X122022500Y-75960000D01*
X122022500Y-77340000D01*
G37*
X122022500Y-77340000D02*
X121142500Y-77340000D01*
X121142500Y-75960000D01*
X122022500Y-75960000D01*
X122022500Y-77340000D01*
G36*
X120842500Y-75660000D02*
G01*
X119962500Y-75660000D01*
X119962500Y-74280000D01*
X120842500Y-74280000D01*
X120842500Y-75660000D01*
G37*
X120842500Y-75660000D02*
X119962500Y-75660000D01*
X119962500Y-74280000D01*
X120842500Y-74280000D01*
X120842500Y-75660000D01*
G36*
X122022500Y-75660000D02*
G01*
X121142500Y-75660000D01*
X121142500Y-74280000D01*
X122022500Y-74280000D01*
X122022500Y-75660000D01*
G37*
X122022500Y-75660000D02*
X121142500Y-75660000D01*
X121142500Y-74280000D01*
X122022500Y-74280000D01*
X122022500Y-75660000D01*
%TO.C,Q1*%
G36*
X132240000Y-83642500D02*
G01*
X130990000Y-83642500D01*
X130990000Y-82442500D01*
X132240000Y-82442500D01*
X132240000Y-83642500D01*
G37*
X132240000Y-83642500D02*
X130990000Y-83642500D01*
X130990000Y-82442500D01*
X132240000Y-82442500D01*
X132240000Y-83642500D01*
G36*
X131770000Y-84827500D02*
G01*
X131010000Y-84827500D01*
X131010000Y-84117500D01*
X131770000Y-84117500D01*
X131770000Y-84827500D01*
G37*
X131770000Y-84827500D02*
X131010000Y-84827500D01*
X131010000Y-84117500D01*
X131770000Y-84117500D01*
X131770000Y-84827500D01*
G36*
X129230000Y-84827500D02*
G01*
X128470000Y-84827500D01*
X128470000Y-84117500D01*
X129230000Y-84117500D01*
X129230000Y-84827500D01*
G37*
X129230000Y-84827500D02*
X128470000Y-84827500D01*
X128470000Y-84117500D01*
X129230000Y-84117500D01*
X129230000Y-84827500D01*
G36*
X130520000Y-83642500D02*
G01*
X129270000Y-83642500D01*
X129270000Y-82442500D01*
X130520000Y-82442500D01*
X130520000Y-83642500D01*
G37*
X130520000Y-83642500D02*
X129270000Y-83642500D01*
X129270000Y-82442500D01*
X130520000Y-82442500D01*
X130520000Y-83642500D01*
G36*
X130520000Y-81972500D02*
G01*
X129270000Y-81972500D01*
X129270000Y-80772500D01*
X130520000Y-80772500D01*
X130520000Y-81972500D01*
G37*
X130520000Y-81972500D02*
X129270000Y-81972500D01*
X129270000Y-80772500D01*
X130520000Y-80772500D01*
X130520000Y-81972500D01*
G36*
X133040000Y-84827500D02*
G01*
X132280000Y-84827500D01*
X132280000Y-84117500D01*
X133040000Y-84117500D01*
X133040000Y-84827500D01*
G37*
X133040000Y-84827500D02*
X132280000Y-84827500D01*
X132280000Y-84117500D01*
X133040000Y-84117500D01*
X133040000Y-84827500D01*
G36*
X132240000Y-81972500D02*
G01*
X130990000Y-81972500D01*
X130990000Y-80772500D01*
X132240000Y-80772500D01*
X132240000Y-81972500D01*
G37*
X132240000Y-81972500D02*
X130990000Y-81972500D01*
X130990000Y-80772500D01*
X132240000Y-80772500D01*
X132240000Y-81972500D01*
G36*
X130500000Y-84827500D02*
G01*
X129740000Y-84827500D01*
X129740000Y-84117500D01*
X130500000Y-84117500D01*
X130500000Y-84827500D01*
G37*
X130500000Y-84827500D02*
X129740000Y-84827500D01*
X129740000Y-84117500D01*
X130500000Y-84117500D01*
X130500000Y-84827500D01*
%TD*%
D14*
%TO.C,D3*%
X139062500Y-70165852D03*
X139062500Y-72315852D03*
%TD*%
D15*
%TO.C,C2*%
X130492500Y-72172500D03*
X130492500Y-70447500D03*
%TD*%
D16*
%TO.C,U4*%
X182680000Y-83350000D03*
X183950000Y-83350000D03*
X185220000Y-83350000D03*
X186490000Y-83350000D03*
X187760000Y-83350000D03*
X189030000Y-83350000D03*
X190300000Y-83350000D03*
X191570000Y-83350000D03*
X191570000Y-75860000D03*
X190300000Y-75860000D03*
X189030000Y-75860000D03*
X187760000Y-75860000D03*
X186490000Y-75860000D03*
X185220000Y-75860000D03*
X183950000Y-75860000D03*
X182680000Y-75860000D03*
%TD*%
D17*
%TO.C,U2*%
X166407500Y-81866250D03*
X166407500Y-81366250D03*
X166407500Y-80866250D03*
X166407500Y-80366250D03*
X166407500Y-79866250D03*
X166407500Y-79366250D03*
X166407500Y-78866250D03*
X166407500Y-78366250D03*
D18*
X164905000Y-76613750D03*
X164405000Y-76613750D03*
X163905000Y-76613750D03*
X163405000Y-76613750D03*
X162905000Y-76613750D03*
X162405000Y-76613750D03*
D19*
X160902500Y-78366250D03*
X160902500Y-78866250D03*
X160902500Y-79366250D03*
X160902500Y-79866250D03*
X160902500Y-80366250D03*
X160902500Y-80866250D03*
X160902500Y-81366250D03*
X160902500Y-81866250D03*
D20*
X162405000Y-83618750D03*
X162905000Y-83618750D03*
X163405000Y-83618750D03*
X163905000Y-83618750D03*
X164405000Y-83618750D03*
X164905000Y-83618750D03*
%TD*%
D21*
%TO.C,R1*%
X132925000Y-72222500D03*
X132925000Y-70397500D03*
%TD*%
D22*
%TO.C,Q3*%
X174422500Y-81706250D03*
X173152500Y-81706250D03*
D23*
X171887500Y-81706250D03*
D22*
X170612500Y-81706250D03*
%TD*%
D24*
%TO.C,C6*%
X109992500Y-79697500D03*
X109992500Y-81422500D03*
%TD*%
D25*
%TO.C,Q4*%
X160305100Y-85766250D03*
X158405100Y-85766250D03*
X159355100Y-90166250D03*
%TD*%
D15*
%TO.C,C11*%
X156155000Y-80478750D03*
X156155000Y-78753750D03*
%TD*%
D26*
%TO.C,L1*%
X120502500Y-83435000D03*
X120502500Y-85185000D03*
%TD*%
D27*
%TO.C,C7*%
X127882500Y-87050000D03*
X129607500Y-87050000D03*
%TD*%
D15*
%TO.C,C17*%
X191490000Y-70712500D03*
X191490000Y-68987500D03*
%TD*%
D24*
%TO.C,C13*%
X153395000Y-83853750D03*
X153395000Y-85578750D03*
%TD*%
D28*
%TO.C,C1*%
X131492500Y-66372500D03*
X131492500Y-63247500D03*
%TD*%
%TO.C,C8*%
X173905000Y-70428750D03*
X173905000Y-67303750D03*
%TD*%
D29*
%TO.C,R9*%
X167632500Y-67453750D03*
X167632500Y-69278750D03*
%TD*%
D16*
%TO.C,U3*%
X138932500Y-84785852D03*
X140202500Y-84785852D03*
X141472500Y-84785852D03*
X142742500Y-84785852D03*
X144012500Y-84785852D03*
X145282500Y-84785852D03*
X146552500Y-84785852D03*
X147822500Y-84785852D03*
X147822500Y-77295852D03*
X146552500Y-77295852D03*
X145282500Y-77295852D03*
X144012500Y-77295852D03*
X142742500Y-77295852D03*
X141472500Y-77295852D03*
X140202500Y-77295852D03*
X138932500Y-77295852D03*
%TD*%
D26*
%TO.C,L4*%
X180490000Y-68975000D03*
X180490000Y-70725000D03*
%TD*%
D24*
%TO.C,C10*%
X170155000Y-73830051D03*
X170155000Y-75555051D03*
%TD*%
D29*
%TO.C,R8*%
X168132500Y-88703750D03*
X168132500Y-90528750D03*
%TD*%
D15*
%TO.C,C4*%
X112742500Y-74672500D03*
X112742500Y-72947500D03*
%TD*%
D29*
%TO.C,R10*%
X156155000Y-83803750D03*
X156155000Y-85628750D03*
%TD*%
D14*
%TO.C,D4*%
X182750000Y-68775000D03*
X182750000Y-70925000D03*
%TD*%
D24*
%TO.C,C3*%
X127992500Y-70447500D03*
X127992500Y-72172500D03*
%TD*%
D30*
%TO.C,C18*%
X185240000Y-68812500D03*
X185240000Y-70887500D03*
%TD*%
D25*
%TO.C,Q2*%
X116942600Y-81410000D03*
X115042600Y-81410000D03*
X115992600Y-85810000D03*
%TD*%
D26*
%TO.C,L2*%
X162895000Y-88741250D03*
X162895000Y-90491250D03*
%TD*%
D21*
%TO.C,R6*%
X175200000Y-75528750D03*
X175200000Y-73703750D03*
%TD*%
D29*
%TO.C,R3*%
X125502500Y-83397500D03*
X125502500Y-85222500D03*
%TD*%
D31*
%TO.C,TH1*%
X152500000Y-104500000D03*
X153695000Y-104500000D03*
%TD*%
D29*
%TO.C,R5*%
X112742500Y-79647500D03*
X112742500Y-81472500D03*
%TD*%
D26*
%TO.C,L3*%
X136715000Y-70365852D03*
X136715000Y-72115852D03*
%TD*%
D24*
%TO.C,C5*%
X122992500Y-83447500D03*
X122992500Y-85172500D03*
%TD*%
D17*
%TO.C,U1*%
X123745000Y-77560000D03*
X123745000Y-77060000D03*
X123745000Y-76560000D03*
X123745000Y-76060000D03*
X123745000Y-75560000D03*
X123745000Y-75060000D03*
X123745000Y-74560000D03*
X123745000Y-74060000D03*
D18*
X122242500Y-72307500D03*
X121742500Y-72307500D03*
X121242500Y-72307500D03*
X120742500Y-72307500D03*
X120242500Y-72307500D03*
X119742500Y-72307500D03*
D19*
X118240000Y-74060000D03*
X118240000Y-74560000D03*
X118240000Y-75060000D03*
X118240000Y-75560000D03*
X118240000Y-76060000D03*
X118240000Y-76560000D03*
X118240000Y-77060000D03*
X118240000Y-77560000D03*
D20*
X119742500Y-79312500D03*
X120242500Y-79312500D03*
X120742500Y-79312500D03*
X121242500Y-79312500D03*
X121742500Y-79312500D03*
X122242500Y-79312500D03*
%TD*%
D22*
%TO.C,Q1*%
X132660000Y-78000000D03*
X131390000Y-78000000D03*
D23*
X130125000Y-78000000D03*
D22*
X128850000Y-78000000D03*
%TD*%
D27*
%TO.C,C14*%
X170792500Y-92618750D03*
X172517500Y-92618750D03*
%TD*%
D30*
%TO.C,C16*%
X141215000Y-70203352D03*
X141215000Y-72278352D03*
%TD*%
D32*
%TO.C,D1*%
X134350000Y-65375000D03*
X134350000Y-61625000D03*
%TD*%
D15*
%TO.C,C9*%
X172665000Y-75408784D03*
X172665000Y-73683784D03*
%TD*%
D21*
%TO.C,R7*%
X167632500Y-75605051D03*
X167632500Y-73780051D03*
%TD*%
D24*
%TO.C,C12*%
X165655000Y-88753750D03*
X165655000Y-90478750D03*
%TD*%
D32*
%TO.C,D2*%
X178100000Y-68875000D03*
X178100000Y-65125000D03*
%TD*%
D31*
%TO.C,TH2*%
X151902500Y-127500000D03*
X153097500Y-127500000D03*
%TD*%
D21*
%TO.C,R2*%
X125515000Y-72222500D03*
X125515000Y-70397500D03*
%TD*%
D29*
%TO.C,R4*%
X125492500Y-63406948D03*
X125492500Y-65231948D03*
%TD*%
D15*
%TO.C,C15*%
X147715000Y-72103352D03*
X147715000Y-70378352D03*
%TD*%
M02*
