%TF.GenerationSoftware,KiCad,Pcbnew,6.0.7*%
%TF.CreationDate,2022-11-21T22:22:27-06:00*%
%TF.ProjectId,CubesatPwrBoard,43756265-7361-4745-9077-72426f617264,rev?*%
%TF.SameCoordinates,Original*%
%TF.FileFunction,Soldermask,Bot*%
%TF.FilePolarity,Negative*%
%FSLAX46Y46*%
G04 Gerber Fmt 4.6, Leading zero omitted, Abs format (unit mm)*
G04 Created by KiCad (PCBNEW 6.0.7) date 2022-11-21 22:22:27*
%MOMM*%
%LPD*%
G01*
G04 APERTURE LIST*
%ADD10C,0.010000*%
%ADD11R,1.700000X1.700000*%
%ADD12O,1.700000X1.700000*%
%ADD13C,7.500000*%
G04 APERTURE END LIST*
%TO.C,BT4*%
G36*
X189820000Y-113750000D02*
G01*
X185380000Y-113750000D01*
X185380000Y-110250000D01*
X189820000Y-110250000D01*
X189820000Y-113750000D01*
G37*
D10*
X189820000Y-113750000D02*
X185380000Y-113750000D01*
X185380000Y-110250000D01*
X189820000Y-110250000D01*
X189820000Y-113750000D01*
G36*
X173810000Y-114700000D02*
G01*
X169370000Y-114700000D01*
X169370000Y-109300000D01*
X173810000Y-109300000D01*
X173810000Y-114700000D01*
G37*
X173810000Y-114700000D02*
X169370000Y-114700000D01*
X169370000Y-109300000D01*
X173810000Y-109300000D01*
X173810000Y-114700000D01*
%TO.C,BT6*%
G36*
X189820000Y-131250000D02*
G01*
X185380000Y-131250000D01*
X185380000Y-127750000D01*
X189820000Y-127750000D01*
X189820000Y-131250000D01*
G37*
X189820000Y-131250000D02*
X185380000Y-131250000D01*
X185380000Y-127750000D01*
X189820000Y-127750000D01*
X189820000Y-131250000D01*
G36*
X173810000Y-132200000D02*
G01*
X169370000Y-132200000D01*
X169370000Y-126800000D01*
X173810000Y-126800000D01*
X173810000Y-132200000D01*
G37*
X173810000Y-132200000D02*
X169370000Y-132200000D01*
X169370000Y-126800000D01*
X173810000Y-126800000D01*
X173810000Y-132200000D01*
%TO.C,BT5*%
G36*
X120420000Y-131250000D02*
G01*
X115980000Y-131250000D01*
X115980000Y-127750000D01*
X120420000Y-127750000D01*
X120420000Y-131250000D01*
G37*
X120420000Y-131250000D02*
X115980000Y-131250000D01*
X115980000Y-127750000D01*
X120420000Y-127750000D01*
X120420000Y-131250000D01*
G36*
X136430000Y-132200000D02*
G01*
X131990000Y-132200000D01*
X131990000Y-126800000D01*
X136430000Y-126800000D01*
X136430000Y-132200000D01*
G37*
X136430000Y-132200000D02*
X131990000Y-132200000D01*
X131990000Y-126800000D01*
X136430000Y-126800000D01*
X136430000Y-132200000D01*
%TO.C,BT3*%
G36*
X136430000Y-114700000D02*
G01*
X131990000Y-114700000D01*
X131990000Y-109300000D01*
X136430000Y-109300000D01*
X136430000Y-114700000D01*
G37*
X136430000Y-114700000D02*
X131990000Y-114700000D01*
X131990000Y-109300000D01*
X136430000Y-109300000D01*
X136430000Y-114700000D01*
G36*
X120420000Y-113750000D02*
G01*
X115980000Y-113750000D01*
X115980000Y-110250000D01*
X120420000Y-110250000D01*
X120420000Y-113750000D01*
G37*
X120420000Y-113750000D02*
X115980000Y-113750000D01*
X115980000Y-110250000D01*
X120420000Y-110250000D01*
X120420000Y-113750000D01*
%TO.C,BT1*%
G36*
X136430000Y-97200000D02*
G01*
X131990000Y-97200000D01*
X131990000Y-91800000D01*
X136430000Y-91800000D01*
X136430000Y-97200000D01*
G37*
X136430000Y-97200000D02*
X131990000Y-97200000D01*
X131990000Y-91800000D01*
X136430000Y-91800000D01*
X136430000Y-97200000D01*
G36*
X120420000Y-96250000D02*
G01*
X115980000Y-96250000D01*
X115980000Y-92750000D01*
X120420000Y-92750000D01*
X120420000Y-96250000D01*
G37*
X120420000Y-96250000D02*
X115980000Y-96250000D01*
X115980000Y-92750000D01*
X120420000Y-92750000D01*
X120420000Y-96250000D01*
%TO.C,BT2*%
G36*
X173810000Y-97200000D02*
G01*
X169370000Y-97200000D01*
X169370000Y-91800000D01*
X173810000Y-91800000D01*
X173810000Y-97200000D01*
G37*
X173810000Y-97200000D02*
X169370000Y-97200000D01*
X169370000Y-91800000D01*
X173810000Y-91800000D01*
X173810000Y-97200000D01*
G36*
X189820000Y-96250000D02*
G01*
X185380000Y-96250000D01*
X185380000Y-92750000D01*
X189820000Y-92750000D01*
X189820000Y-96250000D01*
G37*
X189820000Y-96250000D02*
X185380000Y-96250000D01*
X185380000Y-92750000D01*
X189820000Y-92750000D01*
X189820000Y-96250000D01*
%TD*%
D11*
%TO.C,J2*%
X174161250Y-65800000D03*
D12*
X174161250Y-63260000D03*
X174161250Y-60720000D03*
X174161250Y-58180000D03*
%TD*%
D11*
%TO.C,J11*%
X165665000Y-53790000D03*
D12*
X165665000Y-51250000D03*
X163125000Y-53790000D03*
X163125000Y-51250000D03*
X160585000Y-53790000D03*
X160585000Y-51250000D03*
%TD*%
D11*
%TO.C,J12*%
X152150000Y-53790000D03*
D12*
X152150000Y-51250000D03*
X149610000Y-53790000D03*
X149610000Y-51250000D03*
X147070000Y-53790000D03*
X147070000Y-51250000D03*
%TD*%
D13*
%TO.C,H2*%
X111900000Y-136500000D03*
%TD*%
D11*
%TO.C,J5*%
X111400000Y-78000000D03*
D12*
X111400000Y-80540000D03*
X111400000Y-83080000D03*
%TD*%
D13*
%TO.C,H1*%
X191900000Y-136500000D03*
%TD*%
D11*
%TO.C,J15*%
X152150000Y-60290000D03*
D12*
X152150000Y-57750000D03*
X149610000Y-60290000D03*
X149610000Y-57750000D03*
X147070000Y-60290000D03*
X147070000Y-57750000D03*
%TD*%
D13*
%TO.C,H3*%
X111900000Y-50500000D03*
%TD*%
%TO.C,H4*%
X191900000Y-50500000D03*
%TD*%
D11*
%TO.C,J13*%
X138720000Y-53790000D03*
D12*
X138720000Y-51250000D03*
X136180000Y-53790000D03*
X136180000Y-51250000D03*
X133640000Y-53790000D03*
X133640000Y-51250000D03*
%TD*%
D11*
%TO.C,J7*%
X175659574Y-78235000D03*
D12*
X175659574Y-75695000D03*
X175659574Y-73155000D03*
%TD*%
D11*
%TO.C,J6*%
X133560000Y-81525000D03*
D12*
X131020000Y-81525000D03*
X128480000Y-81525000D03*
%TD*%
D11*
%TO.C,J1*%
X119600000Y-49475000D03*
D12*
X122140000Y-49475000D03*
X124680000Y-49475000D03*
X127220000Y-49475000D03*
%TD*%
D11*
%TO.C,J8*%
X166325000Y-78025000D03*
D12*
X163785000Y-78025000D03*
X161245000Y-78025000D03*
%TD*%
D11*
%TO.C,J14*%
X138720000Y-60290000D03*
D12*
X138720000Y-57750000D03*
X136180000Y-60290000D03*
X136180000Y-57750000D03*
X133640000Y-60290000D03*
X133640000Y-57750000D03*
%TD*%
D11*
%TO.C,J3*%
X141176554Y-80050000D03*
D12*
X141176554Y-77510000D03*
X141176554Y-74970000D03*
X141176554Y-72430000D03*
%TD*%
D11*
%TO.C,J10*%
X165665000Y-60290000D03*
D12*
X165665000Y-57750000D03*
X163125000Y-60290000D03*
X163125000Y-57750000D03*
X160585000Y-60290000D03*
X160585000Y-57750000D03*
%TD*%
M02*
