%TF.GenerationSoftware,KiCad,Pcbnew,6.0.7*%
%TF.CreationDate,2022-11-21T21:43:10-06:00*%
%TF.ProjectId,CubesatPwrBoard,43756265-7361-4745-9077-72426f617264,rev?*%
%TF.SameCoordinates,Original*%
%TF.FileFunction,Copper,L1,Top*%
%TF.FilePolarity,Positive*%
%FSLAX46Y46*%
G04 Gerber Fmt 4.6, Leading zero omitted, Abs format (unit mm)*
G04 Created by KiCad (PCBNEW 6.0.7) date 2022-11-21 21:43:10*
%MOMM*%
%LPD*%
G01*
G04 APERTURE LIST*
G04 Aperture macros list*
%AMRoundRect*
0 Rectangle with rounded corners*
0 $1 Rounding radius*
0 $2 $3 $4 $5 $6 $7 $8 $9 X,Y pos of 4 corners*
0 Add a 4 corners polygon primitive as box body*
4,1,4,$2,$3,$4,$5,$6,$7,$8,$9,$2,$3,0*
0 Add four circle primitives for the rounded corners*
1,1,$1+$1,$2,$3*
1,1,$1+$1,$4,$5*
1,1,$1+$1,$6,$7*
1,1,$1+$1,$8,$9*
0 Add four rect primitives between the rounded corners*
20,1,$1+$1,$2,$3,$4,$5,0*
20,1,$1+$1,$4,$5,$6,$7,0*
20,1,$1+$1,$6,$7,$8,$9,0*
20,1,$1+$1,$8,$9,$2,$3,0*%
%AMFreePoly0*
4,1,45,3.308536,2.283536,3.310000,2.280000,3.310000,1.530000,3.308536,1.526464,3.305000,1.525000,2.600000,1.525000,2.600000,1.015000,3.305000,1.015000,3.308536,1.013536,3.310000,1.010000,3.310000,0.260000,3.308536,0.256464,3.305000,0.255000,2.600000,0.255000,2.600000,-0.255000,3.305000,-0.255000,3.308536,-0.256464,3.310000,-0.260000,3.310000,-1.010000,3.308536,-1.013536,
3.305000,-1.015000,2.600000,-1.015000,2.600000,-1.525000,3.305000,-1.525000,3.308536,-1.526464,3.310000,-1.530000,3.310000,-2.280000,3.308536,-2.283536,3.305000,-2.285000,2.285000,-2.285000,2.281464,-2.283536,2.280000,-2.280000,2.280000,-1.960000,-1.215000,-1.960000,-1.218536,-1.958536,-1.220000,-1.955000,-1.220000,1.955000,-1.218536,1.958536,-1.215000,1.960000,2.280000,1.960000,
2.280000,2.280000,2.281464,2.283536,2.285000,2.285000,3.305000,2.285000,3.308536,2.283536,3.308536,2.283536,$1*%
G04 Aperture macros list end*
%TA.AperFunction,EtchedComponent*%
%ADD10C,0.010000*%
%TD*%
%TA.AperFunction,ComponentPad*%
%ADD11R,1.700000X1.700000*%
%TD*%
%TA.AperFunction,ComponentPad*%
%ADD12O,1.700000X1.700000*%
%TD*%
%TA.AperFunction,SMDPad,CuDef*%
%ADD13RoundRect,0.237500X-0.237500X0.300000X-0.237500X-0.300000X0.237500X-0.300000X0.237500X0.300000X0*%
%TD*%
%TA.AperFunction,ComponentPad*%
%ADD14C,2.775000*%
%TD*%
%TA.AperFunction,SMDPad,CuDef*%
%ADD15RoundRect,0.237500X0.237500X-0.300000X0.237500X0.300000X-0.237500X0.300000X-0.237500X-0.300000X0*%
%TD*%
%TA.AperFunction,SMDPad,CuDef*%
%ADD16R,1.000000X1.400000*%
%TD*%
%TA.AperFunction,ComponentPad*%
%ADD17C,7.500000*%
%TD*%
%TA.AperFunction,SMDPad,CuDef*%
%ADD18RoundRect,0.237500X-0.237500X0.287500X-0.237500X-0.287500X0.237500X-0.287500X0.237500X0.287500X0*%
%TD*%
%TA.AperFunction,SMDPad,CuDef*%
%ADD19RoundRect,0.237500X0.237500X-0.250000X0.237500X0.250000X-0.237500X0.250000X-0.237500X-0.250000X0*%
%TD*%
%TA.AperFunction,SMDPad,CuDef*%
%ADD20RoundRect,0.237500X-0.237500X0.250000X-0.237500X-0.250000X0.237500X-0.250000X0.237500X0.250000X0*%
%TD*%
%TA.AperFunction,SMDPad,CuDef*%
%ADD21RoundRect,0.237500X0.300000X0.237500X-0.300000X0.237500X-0.300000X-0.237500X0.300000X-0.237500X0*%
%TD*%
%TA.AperFunction,SMDPad,CuDef*%
%ADD22R,1.270000X0.750000*%
%TD*%
%TA.AperFunction,SMDPad,CuDef*%
%ADD23FreePoly0,0.000000*%
%TD*%
%TA.AperFunction,SMDPad,CuDef*%
%ADD24RoundRect,0.041300X0.253700X-0.943700X0.253700X0.943700X-0.253700X0.943700X-0.253700X-0.943700X0*%
%TD*%
%TA.AperFunction,SMDPad,CuDef*%
%ADD25RoundRect,0.237500X-0.250000X-0.237500X0.250000X-0.237500X0.250000X0.237500X-0.250000X0.237500X0*%
%TD*%
%TA.AperFunction,SMDPad,CuDef*%
%ADD26RoundRect,0.237500X-0.300000X-0.237500X0.300000X-0.237500X0.300000X0.237500X-0.300000X0.237500X0*%
%TD*%
%TA.AperFunction,SMDPad,CuDef*%
%ADD27RoundRect,0.237500X0.250000X0.237500X-0.250000X0.237500X-0.250000X-0.237500X0.250000X-0.237500X0*%
%TD*%
%TA.AperFunction,SMDPad,CuDef*%
%ADD28RoundRect,0.018900X-0.116100X0.411100X-0.116100X-0.411100X0.116100X-0.411100X0.116100X0.411100X0*%
%TD*%
%TA.AperFunction,SMDPad,CuDef*%
%ADD29RoundRect,0.018900X-0.411100X-0.116100X0.411100X-0.116100X0.411100X0.116100X-0.411100X0.116100X0*%
%TD*%
%TA.AperFunction,SMDPad,CuDef*%
%ADD30RoundRect,0.018900X0.116100X-0.411100X0.116100X0.411100X-0.116100X0.411100X-0.116100X-0.411100X0*%
%TD*%
%TA.AperFunction,SMDPad,CuDef*%
%ADD31RoundRect,0.018900X0.411100X0.116100X-0.411100X0.116100X-0.411100X-0.116100X0.411100X-0.116100X0*%
%TD*%
%TA.AperFunction,SMDPad,CuDef*%
%ADD32R,3.650000X2.650000*%
%TD*%
%TA.AperFunction,SMDPad,CuDef*%
%ADD33R,0.900000X0.800000*%
%TD*%
%TA.AperFunction,SMDPad,CuDef*%
%ADD34RoundRect,0.160000X-0.197500X-0.160000X0.197500X-0.160000X0.197500X0.160000X-0.197500X0.160000X0*%
%TD*%
%TA.AperFunction,SMDPad,CuDef*%
%ADD35RoundRect,0.041300X-0.943700X-0.253700X0.943700X-0.253700X0.943700X0.253700X-0.943700X0.253700X0*%
%TD*%
%TA.AperFunction,SMDPad,CuDef*%
%ADD36FreePoly0,180.000000*%
%TD*%
%TA.AperFunction,SMDPad,CuDef*%
%ADD37RoundRect,0.237500X0.287500X0.237500X-0.287500X0.237500X-0.287500X-0.237500X0.287500X-0.237500X0*%
%TD*%
%TA.AperFunction,SMDPad,CuDef*%
%ADD38RoundRect,0.237500X0.237500X-0.287500X0.237500X0.287500X-0.237500X0.287500X-0.237500X-0.287500X0*%
%TD*%
%TA.AperFunction,SMDPad,CuDef*%
%ADD39R,0.800000X0.900000*%
%TD*%
%TA.AperFunction,ViaPad*%
%ADD40C,1.000000*%
%TD*%
%TA.AperFunction,ViaPad*%
%ADD41C,0.800000*%
%TD*%
%TA.AperFunction,Conductor*%
%ADD42C,0.500000*%
%TD*%
%TA.AperFunction,Conductor*%
%ADD43C,0.250000*%
%TD*%
G04 APERTURE END LIST*
%TO.C,BT4*%
G36*
X171400000Y-111075000D02*
G01*
X171352000Y-111076000D01*
X171303000Y-111080000D01*
X171255000Y-111086000D01*
X171208000Y-111095000D01*
X171161000Y-111107000D01*
X171114000Y-111120000D01*
X171069000Y-111136000D01*
X171024000Y-111155000D01*
X170980000Y-111176000D01*
X170937000Y-111199000D01*
X170896000Y-111224000D01*
X170856000Y-111252000D01*
X170818000Y-111281000D01*
X170781000Y-111313000D01*
X170746000Y-111346000D01*
X170713000Y-111381000D01*
X170681000Y-111418000D01*
X170652000Y-111456000D01*
X170624000Y-111496000D01*
X170599000Y-111538000D01*
X170576000Y-111580000D01*
X170555000Y-111624000D01*
X170536000Y-111669000D01*
X170520000Y-111714000D01*
X170507000Y-111761000D01*
X170495000Y-111808000D01*
X170486000Y-111855000D01*
X170480000Y-111903000D01*
X170476000Y-111952000D01*
X170475000Y-112000000D01*
X170476000Y-112048000D01*
X170480000Y-112097000D01*
X170486000Y-112145000D01*
X170495000Y-112192000D01*
X170507000Y-112239000D01*
X170520000Y-112286000D01*
X170536000Y-112331000D01*
X170555000Y-112376000D01*
X170576000Y-112420000D01*
X170599000Y-112462000D01*
X170624000Y-112504000D01*
X170652000Y-112544000D01*
X170681000Y-112582000D01*
X170713000Y-112619000D01*
X170746000Y-112654000D01*
X170781000Y-112687000D01*
X170818000Y-112719000D01*
X170856000Y-112748000D01*
X170896000Y-112776000D01*
X170937000Y-112801000D01*
X170980000Y-112824000D01*
X171024000Y-112845000D01*
X171069000Y-112864000D01*
X171114000Y-112880000D01*
X171161000Y-112893000D01*
X171208000Y-112905000D01*
X171255000Y-112914000D01*
X171303000Y-112920000D01*
X171352000Y-112924000D01*
X171400000Y-112925000D01*
X171400000Y-114600000D01*
X169470000Y-114600000D01*
X169470000Y-109400000D01*
X171400000Y-109400000D01*
X171400000Y-111075000D01*
G37*
D10*
X171400000Y-111075000D02*
X171352000Y-111076000D01*
X171303000Y-111080000D01*
X171255000Y-111086000D01*
X171208000Y-111095000D01*
X171161000Y-111107000D01*
X171114000Y-111120000D01*
X171069000Y-111136000D01*
X171024000Y-111155000D01*
X170980000Y-111176000D01*
X170937000Y-111199000D01*
X170896000Y-111224000D01*
X170856000Y-111252000D01*
X170818000Y-111281000D01*
X170781000Y-111313000D01*
X170746000Y-111346000D01*
X170713000Y-111381000D01*
X170681000Y-111418000D01*
X170652000Y-111456000D01*
X170624000Y-111496000D01*
X170599000Y-111538000D01*
X170576000Y-111580000D01*
X170555000Y-111624000D01*
X170536000Y-111669000D01*
X170520000Y-111714000D01*
X170507000Y-111761000D01*
X170495000Y-111808000D01*
X170486000Y-111855000D01*
X170480000Y-111903000D01*
X170476000Y-111952000D01*
X170475000Y-112000000D01*
X170476000Y-112048000D01*
X170480000Y-112097000D01*
X170486000Y-112145000D01*
X170495000Y-112192000D01*
X170507000Y-112239000D01*
X170520000Y-112286000D01*
X170536000Y-112331000D01*
X170555000Y-112376000D01*
X170576000Y-112420000D01*
X170599000Y-112462000D01*
X170624000Y-112504000D01*
X170652000Y-112544000D01*
X170681000Y-112582000D01*
X170713000Y-112619000D01*
X170746000Y-112654000D01*
X170781000Y-112687000D01*
X170818000Y-112719000D01*
X170856000Y-112748000D01*
X170896000Y-112776000D01*
X170937000Y-112801000D01*
X170980000Y-112824000D01*
X171024000Y-112845000D01*
X171069000Y-112864000D01*
X171114000Y-112880000D01*
X171161000Y-112893000D01*
X171208000Y-112905000D01*
X171255000Y-112914000D01*
X171303000Y-112920000D01*
X171352000Y-112924000D01*
X171400000Y-112925000D01*
X171400000Y-114600000D01*
X169470000Y-114600000D01*
X169470000Y-109400000D01*
X171400000Y-109400000D01*
X171400000Y-111075000D01*
G36*
X173710000Y-114600000D02*
G01*
X171405000Y-114600000D01*
X171405000Y-112925000D01*
X171453000Y-112924000D01*
X171501000Y-112920000D01*
X171549000Y-112914000D01*
X171596000Y-112905000D01*
X171643000Y-112894000D01*
X171689000Y-112880000D01*
X171735000Y-112864000D01*
X171779000Y-112845000D01*
X171823000Y-112825000D01*
X171865000Y-112802000D01*
X171906000Y-112777000D01*
X171946000Y-112749000D01*
X171984000Y-112720000D01*
X172021000Y-112689000D01*
X172056000Y-112656000D01*
X172089000Y-112621000D01*
X172120000Y-112584000D01*
X172149000Y-112546000D01*
X172177000Y-112506000D01*
X172202000Y-112465000D01*
X172225000Y-112423000D01*
X172245000Y-112379000D01*
X172264000Y-112335000D01*
X172280000Y-112289000D01*
X172294000Y-112243000D01*
X172305000Y-112196000D01*
X172314000Y-112149000D01*
X172320000Y-112101000D01*
X172324000Y-112053000D01*
X172325000Y-112005000D01*
X172325000Y-111995000D01*
X172324000Y-111947000D01*
X172320000Y-111899000D01*
X172314000Y-111851000D01*
X172305000Y-111804000D01*
X172294000Y-111757000D01*
X172280000Y-111711000D01*
X172264000Y-111665000D01*
X172245000Y-111621000D01*
X172225000Y-111577000D01*
X172202000Y-111535000D01*
X172177000Y-111494000D01*
X172149000Y-111454000D01*
X172120000Y-111416000D01*
X172089000Y-111379000D01*
X172056000Y-111344000D01*
X172021000Y-111311000D01*
X171984000Y-111280000D01*
X171946000Y-111251000D01*
X171906000Y-111223000D01*
X171865000Y-111198000D01*
X171823000Y-111175000D01*
X171779000Y-111155000D01*
X171735000Y-111136000D01*
X171689000Y-111120000D01*
X171643000Y-111106000D01*
X171596000Y-111095000D01*
X171549000Y-111086000D01*
X171501000Y-111080000D01*
X171453000Y-111076000D01*
X171405000Y-111075000D01*
X171405000Y-109400000D01*
X173710000Y-109400000D01*
X173710000Y-114600000D01*
G37*
X173710000Y-114600000D02*
X171405000Y-114600000D01*
X171405000Y-112925000D01*
X171453000Y-112924000D01*
X171501000Y-112920000D01*
X171549000Y-112914000D01*
X171596000Y-112905000D01*
X171643000Y-112894000D01*
X171689000Y-112880000D01*
X171735000Y-112864000D01*
X171779000Y-112845000D01*
X171823000Y-112825000D01*
X171865000Y-112802000D01*
X171906000Y-112777000D01*
X171946000Y-112749000D01*
X171984000Y-112720000D01*
X172021000Y-112689000D01*
X172056000Y-112656000D01*
X172089000Y-112621000D01*
X172120000Y-112584000D01*
X172149000Y-112546000D01*
X172177000Y-112506000D01*
X172202000Y-112465000D01*
X172225000Y-112423000D01*
X172245000Y-112379000D01*
X172264000Y-112335000D01*
X172280000Y-112289000D01*
X172294000Y-112243000D01*
X172305000Y-112196000D01*
X172314000Y-112149000D01*
X172320000Y-112101000D01*
X172324000Y-112053000D01*
X172325000Y-112005000D01*
X172325000Y-111995000D01*
X172324000Y-111947000D01*
X172320000Y-111899000D01*
X172314000Y-111851000D01*
X172305000Y-111804000D01*
X172294000Y-111757000D01*
X172280000Y-111711000D01*
X172264000Y-111665000D01*
X172245000Y-111621000D01*
X172225000Y-111577000D01*
X172202000Y-111535000D01*
X172177000Y-111494000D01*
X172149000Y-111454000D01*
X172120000Y-111416000D01*
X172089000Y-111379000D01*
X172056000Y-111344000D01*
X172021000Y-111311000D01*
X171984000Y-111280000D01*
X171946000Y-111251000D01*
X171906000Y-111223000D01*
X171865000Y-111198000D01*
X171823000Y-111175000D01*
X171779000Y-111155000D01*
X171735000Y-111136000D01*
X171689000Y-111120000D01*
X171643000Y-111106000D01*
X171596000Y-111095000D01*
X171549000Y-111086000D01*
X171501000Y-111080000D01*
X171453000Y-111076000D01*
X171405000Y-111075000D01*
X171405000Y-109400000D01*
X173710000Y-109400000D01*
X173710000Y-114600000D01*
G36*
X189720000Y-113650000D02*
G01*
X187400000Y-113650000D01*
X187400000Y-112925000D01*
X187448000Y-112924000D01*
X187497000Y-112920000D01*
X187545000Y-112914000D01*
X187592000Y-112905000D01*
X187639000Y-112893000D01*
X187686000Y-112880000D01*
X187731000Y-112864000D01*
X187776000Y-112845000D01*
X187820000Y-112824000D01*
X187863000Y-112801000D01*
X187904000Y-112776000D01*
X187944000Y-112748000D01*
X187982000Y-112719000D01*
X188019000Y-112687000D01*
X188054000Y-112654000D01*
X188087000Y-112619000D01*
X188119000Y-112582000D01*
X188148000Y-112544000D01*
X188176000Y-112504000D01*
X188201000Y-112462000D01*
X188224000Y-112420000D01*
X188245000Y-112376000D01*
X188264000Y-112331000D01*
X188280000Y-112286000D01*
X188293000Y-112239000D01*
X188305000Y-112192000D01*
X188314000Y-112145000D01*
X188320000Y-112097000D01*
X188324000Y-112048000D01*
X188325000Y-112000000D01*
X188324000Y-111952000D01*
X188320000Y-111903000D01*
X188314000Y-111855000D01*
X188305000Y-111808000D01*
X188293000Y-111761000D01*
X188280000Y-111714000D01*
X188264000Y-111669000D01*
X188245000Y-111624000D01*
X188224000Y-111580000D01*
X188201000Y-111538000D01*
X188176000Y-111496000D01*
X188148000Y-111456000D01*
X188119000Y-111418000D01*
X188087000Y-111381000D01*
X188054000Y-111346000D01*
X188019000Y-111313000D01*
X187982000Y-111281000D01*
X187944000Y-111252000D01*
X187904000Y-111224000D01*
X187863000Y-111199000D01*
X187820000Y-111176000D01*
X187776000Y-111155000D01*
X187731000Y-111136000D01*
X187686000Y-111120000D01*
X187639000Y-111107000D01*
X187592000Y-111095000D01*
X187545000Y-111086000D01*
X187497000Y-111080000D01*
X187448000Y-111076000D01*
X187400000Y-111075000D01*
X187400000Y-110350000D01*
X189720000Y-110350000D01*
X189720000Y-113650000D01*
G37*
X189720000Y-113650000D02*
X187400000Y-113650000D01*
X187400000Y-112925000D01*
X187448000Y-112924000D01*
X187497000Y-112920000D01*
X187545000Y-112914000D01*
X187592000Y-112905000D01*
X187639000Y-112893000D01*
X187686000Y-112880000D01*
X187731000Y-112864000D01*
X187776000Y-112845000D01*
X187820000Y-112824000D01*
X187863000Y-112801000D01*
X187904000Y-112776000D01*
X187944000Y-112748000D01*
X187982000Y-112719000D01*
X188019000Y-112687000D01*
X188054000Y-112654000D01*
X188087000Y-112619000D01*
X188119000Y-112582000D01*
X188148000Y-112544000D01*
X188176000Y-112504000D01*
X188201000Y-112462000D01*
X188224000Y-112420000D01*
X188245000Y-112376000D01*
X188264000Y-112331000D01*
X188280000Y-112286000D01*
X188293000Y-112239000D01*
X188305000Y-112192000D01*
X188314000Y-112145000D01*
X188320000Y-112097000D01*
X188324000Y-112048000D01*
X188325000Y-112000000D01*
X188324000Y-111952000D01*
X188320000Y-111903000D01*
X188314000Y-111855000D01*
X188305000Y-111808000D01*
X188293000Y-111761000D01*
X188280000Y-111714000D01*
X188264000Y-111669000D01*
X188245000Y-111624000D01*
X188224000Y-111580000D01*
X188201000Y-111538000D01*
X188176000Y-111496000D01*
X188148000Y-111456000D01*
X188119000Y-111418000D01*
X188087000Y-111381000D01*
X188054000Y-111346000D01*
X188019000Y-111313000D01*
X187982000Y-111281000D01*
X187944000Y-111252000D01*
X187904000Y-111224000D01*
X187863000Y-111199000D01*
X187820000Y-111176000D01*
X187776000Y-111155000D01*
X187731000Y-111136000D01*
X187686000Y-111120000D01*
X187639000Y-111107000D01*
X187592000Y-111095000D01*
X187545000Y-111086000D01*
X187497000Y-111080000D01*
X187448000Y-111076000D01*
X187400000Y-111075000D01*
X187400000Y-110350000D01*
X189720000Y-110350000D01*
X189720000Y-113650000D01*
G36*
X187395000Y-111075000D02*
G01*
X187347000Y-111076000D01*
X187299000Y-111080000D01*
X187251000Y-111086000D01*
X187204000Y-111095000D01*
X187157000Y-111106000D01*
X187111000Y-111120000D01*
X187065000Y-111136000D01*
X187021000Y-111155000D01*
X186977000Y-111175000D01*
X186935000Y-111198000D01*
X186894000Y-111223000D01*
X186854000Y-111251000D01*
X186816000Y-111280000D01*
X186779000Y-111311000D01*
X186744000Y-111344000D01*
X186711000Y-111379000D01*
X186680000Y-111416000D01*
X186651000Y-111454000D01*
X186623000Y-111494000D01*
X186598000Y-111535000D01*
X186575000Y-111577000D01*
X186555000Y-111621000D01*
X186536000Y-111665000D01*
X186520000Y-111711000D01*
X186506000Y-111757000D01*
X186495000Y-111804000D01*
X186486000Y-111851000D01*
X186480000Y-111899000D01*
X186476000Y-111947000D01*
X186475000Y-111995000D01*
X186475000Y-112005000D01*
X186476000Y-112053000D01*
X186480000Y-112101000D01*
X186486000Y-112149000D01*
X186495000Y-112196000D01*
X186506000Y-112243000D01*
X186520000Y-112289000D01*
X186536000Y-112335000D01*
X186555000Y-112379000D01*
X186575000Y-112423000D01*
X186598000Y-112465000D01*
X186623000Y-112506000D01*
X186651000Y-112546000D01*
X186680000Y-112584000D01*
X186711000Y-112621000D01*
X186744000Y-112656000D01*
X186779000Y-112689000D01*
X186816000Y-112720000D01*
X186854000Y-112749000D01*
X186894000Y-112777000D01*
X186935000Y-112802000D01*
X186977000Y-112825000D01*
X187021000Y-112845000D01*
X187065000Y-112864000D01*
X187111000Y-112880000D01*
X187157000Y-112894000D01*
X187204000Y-112905000D01*
X187251000Y-112914000D01*
X187299000Y-112920000D01*
X187347000Y-112924000D01*
X187395000Y-112925000D01*
X187395000Y-113650000D01*
X185480000Y-113650000D01*
X185480000Y-110350000D01*
X187395000Y-110350000D01*
X187395000Y-111075000D01*
G37*
X187395000Y-111075000D02*
X187347000Y-111076000D01*
X187299000Y-111080000D01*
X187251000Y-111086000D01*
X187204000Y-111095000D01*
X187157000Y-111106000D01*
X187111000Y-111120000D01*
X187065000Y-111136000D01*
X187021000Y-111155000D01*
X186977000Y-111175000D01*
X186935000Y-111198000D01*
X186894000Y-111223000D01*
X186854000Y-111251000D01*
X186816000Y-111280000D01*
X186779000Y-111311000D01*
X186744000Y-111344000D01*
X186711000Y-111379000D01*
X186680000Y-111416000D01*
X186651000Y-111454000D01*
X186623000Y-111494000D01*
X186598000Y-111535000D01*
X186575000Y-111577000D01*
X186555000Y-111621000D01*
X186536000Y-111665000D01*
X186520000Y-111711000D01*
X186506000Y-111757000D01*
X186495000Y-111804000D01*
X186486000Y-111851000D01*
X186480000Y-111899000D01*
X186476000Y-111947000D01*
X186475000Y-111995000D01*
X186475000Y-112005000D01*
X186476000Y-112053000D01*
X186480000Y-112101000D01*
X186486000Y-112149000D01*
X186495000Y-112196000D01*
X186506000Y-112243000D01*
X186520000Y-112289000D01*
X186536000Y-112335000D01*
X186555000Y-112379000D01*
X186575000Y-112423000D01*
X186598000Y-112465000D01*
X186623000Y-112506000D01*
X186651000Y-112546000D01*
X186680000Y-112584000D01*
X186711000Y-112621000D01*
X186744000Y-112656000D01*
X186779000Y-112689000D01*
X186816000Y-112720000D01*
X186854000Y-112749000D01*
X186894000Y-112777000D01*
X186935000Y-112802000D01*
X186977000Y-112825000D01*
X187021000Y-112845000D01*
X187065000Y-112864000D01*
X187111000Y-112880000D01*
X187157000Y-112894000D01*
X187204000Y-112905000D01*
X187251000Y-112914000D01*
X187299000Y-112920000D01*
X187347000Y-112924000D01*
X187395000Y-112925000D01*
X187395000Y-113650000D01*
X185480000Y-113650000D01*
X185480000Y-110350000D01*
X187395000Y-110350000D01*
X187395000Y-111075000D01*
%TO.C,BT6*%
G36*
X189720000Y-131150000D02*
G01*
X187400000Y-131150000D01*
X187400000Y-130425000D01*
X187448000Y-130424000D01*
X187497000Y-130420000D01*
X187545000Y-130414000D01*
X187592000Y-130405000D01*
X187639000Y-130393000D01*
X187686000Y-130380000D01*
X187731000Y-130364000D01*
X187776000Y-130345000D01*
X187820000Y-130324000D01*
X187863000Y-130301000D01*
X187904000Y-130276000D01*
X187944000Y-130248000D01*
X187982000Y-130219000D01*
X188019000Y-130187000D01*
X188054000Y-130154000D01*
X188087000Y-130119000D01*
X188119000Y-130082000D01*
X188148000Y-130044000D01*
X188176000Y-130004000D01*
X188201000Y-129962000D01*
X188224000Y-129920000D01*
X188245000Y-129876000D01*
X188264000Y-129831000D01*
X188280000Y-129786000D01*
X188293000Y-129739000D01*
X188305000Y-129692000D01*
X188314000Y-129645000D01*
X188320000Y-129597000D01*
X188324000Y-129548000D01*
X188325000Y-129500000D01*
X188324000Y-129452000D01*
X188320000Y-129403000D01*
X188314000Y-129355000D01*
X188305000Y-129308000D01*
X188293000Y-129261000D01*
X188280000Y-129214000D01*
X188264000Y-129169000D01*
X188245000Y-129124000D01*
X188224000Y-129080000D01*
X188201000Y-129038000D01*
X188176000Y-128996000D01*
X188148000Y-128956000D01*
X188119000Y-128918000D01*
X188087000Y-128881000D01*
X188054000Y-128846000D01*
X188019000Y-128813000D01*
X187982000Y-128781000D01*
X187944000Y-128752000D01*
X187904000Y-128724000D01*
X187863000Y-128699000D01*
X187820000Y-128676000D01*
X187776000Y-128655000D01*
X187731000Y-128636000D01*
X187686000Y-128620000D01*
X187639000Y-128607000D01*
X187592000Y-128595000D01*
X187545000Y-128586000D01*
X187497000Y-128580000D01*
X187448000Y-128576000D01*
X187400000Y-128575000D01*
X187400000Y-127850000D01*
X189720000Y-127850000D01*
X189720000Y-131150000D01*
G37*
X189720000Y-131150000D02*
X187400000Y-131150000D01*
X187400000Y-130425000D01*
X187448000Y-130424000D01*
X187497000Y-130420000D01*
X187545000Y-130414000D01*
X187592000Y-130405000D01*
X187639000Y-130393000D01*
X187686000Y-130380000D01*
X187731000Y-130364000D01*
X187776000Y-130345000D01*
X187820000Y-130324000D01*
X187863000Y-130301000D01*
X187904000Y-130276000D01*
X187944000Y-130248000D01*
X187982000Y-130219000D01*
X188019000Y-130187000D01*
X188054000Y-130154000D01*
X188087000Y-130119000D01*
X188119000Y-130082000D01*
X188148000Y-130044000D01*
X188176000Y-130004000D01*
X188201000Y-129962000D01*
X188224000Y-129920000D01*
X188245000Y-129876000D01*
X188264000Y-129831000D01*
X188280000Y-129786000D01*
X188293000Y-129739000D01*
X188305000Y-129692000D01*
X188314000Y-129645000D01*
X188320000Y-129597000D01*
X188324000Y-129548000D01*
X188325000Y-129500000D01*
X188324000Y-129452000D01*
X188320000Y-129403000D01*
X188314000Y-129355000D01*
X188305000Y-129308000D01*
X188293000Y-129261000D01*
X188280000Y-129214000D01*
X188264000Y-129169000D01*
X188245000Y-129124000D01*
X188224000Y-129080000D01*
X188201000Y-129038000D01*
X188176000Y-128996000D01*
X188148000Y-128956000D01*
X188119000Y-128918000D01*
X188087000Y-128881000D01*
X188054000Y-128846000D01*
X188019000Y-128813000D01*
X187982000Y-128781000D01*
X187944000Y-128752000D01*
X187904000Y-128724000D01*
X187863000Y-128699000D01*
X187820000Y-128676000D01*
X187776000Y-128655000D01*
X187731000Y-128636000D01*
X187686000Y-128620000D01*
X187639000Y-128607000D01*
X187592000Y-128595000D01*
X187545000Y-128586000D01*
X187497000Y-128580000D01*
X187448000Y-128576000D01*
X187400000Y-128575000D01*
X187400000Y-127850000D01*
X189720000Y-127850000D01*
X189720000Y-131150000D01*
G36*
X187395000Y-128575000D02*
G01*
X187347000Y-128576000D01*
X187299000Y-128580000D01*
X187251000Y-128586000D01*
X187204000Y-128595000D01*
X187157000Y-128606000D01*
X187111000Y-128620000D01*
X187065000Y-128636000D01*
X187021000Y-128655000D01*
X186977000Y-128675000D01*
X186935000Y-128698000D01*
X186894000Y-128723000D01*
X186854000Y-128751000D01*
X186816000Y-128780000D01*
X186779000Y-128811000D01*
X186744000Y-128844000D01*
X186711000Y-128879000D01*
X186680000Y-128916000D01*
X186651000Y-128954000D01*
X186623000Y-128994000D01*
X186598000Y-129035000D01*
X186575000Y-129077000D01*
X186555000Y-129121000D01*
X186536000Y-129165000D01*
X186520000Y-129211000D01*
X186506000Y-129257000D01*
X186495000Y-129304000D01*
X186486000Y-129351000D01*
X186480000Y-129399000D01*
X186476000Y-129447000D01*
X186475000Y-129495000D01*
X186475000Y-129505000D01*
X186476000Y-129553000D01*
X186480000Y-129601000D01*
X186486000Y-129649000D01*
X186495000Y-129696000D01*
X186506000Y-129743000D01*
X186520000Y-129789000D01*
X186536000Y-129835000D01*
X186555000Y-129879000D01*
X186575000Y-129923000D01*
X186598000Y-129965000D01*
X186623000Y-130006000D01*
X186651000Y-130046000D01*
X186680000Y-130084000D01*
X186711000Y-130121000D01*
X186744000Y-130156000D01*
X186779000Y-130189000D01*
X186816000Y-130220000D01*
X186854000Y-130249000D01*
X186894000Y-130277000D01*
X186935000Y-130302000D01*
X186977000Y-130325000D01*
X187021000Y-130345000D01*
X187065000Y-130364000D01*
X187111000Y-130380000D01*
X187157000Y-130394000D01*
X187204000Y-130405000D01*
X187251000Y-130414000D01*
X187299000Y-130420000D01*
X187347000Y-130424000D01*
X187395000Y-130425000D01*
X187395000Y-131150000D01*
X185480000Y-131150000D01*
X185480000Y-127850000D01*
X187395000Y-127850000D01*
X187395000Y-128575000D01*
G37*
X187395000Y-128575000D02*
X187347000Y-128576000D01*
X187299000Y-128580000D01*
X187251000Y-128586000D01*
X187204000Y-128595000D01*
X187157000Y-128606000D01*
X187111000Y-128620000D01*
X187065000Y-128636000D01*
X187021000Y-128655000D01*
X186977000Y-128675000D01*
X186935000Y-128698000D01*
X186894000Y-128723000D01*
X186854000Y-128751000D01*
X186816000Y-128780000D01*
X186779000Y-128811000D01*
X186744000Y-128844000D01*
X186711000Y-128879000D01*
X186680000Y-128916000D01*
X186651000Y-128954000D01*
X186623000Y-128994000D01*
X186598000Y-129035000D01*
X186575000Y-129077000D01*
X186555000Y-129121000D01*
X186536000Y-129165000D01*
X186520000Y-129211000D01*
X186506000Y-129257000D01*
X186495000Y-129304000D01*
X186486000Y-129351000D01*
X186480000Y-129399000D01*
X186476000Y-129447000D01*
X186475000Y-129495000D01*
X186475000Y-129505000D01*
X186476000Y-129553000D01*
X186480000Y-129601000D01*
X186486000Y-129649000D01*
X186495000Y-129696000D01*
X186506000Y-129743000D01*
X186520000Y-129789000D01*
X186536000Y-129835000D01*
X186555000Y-129879000D01*
X186575000Y-129923000D01*
X186598000Y-129965000D01*
X186623000Y-130006000D01*
X186651000Y-130046000D01*
X186680000Y-130084000D01*
X186711000Y-130121000D01*
X186744000Y-130156000D01*
X186779000Y-130189000D01*
X186816000Y-130220000D01*
X186854000Y-130249000D01*
X186894000Y-130277000D01*
X186935000Y-130302000D01*
X186977000Y-130325000D01*
X187021000Y-130345000D01*
X187065000Y-130364000D01*
X187111000Y-130380000D01*
X187157000Y-130394000D01*
X187204000Y-130405000D01*
X187251000Y-130414000D01*
X187299000Y-130420000D01*
X187347000Y-130424000D01*
X187395000Y-130425000D01*
X187395000Y-131150000D01*
X185480000Y-131150000D01*
X185480000Y-127850000D01*
X187395000Y-127850000D01*
X187395000Y-128575000D01*
G36*
X173710000Y-132100000D02*
G01*
X171405000Y-132100000D01*
X171405000Y-130425000D01*
X171453000Y-130424000D01*
X171501000Y-130420000D01*
X171549000Y-130414000D01*
X171596000Y-130405000D01*
X171643000Y-130394000D01*
X171689000Y-130380000D01*
X171735000Y-130364000D01*
X171779000Y-130345000D01*
X171823000Y-130325000D01*
X171865000Y-130302000D01*
X171906000Y-130277000D01*
X171946000Y-130249000D01*
X171984000Y-130220000D01*
X172021000Y-130189000D01*
X172056000Y-130156000D01*
X172089000Y-130121000D01*
X172120000Y-130084000D01*
X172149000Y-130046000D01*
X172177000Y-130006000D01*
X172202000Y-129965000D01*
X172225000Y-129923000D01*
X172245000Y-129879000D01*
X172264000Y-129835000D01*
X172280000Y-129789000D01*
X172294000Y-129743000D01*
X172305000Y-129696000D01*
X172314000Y-129649000D01*
X172320000Y-129601000D01*
X172324000Y-129553000D01*
X172325000Y-129505000D01*
X172325000Y-129495000D01*
X172324000Y-129447000D01*
X172320000Y-129399000D01*
X172314000Y-129351000D01*
X172305000Y-129304000D01*
X172294000Y-129257000D01*
X172280000Y-129211000D01*
X172264000Y-129165000D01*
X172245000Y-129121000D01*
X172225000Y-129077000D01*
X172202000Y-129035000D01*
X172177000Y-128994000D01*
X172149000Y-128954000D01*
X172120000Y-128916000D01*
X172089000Y-128879000D01*
X172056000Y-128844000D01*
X172021000Y-128811000D01*
X171984000Y-128780000D01*
X171946000Y-128751000D01*
X171906000Y-128723000D01*
X171865000Y-128698000D01*
X171823000Y-128675000D01*
X171779000Y-128655000D01*
X171735000Y-128636000D01*
X171689000Y-128620000D01*
X171643000Y-128606000D01*
X171596000Y-128595000D01*
X171549000Y-128586000D01*
X171501000Y-128580000D01*
X171453000Y-128576000D01*
X171405000Y-128575000D01*
X171405000Y-126900000D01*
X173710000Y-126900000D01*
X173710000Y-132100000D01*
G37*
X173710000Y-132100000D02*
X171405000Y-132100000D01*
X171405000Y-130425000D01*
X171453000Y-130424000D01*
X171501000Y-130420000D01*
X171549000Y-130414000D01*
X171596000Y-130405000D01*
X171643000Y-130394000D01*
X171689000Y-130380000D01*
X171735000Y-130364000D01*
X171779000Y-130345000D01*
X171823000Y-130325000D01*
X171865000Y-130302000D01*
X171906000Y-130277000D01*
X171946000Y-130249000D01*
X171984000Y-130220000D01*
X172021000Y-130189000D01*
X172056000Y-130156000D01*
X172089000Y-130121000D01*
X172120000Y-130084000D01*
X172149000Y-130046000D01*
X172177000Y-130006000D01*
X172202000Y-129965000D01*
X172225000Y-129923000D01*
X172245000Y-129879000D01*
X172264000Y-129835000D01*
X172280000Y-129789000D01*
X172294000Y-129743000D01*
X172305000Y-129696000D01*
X172314000Y-129649000D01*
X172320000Y-129601000D01*
X172324000Y-129553000D01*
X172325000Y-129505000D01*
X172325000Y-129495000D01*
X172324000Y-129447000D01*
X172320000Y-129399000D01*
X172314000Y-129351000D01*
X172305000Y-129304000D01*
X172294000Y-129257000D01*
X172280000Y-129211000D01*
X172264000Y-129165000D01*
X172245000Y-129121000D01*
X172225000Y-129077000D01*
X172202000Y-129035000D01*
X172177000Y-128994000D01*
X172149000Y-128954000D01*
X172120000Y-128916000D01*
X172089000Y-128879000D01*
X172056000Y-128844000D01*
X172021000Y-128811000D01*
X171984000Y-128780000D01*
X171946000Y-128751000D01*
X171906000Y-128723000D01*
X171865000Y-128698000D01*
X171823000Y-128675000D01*
X171779000Y-128655000D01*
X171735000Y-128636000D01*
X171689000Y-128620000D01*
X171643000Y-128606000D01*
X171596000Y-128595000D01*
X171549000Y-128586000D01*
X171501000Y-128580000D01*
X171453000Y-128576000D01*
X171405000Y-128575000D01*
X171405000Y-126900000D01*
X173710000Y-126900000D01*
X173710000Y-132100000D01*
G36*
X171400000Y-128575000D02*
G01*
X171352000Y-128576000D01*
X171303000Y-128580000D01*
X171255000Y-128586000D01*
X171208000Y-128595000D01*
X171161000Y-128607000D01*
X171114000Y-128620000D01*
X171069000Y-128636000D01*
X171024000Y-128655000D01*
X170980000Y-128676000D01*
X170937000Y-128699000D01*
X170896000Y-128724000D01*
X170856000Y-128752000D01*
X170818000Y-128781000D01*
X170781000Y-128813000D01*
X170746000Y-128846000D01*
X170713000Y-128881000D01*
X170681000Y-128918000D01*
X170652000Y-128956000D01*
X170624000Y-128996000D01*
X170599000Y-129038000D01*
X170576000Y-129080000D01*
X170555000Y-129124000D01*
X170536000Y-129169000D01*
X170520000Y-129214000D01*
X170507000Y-129261000D01*
X170495000Y-129308000D01*
X170486000Y-129355000D01*
X170480000Y-129403000D01*
X170476000Y-129452000D01*
X170475000Y-129500000D01*
X170476000Y-129548000D01*
X170480000Y-129597000D01*
X170486000Y-129645000D01*
X170495000Y-129692000D01*
X170507000Y-129739000D01*
X170520000Y-129786000D01*
X170536000Y-129831000D01*
X170555000Y-129876000D01*
X170576000Y-129920000D01*
X170599000Y-129962000D01*
X170624000Y-130004000D01*
X170652000Y-130044000D01*
X170681000Y-130082000D01*
X170713000Y-130119000D01*
X170746000Y-130154000D01*
X170781000Y-130187000D01*
X170818000Y-130219000D01*
X170856000Y-130248000D01*
X170896000Y-130276000D01*
X170937000Y-130301000D01*
X170980000Y-130324000D01*
X171024000Y-130345000D01*
X171069000Y-130364000D01*
X171114000Y-130380000D01*
X171161000Y-130393000D01*
X171208000Y-130405000D01*
X171255000Y-130414000D01*
X171303000Y-130420000D01*
X171352000Y-130424000D01*
X171400000Y-130425000D01*
X171400000Y-132100000D01*
X169470000Y-132100000D01*
X169470000Y-126900000D01*
X171400000Y-126900000D01*
X171400000Y-128575000D01*
G37*
X171400000Y-128575000D02*
X171352000Y-128576000D01*
X171303000Y-128580000D01*
X171255000Y-128586000D01*
X171208000Y-128595000D01*
X171161000Y-128607000D01*
X171114000Y-128620000D01*
X171069000Y-128636000D01*
X171024000Y-128655000D01*
X170980000Y-128676000D01*
X170937000Y-128699000D01*
X170896000Y-128724000D01*
X170856000Y-128752000D01*
X170818000Y-128781000D01*
X170781000Y-128813000D01*
X170746000Y-128846000D01*
X170713000Y-128881000D01*
X170681000Y-128918000D01*
X170652000Y-128956000D01*
X170624000Y-128996000D01*
X170599000Y-129038000D01*
X170576000Y-129080000D01*
X170555000Y-129124000D01*
X170536000Y-129169000D01*
X170520000Y-129214000D01*
X170507000Y-129261000D01*
X170495000Y-129308000D01*
X170486000Y-129355000D01*
X170480000Y-129403000D01*
X170476000Y-129452000D01*
X170475000Y-129500000D01*
X170476000Y-129548000D01*
X170480000Y-129597000D01*
X170486000Y-129645000D01*
X170495000Y-129692000D01*
X170507000Y-129739000D01*
X170520000Y-129786000D01*
X170536000Y-129831000D01*
X170555000Y-129876000D01*
X170576000Y-129920000D01*
X170599000Y-129962000D01*
X170624000Y-130004000D01*
X170652000Y-130044000D01*
X170681000Y-130082000D01*
X170713000Y-130119000D01*
X170746000Y-130154000D01*
X170781000Y-130187000D01*
X170818000Y-130219000D01*
X170856000Y-130248000D01*
X170896000Y-130276000D01*
X170937000Y-130301000D01*
X170980000Y-130324000D01*
X171024000Y-130345000D01*
X171069000Y-130364000D01*
X171114000Y-130380000D01*
X171161000Y-130393000D01*
X171208000Y-130405000D01*
X171255000Y-130414000D01*
X171303000Y-130420000D01*
X171352000Y-130424000D01*
X171400000Y-130425000D01*
X171400000Y-132100000D01*
X169470000Y-132100000D01*
X169470000Y-126900000D01*
X171400000Y-126900000D01*
X171400000Y-128575000D01*
%TO.C,BT5*%
G36*
X136330000Y-132100000D02*
G01*
X134400000Y-132100000D01*
X134400000Y-130425000D01*
X134448000Y-130424000D01*
X134497000Y-130420000D01*
X134545000Y-130414000D01*
X134592000Y-130405000D01*
X134639000Y-130393000D01*
X134686000Y-130380000D01*
X134731000Y-130364000D01*
X134776000Y-130345000D01*
X134820000Y-130324000D01*
X134863000Y-130301000D01*
X134904000Y-130276000D01*
X134944000Y-130248000D01*
X134982000Y-130219000D01*
X135019000Y-130187000D01*
X135054000Y-130154000D01*
X135087000Y-130119000D01*
X135119000Y-130082000D01*
X135148000Y-130044000D01*
X135176000Y-130004000D01*
X135201000Y-129962000D01*
X135224000Y-129920000D01*
X135245000Y-129876000D01*
X135264000Y-129831000D01*
X135280000Y-129786000D01*
X135293000Y-129739000D01*
X135305000Y-129692000D01*
X135314000Y-129645000D01*
X135320000Y-129597000D01*
X135324000Y-129548000D01*
X135325000Y-129500000D01*
X135324000Y-129452000D01*
X135320000Y-129403000D01*
X135314000Y-129355000D01*
X135305000Y-129308000D01*
X135293000Y-129261000D01*
X135280000Y-129214000D01*
X135264000Y-129169000D01*
X135245000Y-129124000D01*
X135224000Y-129080000D01*
X135201000Y-129038000D01*
X135176000Y-128996000D01*
X135148000Y-128956000D01*
X135119000Y-128918000D01*
X135087000Y-128881000D01*
X135054000Y-128846000D01*
X135019000Y-128813000D01*
X134982000Y-128781000D01*
X134944000Y-128752000D01*
X134904000Y-128724000D01*
X134863000Y-128699000D01*
X134820000Y-128676000D01*
X134776000Y-128655000D01*
X134731000Y-128636000D01*
X134686000Y-128620000D01*
X134639000Y-128607000D01*
X134592000Y-128595000D01*
X134545000Y-128586000D01*
X134497000Y-128580000D01*
X134448000Y-128576000D01*
X134400000Y-128575000D01*
X134400000Y-126900000D01*
X136330000Y-126900000D01*
X136330000Y-132100000D01*
G37*
X136330000Y-132100000D02*
X134400000Y-132100000D01*
X134400000Y-130425000D01*
X134448000Y-130424000D01*
X134497000Y-130420000D01*
X134545000Y-130414000D01*
X134592000Y-130405000D01*
X134639000Y-130393000D01*
X134686000Y-130380000D01*
X134731000Y-130364000D01*
X134776000Y-130345000D01*
X134820000Y-130324000D01*
X134863000Y-130301000D01*
X134904000Y-130276000D01*
X134944000Y-130248000D01*
X134982000Y-130219000D01*
X135019000Y-130187000D01*
X135054000Y-130154000D01*
X135087000Y-130119000D01*
X135119000Y-130082000D01*
X135148000Y-130044000D01*
X135176000Y-130004000D01*
X135201000Y-129962000D01*
X135224000Y-129920000D01*
X135245000Y-129876000D01*
X135264000Y-129831000D01*
X135280000Y-129786000D01*
X135293000Y-129739000D01*
X135305000Y-129692000D01*
X135314000Y-129645000D01*
X135320000Y-129597000D01*
X135324000Y-129548000D01*
X135325000Y-129500000D01*
X135324000Y-129452000D01*
X135320000Y-129403000D01*
X135314000Y-129355000D01*
X135305000Y-129308000D01*
X135293000Y-129261000D01*
X135280000Y-129214000D01*
X135264000Y-129169000D01*
X135245000Y-129124000D01*
X135224000Y-129080000D01*
X135201000Y-129038000D01*
X135176000Y-128996000D01*
X135148000Y-128956000D01*
X135119000Y-128918000D01*
X135087000Y-128881000D01*
X135054000Y-128846000D01*
X135019000Y-128813000D01*
X134982000Y-128781000D01*
X134944000Y-128752000D01*
X134904000Y-128724000D01*
X134863000Y-128699000D01*
X134820000Y-128676000D01*
X134776000Y-128655000D01*
X134731000Y-128636000D01*
X134686000Y-128620000D01*
X134639000Y-128607000D01*
X134592000Y-128595000D01*
X134545000Y-128586000D01*
X134497000Y-128580000D01*
X134448000Y-128576000D01*
X134400000Y-128575000D01*
X134400000Y-126900000D01*
X136330000Y-126900000D01*
X136330000Y-132100000D01*
G36*
X120320000Y-131150000D02*
G01*
X118405000Y-131150000D01*
X118405000Y-130425000D01*
X118453000Y-130424000D01*
X118501000Y-130420000D01*
X118549000Y-130414000D01*
X118596000Y-130405000D01*
X118643000Y-130394000D01*
X118689000Y-130380000D01*
X118735000Y-130364000D01*
X118779000Y-130345000D01*
X118823000Y-130325000D01*
X118865000Y-130302000D01*
X118906000Y-130277000D01*
X118946000Y-130249000D01*
X118984000Y-130220000D01*
X119021000Y-130189000D01*
X119056000Y-130156000D01*
X119089000Y-130121000D01*
X119120000Y-130084000D01*
X119149000Y-130046000D01*
X119177000Y-130006000D01*
X119202000Y-129965000D01*
X119225000Y-129923000D01*
X119245000Y-129879000D01*
X119264000Y-129835000D01*
X119280000Y-129789000D01*
X119294000Y-129743000D01*
X119305000Y-129696000D01*
X119314000Y-129649000D01*
X119320000Y-129601000D01*
X119324000Y-129553000D01*
X119325000Y-129505000D01*
X119325000Y-129495000D01*
X119324000Y-129447000D01*
X119320000Y-129399000D01*
X119314000Y-129351000D01*
X119305000Y-129304000D01*
X119294000Y-129257000D01*
X119280000Y-129211000D01*
X119264000Y-129165000D01*
X119245000Y-129121000D01*
X119225000Y-129077000D01*
X119202000Y-129035000D01*
X119177000Y-128994000D01*
X119149000Y-128954000D01*
X119120000Y-128916000D01*
X119089000Y-128879000D01*
X119056000Y-128844000D01*
X119021000Y-128811000D01*
X118984000Y-128780000D01*
X118946000Y-128751000D01*
X118906000Y-128723000D01*
X118865000Y-128698000D01*
X118823000Y-128675000D01*
X118779000Y-128655000D01*
X118735000Y-128636000D01*
X118689000Y-128620000D01*
X118643000Y-128606000D01*
X118596000Y-128595000D01*
X118549000Y-128586000D01*
X118501000Y-128580000D01*
X118453000Y-128576000D01*
X118405000Y-128575000D01*
X118405000Y-127850000D01*
X120320000Y-127850000D01*
X120320000Y-131150000D01*
G37*
X120320000Y-131150000D02*
X118405000Y-131150000D01*
X118405000Y-130425000D01*
X118453000Y-130424000D01*
X118501000Y-130420000D01*
X118549000Y-130414000D01*
X118596000Y-130405000D01*
X118643000Y-130394000D01*
X118689000Y-130380000D01*
X118735000Y-130364000D01*
X118779000Y-130345000D01*
X118823000Y-130325000D01*
X118865000Y-130302000D01*
X118906000Y-130277000D01*
X118946000Y-130249000D01*
X118984000Y-130220000D01*
X119021000Y-130189000D01*
X119056000Y-130156000D01*
X119089000Y-130121000D01*
X119120000Y-130084000D01*
X119149000Y-130046000D01*
X119177000Y-130006000D01*
X119202000Y-129965000D01*
X119225000Y-129923000D01*
X119245000Y-129879000D01*
X119264000Y-129835000D01*
X119280000Y-129789000D01*
X119294000Y-129743000D01*
X119305000Y-129696000D01*
X119314000Y-129649000D01*
X119320000Y-129601000D01*
X119324000Y-129553000D01*
X119325000Y-129505000D01*
X119325000Y-129495000D01*
X119324000Y-129447000D01*
X119320000Y-129399000D01*
X119314000Y-129351000D01*
X119305000Y-129304000D01*
X119294000Y-129257000D01*
X119280000Y-129211000D01*
X119264000Y-129165000D01*
X119245000Y-129121000D01*
X119225000Y-129077000D01*
X119202000Y-129035000D01*
X119177000Y-128994000D01*
X119149000Y-128954000D01*
X119120000Y-128916000D01*
X119089000Y-128879000D01*
X119056000Y-128844000D01*
X119021000Y-128811000D01*
X118984000Y-128780000D01*
X118946000Y-128751000D01*
X118906000Y-128723000D01*
X118865000Y-128698000D01*
X118823000Y-128675000D01*
X118779000Y-128655000D01*
X118735000Y-128636000D01*
X118689000Y-128620000D01*
X118643000Y-128606000D01*
X118596000Y-128595000D01*
X118549000Y-128586000D01*
X118501000Y-128580000D01*
X118453000Y-128576000D01*
X118405000Y-128575000D01*
X118405000Y-127850000D01*
X120320000Y-127850000D01*
X120320000Y-131150000D01*
G36*
X134395000Y-128575000D02*
G01*
X134347000Y-128576000D01*
X134299000Y-128580000D01*
X134251000Y-128586000D01*
X134204000Y-128595000D01*
X134157000Y-128606000D01*
X134111000Y-128620000D01*
X134065000Y-128636000D01*
X134021000Y-128655000D01*
X133977000Y-128675000D01*
X133935000Y-128698000D01*
X133894000Y-128723000D01*
X133854000Y-128751000D01*
X133816000Y-128780000D01*
X133779000Y-128811000D01*
X133744000Y-128844000D01*
X133711000Y-128879000D01*
X133680000Y-128916000D01*
X133651000Y-128954000D01*
X133623000Y-128994000D01*
X133598000Y-129035000D01*
X133575000Y-129077000D01*
X133555000Y-129121000D01*
X133536000Y-129165000D01*
X133520000Y-129211000D01*
X133506000Y-129257000D01*
X133495000Y-129304000D01*
X133486000Y-129351000D01*
X133480000Y-129399000D01*
X133476000Y-129447000D01*
X133475000Y-129495000D01*
X133475000Y-129505000D01*
X133476000Y-129553000D01*
X133480000Y-129601000D01*
X133486000Y-129649000D01*
X133495000Y-129696000D01*
X133506000Y-129743000D01*
X133520000Y-129789000D01*
X133536000Y-129835000D01*
X133555000Y-129879000D01*
X133575000Y-129923000D01*
X133598000Y-129965000D01*
X133623000Y-130006000D01*
X133651000Y-130046000D01*
X133680000Y-130084000D01*
X133711000Y-130121000D01*
X133744000Y-130156000D01*
X133779000Y-130189000D01*
X133816000Y-130220000D01*
X133854000Y-130249000D01*
X133894000Y-130277000D01*
X133935000Y-130302000D01*
X133977000Y-130325000D01*
X134021000Y-130345000D01*
X134065000Y-130364000D01*
X134111000Y-130380000D01*
X134157000Y-130394000D01*
X134204000Y-130405000D01*
X134251000Y-130414000D01*
X134299000Y-130420000D01*
X134347000Y-130424000D01*
X134395000Y-130425000D01*
X134395000Y-132100000D01*
X132090000Y-132100000D01*
X132090000Y-126900000D01*
X134395000Y-126900000D01*
X134395000Y-128575000D01*
G37*
X134395000Y-128575000D02*
X134347000Y-128576000D01*
X134299000Y-128580000D01*
X134251000Y-128586000D01*
X134204000Y-128595000D01*
X134157000Y-128606000D01*
X134111000Y-128620000D01*
X134065000Y-128636000D01*
X134021000Y-128655000D01*
X133977000Y-128675000D01*
X133935000Y-128698000D01*
X133894000Y-128723000D01*
X133854000Y-128751000D01*
X133816000Y-128780000D01*
X133779000Y-128811000D01*
X133744000Y-128844000D01*
X133711000Y-128879000D01*
X133680000Y-128916000D01*
X133651000Y-128954000D01*
X133623000Y-128994000D01*
X133598000Y-129035000D01*
X133575000Y-129077000D01*
X133555000Y-129121000D01*
X133536000Y-129165000D01*
X133520000Y-129211000D01*
X133506000Y-129257000D01*
X133495000Y-129304000D01*
X133486000Y-129351000D01*
X133480000Y-129399000D01*
X133476000Y-129447000D01*
X133475000Y-129495000D01*
X133475000Y-129505000D01*
X133476000Y-129553000D01*
X133480000Y-129601000D01*
X133486000Y-129649000D01*
X133495000Y-129696000D01*
X133506000Y-129743000D01*
X133520000Y-129789000D01*
X133536000Y-129835000D01*
X133555000Y-129879000D01*
X133575000Y-129923000D01*
X133598000Y-129965000D01*
X133623000Y-130006000D01*
X133651000Y-130046000D01*
X133680000Y-130084000D01*
X133711000Y-130121000D01*
X133744000Y-130156000D01*
X133779000Y-130189000D01*
X133816000Y-130220000D01*
X133854000Y-130249000D01*
X133894000Y-130277000D01*
X133935000Y-130302000D01*
X133977000Y-130325000D01*
X134021000Y-130345000D01*
X134065000Y-130364000D01*
X134111000Y-130380000D01*
X134157000Y-130394000D01*
X134204000Y-130405000D01*
X134251000Y-130414000D01*
X134299000Y-130420000D01*
X134347000Y-130424000D01*
X134395000Y-130425000D01*
X134395000Y-132100000D01*
X132090000Y-132100000D01*
X132090000Y-126900000D01*
X134395000Y-126900000D01*
X134395000Y-128575000D01*
G36*
X118400000Y-128575000D02*
G01*
X118352000Y-128576000D01*
X118303000Y-128580000D01*
X118255000Y-128586000D01*
X118208000Y-128595000D01*
X118161000Y-128607000D01*
X118114000Y-128620000D01*
X118069000Y-128636000D01*
X118024000Y-128655000D01*
X117980000Y-128676000D01*
X117937000Y-128699000D01*
X117896000Y-128724000D01*
X117856000Y-128752000D01*
X117818000Y-128781000D01*
X117781000Y-128813000D01*
X117746000Y-128846000D01*
X117713000Y-128881000D01*
X117681000Y-128918000D01*
X117652000Y-128956000D01*
X117624000Y-128996000D01*
X117599000Y-129038000D01*
X117576000Y-129080000D01*
X117555000Y-129124000D01*
X117536000Y-129169000D01*
X117520000Y-129214000D01*
X117507000Y-129261000D01*
X117495000Y-129308000D01*
X117486000Y-129355000D01*
X117480000Y-129403000D01*
X117476000Y-129452000D01*
X117475000Y-129500000D01*
X117476000Y-129548000D01*
X117480000Y-129597000D01*
X117486000Y-129645000D01*
X117495000Y-129692000D01*
X117507000Y-129739000D01*
X117520000Y-129786000D01*
X117536000Y-129831000D01*
X117555000Y-129876000D01*
X117576000Y-129920000D01*
X117599000Y-129962000D01*
X117624000Y-130004000D01*
X117652000Y-130044000D01*
X117681000Y-130082000D01*
X117713000Y-130119000D01*
X117746000Y-130154000D01*
X117781000Y-130187000D01*
X117818000Y-130219000D01*
X117856000Y-130248000D01*
X117896000Y-130276000D01*
X117937000Y-130301000D01*
X117980000Y-130324000D01*
X118024000Y-130345000D01*
X118069000Y-130364000D01*
X118114000Y-130380000D01*
X118161000Y-130393000D01*
X118208000Y-130405000D01*
X118255000Y-130414000D01*
X118303000Y-130420000D01*
X118352000Y-130424000D01*
X118400000Y-130425000D01*
X118400000Y-131150000D01*
X116080000Y-131150000D01*
X116080000Y-127850000D01*
X118400000Y-127850000D01*
X118400000Y-128575000D01*
G37*
X118400000Y-128575000D02*
X118352000Y-128576000D01*
X118303000Y-128580000D01*
X118255000Y-128586000D01*
X118208000Y-128595000D01*
X118161000Y-128607000D01*
X118114000Y-128620000D01*
X118069000Y-128636000D01*
X118024000Y-128655000D01*
X117980000Y-128676000D01*
X117937000Y-128699000D01*
X117896000Y-128724000D01*
X117856000Y-128752000D01*
X117818000Y-128781000D01*
X117781000Y-128813000D01*
X117746000Y-128846000D01*
X117713000Y-128881000D01*
X117681000Y-128918000D01*
X117652000Y-128956000D01*
X117624000Y-128996000D01*
X117599000Y-129038000D01*
X117576000Y-129080000D01*
X117555000Y-129124000D01*
X117536000Y-129169000D01*
X117520000Y-129214000D01*
X117507000Y-129261000D01*
X117495000Y-129308000D01*
X117486000Y-129355000D01*
X117480000Y-129403000D01*
X117476000Y-129452000D01*
X117475000Y-129500000D01*
X117476000Y-129548000D01*
X117480000Y-129597000D01*
X117486000Y-129645000D01*
X117495000Y-129692000D01*
X117507000Y-129739000D01*
X117520000Y-129786000D01*
X117536000Y-129831000D01*
X117555000Y-129876000D01*
X117576000Y-129920000D01*
X117599000Y-129962000D01*
X117624000Y-130004000D01*
X117652000Y-130044000D01*
X117681000Y-130082000D01*
X117713000Y-130119000D01*
X117746000Y-130154000D01*
X117781000Y-130187000D01*
X117818000Y-130219000D01*
X117856000Y-130248000D01*
X117896000Y-130276000D01*
X117937000Y-130301000D01*
X117980000Y-130324000D01*
X118024000Y-130345000D01*
X118069000Y-130364000D01*
X118114000Y-130380000D01*
X118161000Y-130393000D01*
X118208000Y-130405000D01*
X118255000Y-130414000D01*
X118303000Y-130420000D01*
X118352000Y-130424000D01*
X118400000Y-130425000D01*
X118400000Y-131150000D01*
X116080000Y-131150000D01*
X116080000Y-127850000D01*
X118400000Y-127850000D01*
X118400000Y-128575000D01*
%TO.C,BT3*%
G36*
X134395000Y-111075000D02*
G01*
X134347000Y-111076000D01*
X134299000Y-111080000D01*
X134251000Y-111086000D01*
X134204000Y-111095000D01*
X134157000Y-111106000D01*
X134111000Y-111120000D01*
X134065000Y-111136000D01*
X134021000Y-111155000D01*
X133977000Y-111175000D01*
X133935000Y-111198000D01*
X133894000Y-111223000D01*
X133854000Y-111251000D01*
X133816000Y-111280000D01*
X133779000Y-111311000D01*
X133744000Y-111344000D01*
X133711000Y-111379000D01*
X133680000Y-111416000D01*
X133651000Y-111454000D01*
X133623000Y-111494000D01*
X133598000Y-111535000D01*
X133575000Y-111577000D01*
X133555000Y-111621000D01*
X133536000Y-111665000D01*
X133520000Y-111711000D01*
X133506000Y-111757000D01*
X133495000Y-111804000D01*
X133486000Y-111851000D01*
X133480000Y-111899000D01*
X133476000Y-111947000D01*
X133475000Y-111995000D01*
X133475000Y-112005000D01*
X133476000Y-112053000D01*
X133480000Y-112101000D01*
X133486000Y-112149000D01*
X133495000Y-112196000D01*
X133506000Y-112243000D01*
X133520000Y-112289000D01*
X133536000Y-112335000D01*
X133555000Y-112379000D01*
X133575000Y-112423000D01*
X133598000Y-112465000D01*
X133623000Y-112506000D01*
X133651000Y-112546000D01*
X133680000Y-112584000D01*
X133711000Y-112621000D01*
X133744000Y-112656000D01*
X133779000Y-112689000D01*
X133816000Y-112720000D01*
X133854000Y-112749000D01*
X133894000Y-112777000D01*
X133935000Y-112802000D01*
X133977000Y-112825000D01*
X134021000Y-112845000D01*
X134065000Y-112864000D01*
X134111000Y-112880000D01*
X134157000Y-112894000D01*
X134204000Y-112905000D01*
X134251000Y-112914000D01*
X134299000Y-112920000D01*
X134347000Y-112924000D01*
X134395000Y-112925000D01*
X134395000Y-114600000D01*
X132090000Y-114600000D01*
X132090000Y-109400000D01*
X134395000Y-109400000D01*
X134395000Y-111075000D01*
G37*
X134395000Y-111075000D02*
X134347000Y-111076000D01*
X134299000Y-111080000D01*
X134251000Y-111086000D01*
X134204000Y-111095000D01*
X134157000Y-111106000D01*
X134111000Y-111120000D01*
X134065000Y-111136000D01*
X134021000Y-111155000D01*
X133977000Y-111175000D01*
X133935000Y-111198000D01*
X133894000Y-111223000D01*
X133854000Y-111251000D01*
X133816000Y-111280000D01*
X133779000Y-111311000D01*
X133744000Y-111344000D01*
X133711000Y-111379000D01*
X133680000Y-111416000D01*
X133651000Y-111454000D01*
X133623000Y-111494000D01*
X133598000Y-111535000D01*
X133575000Y-111577000D01*
X133555000Y-111621000D01*
X133536000Y-111665000D01*
X133520000Y-111711000D01*
X133506000Y-111757000D01*
X133495000Y-111804000D01*
X133486000Y-111851000D01*
X133480000Y-111899000D01*
X133476000Y-111947000D01*
X133475000Y-111995000D01*
X133475000Y-112005000D01*
X133476000Y-112053000D01*
X133480000Y-112101000D01*
X133486000Y-112149000D01*
X133495000Y-112196000D01*
X133506000Y-112243000D01*
X133520000Y-112289000D01*
X133536000Y-112335000D01*
X133555000Y-112379000D01*
X133575000Y-112423000D01*
X133598000Y-112465000D01*
X133623000Y-112506000D01*
X133651000Y-112546000D01*
X133680000Y-112584000D01*
X133711000Y-112621000D01*
X133744000Y-112656000D01*
X133779000Y-112689000D01*
X133816000Y-112720000D01*
X133854000Y-112749000D01*
X133894000Y-112777000D01*
X133935000Y-112802000D01*
X133977000Y-112825000D01*
X134021000Y-112845000D01*
X134065000Y-112864000D01*
X134111000Y-112880000D01*
X134157000Y-112894000D01*
X134204000Y-112905000D01*
X134251000Y-112914000D01*
X134299000Y-112920000D01*
X134347000Y-112924000D01*
X134395000Y-112925000D01*
X134395000Y-114600000D01*
X132090000Y-114600000D01*
X132090000Y-109400000D01*
X134395000Y-109400000D01*
X134395000Y-111075000D01*
G36*
X118400000Y-111075000D02*
G01*
X118352000Y-111076000D01*
X118303000Y-111080000D01*
X118255000Y-111086000D01*
X118208000Y-111095000D01*
X118161000Y-111107000D01*
X118114000Y-111120000D01*
X118069000Y-111136000D01*
X118024000Y-111155000D01*
X117980000Y-111176000D01*
X117937000Y-111199000D01*
X117896000Y-111224000D01*
X117856000Y-111252000D01*
X117818000Y-111281000D01*
X117781000Y-111313000D01*
X117746000Y-111346000D01*
X117713000Y-111381000D01*
X117681000Y-111418000D01*
X117652000Y-111456000D01*
X117624000Y-111496000D01*
X117599000Y-111538000D01*
X117576000Y-111580000D01*
X117555000Y-111624000D01*
X117536000Y-111669000D01*
X117520000Y-111714000D01*
X117507000Y-111761000D01*
X117495000Y-111808000D01*
X117486000Y-111855000D01*
X117480000Y-111903000D01*
X117476000Y-111952000D01*
X117475000Y-112000000D01*
X117476000Y-112048000D01*
X117480000Y-112097000D01*
X117486000Y-112145000D01*
X117495000Y-112192000D01*
X117507000Y-112239000D01*
X117520000Y-112286000D01*
X117536000Y-112331000D01*
X117555000Y-112376000D01*
X117576000Y-112420000D01*
X117599000Y-112462000D01*
X117624000Y-112504000D01*
X117652000Y-112544000D01*
X117681000Y-112582000D01*
X117713000Y-112619000D01*
X117746000Y-112654000D01*
X117781000Y-112687000D01*
X117818000Y-112719000D01*
X117856000Y-112748000D01*
X117896000Y-112776000D01*
X117937000Y-112801000D01*
X117980000Y-112824000D01*
X118024000Y-112845000D01*
X118069000Y-112864000D01*
X118114000Y-112880000D01*
X118161000Y-112893000D01*
X118208000Y-112905000D01*
X118255000Y-112914000D01*
X118303000Y-112920000D01*
X118352000Y-112924000D01*
X118400000Y-112925000D01*
X118400000Y-113650000D01*
X116080000Y-113650000D01*
X116080000Y-110350000D01*
X118400000Y-110350000D01*
X118400000Y-111075000D01*
G37*
X118400000Y-111075000D02*
X118352000Y-111076000D01*
X118303000Y-111080000D01*
X118255000Y-111086000D01*
X118208000Y-111095000D01*
X118161000Y-111107000D01*
X118114000Y-111120000D01*
X118069000Y-111136000D01*
X118024000Y-111155000D01*
X117980000Y-111176000D01*
X117937000Y-111199000D01*
X117896000Y-111224000D01*
X117856000Y-111252000D01*
X117818000Y-111281000D01*
X117781000Y-111313000D01*
X117746000Y-111346000D01*
X117713000Y-111381000D01*
X117681000Y-111418000D01*
X117652000Y-111456000D01*
X117624000Y-111496000D01*
X117599000Y-111538000D01*
X117576000Y-111580000D01*
X117555000Y-111624000D01*
X117536000Y-111669000D01*
X117520000Y-111714000D01*
X117507000Y-111761000D01*
X117495000Y-111808000D01*
X117486000Y-111855000D01*
X117480000Y-111903000D01*
X117476000Y-111952000D01*
X117475000Y-112000000D01*
X117476000Y-112048000D01*
X117480000Y-112097000D01*
X117486000Y-112145000D01*
X117495000Y-112192000D01*
X117507000Y-112239000D01*
X117520000Y-112286000D01*
X117536000Y-112331000D01*
X117555000Y-112376000D01*
X117576000Y-112420000D01*
X117599000Y-112462000D01*
X117624000Y-112504000D01*
X117652000Y-112544000D01*
X117681000Y-112582000D01*
X117713000Y-112619000D01*
X117746000Y-112654000D01*
X117781000Y-112687000D01*
X117818000Y-112719000D01*
X117856000Y-112748000D01*
X117896000Y-112776000D01*
X117937000Y-112801000D01*
X117980000Y-112824000D01*
X118024000Y-112845000D01*
X118069000Y-112864000D01*
X118114000Y-112880000D01*
X118161000Y-112893000D01*
X118208000Y-112905000D01*
X118255000Y-112914000D01*
X118303000Y-112920000D01*
X118352000Y-112924000D01*
X118400000Y-112925000D01*
X118400000Y-113650000D01*
X116080000Y-113650000D01*
X116080000Y-110350000D01*
X118400000Y-110350000D01*
X118400000Y-111075000D01*
G36*
X120320000Y-113650000D02*
G01*
X118405000Y-113650000D01*
X118405000Y-112925000D01*
X118453000Y-112924000D01*
X118501000Y-112920000D01*
X118549000Y-112914000D01*
X118596000Y-112905000D01*
X118643000Y-112894000D01*
X118689000Y-112880000D01*
X118735000Y-112864000D01*
X118779000Y-112845000D01*
X118823000Y-112825000D01*
X118865000Y-112802000D01*
X118906000Y-112777000D01*
X118946000Y-112749000D01*
X118984000Y-112720000D01*
X119021000Y-112689000D01*
X119056000Y-112656000D01*
X119089000Y-112621000D01*
X119120000Y-112584000D01*
X119149000Y-112546000D01*
X119177000Y-112506000D01*
X119202000Y-112465000D01*
X119225000Y-112423000D01*
X119245000Y-112379000D01*
X119264000Y-112335000D01*
X119280000Y-112289000D01*
X119294000Y-112243000D01*
X119305000Y-112196000D01*
X119314000Y-112149000D01*
X119320000Y-112101000D01*
X119324000Y-112053000D01*
X119325000Y-112005000D01*
X119325000Y-111995000D01*
X119324000Y-111947000D01*
X119320000Y-111899000D01*
X119314000Y-111851000D01*
X119305000Y-111804000D01*
X119294000Y-111757000D01*
X119280000Y-111711000D01*
X119264000Y-111665000D01*
X119245000Y-111621000D01*
X119225000Y-111577000D01*
X119202000Y-111535000D01*
X119177000Y-111494000D01*
X119149000Y-111454000D01*
X119120000Y-111416000D01*
X119089000Y-111379000D01*
X119056000Y-111344000D01*
X119021000Y-111311000D01*
X118984000Y-111280000D01*
X118946000Y-111251000D01*
X118906000Y-111223000D01*
X118865000Y-111198000D01*
X118823000Y-111175000D01*
X118779000Y-111155000D01*
X118735000Y-111136000D01*
X118689000Y-111120000D01*
X118643000Y-111106000D01*
X118596000Y-111095000D01*
X118549000Y-111086000D01*
X118501000Y-111080000D01*
X118453000Y-111076000D01*
X118405000Y-111075000D01*
X118405000Y-110350000D01*
X120320000Y-110350000D01*
X120320000Y-113650000D01*
G37*
X120320000Y-113650000D02*
X118405000Y-113650000D01*
X118405000Y-112925000D01*
X118453000Y-112924000D01*
X118501000Y-112920000D01*
X118549000Y-112914000D01*
X118596000Y-112905000D01*
X118643000Y-112894000D01*
X118689000Y-112880000D01*
X118735000Y-112864000D01*
X118779000Y-112845000D01*
X118823000Y-112825000D01*
X118865000Y-112802000D01*
X118906000Y-112777000D01*
X118946000Y-112749000D01*
X118984000Y-112720000D01*
X119021000Y-112689000D01*
X119056000Y-112656000D01*
X119089000Y-112621000D01*
X119120000Y-112584000D01*
X119149000Y-112546000D01*
X119177000Y-112506000D01*
X119202000Y-112465000D01*
X119225000Y-112423000D01*
X119245000Y-112379000D01*
X119264000Y-112335000D01*
X119280000Y-112289000D01*
X119294000Y-112243000D01*
X119305000Y-112196000D01*
X119314000Y-112149000D01*
X119320000Y-112101000D01*
X119324000Y-112053000D01*
X119325000Y-112005000D01*
X119325000Y-111995000D01*
X119324000Y-111947000D01*
X119320000Y-111899000D01*
X119314000Y-111851000D01*
X119305000Y-111804000D01*
X119294000Y-111757000D01*
X119280000Y-111711000D01*
X119264000Y-111665000D01*
X119245000Y-111621000D01*
X119225000Y-111577000D01*
X119202000Y-111535000D01*
X119177000Y-111494000D01*
X119149000Y-111454000D01*
X119120000Y-111416000D01*
X119089000Y-111379000D01*
X119056000Y-111344000D01*
X119021000Y-111311000D01*
X118984000Y-111280000D01*
X118946000Y-111251000D01*
X118906000Y-111223000D01*
X118865000Y-111198000D01*
X118823000Y-111175000D01*
X118779000Y-111155000D01*
X118735000Y-111136000D01*
X118689000Y-111120000D01*
X118643000Y-111106000D01*
X118596000Y-111095000D01*
X118549000Y-111086000D01*
X118501000Y-111080000D01*
X118453000Y-111076000D01*
X118405000Y-111075000D01*
X118405000Y-110350000D01*
X120320000Y-110350000D01*
X120320000Y-113650000D01*
G36*
X136330000Y-114600000D02*
G01*
X134400000Y-114600000D01*
X134400000Y-112925000D01*
X134448000Y-112924000D01*
X134497000Y-112920000D01*
X134545000Y-112914000D01*
X134592000Y-112905000D01*
X134639000Y-112893000D01*
X134686000Y-112880000D01*
X134731000Y-112864000D01*
X134776000Y-112845000D01*
X134820000Y-112824000D01*
X134863000Y-112801000D01*
X134904000Y-112776000D01*
X134944000Y-112748000D01*
X134982000Y-112719000D01*
X135019000Y-112687000D01*
X135054000Y-112654000D01*
X135087000Y-112619000D01*
X135119000Y-112582000D01*
X135148000Y-112544000D01*
X135176000Y-112504000D01*
X135201000Y-112462000D01*
X135224000Y-112420000D01*
X135245000Y-112376000D01*
X135264000Y-112331000D01*
X135280000Y-112286000D01*
X135293000Y-112239000D01*
X135305000Y-112192000D01*
X135314000Y-112145000D01*
X135320000Y-112097000D01*
X135324000Y-112048000D01*
X135325000Y-112000000D01*
X135324000Y-111952000D01*
X135320000Y-111903000D01*
X135314000Y-111855000D01*
X135305000Y-111808000D01*
X135293000Y-111761000D01*
X135280000Y-111714000D01*
X135264000Y-111669000D01*
X135245000Y-111624000D01*
X135224000Y-111580000D01*
X135201000Y-111538000D01*
X135176000Y-111496000D01*
X135148000Y-111456000D01*
X135119000Y-111418000D01*
X135087000Y-111381000D01*
X135054000Y-111346000D01*
X135019000Y-111313000D01*
X134982000Y-111281000D01*
X134944000Y-111252000D01*
X134904000Y-111224000D01*
X134863000Y-111199000D01*
X134820000Y-111176000D01*
X134776000Y-111155000D01*
X134731000Y-111136000D01*
X134686000Y-111120000D01*
X134639000Y-111107000D01*
X134592000Y-111095000D01*
X134545000Y-111086000D01*
X134497000Y-111080000D01*
X134448000Y-111076000D01*
X134400000Y-111075000D01*
X134400000Y-109400000D01*
X136330000Y-109400000D01*
X136330000Y-114600000D01*
G37*
X136330000Y-114600000D02*
X134400000Y-114600000D01*
X134400000Y-112925000D01*
X134448000Y-112924000D01*
X134497000Y-112920000D01*
X134545000Y-112914000D01*
X134592000Y-112905000D01*
X134639000Y-112893000D01*
X134686000Y-112880000D01*
X134731000Y-112864000D01*
X134776000Y-112845000D01*
X134820000Y-112824000D01*
X134863000Y-112801000D01*
X134904000Y-112776000D01*
X134944000Y-112748000D01*
X134982000Y-112719000D01*
X135019000Y-112687000D01*
X135054000Y-112654000D01*
X135087000Y-112619000D01*
X135119000Y-112582000D01*
X135148000Y-112544000D01*
X135176000Y-112504000D01*
X135201000Y-112462000D01*
X135224000Y-112420000D01*
X135245000Y-112376000D01*
X135264000Y-112331000D01*
X135280000Y-112286000D01*
X135293000Y-112239000D01*
X135305000Y-112192000D01*
X135314000Y-112145000D01*
X135320000Y-112097000D01*
X135324000Y-112048000D01*
X135325000Y-112000000D01*
X135324000Y-111952000D01*
X135320000Y-111903000D01*
X135314000Y-111855000D01*
X135305000Y-111808000D01*
X135293000Y-111761000D01*
X135280000Y-111714000D01*
X135264000Y-111669000D01*
X135245000Y-111624000D01*
X135224000Y-111580000D01*
X135201000Y-111538000D01*
X135176000Y-111496000D01*
X135148000Y-111456000D01*
X135119000Y-111418000D01*
X135087000Y-111381000D01*
X135054000Y-111346000D01*
X135019000Y-111313000D01*
X134982000Y-111281000D01*
X134944000Y-111252000D01*
X134904000Y-111224000D01*
X134863000Y-111199000D01*
X134820000Y-111176000D01*
X134776000Y-111155000D01*
X134731000Y-111136000D01*
X134686000Y-111120000D01*
X134639000Y-111107000D01*
X134592000Y-111095000D01*
X134545000Y-111086000D01*
X134497000Y-111080000D01*
X134448000Y-111076000D01*
X134400000Y-111075000D01*
X134400000Y-109400000D01*
X136330000Y-109400000D01*
X136330000Y-114600000D01*
%TO.C,BT1*%
G36*
X120320000Y-96150000D02*
G01*
X118405000Y-96150000D01*
X118405000Y-95425000D01*
X118453000Y-95424000D01*
X118501000Y-95420000D01*
X118549000Y-95414000D01*
X118596000Y-95405000D01*
X118643000Y-95394000D01*
X118689000Y-95380000D01*
X118735000Y-95364000D01*
X118779000Y-95345000D01*
X118823000Y-95325000D01*
X118865000Y-95302000D01*
X118906000Y-95277000D01*
X118946000Y-95249000D01*
X118984000Y-95220000D01*
X119021000Y-95189000D01*
X119056000Y-95156000D01*
X119089000Y-95121000D01*
X119120000Y-95084000D01*
X119149000Y-95046000D01*
X119177000Y-95006000D01*
X119202000Y-94965000D01*
X119225000Y-94923000D01*
X119245000Y-94879000D01*
X119264000Y-94835000D01*
X119280000Y-94789000D01*
X119294000Y-94743000D01*
X119305000Y-94696000D01*
X119314000Y-94649000D01*
X119320000Y-94601000D01*
X119324000Y-94553000D01*
X119325000Y-94505000D01*
X119325000Y-94495000D01*
X119324000Y-94447000D01*
X119320000Y-94399000D01*
X119314000Y-94351000D01*
X119305000Y-94304000D01*
X119294000Y-94257000D01*
X119280000Y-94211000D01*
X119264000Y-94165000D01*
X119245000Y-94121000D01*
X119225000Y-94077000D01*
X119202000Y-94035000D01*
X119177000Y-93994000D01*
X119149000Y-93954000D01*
X119120000Y-93916000D01*
X119089000Y-93879000D01*
X119056000Y-93844000D01*
X119021000Y-93811000D01*
X118984000Y-93780000D01*
X118946000Y-93751000D01*
X118906000Y-93723000D01*
X118865000Y-93698000D01*
X118823000Y-93675000D01*
X118779000Y-93655000D01*
X118735000Y-93636000D01*
X118689000Y-93620000D01*
X118643000Y-93606000D01*
X118596000Y-93595000D01*
X118549000Y-93586000D01*
X118501000Y-93580000D01*
X118453000Y-93576000D01*
X118405000Y-93575000D01*
X118405000Y-92850000D01*
X120320000Y-92850000D01*
X120320000Y-96150000D01*
G37*
X120320000Y-96150000D02*
X118405000Y-96150000D01*
X118405000Y-95425000D01*
X118453000Y-95424000D01*
X118501000Y-95420000D01*
X118549000Y-95414000D01*
X118596000Y-95405000D01*
X118643000Y-95394000D01*
X118689000Y-95380000D01*
X118735000Y-95364000D01*
X118779000Y-95345000D01*
X118823000Y-95325000D01*
X118865000Y-95302000D01*
X118906000Y-95277000D01*
X118946000Y-95249000D01*
X118984000Y-95220000D01*
X119021000Y-95189000D01*
X119056000Y-95156000D01*
X119089000Y-95121000D01*
X119120000Y-95084000D01*
X119149000Y-95046000D01*
X119177000Y-95006000D01*
X119202000Y-94965000D01*
X119225000Y-94923000D01*
X119245000Y-94879000D01*
X119264000Y-94835000D01*
X119280000Y-94789000D01*
X119294000Y-94743000D01*
X119305000Y-94696000D01*
X119314000Y-94649000D01*
X119320000Y-94601000D01*
X119324000Y-94553000D01*
X119325000Y-94505000D01*
X119325000Y-94495000D01*
X119324000Y-94447000D01*
X119320000Y-94399000D01*
X119314000Y-94351000D01*
X119305000Y-94304000D01*
X119294000Y-94257000D01*
X119280000Y-94211000D01*
X119264000Y-94165000D01*
X119245000Y-94121000D01*
X119225000Y-94077000D01*
X119202000Y-94035000D01*
X119177000Y-93994000D01*
X119149000Y-93954000D01*
X119120000Y-93916000D01*
X119089000Y-93879000D01*
X119056000Y-93844000D01*
X119021000Y-93811000D01*
X118984000Y-93780000D01*
X118946000Y-93751000D01*
X118906000Y-93723000D01*
X118865000Y-93698000D01*
X118823000Y-93675000D01*
X118779000Y-93655000D01*
X118735000Y-93636000D01*
X118689000Y-93620000D01*
X118643000Y-93606000D01*
X118596000Y-93595000D01*
X118549000Y-93586000D01*
X118501000Y-93580000D01*
X118453000Y-93576000D01*
X118405000Y-93575000D01*
X118405000Y-92850000D01*
X120320000Y-92850000D01*
X120320000Y-96150000D01*
G36*
X134395000Y-93575000D02*
G01*
X134347000Y-93576000D01*
X134299000Y-93580000D01*
X134251000Y-93586000D01*
X134204000Y-93595000D01*
X134157000Y-93606000D01*
X134111000Y-93620000D01*
X134065000Y-93636000D01*
X134021000Y-93655000D01*
X133977000Y-93675000D01*
X133935000Y-93698000D01*
X133894000Y-93723000D01*
X133854000Y-93751000D01*
X133816000Y-93780000D01*
X133779000Y-93811000D01*
X133744000Y-93844000D01*
X133711000Y-93879000D01*
X133680000Y-93916000D01*
X133651000Y-93954000D01*
X133623000Y-93994000D01*
X133598000Y-94035000D01*
X133575000Y-94077000D01*
X133555000Y-94121000D01*
X133536000Y-94165000D01*
X133520000Y-94211000D01*
X133506000Y-94257000D01*
X133495000Y-94304000D01*
X133486000Y-94351000D01*
X133480000Y-94399000D01*
X133476000Y-94447000D01*
X133475000Y-94495000D01*
X133475000Y-94505000D01*
X133476000Y-94553000D01*
X133480000Y-94601000D01*
X133486000Y-94649000D01*
X133495000Y-94696000D01*
X133506000Y-94743000D01*
X133520000Y-94789000D01*
X133536000Y-94835000D01*
X133555000Y-94879000D01*
X133575000Y-94923000D01*
X133598000Y-94965000D01*
X133623000Y-95006000D01*
X133651000Y-95046000D01*
X133680000Y-95084000D01*
X133711000Y-95121000D01*
X133744000Y-95156000D01*
X133779000Y-95189000D01*
X133816000Y-95220000D01*
X133854000Y-95249000D01*
X133894000Y-95277000D01*
X133935000Y-95302000D01*
X133977000Y-95325000D01*
X134021000Y-95345000D01*
X134065000Y-95364000D01*
X134111000Y-95380000D01*
X134157000Y-95394000D01*
X134204000Y-95405000D01*
X134251000Y-95414000D01*
X134299000Y-95420000D01*
X134347000Y-95424000D01*
X134395000Y-95425000D01*
X134395000Y-97100000D01*
X132090000Y-97100000D01*
X132090000Y-91900000D01*
X134395000Y-91900000D01*
X134395000Y-93575000D01*
G37*
X134395000Y-93575000D02*
X134347000Y-93576000D01*
X134299000Y-93580000D01*
X134251000Y-93586000D01*
X134204000Y-93595000D01*
X134157000Y-93606000D01*
X134111000Y-93620000D01*
X134065000Y-93636000D01*
X134021000Y-93655000D01*
X133977000Y-93675000D01*
X133935000Y-93698000D01*
X133894000Y-93723000D01*
X133854000Y-93751000D01*
X133816000Y-93780000D01*
X133779000Y-93811000D01*
X133744000Y-93844000D01*
X133711000Y-93879000D01*
X133680000Y-93916000D01*
X133651000Y-93954000D01*
X133623000Y-93994000D01*
X133598000Y-94035000D01*
X133575000Y-94077000D01*
X133555000Y-94121000D01*
X133536000Y-94165000D01*
X133520000Y-94211000D01*
X133506000Y-94257000D01*
X133495000Y-94304000D01*
X133486000Y-94351000D01*
X133480000Y-94399000D01*
X133476000Y-94447000D01*
X133475000Y-94495000D01*
X133475000Y-94505000D01*
X133476000Y-94553000D01*
X133480000Y-94601000D01*
X133486000Y-94649000D01*
X133495000Y-94696000D01*
X133506000Y-94743000D01*
X133520000Y-94789000D01*
X133536000Y-94835000D01*
X133555000Y-94879000D01*
X133575000Y-94923000D01*
X133598000Y-94965000D01*
X133623000Y-95006000D01*
X133651000Y-95046000D01*
X133680000Y-95084000D01*
X133711000Y-95121000D01*
X133744000Y-95156000D01*
X133779000Y-95189000D01*
X133816000Y-95220000D01*
X133854000Y-95249000D01*
X133894000Y-95277000D01*
X133935000Y-95302000D01*
X133977000Y-95325000D01*
X134021000Y-95345000D01*
X134065000Y-95364000D01*
X134111000Y-95380000D01*
X134157000Y-95394000D01*
X134204000Y-95405000D01*
X134251000Y-95414000D01*
X134299000Y-95420000D01*
X134347000Y-95424000D01*
X134395000Y-95425000D01*
X134395000Y-97100000D01*
X132090000Y-97100000D01*
X132090000Y-91900000D01*
X134395000Y-91900000D01*
X134395000Y-93575000D01*
G36*
X118400000Y-93575000D02*
G01*
X118352000Y-93576000D01*
X118303000Y-93580000D01*
X118255000Y-93586000D01*
X118208000Y-93595000D01*
X118161000Y-93607000D01*
X118114000Y-93620000D01*
X118069000Y-93636000D01*
X118024000Y-93655000D01*
X117980000Y-93676000D01*
X117937000Y-93699000D01*
X117896000Y-93724000D01*
X117856000Y-93752000D01*
X117818000Y-93781000D01*
X117781000Y-93813000D01*
X117746000Y-93846000D01*
X117713000Y-93881000D01*
X117681000Y-93918000D01*
X117652000Y-93956000D01*
X117624000Y-93996000D01*
X117599000Y-94038000D01*
X117576000Y-94080000D01*
X117555000Y-94124000D01*
X117536000Y-94169000D01*
X117520000Y-94214000D01*
X117507000Y-94261000D01*
X117495000Y-94308000D01*
X117486000Y-94355000D01*
X117480000Y-94403000D01*
X117476000Y-94452000D01*
X117475000Y-94500000D01*
X117476000Y-94548000D01*
X117480000Y-94597000D01*
X117486000Y-94645000D01*
X117495000Y-94692000D01*
X117507000Y-94739000D01*
X117520000Y-94786000D01*
X117536000Y-94831000D01*
X117555000Y-94876000D01*
X117576000Y-94920000D01*
X117599000Y-94962000D01*
X117624000Y-95004000D01*
X117652000Y-95044000D01*
X117681000Y-95082000D01*
X117713000Y-95119000D01*
X117746000Y-95154000D01*
X117781000Y-95187000D01*
X117818000Y-95219000D01*
X117856000Y-95248000D01*
X117896000Y-95276000D01*
X117937000Y-95301000D01*
X117980000Y-95324000D01*
X118024000Y-95345000D01*
X118069000Y-95364000D01*
X118114000Y-95380000D01*
X118161000Y-95393000D01*
X118208000Y-95405000D01*
X118255000Y-95414000D01*
X118303000Y-95420000D01*
X118352000Y-95424000D01*
X118400000Y-95425000D01*
X118400000Y-96150000D01*
X116080000Y-96150000D01*
X116080000Y-92850000D01*
X118400000Y-92850000D01*
X118400000Y-93575000D01*
G37*
X118400000Y-93575000D02*
X118352000Y-93576000D01*
X118303000Y-93580000D01*
X118255000Y-93586000D01*
X118208000Y-93595000D01*
X118161000Y-93607000D01*
X118114000Y-93620000D01*
X118069000Y-93636000D01*
X118024000Y-93655000D01*
X117980000Y-93676000D01*
X117937000Y-93699000D01*
X117896000Y-93724000D01*
X117856000Y-93752000D01*
X117818000Y-93781000D01*
X117781000Y-93813000D01*
X117746000Y-93846000D01*
X117713000Y-93881000D01*
X117681000Y-93918000D01*
X117652000Y-93956000D01*
X117624000Y-93996000D01*
X117599000Y-94038000D01*
X117576000Y-94080000D01*
X117555000Y-94124000D01*
X117536000Y-94169000D01*
X117520000Y-94214000D01*
X117507000Y-94261000D01*
X117495000Y-94308000D01*
X117486000Y-94355000D01*
X117480000Y-94403000D01*
X117476000Y-94452000D01*
X117475000Y-94500000D01*
X117476000Y-94548000D01*
X117480000Y-94597000D01*
X117486000Y-94645000D01*
X117495000Y-94692000D01*
X117507000Y-94739000D01*
X117520000Y-94786000D01*
X117536000Y-94831000D01*
X117555000Y-94876000D01*
X117576000Y-94920000D01*
X117599000Y-94962000D01*
X117624000Y-95004000D01*
X117652000Y-95044000D01*
X117681000Y-95082000D01*
X117713000Y-95119000D01*
X117746000Y-95154000D01*
X117781000Y-95187000D01*
X117818000Y-95219000D01*
X117856000Y-95248000D01*
X117896000Y-95276000D01*
X117937000Y-95301000D01*
X117980000Y-95324000D01*
X118024000Y-95345000D01*
X118069000Y-95364000D01*
X118114000Y-95380000D01*
X118161000Y-95393000D01*
X118208000Y-95405000D01*
X118255000Y-95414000D01*
X118303000Y-95420000D01*
X118352000Y-95424000D01*
X118400000Y-95425000D01*
X118400000Y-96150000D01*
X116080000Y-96150000D01*
X116080000Y-92850000D01*
X118400000Y-92850000D01*
X118400000Y-93575000D01*
G36*
X136330000Y-97100000D02*
G01*
X134400000Y-97100000D01*
X134400000Y-95425000D01*
X134448000Y-95424000D01*
X134497000Y-95420000D01*
X134545000Y-95414000D01*
X134592000Y-95405000D01*
X134639000Y-95393000D01*
X134686000Y-95380000D01*
X134731000Y-95364000D01*
X134776000Y-95345000D01*
X134820000Y-95324000D01*
X134863000Y-95301000D01*
X134904000Y-95276000D01*
X134944000Y-95248000D01*
X134982000Y-95219000D01*
X135019000Y-95187000D01*
X135054000Y-95154000D01*
X135087000Y-95119000D01*
X135119000Y-95082000D01*
X135148000Y-95044000D01*
X135176000Y-95004000D01*
X135201000Y-94962000D01*
X135224000Y-94920000D01*
X135245000Y-94876000D01*
X135264000Y-94831000D01*
X135280000Y-94786000D01*
X135293000Y-94739000D01*
X135305000Y-94692000D01*
X135314000Y-94645000D01*
X135320000Y-94597000D01*
X135324000Y-94548000D01*
X135325000Y-94500000D01*
X135324000Y-94452000D01*
X135320000Y-94403000D01*
X135314000Y-94355000D01*
X135305000Y-94308000D01*
X135293000Y-94261000D01*
X135280000Y-94214000D01*
X135264000Y-94169000D01*
X135245000Y-94124000D01*
X135224000Y-94080000D01*
X135201000Y-94038000D01*
X135176000Y-93996000D01*
X135148000Y-93956000D01*
X135119000Y-93918000D01*
X135087000Y-93881000D01*
X135054000Y-93846000D01*
X135019000Y-93813000D01*
X134982000Y-93781000D01*
X134944000Y-93752000D01*
X134904000Y-93724000D01*
X134863000Y-93699000D01*
X134820000Y-93676000D01*
X134776000Y-93655000D01*
X134731000Y-93636000D01*
X134686000Y-93620000D01*
X134639000Y-93607000D01*
X134592000Y-93595000D01*
X134545000Y-93586000D01*
X134497000Y-93580000D01*
X134448000Y-93576000D01*
X134400000Y-93575000D01*
X134400000Y-91900000D01*
X136330000Y-91900000D01*
X136330000Y-97100000D01*
G37*
X136330000Y-97100000D02*
X134400000Y-97100000D01*
X134400000Y-95425000D01*
X134448000Y-95424000D01*
X134497000Y-95420000D01*
X134545000Y-95414000D01*
X134592000Y-95405000D01*
X134639000Y-95393000D01*
X134686000Y-95380000D01*
X134731000Y-95364000D01*
X134776000Y-95345000D01*
X134820000Y-95324000D01*
X134863000Y-95301000D01*
X134904000Y-95276000D01*
X134944000Y-95248000D01*
X134982000Y-95219000D01*
X135019000Y-95187000D01*
X135054000Y-95154000D01*
X135087000Y-95119000D01*
X135119000Y-95082000D01*
X135148000Y-95044000D01*
X135176000Y-95004000D01*
X135201000Y-94962000D01*
X135224000Y-94920000D01*
X135245000Y-94876000D01*
X135264000Y-94831000D01*
X135280000Y-94786000D01*
X135293000Y-94739000D01*
X135305000Y-94692000D01*
X135314000Y-94645000D01*
X135320000Y-94597000D01*
X135324000Y-94548000D01*
X135325000Y-94500000D01*
X135324000Y-94452000D01*
X135320000Y-94403000D01*
X135314000Y-94355000D01*
X135305000Y-94308000D01*
X135293000Y-94261000D01*
X135280000Y-94214000D01*
X135264000Y-94169000D01*
X135245000Y-94124000D01*
X135224000Y-94080000D01*
X135201000Y-94038000D01*
X135176000Y-93996000D01*
X135148000Y-93956000D01*
X135119000Y-93918000D01*
X135087000Y-93881000D01*
X135054000Y-93846000D01*
X135019000Y-93813000D01*
X134982000Y-93781000D01*
X134944000Y-93752000D01*
X134904000Y-93724000D01*
X134863000Y-93699000D01*
X134820000Y-93676000D01*
X134776000Y-93655000D01*
X134731000Y-93636000D01*
X134686000Y-93620000D01*
X134639000Y-93607000D01*
X134592000Y-93595000D01*
X134545000Y-93586000D01*
X134497000Y-93580000D01*
X134448000Y-93576000D01*
X134400000Y-93575000D01*
X134400000Y-91900000D01*
X136330000Y-91900000D01*
X136330000Y-97100000D01*
%TO.C,BT2*%
G36*
X187395000Y-93575000D02*
G01*
X187347000Y-93576000D01*
X187299000Y-93580000D01*
X187251000Y-93586000D01*
X187204000Y-93595000D01*
X187157000Y-93606000D01*
X187111000Y-93620000D01*
X187065000Y-93636000D01*
X187021000Y-93655000D01*
X186977000Y-93675000D01*
X186935000Y-93698000D01*
X186894000Y-93723000D01*
X186854000Y-93751000D01*
X186816000Y-93780000D01*
X186779000Y-93811000D01*
X186744000Y-93844000D01*
X186711000Y-93879000D01*
X186680000Y-93916000D01*
X186651000Y-93954000D01*
X186623000Y-93994000D01*
X186598000Y-94035000D01*
X186575000Y-94077000D01*
X186555000Y-94121000D01*
X186536000Y-94165000D01*
X186520000Y-94211000D01*
X186506000Y-94257000D01*
X186495000Y-94304000D01*
X186486000Y-94351000D01*
X186480000Y-94399000D01*
X186476000Y-94447000D01*
X186475000Y-94495000D01*
X186475000Y-94505000D01*
X186476000Y-94553000D01*
X186480000Y-94601000D01*
X186486000Y-94649000D01*
X186495000Y-94696000D01*
X186506000Y-94743000D01*
X186520000Y-94789000D01*
X186536000Y-94835000D01*
X186555000Y-94879000D01*
X186575000Y-94923000D01*
X186598000Y-94965000D01*
X186623000Y-95006000D01*
X186651000Y-95046000D01*
X186680000Y-95084000D01*
X186711000Y-95121000D01*
X186744000Y-95156000D01*
X186779000Y-95189000D01*
X186816000Y-95220000D01*
X186854000Y-95249000D01*
X186894000Y-95277000D01*
X186935000Y-95302000D01*
X186977000Y-95325000D01*
X187021000Y-95345000D01*
X187065000Y-95364000D01*
X187111000Y-95380000D01*
X187157000Y-95394000D01*
X187204000Y-95405000D01*
X187251000Y-95414000D01*
X187299000Y-95420000D01*
X187347000Y-95424000D01*
X187395000Y-95425000D01*
X187395000Y-96150000D01*
X185480000Y-96150000D01*
X185480000Y-92850000D01*
X187395000Y-92850000D01*
X187395000Y-93575000D01*
G37*
X187395000Y-93575000D02*
X187347000Y-93576000D01*
X187299000Y-93580000D01*
X187251000Y-93586000D01*
X187204000Y-93595000D01*
X187157000Y-93606000D01*
X187111000Y-93620000D01*
X187065000Y-93636000D01*
X187021000Y-93655000D01*
X186977000Y-93675000D01*
X186935000Y-93698000D01*
X186894000Y-93723000D01*
X186854000Y-93751000D01*
X186816000Y-93780000D01*
X186779000Y-93811000D01*
X186744000Y-93844000D01*
X186711000Y-93879000D01*
X186680000Y-93916000D01*
X186651000Y-93954000D01*
X186623000Y-93994000D01*
X186598000Y-94035000D01*
X186575000Y-94077000D01*
X186555000Y-94121000D01*
X186536000Y-94165000D01*
X186520000Y-94211000D01*
X186506000Y-94257000D01*
X186495000Y-94304000D01*
X186486000Y-94351000D01*
X186480000Y-94399000D01*
X186476000Y-94447000D01*
X186475000Y-94495000D01*
X186475000Y-94505000D01*
X186476000Y-94553000D01*
X186480000Y-94601000D01*
X186486000Y-94649000D01*
X186495000Y-94696000D01*
X186506000Y-94743000D01*
X186520000Y-94789000D01*
X186536000Y-94835000D01*
X186555000Y-94879000D01*
X186575000Y-94923000D01*
X186598000Y-94965000D01*
X186623000Y-95006000D01*
X186651000Y-95046000D01*
X186680000Y-95084000D01*
X186711000Y-95121000D01*
X186744000Y-95156000D01*
X186779000Y-95189000D01*
X186816000Y-95220000D01*
X186854000Y-95249000D01*
X186894000Y-95277000D01*
X186935000Y-95302000D01*
X186977000Y-95325000D01*
X187021000Y-95345000D01*
X187065000Y-95364000D01*
X187111000Y-95380000D01*
X187157000Y-95394000D01*
X187204000Y-95405000D01*
X187251000Y-95414000D01*
X187299000Y-95420000D01*
X187347000Y-95424000D01*
X187395000Y-95425000D01*
X187395000Y-96150000D01*
X185480000Y-96150000D01*
X185480000Y-92850000D01*
X187395000Y-92850000D01*
X187395000Y-93575000D01*
G36*
X173710000Y-97100000D02*
G01*
X171405000Y-97100000D01*
X171405000Y-95425000D01*
X171453000Y-95424000D01*
X171501000Y-95420000D01*
X171549000Y-95414000D01*
X171596000Y-95405000D01*
X171643000Y-95394000D01*
X171689000Y-95380000D01*
X171735000Y-95364000D01*
X171779000Y-95345000D01*
X171823000Y-95325000D01*
X171865000Y-95302000D01*
X171906000Y-95277000D01*
X171946000Y-95249000D01*
X171984000Y-95220000D01*
X172021000Y-95189000D01*
X172056000Y-95156000D01*
X172089000Y-95121000D01*
X172120000Y-95084000D01*
X172149000Y-95046000D01*
X172177000Y-95006000D01*
X172202000Y-94965000D01*
X172225000Y-94923000D01*
X172245000Y-94879000D01*
X172264000Y-94835000D01*
X172280000Y-94789000D01*
X172294000Y-94743000D01*
X172305000Y-94696000D01*
X172314000Y-94649000D01*
X172320000Y-94601000D01*
X172324000Y-94553000D01*
X172325000Y-94505000D01*
X172325000Y-94495000D01*
X172324000Y-94447000D01*
X172320000Y-94399000D01*
X172314000Y-94351000D01*
X172305000Y-94304000D01*
X172294000Y-94257000D01*
X172280000Y-94211000D01*
X172264000Y-94165000D01*
X172245000Y-94121000D01*
X172225000Y-94077000D01*
X172202000Y-94035000D01*
X172177000Y-93994000D01*
X172149000Y-93954000D01*
X172120000Y-93916000D01*
X172089000Y-93879000D01*
X172056000Y-93844000D01*
X172021000Y-93811000D01*
X171984000Y-93780000D01*
X171946000Y-93751000D01*
X171906000Y-93723000D01*
X171865000Y-93698000D01*
X171823000Y-93675000D01*
X171779000Y-93655000D01*
X171735000Y-93636000D01*
X171689000Y-93620000D01*
X171643000Y-93606000D01*
X171596000Y-93595000D01*
X171549000Y-93586000D01*
X171501000Y-93580000D01*
X171453000Y-93576000D01*
X171405000Y-93575000D01*
X171405000Y-91900000D01*
X173710000Y-91900000D01*
X173710000Y-97100000D01*
G37*
X173710000Y-97100000D02*
X171405000Y-97100000D01*
X171405000Y-95425000D01*
X171453000Y-95424000D01*
X171501000Y-95420000D01*
X171549000Y-95414000D01*
X171596000Y-95405000D01*
X171643000Y-95394000D01*
X171689000Y-95380000D01*
X171735000Y-95364000D01*
X171779000Y-95345000D01*
X171823000Y-95325000D01*
X171865000Y-95302000D01*
X171906000Y-95277000D01*
X171946000Y-95249000D01*
X171984000Y-95220000D01*
X172021000Y-95189000D01*
X172056000Y-95156000D01*
X172089000Y-95121000D01*
X172120000Y-95084000D01*
X172149000Y-95046000D01*
X172177000Y-95006000D01*
X172202000Y-94965000D01*
X172225000Y-94923000D01*
X172245000Y-94879000D01*
X172264000Y-94835000D01*
X172280000Y-94789000D01*
X172294000Y-94743000D01*
X172305000Y-94696000D01*
X172314000Y-94649000D01*
X172320000Y-94601000D01*
X172324000Y-94553000D01*
X172325000Y-94505000D01*
X172325000Y-94495000D01*
X172324000Y-94447000D01*
X172320000Y-94399000D01*
X172314000Y-94351000D01*
X172305000Y-94304000D01*
X172294000Y-94257000D01*
X172280000Y-94211000D01*
X172264000Y-94165000D01*
X172245000Y-94121000D01*
X172225000Y-94077000D01*
X172202000Y-94035000D01*
X172177000Y-93994000D01*
X172149000Y-93954000D01*
X172120000Y-93916000D01*
X172089000Y-93879000D01*
X172056000Y-93844000D01*
X172021000Y-93811000D01*
X171984000Y-93780000D01*
X171946000Y-93751000D01*
X171906000Y-93723000D01*
X171865000Y-93698000D01*
X171823000Y-93675000D01*
X171779000Y-93655000D01*
X171735000Y-93636000D01*
X171689000Y-93620000D01*
X171643000Y-93606000D01*
X171596000Y-93595000D01*
X171549000Y-93586000D01*
X171501000Y-93580000D01*
X171453000Y-93576000D01*
X171405000Y-93575000D01*
X171405000Y-91900000D01*
X173710000Y-91900000D01*
X173710000Y-97100000D01*
G36*
X189720000Y-96150000D02*
G01*
X187400000Y-96150000D01*
X187400000Y-95425000D01*
X187448000Y-95424000D01*
X187497000Y-95420000D01*
X187545000Y-95414000D01*
X187592000Y-95405000D01*
X187639000Y-95393000D01*
X187686000Y-95380000D01*
X187731000Y-95364000D01*
X187776000Y-95345000D01*
X187820000Y-95324000D01*
X187863000Y-95301000D01*
X187904000Y-95276000D01*
X187944000Y-95248000D01*
X187982000Y-95219000D01*
X188019000Y-95187000D01*
X188054000Y-95154000D01*
X188087000Y-95119000D01*
X188119000Y-95082000D01*
X188148000Y-95044000D01*
X188176000Y-95004000D01*
X188201000Y-94962000D01*
X188224000Y-94920000D01*
X188245000Y-94876000D01*
X188264000Y-94831000D01*
X188280000Y-94786000D01*
X188293000Y-94739000D01*
X188305000Y-94692000D01*
X188314000Y-94645000D01*
X188320000Y-94597000D01*
X188324000Y-94548000D01*
X188325000Y-94500000D01*
X188324000Y-94452000D01*
X188320000Y-94403000D01*
X188314000Y-94355000D01*
X188305000Y-94308000D01*
X188293000Y-94261000D01*
X188280000Y-94214000D01*
X188264000Y-94169000D01*
X188245000Y-94124000D01*
X188224000Y-94080000D01*
X188201000Y-94038000D01*
X188176000Y-93996000D01*
X188148000Y-93956000D01*
X188119000Y-93918000D01*
X188087000Y-93881000D01*
X188054000Y-93846000D01*
X188019000Y-93813000D01*
X187982000Y-93781000D01*
X187944000Y-93752000D01*
X187904000Y-93724000D01*
X187863000Y-93699000D01*
X187820000Y-93676000D01*
X187776000Y-93655000D01*
X187731000Y-93636000D01*
X187686000Y-93620000D01*
X187639000Y-93607000D01*
X187592000Y-93595000D01*
X187545000Y-93586000D01*
X187497000Y-93580000D01*
X187448000Y-93576000D01*
X187400000Y-93575000D01*
X187400000Y-92850000D01*
X189720000Y-92850000D01*
X189720000Y-96150000D01*
G37*
X189720000Y-96150000D02*
X187400000Y-96150000D01*
X187400000Y-95425000D01*
X187448000Y-95424000D01*
X187497000Y-95420000D01*
X187545000Y-95414000D01*
X187592000Y-95405000D01*
X187639000Y-95393000D01*
X187686000Y-95380000D01*
X187731000Y-95364000D01*
X187776000Y-95345000D01*
X187820000Y-95324000D01*
X187863000Y-95301000D01*
X187904000Y-95276000D01*
X187944000Y-95248000D01*
X187982000Y-95219000D01*
X188019000Y-95187000D01*
X188054000Y-95154000D01*
X188087000Y-95119000D01*
X188119000Y-95082000D01*
X188148000Y-95044000D01*
X188176000Y-95004000D01*
X188201000Y-94962000D01*
X188224000Y-94920000D01*
X188245000Y-94876000D01*
X188264000Y-94831000D01*
X188280000Y-94786000D01*
X188293000Y-94739000D01*
X188305000Y-94692000D01*
X188314000Y-94645000D01*
X188320000Y-94597000D01*
X188324000Y-94548000D01*
X188325000Y-94500000D01*
X188324000Y-94452000D01*
X188320000Y-94403000D01*
X188314000Y-94355000D01*
X188305000Y-94308000D01*
X188293000Y-94261000D01*
X188280000Y-94214000D01*
X188264000Y-94169000D01*
X188245000Y-94124000D01*
X188224000Y-94080000D01*
X188201000Y-94038000D01*
X188176000Y-93996000D01*
X188148000Y-93956000D01*
X188119000Y-93918000D01*
X188087000Y-93881000D01*
X188054000Y-93846000D01*
X188019000Y-93813000D01*
X187982000Y-93781000D01*
X187944000Y-93752000D01*
X187904000Y-93724000D01*
X187863000Y-93699000D01*
X187820000Y-93676000D01*
X187776000Y-93655000D01*
X187731000Y-93636000D01*
X187686000Y-93620000D01*
X187639000Y-93607000D01*
X187592000Y-93595000D01*
X187545000Y-93586000D01*
X187497000Y-93580000D01*
X187448000Y-93576000D01*
X187400000Y-93575000D01*
X187400000Y-92850000D01*
X189720000Y-92850000D01*
X189720000Y-96150000D01*
G36*
X171400000Y-93575000D02*
G01*
X171352000Y-93576000D01*
X171303000Y-93580000D01*
X171255000Y-93586000D01*
X171208000Y-93595000D01*
X171161000Y-93607000D01*
X171114000Y-93620000D01*
X171069000Y-93636000D01*
X171024000Y-93655000D01*
X170980000Y-93676000D01*
X170937000Y-93699000D01*
X170896000Y-93724000D01*
X170856000Y-93752000D01*
X170818000Y-93781000D01*
X170781000Y-93813000D01*
X170746000Y-93846000D01*
X170713000Y-93881000D01*
X170681000Y-93918000D01*
X170652000Y-93956000D01*
X170624000Y-93996000D01*
X170599000Y-94038000D01*
X170576000Y-94080000D01*
X170555000Y-94124000D01*
X170536000Y-94169000D01*
X170520000Y-94214000D01*
X170507000Y-94261000D01*
X170495000Y-94308000D01*
X170486000Y-94355000D01*
X170480000Y-94403000D01*
X170476000Y-94452000D01*
X170475000Y-94500000D01*
X170476000Y-94548000D01*
X170480000Y-94597000D01*
X170486000Y-94645000D01*
X170495000Y-94692000D01*
X170507000Y-94739000D01*
X170520000Y-94786000D01*
X170536000Y-94831000D01*
X170555000Y-94876000D01*
X170576000Y-94920000D01*
X170599000Y-94962000D01*
X170624000Y-95004000D01*
X170652000Y-95044000D01*
X170681000Y-95082000D01*
X170713000Y-95119000D01*
X170746000Y-95154000D01*
X170781000Y-95187000D01*
X170818000Y-95219000D01*
X170856000Y-95248000D01*
X170896000Y-95276000D01*
X170937000Y-95301000D01*
X170980000Y-95324000D01*
X171024000Y-95345000D01*
X171069000Y-95364000D01*
X171114000Y-95380000D01*
X171161000Y-95393000D01*
X171208000Y-95405000D01*
X171255000Y-95414000D01*
X171303000Y-95420000D01*
X171352000Y-95424000D01*
X171400000Y-95425000D01*
X171400000Y-97100000D01*
X169470000Y-97100000D01*
X169470000Y-91900000D01*
X171400000Y-91900000D01*
X171400000Y-93575000D01*
G37*
X171400000Y-93575000D02*
X171352000Y-93576000D01*
X171303000Y-93580000D01*
X171255000Y-93586000D01*
X171208000Y-93595000D01*
X171161000Y-93607000D01*
X171114000Y-93620000D01*
X171069000Y-93636000D01*
X171024000Y-93655000D01*
X170980000Y-93676000D01*
X170937000Y-93699000D01*
X170896000Y-93724000D01*
X170856000Y-93752000D01*
X170818000Y-93781000D01*
X170781000Y-93813000D01*
X170746000Y-93846000D01*
X170713000Y-93881000D01*
X170681000Y-93918000D01*
X170652000Y-93956000D01*
X170624000Y-93996000D01*
X170599000Y-94038000D01*
X170576000Y-94080000D01*
X170555000Y-94124000D01*
X170536000Y-94169000D01*
X170520000Y-94214000D01*
X170507000Y-94261000D01*
X170495000Y-94308000D01*
X170486000Y-94355000D01*
X170480000Y-94403000D01*
X170476000Y-94452000D01*
X170475000Y-94500000D01*
X170476000Y-94548000D01*
X170480000Y-94597000D01*
X170486000Y-94645000D01*
X170495000Y-94692000D01*
X170507000Y-94739000D01*
X170520000Y-94786000D01*
X170536000Y-94831000D01*
X170555000Y-94876000D01*
X170576000Y-94920000D01*
X170599000Y-94962000D01*
X170624000Y-95004000D01*
X170652000Y-95044000D01*
X170681000Y-95082000D01*
X170713000Y-95119000D01*
X170746000Y-95154000D01*
X170781000Y-95187000D01*
X170818000Y-95219000D01*
X170856000Y-95248000D01*
X170896000Y-95276000D01*
X170937000Y-95301000D01*
X170980000Y-95324000D01*
X171024000Y-95345000D01*
X171069000Y-95364000D01*
X171114000Y-95380000D01*
X171161000Y-95393000D01*
X171208000Y-95405000D01*
X171255000Y-95414000D01*
X171303000Y-95420000D01*
X171352000Y-95424000D01*
X171400000Y-95425000D01*
X171400000Y-97100000D01*
X169470000Y-97100000D01*
X169470000Y-91900000D01*
X171400000Y-91900000D01*
X171400000Y-93575000D01*
%TD*%
D11*
%TO.P,J8,1,Pin_1*%
%TO.N,/V_Reg_3.3_5V2/3{slash}#5*%
X166325000Y-78025000D03*
D12*
%TO.P,J8,2,Pin_2*%
%TO.N,/V_Reg_3.3_5V2/#STBY*%
X163785000Y-78025000D03*
%TO.P,J8,3,Pin_3*%
%TO.N,/V_Reg_3.3_5V2/#SHDN*%
X161245000Y-78025000D03*
%TD*%
D11*
%TO.P,J7,1,Pin_1*%
%TO.N,/V_Reg_3.3_5V3/3{slash}#5*%
X175659574Y-78235000D03*
D12*
%TO.P,J7,2,Pin_2*%
%TO.N,/V_Reg_3.3_5V3/#STBY*%
X175659574Y-75695000D03*
%TO.P,J7,3,Pin_3*%
%TO.N,/V_Reg_3.3_5V3/#SHDN*%
X175659574Y-73155000D03*
%TD*%
D11*
%TO.P,J6,1,Pin_1*%
%TO.N,/V_Reg_3.3_5V1/3{slash}#5*%
X133560000Y-81525000D03*
D12*
%TO.P,J6,2,Pin_2*%
%TO.N,/V_Reg_3.3_5V1/#STBY*%
X131020000Y-81525000D03*
%TO.P,J6,3,Pin_3*%
%TO.N,/V_Reg_3.3_5V1/#SHDN*%
X128480000Y-81525000D03*
%TD*%
D13*
%TO.P,C14,1*%
%TO.N,Net-(C14-Pad1)*%
X187911250Y-57887500D03*
%TO.P,C14,2*%
%TO.N,GND*%
X187911250Y-59612500D03*
%TD*%
%TO.P,C2,1*%
%TO.N,/Bat_Reg_1/VIN*%
X121337500Y-57937500D03*
%TO.P,C2,2*%
%TO.N,GND*%
X121337500Y-59662500D03*
%TD*%
D14*
%TO.P,BT4,P1_1*%
%TO.N,GND*%
X171400000Y-112000000D03*
%TO.P,BT4,P1_2*%
X187400000Y-112000000D03*
%TD*%
D15*
%TO.P,C9,1*%
%TO.N,/Bat_Reg_3/VIN*%
X179161250Y-64862500D03*
%TO.P,C9,2*%
%TO.N,GND*%
X179161250Y-63137500D03*
%TD*%
D11*
%TO.P,J11,1,Pin_1*%
%TO.N,GND*%
X165665000Y-53790000D03*
D12*
%TO.P,J11,2,Pin_2*%
%TO.N,Net-(D3-Pad2)*%
X165665000Y-51250000D03*
%TO.P,J11,3,Pin_3*%
%TO.N,GND*%
X163125000Y-53790000D03*
%TO.P,J11,4,Pin_4*%
%TO.N,Net-(D2-Pad2)*%
X163125000Y-51250000D03*
%TO.P,J11,5,Pin_5*%
%TO.N,GND*%
X160585000Y-53790000D03*
%TO.P,J11,6,Pin_6*%
%TO.N,Net-(D1-Pad2)*%
X160585000Y-51250000D03*
%TD*%
D11*
%TO.P,J12,1,Pin_1*%
%TO.N,GND*%
X152150000Y-53790000D03*
D12*
%TO.P,J12,2,Pin_2*%
%TO.N,Net-(D3-Pad2)*%
X152150000Y-51250000D03*
%TO.P,J12,3,Pin_3*%
%TO.N,GND*%
X149610000Y-53790000D03*
%TO.P,J12,4,Pin_4*%
%TO.N,Net-(D2-Pad2)*%
X149610000Y-51250000D03*
%TO.P,J12,5,Pin_5*%
%TO.N,GND*%
X147070000Y-53790000D03*
%TO.P,J12,6,Pin_6*%
%TO.N,Net-(D1-Pad2)*%
X147070000Y-51250000D03*
%TD*%
D13*
%TO.P,C19,1*%
%TO.N,Net-(C19-Pad1)*%
X156951554Y-72887500D03*
%TO.P,C19,2*%
%TO.N,Net-(C19-Pad2)*%
X156951554Y-74612500D03*
%TD*%
D16*
%TO.P,Q2,1*%
%TO.N,Net-(Q2-Pad1)*%
X113375000Y-59387500D03*
%TO.P,Q2,2*%
%TO.N,Net-(L1-Pad2)*%
X115275000Y-59387500D03*
%TO.P,Q2,3*%
%TO.N,Net-(C7-Pad1)*%
X114325000Y-57187500D03*
%TD*%
D15*
%TO.P,C4,1*%
%TO.N,Net-(C4-Pad1)*%
X119825000Y-59650000D03*
%TO.P,C4,2*%
%TO.N,GND*%
X119825000Y-57925000D03*
%TD*%
D13*
%TO.P,C21,1*%
%TO.N,Net-(C21-Pad1)*%
X155451554Y-72887500D03*
%TO.P,C21,2*%
%TO.N,GND*%
X155451554Y-74612500D03*
%TD*%
D17*
%TO.P,H2,1,1*%
%TO.N,GND*%
X111900000Y-136500000D03*
%TD*%
D11*
%TO.P,J5,1,Pin_1*%
%TO.N,/V_Reg_3.3_5V1/Vout*%
X111400000Y-78000000D03*
D12*
%TO.P,J5,2,Pin_2*%
%TO.N,/V_Reg_3.3_5V2/Vout*%
X111400000Y-80540000D03*
%TO.P,J5,3,Pin_3*%
%TO.N,/V_Reg_3.3_5V3/Vout*%
X111400000Y-83080000D03*
%TD*%
D13*
%TO.P,C11,1*%
%TO.N,Net-(C11-Pad1)*%
X180661250Y-63137500D03*
%TO.P,C11,2*%
%TO.N,GND*%
X180661250Y-64862500D03*
%TD*%
D15*
%TO.P,C20,1*%
%TO.N,/Bat_Reg_2/V_Bat*%
X149451554Y-80112500D03*
%TO.P,C20,2*%
%TO.N,GND*%
X149451554Y-78387500D03*
%TD*%
D17*
%TO.P,H1,1,1*%
%TO.N,GND*%
X191900000Y-136500000D03*
%TD*%
D18*
%TO.P,L5,1,1*%
%TO.N,/Bat_Reg_1/V_Bat*%
X125885000Y-68875000D03*
%TO.P,L5,2,2*%
%TO.N,Net-(D5-Pad2)*%
X125885000Y-70625000D03*
%TD*%
D11*
%TO.P,J15,1,Pin_1*%
%TO.N,GND*%
X152150000Y-60290000D03*
D12*
%TO.P,J15,2,Pin_2*%
%TO.N,Net-(D3-Pad2)*%
X152150000Y-57750000D03*
%TO.P,J15,3,Pin_3*%
%TO.N,GND*%
X149610000Y-60290000D03*
%TO.P,J15,4,Pin_4*%
%TO.N,Net-(D2-Pad2)*%
X149610000Y-57750000D03*
%TO.P,J15,5,Pin_5*%
%TO.N,GND*%
X147070000Y-60290000D03*
%TO.P,J15,6,Pin_6*%
%TO.N,Net-(D1-Pad2)*%
X147070000Y-57750000D03*
%TD*%
D19*
%TO.P,R11,1*%
%TO.N,/Bat_Reg_2/VIN*%
X144951554Y-80162500D03*
%TO.P,R11,2*%
%TO.N,Net-(C15-Pad1)*%
X144951554Y-78337500D03*
%TD*%
D17*
%TO.P,H3,1,1*%
%TO.N,GND*%
X111900000Y-50500000D03*
%TD*%
D13*
%TO.P,C12,1*%
%TO.N,Net-(C12-Pad1)*%
X189411250Y-57887500D03*
%TO.P,C12,2*%
%TO.N,Net-(C12-Pad2)*%
X189411250Y-59612500D03*
%TD*%
D17*
%TO.P,H4,1,1*%
%TO.N,GND*%
X191900000Y-50500000D03*
%TD*%
D20*
%TO.P,R10,1*%
%TO.N,/Bat_Reg_3/V_Bat*%
X183661250Y-63087500D03*
%TO.P,R10,2*%
%TO.N,Net-(L2-Pad2)*%
X183661250Y-64912500D03*
%TD*%
D18*
%TO.P,L2,1,1*%
%TO.N,Net-(C12-Pad2)*%
X188661250Y-62875000D03*
%TO.P,L2,2,2*%
%TO.N,Net-(L2-Pad2)*%
X188661250Y-64625000D03*
%TD*%
D15*
%TO.P,C1,1*%
%TO.N,Net-(C1-Pad1)*%
X122737500Y-54562500D03*
%TO.P,C1,2*%
%TO.N,GND*%
X122737500Y-52837500D03*
%TD*%
D21*
%TO.P,C32,1*%
%TO.N,Net-(C32-Pad1)*%
X188297074Y-73610000D03*
%TO.P,C32,2*%
%TO.N,GND*%
X186572074Y-73610000D03*
%TD*%
D13*
%TO.P,C6,1*%
%TO.N,/Bat_Reg_1/V_Bat*%
X118325000Y-57925000D03*
%TO.P,C6,2*%
%TO.N,GND*%
X118325000Y-59650000D03*
%TD*%
D15*
%TO.P,C16,1*%
%TO.N,/Bat_Reg_2/VIN*%
X146451554Y-80112500D03*
%TO.P,C16,2*%
%TO.N,GND*%
X146451554Y-78387500D03*
%TD*%
D22*
%TO.P,Q3,1*%
%TO.N,/Bat_Reg_3/VIN*%
X178491250Y-48595000D03*
%TO.P,Q3,2*%
X178491250Y-49865000D03*
%TO.P,Q3,3*%
X178491250Y-51135000D03*
%TO.P,Q3,4*%
%TO.N,Net-(Q3-Pad4)*%
X178491250Y-52405000D03*
D23*
%TO.P,Q3,5_8*%
%TO.N,Net-(Q3-Pad5_8)*%
X181161250Y-50500000D03*
%TD*%
D14*
%TO.P,BT6,P1_1*%
%TO.N,GND*%
X171400000Y-129500000D03*
%TO.P,BT6,P1_2*%
X187400000Y-129500000D03*
%TD*%
D24*
%TO.P,U5,1,LX*%
%TO.N,Net-(D5-Pad2)*%
X127455000Y-77985426D03*
%TO.P,U5,2,PGND*%
%TO.N,GND*%
X128725000Y-77985426D03*
%TO.P,U5,3,ILIM*%
%TO.N,Net-(U5-Pad11)*%
X129995000Y-77985426D03*
%TO.P,U5,4,~{SHDN}*%
%TO.N,/V_Reg_3.3_5V1/#SHDN*%
X131265000Y-77985426D03*
%TO.P,U5,5,~{STBY}*%
%TO.N,/V_Reg_3.3_5V1/#STBY*%
X132535000Y-77985426D03*
%TO.P,U5,6,3/~{5}*%
%TO.N,/V_Reg_3.3_5V1/3{slash}#5*%
X133805000Y-77985426D03*
%TO.P,U5,7,N/~{E}*%
%TO.N,GND*%
X135075000Y-77985426D03*
%TO.P,U5,8,LBO*%
%TO.N,unconnected-(U5-Pad8)*%
X136345000Y-77985426D03*
%TO.P,U5,9,OUT*%
%TO.N,/V_Reg_3.3_5V1/Vout*%
X136345000Y-73035426D03*
%TO.P,U5,10,LBI-*%
%TO.N,Net-(U5-Pad10)*%
X135075000Y-73035426D03*
%TO.P,U5,11,LBI+*%
%TO.N,Net-(U5-Pad11)*%
X133805000Y-73035426D03*
%TO.P,U5,12,PS*%
X132535000Y-73035426D03*
%TO.P,U5,13,REF*%
%TO.N,Net-(U5-Pad10)*%
X131265000Y-73035426D03*
%TO.P,U5,14,GND*%
%TO.N,GND*%
X129995000Y-73035426D03*
%TO.P,U5,15,PGND*%
X128725000Y-73035426D03*
%TO.P,U5,16,LX*%
%TO.N,Net-(D5-Pad2)*%
X127455000Y-73035426D03*
%TD*%
D25*
%TO.P,R14,1*%
%TO.N,GND*%
X144539054Y-74000000D03*
%TO.P,R14,2*%
%TO.N,Net-(R14-Pad2)*%
X146364054Y-74000000D03*
%TD*%
D26*
%TO.P,C10,1*%
%TO.N,GND*%
X179298750Y-55250000D03*
%TO.P,C10,2*%
%TO.N,Net-(C10-Pad2)*%
X181023750Y-55250000D03*
%TD*%
D27*
%TO.P,R12,1*%
%TO.N,Net-(R12-Pad1)*%
X146364054Y-72000000D03*
%TO.P,R12,2*%
%TO.N,/Bat_Reg_2/TH*%
X144539054Y-72000000D03*
%TD*%
D18*
%TO.P,L3,1,1*%
%TO.N,Net-(C19-Pad2)*%
X155951554Y-78375000D03*
%TO.P,L3,2,2*%
%TO.N,Net-(L3-Pad2)*%
X155951554Y-80125000D03*
%TD*%
D27*
%TO.P,R8,1*%
%TO.N,Net-(C14-Pad1)*%
X185823750Y-54250000D03*
%TO.P,R8,2*%
%TO.N,Net-(Q3-Pad5_8)*%
X183998750Y-54250000D03*
%TD*%
D11*
%TO.P,J13,1,Pin_1*%
%TO.N,GND*%
X138720000Y-53790000D03*
D12*
%TO.P,J13,2,Pin_2*%
%TO.N,Net-(D3-Pad2)*%
X138720000Y-51250000D03*
%TO.P,J13,3,Pin_3*%
%TO.N,GND*%
X136180000Y-53790000D03*
%TO.P,J13,4,Pin_4*%
%TO.N,Net-(D2-Pad2)*%
X136180000Y-51250000D03*
%TO.P,J13,5,Pin_5*%
%TO.N,GND*%
X133640000Y-53790000D03*
%TO.P,J13,6,Pin_6*%
%TO.N,Net-(D1-Pad2)*%
X133640000Y-51250000D03*
%TD*%
D28*
%TO.P,U3,1,BOOST*%
%TO.N,Net-(C19-Pad1)*%
X152701554Y-72315000D03*
%TO.P,U3,2,INTVCC*%
%TO.N,Net-(C18-Pad1)*%
X152201554Y-72315000D03*
%TO.P,U3,3,VOUTA*%
%TO.N,Net-(C21-Pad1)*%
X151701554Y-72315000D03*
%TO.P,U3,4,CLN*%
X151201554Y-72315000D03*
%TO.P,U3,5,CLP*%
%TO.N,Net-(Q5-Pad5_8)*%
X150701554Y-72315000D03*
%TO.P,U3,6,INFET*%
%TO.N,Net-(Q5-Pad4)*%
X150201554Y-72315000D03*
%TO.P,U3,7,VIN*%
%TO.N,/Bat_Reg_2/VIN*%
X149701554Y-72315000D03*
%TO.P,U3,8,VCC2P5*%
%TO.N,Net-(C17-Pad2)*%
X149201554Y-72315000D03*
D29*
%TO.P,U3,9,NTCBIAS*%
%TO.N,Net-(R12-Pad1)*%
X148516554Y-73000000D03*
%TO.P,U3,10,NTC*%
%TO.N,/Bat_Reg_2/TH*%
X148516554Y-73500000D03*
%TO.P,U3,11,RT*%
%TO.N,Net-(R14-Pad2)*%
X148516554Y-74000000D03*
%TO.P,U3,12,/SMBALERT*%
%TO.N,/Bat_Reg_2/{slash}SMBALERT*%
X148516554Y-74500000D03*
%TO.P,U3,13,SCL*%
%TO.N,/Bat_Reg_2/SCL*%
X148516554Y-75000000D03*
%TO.P,U3,14,SDA*%
%TO.N,/Bat_Reg_2/SDA*%
X148516554Y-75500000D03*
D30*
%TO.P,U3,15,DVCC*%
%TO.N,/Bat_Reg_2/DVCC*%
X149201554Y-76185000D03*
%TO.P,U3,16,SYNC*%
%TO.N,GND*%
X149701554Y-76185000D03*
%TO.P,U3,17,CELLS0*%
%TO.N,Net-(C18-Pad1)*%
X150201554Y-76185000D03*
%TO.P,U3,18,CELLS1*%
X150701554Y-76185000D03*
%TO.P,U3,19,BATSENS+*%
%TO.N,/Bat_Reg_2/V_Bat*%
X151201554Y-76185000D03*
%TO.P,U3,20,CSN*%
X151701554Y-76185000D03*
%TO.P,U3,21,CSP*%
%TO.N,Net-(L3-Pad2)*%
X152201554Y-76185000D03*
%TO.P,U3,22,BATFET*%
%TO.N,Net-(Q6-Pad1)*%
X152701554Y-76185000D03*
D31*
%TO.P,U3,23,PGND*%
%TO.N,GND*%
X153386554Y-75500000D03*
%TO.P,U3,24,PGND*%
X153386554Y-75000000D03*
%TO.P,U3,25,SW*%
%TO.N,Net-(C19-Pad2)*%
X153386554Y-74500000D03*
%TO.P,U3,26,SW*%
X153386554Y-74000000D03*
%TO.P,U3,27,VOUT*%
%TO.N,Net-(C21-Pad1)*%
X153386554Y-73500000D03*
%TO.P,U3,28,VOUT*%
X153386554Y-73000000D03*
D32*
%TO.P,U3,29,AGND*%
%TO.N,GND*%
X150951554Y-74250000D03*
%TD*%
D18*
%TO.P,D5,1,K*%
%TO.N,Net-(C30-Pad1)*%
X127400000Y-68885426D03*
%TO.P,D5,2,A*%
%TO.N,Net-(D5-Pad2)*%
X127400000Y-70635426D03*
%TD*%
D14*
%TO.P,BT5,P1_1*%
%TO.N,/Bat_Reg_3/V_Bat*%
X134400000Y-129500000D03*
%TO.P,BT5,P1_2*%
X118400000Y-129500000D03*
%TD*%
D25*
%TO.P,R2,1*%
%TO.N,Net-(R2-Pad1)*%
X121412500Y-65787500D03*
%TO.P,R2,2*%
%TO.N,/Bat_Reg_1/TH*%
X123237500Y-65787500D03*
%TD*%
D16*
%TO.P,Q6,1*%
%TO.N,Net-(Q6-Pad1)*%
X154401554Y-78650000D03*
%TO.P,Q6,2*%
%TO.N,Net-(L3-Pad2)*%
X152501554Y-78650000D03*
%TO.P,Q6,3*%
%TO.N,Net-(C21-Pad1)*%
X153451554Y-80850000D03*
%TD*%
D24*
%TO.P,U7,1,LX*%
%TO.N,Net-(D7-Pad2)*%
X160130000Y-74475000D03*
%TO.P,U7,2,PGND*%
%TO.N,GND*%
X161400000Y-74475000D03*
%TO.P,U7,3,ILIM*%
%TO.N,Net-(U7-Pad11)*%
X162670000Y-74475000D03*
%TO.P,U7,4,~{SHDN}*%
%TO.N,/V_Reg_3.3_5V2/#SHDN*%
X163940000Y-74475000D03*
%TO.P,U7,5,~{STBY}*%
%TO.N,/V_Reg_3.3_5V2/#STBY*%
X165210000Y-74475000D03*
%TO.P,U7,6,3/~{5}*%
%TO.N,/V_Reg_3.3_5V2/3{slash}#5*%
X166480000Y-74475000D03*
%TO.P,U7,7,N/~{E}*%
%TO.N,GND*%
X167750000Y-74475000D03*
%TO.P,U7,8,LBO*%
%TO.N,unconnected-(U7-Pad8)*%
X169020000Y-74475000D03*
%TO.P,U7,9,OUT*%
%TO.N,/V_Reg_3.3_5V2/Vout*%
X169020000Y-69525000D03*
%TO.P,U7,10,LBI-*%
%TO.N,Net-(U7-Pad10)*%
X167750000Y-69525000D03*
%TO.P,U7,11,LBI+*%
%TO.N,Net-(U7-Pad11)*%
X166480000Y-69525000D03*
%TO.P,U7,12,PS*%
X165210000Y-69525000D03*
%TO.P,U7,13,REF*%
%TO.N,Net-(U7-Pad10)*%
X163940000Y-69525000D03*
%TO.P,U7,14,GND*%
%TO.N,GND*%
X162670000Y-69525000D03*
%TO.P,U7,15,PGND*%
X161400000Y-69525000D03*
%TO.P,U7,16,LX*%
%TO.N,Net-(D7-Pad2)*%
X160130000Y-69525000D03*
%TD*%
D33*
%TO.P,D2,1,K*%
%TO.N,/Bat_Reg_2/VIN*%
X134650000Y-65650000D03*
%TO.P,D2,2,A*%
%TO.N,Net-(D2-Pad2)*%
X134650000Y-63350000D03*
%TD*%
D34*
%TO.P,TH1,1*%
%TO.N,/Bat_Reg_1/TH*%
X152802500Y-95000000D03*
%TO.P,TH1,2*%
%TO.N,GND*%
X153997500Y-95000000D03*
%TD*%
D28*
%TO.P,U2,1,BOOST*%
%TO.N,Net-(C12-Pad1)*%
X185411250Y-56815000D03*
%TO.P,U2,2,INTVCC*%
%TO.N,Net-(C11-Pad1)*%
X184911250Y-56815000D03*
%TO.P,U2,3,VOUTA*%
%TO.N,Net-(C14-Pad1)*%
X184411250Y-56815000D03*
%TO.P,U2,4,CLN*%
X183911250Y-56815000D03*
%TO.P,U2,5,CLP*%
%TO.N,Net-(Q3-Pad5_8)*%
X183411250Y-56815000D03*
%TO.P,U2,6,INFET*%
%TO.N,Net-(Q3-Pad4)*%
X182911250Y-56815000D03*
%TO.P,U2,7,VIN*%
%TO.N,/Bat_Reg_3/VIN*%
X182411250Y-56815000D03*
%TO.P,U2,8,VCC2P5*%
%TO.N,Net-(C10-Pad2)*%
X181911250Y-56815000D03*
D29*
%TO.P,U2,9,NTCBIAS*%
%TO.N,Net-(R7-Pad1)*%
X181226250Y-57500000D03*
%TO.P,U2,10,NTC*%
%TO.N,/Bat_Reg_3/TH*%
X181226250Y-58000000D03*
%TO.P,U2,11,RT*%
%TO.N,Net-(R9-Pad2)*%
X181226250Y-58500000D03*
%TO.P,U2,12,/SMBALERT*%
%TO.N,/Bat_Reg_3/{slash}SMBALERT*%
X181226250Y-59000000D03*
%TO.P,U2,13,SCL*%
%TO.N,/Bat_Reg_3/SCL*%
X181226250Y-59500000D03*
%TO.P,U2,14,SDA*%
%TO.N,/Bat_Reg_3/SDA*%
X181226250Y-60000000D03*
D30*
%TO.P,U2,15,DVCC*%
%TO.N,/Bat_Reg_3/DVCC*%
X181911250Y-60685000D03*
%TO.P,U2,16,SYNC*%
%TO.N,GND*%
X182411250Y-60685000D03*
%TO.P,U2,17,CELLS0*%
%TO.N,Net-(C11-Pad1)*%
X182911250Y-60685000D03*
%TO.P,U2,18,CELLS1*%
X183411250Y-60685000D03*
%TO.P,U2,19,BATSENS+*%
%TO.N,/Bat_Reg_3/V_Bat*%
X183911250Y-60685000D03*
%TO.P,U2,20,CSN*%
X184411250Y-60685000D03*
%TO.P,U2,21,CSP*%
%TO.N,Net-(L2-Pad2)*%
X184911250Y-60685000D03*
%TO.P,U2,22,BATFET*%
%TO.N,Net-(Q4-Pad1)*%
X185411250Y-60685000D03*
D31*
%TO.P,U2,23,PGND*%
%TO.N,GND*%
X186096250Y-60000000D03*
%TO.P,U2,24,PGND*%
X186096250Y-59500000D03*
%TO.P,U2,25,SW*%
%TO.N,Net-(C12-Pad2)*%
X186096250Y-59000000D03*
%TO.P,U2,26,SW*%
X186096250Y-58500000D03*
%TO.P,U2,27,VOUT*%
%TO.N,Net-(C14-Pad1)*%
X186096250Y-58000000D03*
%TO.P,U2,28,VOUT*%
X186096250Y-57500000D03*
D32*
%TO.P,U2,29,AGND*%
%TO.N,GND*%
X183661250Y-58750000D03*
%TD*%
D18*
%TO.P,L7,1,1*%
%TO.N,/Bat_Reg_2/V_Bat*%
X158575000Y-65375000D03*
%TO.P,L7,2,2*%
%TO.N,Net-(D7-Pad2)*%
X158575000Y-67125000D03*
%TD*%
D20*
%TO.P,R1,1*%
%TO.N,/Bat_Reg_1/VIN*%
X122837500Y-57887500D03*
%TO.P,R1,2*%
%TO.N,Net-(C1-Pad1)*%
X122837500Y-59712500D03*
%TD*%
D13*
%TO.P,C18,1*%
%TO.N,Net-(C18-Pad1)*%
X147951554Y-78387500D03*
%TO.P,C18,2*%
%TO.N,GND*%
X147951554Y-80112500D03*
%TD*%
%TO.P,C34,1*%
%TO.N,Net-(C34-Pad1)*%
X161575000Y-65387500D03*
%TO.P,C34,2*%
%TO.N,GND*%
X161575000Y-67112500D03*
%TD*%
D21*
%TO.P,C29,1*%
%TO.N,/V_Reg_3.3_5V1/Vout*%
X136262500Y-70510426D03*
%TO.P,C29,2*%
%TO.N,GND*%
X134537500Y-70510426D03*
%TD*%
D14*
%TO.P,BT3,P1_1*%
%TO.N,/Bat_Reg_2/V_Bat*%
X134400000Y-112000000D03*
%TO.P,BT3,P1_2*%
X118400000Y-112000000D03*
%TD*%
D18*
%TO.P,D7,1,K*%
%TO.N,Net-(C34-Pad1)*%
X160075000Y-65375000D03*
%TO.P,D7,2,A*%
%TO.N,Net-(D7-Pad2)*%
X160075000Y-67125000D03*
%TD*%
D35*
%TO.P,U6,1,LX*%
%TO.N,Net-(D6-Pad2)*%
X179184574Y-72190000D03*
%TO.P,U6,2,PGND*%
%TO.N,GND*%
X179184574Y-73460000D03*
%TO.P,U6,3,ILIM*%
%TO.N,Net-(U6-Pad11)*%
X179184574Y-74730000D03*
%TO.P,U6,4,~{SHDN}*%
%TO.N,/V_Reg_3.3_5V3/#SHDN*%
X179184574Y-76000000D03*
%TO.P,U6,5,~{STBY}*%
%TO.N,/V_Reg_3.3_5V3/#STBY*%
X179184574Y-77270000D03*
%TO.P,U6,6,3/~{5}*%
%TO.N,/V_Reg_3.3_5V3/3{slash}#5*%
X179184574Y-78540000D03*
%TO.P,U6,7,N/~{E}*%
%TO.N,GND*%
X179184574Y-79810000D03*
%TO.P,U6,8,LBO*%
%TO.N,unconnected-(U6-Pad8)*%
X179184574Y-81080000D03*
%TO.P,U6,9,OUT*%
%TO.N,/V_Reg_3.3_5V3/Vout*%
X184134574Y-81080000D03*
%TO.P,U6,10,LBI-*%
%TO.N,Net-(U6-Pad10)*%
X184134574Y-79810000D03*
%TO.P,U6,11,LBI+*%
%TO.N,Net-(U6-Pad11)*%
X184134574Y-78540000D03*
%TO.P,U6,12,PS*%
X184134574Y-77270000D03*
%TO.P,U6,13,REF*%
%TO.N,Net-(U6-Pad10)*%
X184134574Y-76000000D03*
%TO.P,U6,14,GND*%
%TO.N,GND*%
X184134574Y-74730000D03*
%TO.P,U6,15,PGND*%
X184134574Y-73460000D03*
%TO.P,U6,16,LX*%
%TO.N,Net-(D6-Pad2)*%
X184134574Y-72190000D03*
%TD*%
D34*
%TO.P,TH2,1*%
%TO.N,/Bat_Reg_2/TH*%
X151802500Y-112500000D03*
%TO.P,TH2,2*%
%TO.N,GND*%
X152997500Y-112500000D03*
%TD*%
D15*
%TO.P,C13,1*%
%TO.N,/Bat_Reg_3/V_Bat*%
X182161250Y-64862500D03*
%TO.P,C13,2*%
%TO.N,GND*%
X182161250Y-63137500D03*
%TD*%
%TO.P,C15,1*%
%TO.N,Net-(C15-Pad1)*%
X142900000Y-84225000D03*
%TO.P,C15,2*%
%TO.N,GND*%
X142900000Y-82500000D03*
%TD*%
D25*
%TO.P,R3,1*%
%TO.N,Net-(C7-Pad1)*%
X114412500Y-68787500D03*
%TO.P,R3,2*%
%TO.N,Net-(Q1-Pad5_8)*%
X116237500Y-68787500D03*
%TD*%
D22*
%TO.P,Q1,1*%
%TO.N,/Bat_Reg_1/VIN*%
X121495000Y-74692500D03*
%TO.P,Q1,2*%
X121495000Y-73422500D03*
%TO.P,Q1,3*%
X121495000Y-72152500D03*
%TO.P,Q1,4*%
%TO.N,Net-(Q1-Pad4)*%
X121495000Y-70882500D03*
D36*
%TO.P,Q1,5_8*%
%TO.N,Net-(Q1-Pad5_8)*%
X118825000Y-72787500D03*
%TD*%
D20*
%TO.P,R15,1*%
%TO.N,/Bat_Reg_2/V_Bat*%
X150951554Y-78337500D03*
%TO.P,R15,2*%
%TO.N,Net-(L3-Pad2)*%
X150951554Y-80162500D03*
%TD*%
D15*
%TO.P,C7,1*%
%TO.N,Net-(C7-Pad1)*%
X112325000Y-65150000D03*
%TO.P,C7,2*%
%TO.N,GND*%
X112325000Y-63425000D03*
%TD*%
D26*
%TO.P,C31,1*%
%TO.N,/V_Reg_3.3_5V3/Vout*%
X186572074Y-81110000D03*
%TO.P,C31,2*%
%TO.N,GND*%
X188297074Y-81110000D03*
%TD*%
D14*
%TO.P,BT1,P1_1*%
%TO.N,/Bat_Reg_1/V_Bat*%
X134400000Y-94500000D03*
%TO.P,BT1,P1_2*%
X118400000Y-94500000D03*
%TD*%
D11*
%TO.P,J2,1,Pin_1*%
%TO.N,/Bat_Reg_3/DVCC*%
X174161250Y-65800000D03*
D12*
%TO.P,J2,2,Pin_2*%
%TO.N,/Bat_Reg_3/SDA*%
X174161250Y-63260000D03*
%TO.P,J2,3,Pin_3*%
%TO.N,/Bat_Reg_3/SCL*%
X174161250Y-60720000D03*
%TO.P,J2,4,Pin_4*%
%TO.N,/Bat_Reg_3/{slash}SMBALERT*%
X174161250Y-58180000D03*
%TD*%
D11*
%TO.P,J1,1,Pin_1*%
%TO.N,/Bat_Reg_1/DVCC*%
X119600000Y-49475000D03*
D12*
%TO.P,J1,2,Pin_2*%
%TO.N,/Bat_Reg_1/SDA*%
X122140000Y-49475000D03*
%TO.P,J1,3,Pin_3*%
%TO.N,/Bat_Reg_1/SCL*%
X124680000Y-49475000D03*
%TO.P,J1,4,Pin_4*%
%TO.N,/Bat_Reg_1/{slash}SMBALERT*%
X127220000Y-49475000D03*
%TD*%
D11*
%TO.P,J14,1,Pin_1*%
%TO.N,GND*%
X138720000Y-60290000D03*
D12*
%TO.P,J14,2,Pin_2*%
%TO.N,Net-(D3-Pad2)*%
X138720000Y-57750000D03*
%TO.P,J14,3,Pin_3*%
%TO.N,GND*%
X136180000Y-60290000D03*
%TO.P,J14,4,Pin_4*%
%TO.N,Net-(D2-Pad2)*%
X136180000Y-57750000D03*
%TO.P,J14,5,Pin_5*%
%TO.N,GND*%
X133640000Y-60290000D03*
%TO.P,J14,6,Pin_6*%
%TO.N,Net-(D1-Pad2)*%
X133640000Y-57750000D03*
%TD*%
D22*
%TO.P,Q5,1*%
%TO.N,/Bat_Reg_2/VIN*%
X145531554Y-64095000D03*
%TO.P,Q5,2*%
X145531554Y-65365000D03*
%TO.P,Q5,3*%
X145531554Y-66635000D03*
%TO.P,Q5,4*%
%TO.N,Net-(Q5-Pad4)*%
X145531554Y-67905000D03*
D23*
%TO.P,Q5,5_8*%
%TO.N,Net-(Q5-Pad5_8)*%
X148201554Y-66000000D03*
%TD*%
D19*
%TO.P,R6,1*%
%TO.N,/Bat_Reg_3/VIN*%
X177661250Y-64912500D03*
%TO.P,R6,2*%
%TO.N,Net-(C8-Pad1)*%
X177661250Y-63087500D03*
%TD*%
D13*
%TO.P,C8,1*%
%TO.N,Net-(C8-Pad1)*%
X177661250Y-68637500D03*
%TO.P,C8,2*%
%TO.N,GND*%
X177661250Y-70362500D03*
%TD*%
%TO.P,C30,1*%
%TO.N,Net-(C30-Pad1)*%
X128900000Y-68897926D03*
%TO.P,C30,2*%
%TO.N,GND*%
X128900000Y-70622926D03*
%TD*%
D26*
%TO.P,C17,1*%
%TO.N,GND*%
X146476554Y-70500000D03*
%TO.P,C17,2*%
%TO.N,Net-(C17-Pad2)*%
X148201554Y-70500000D03*
%TD*%
D11*
%TO.P,J3,1,Pin_1*%
%TO.N,/Bat_Reg_2/DVCC*%
X141176554Y-80050000D03*
D12*
%TO.P,J3,2,Pin_2*%
%TO.N,/Bat_Reg_2/SDA*%
X141176554Y-77510000D03*
%TO.P,J3,3,Pin_3*%
%TO.N,/Bat_Reg_2/SCL*%
X141176554Y-74970000D03*
%TO.P,J3,4,Pin_4*%
%TO.N,/Bat_Reg_2/{slash}SMBALERT*%
X141176554Y-72430000D03*
%TD*%
D14*
%TO.P,BT2,P1_1*%
%TO.N,GND*%
X171400000Y-94500000D03*
%TO.P,BT2,P1_2*%
X187400000Y-94500000D03*
%TD*%
D27*
%TO.P,R13,1*%
%TO.N,Net-(C21-Pad1)*%
X153364054Y-69750000D03*
%TO.P,R13,2*%
%TO.N,Net-(Q5-Pad5_8)*%
X151539054Y-69750000D03*
%TD*%
D37*
%TO.P,D6,1,K*%
%TO.N,Net-(C32-Pad1)*%
X188309574Y-72110000D03*
%TO.P,D6,2,A*%
%TO.N,Net-(D6-Pad2)*%
X186559574Y-72110000D03*
%TD*%
D38*
%TO.P,L1,1,1*%
%TO.N,Net-(C5-Pad2)*%
X111825000Y-60162500D03*
%TO.P,L1,2,2*%
%TO.N,Net-(L1-Pad2)*%
X111825000Y-58412500D03*
%TD*%
D37*
%TO.P,L6,1,1*%
%TO.N,/Bat_Reg_3/V_Bat*%
X188309574Y-70610000D03*
%TO.P,L6,2,2*%
%TO.N,Net-(D6-Pad2)*%
X186559574Y-70610000D03*
%TD*%
D25*
%TO.P,R9,1*%
%TO.N,GND*%
X177248750Y-59000000D03*
%TO.P,R9,2*%
%TO.N,Net-(R9-Pad2)*%
X179073750Y-59000000D03*
%TD*%
D16*
%TO.P,Q4,1*%
%TO.N,Net-(Q4-Pad1)*%
X187111250Y-63150000D03*
%TO.P,Q4,2*%
%TO.N,Net-(L2-Pad2)*%
X185211250Y-63150000D03*
%TO.P,Q4,3*%
%TO.N,Net-(C14-Pad1)*%
X186161250Y-65350000D03*
%TD*%
D15*
%TO.P,C33,1*%
%TO.N,/V_Reg_3.3_5V2/Vout*%
X169075000Y-67112500D03*
%TO.P,C33,2*%
%TO.N,GND*%
X169075000Y-65387500D03*
%TD*%
D21*
%TO.P,C3,1*%
%TO.N,GND*%
X120825000Y-67787500D03*
%TO.P,C3,2*%
%TO.N,Net-(C3-Pad2)*%
X119100000Y-67787500D03*
%TD*%
D15*
%TO.P,C5,1*%
%TO.N,Net-(C5-Pad1)*%
X110825000Y-65150000D03*
%TO.P,C5,2*%
%TO.N,Net-(C5-Pad2)*%
X110825000Y-63425000D03*
%TD*%
D30*
%TO.P,U1,1,BOOST*%
%TO.N,Net-(C5-Pad1)*%
X114825000Y-66157500D03*
%TO.P,U1,2,INTVCC*%
%TO.N,Net-(C4-Pad1)*%
X115325000Y-66157500D03*
%TO.P,U1,3,VOUTA*%
%TO.N,Net-(C7-Pad1)*%
X115825000Y-66157500D03*
%TO.P,U1,4,CLN*%
X116325000Y-66157500D03*
%TO.P,U1,5,CLP*%
%TO.N,Net-(Q1-Pad5_8)*%
X116825000Y-66157500D03*
%TO.P,U1,6,INFET*%
%TO.N,Net-(Q1-Pad4)*%
X117325000Y-66157500D03*
%TO.P,U1,7,VIN*%
%TO.N,/Bat_Reg_1/VIN*%
X117825000Y-66157500D03*
%TO.P,U1,8,VCC2P5*%
%TO.N,Net-(C3-Pad2)*%
X118325000Y-66157500D03*
D31*
%TO.P,U1,9,NTCBIAS*%
%TO.N,Net-(R2-Pad1)*%
X119010000Y-65472500D03*
%TO.P,U1,10,NTC*%
%TO.N,/Bat_Reg_1/TH*%
X119010000Y-64972500D03*
%TO.P,U1,11,RT*%
%TO.N,Net-(R4-Pad2)*%
X119010000Y-64472500D03*
%TO.P,U1,12,/SMBALERT*%
%TO.N,/Bat_Reg_1/{slash}SMBALERT*%
X119010000Y-63972500D03*
%TO.P,U1,13,SCL*%
%TO.N,/Bat_Reg_1/SCL*%
X119010000Y-63472500D03*
%TO.P,U1,14,SDA*%
%TO.N,/Bat_Reg_1/SDA*%
X119010000Y-62972500D03*
D28*
%TO.P,U1,15,DVCC*%
%TO.N,/Bat_Reg_1/DVCC*%
X118325000Y-62287500D03*
%TO.P,U1,16,SYNC*%
%TO.N,GND*%
X117825000Y-62287500D03*
%TO.P,U1,17,CELLS0*%
%TO.N,Net-(C4-Pad1)*%
X117325000Y-62287500D03*
%TO.P,U1,18,CELLS1*%
X116825000Y-62287500D03*
%TO.P,U1,19,BATSENS+*%
%TO.N,/Bat_Reg_1/V_Bat*%
X116325000Y-62287500D03*
%TO.P,U1,20,CSN*%
X115825000Y-62287500D03*
%TO.P,U1,21,CSP*%
%TO.N,Net-(L1-Pad2)*%
X115325000Y-62287500D03*
%TO.P,U1,22,BATFET*%
%TO.N,Net-(Q2-Pad1)*%
X114825000Y-62287500D03*
D29*
%TO.P,U1,23,PGND*%
%TO.N,GND*%
X114140000Y-62972500D03*
%TO.P,U1,24,PGND*%
X114140000Y-63472500D03*
%TO.P,U1,25,SW*%
%TO.N,Net-(C5-Pad2)*%
X114140000Y-63972500D03*
%TO.P,U1,26,SW*%
X114140000Y-64472500D03*
%TO.P,U1,27,VOUT*%
%TO.N,Net-(C7-Pad1)*%
X114140000Y-64972500D03*
%TO.P,U1,28,VOUT*%
X114140000Y-65472500D03*
D32*
%TO.P,U1,29,AGND*%
%TO.N,GND*%
X116575000Y-64222500D03*
%TD*%
D39*
%TO.P,D3,1,K*%
%TO.N,/Bat_Reg_3/VIN*%
X171300000Y-56000000D03*
%TO.P,D3,2,A*%
%TO.N,Net-(D3-Pad2)*%
X169000000Y-56000000D03*
%TD*%
D34*
%TO.P,TH3,1*%
%TO.N,/Bat_Reg_3/TH*%
X151802500Y-129500000D03*
%TO.P,TH3,2*%
%TO.N,GND*%
X152997500Y-129500000D03*
%TD*%
D11*
%TO.P,J10,1,Pin_1*%
%TO.N,GND*%
X165665000Y-60290000D03*
D12*
%TO.P,J10,2,Pin_2*%
%TO.N,Net-(D3-Pad2)*%
X165665000Y-57750000D03*
%TO.P,J10,3,Pin_3*%
%TO.N,GND*%
X163125000Y-60290000D03*
%TO.P,J10,4,Pin_4*%
%TO.N,Net-(D2-Pad2)*%
X163125000Y-57750000D03*
%TO.P,J10,5,Pin_5*%
%TO.N,GND*%
X160585000Y-60290000D03*
%TO.P,J10,6,Pin_6*%
%TO.N,Net-(D1-Pad2)*%
X160585000Y-57750000D03*
%TD*%
D19*
%TO.P,R5,1*%
%TO.N,/Bat_Reg_1/V_Bat*%
X116825000Y-59700000D03*
%TO.P,R5,2*%
%TO.N,Net-(L1-Pad2)*%
X116825000Y-57875000D03*
%TD*%
D33*
%TO.P,D1,1,K*%
%TO.N,/Bat_Reg_1/VIN*%
X128150000Y-59900000D03*
%TO.P,D1,2,A*%
%TO.N,Net-(D1-Pad2)*%
X128150000Y-57600000D03*
%TD*%
D27*
%TO.P,R4,1*%
%TO.N,GND*%
X123237500Y-63787500D03*
%TO.P,R4,2*%
%TO.N,Net-(R4-Pad2)*%
X121412500Y-63787500D03*
%TD*%
%TO.P,R7,1*%
%TO.N,Net-(R7-Pad1)*%
X179073750Y-57000000D03*
%TO.P,R7,2*%
%TO.N,/Bat_Reg_3/TH*%
X177248750Y-57000000D03*
%TD*%
D40*
%TO.N,/Bat_Reg_1/V_Bat*%
X118325000Y-57925000D03*
X125885000Y-68875000D03*
D41*
%TO.N,GND*%
X184661250Y-58250000D03*
X116650000Y-63787500D03*
X134400000Y-70510426D03*
X169075000Y-65250000D03*
X149951554Y-74750000D03*
X187911250Y-59500000D03*
X121337500Y-59662500D03*
X183661250Y-58250000D03*
X147951554Y-80112500D03*
X182661250Y-58250000D03*
X184134574Y-73460000D03*
X162670000Y-69525000D03*
X128725000Y-73035426D03*
X177161250Y-59000000D03*
X113825000Y-61287500D03*
X161575000Y-67112500D03*
X115650000Y-64787500D03*
X115650000Y-63787500D03*
X128900000Y-70622926D03*
X179204574Y-73385000D03*
X179161250Y-63137500D03*
X188334574Y-81110000D03*
X155451554Y-74750000D03*
X117650000Y-63787500D03*
X144451554Y-74000000D03*
X149451554Y-78387500D03*
X120825000Y-67787500D03*
X151951554Y-74750000D03*
X179204574Y-79885000D03*
X179161250Y-55250000D03*
X177661250Y-70250000D03*
X142900000Y-82362500D03*
X129925000Y-73035426D03*
X161400000Y-69525000D03*
X153000000Y-129500000D03*
X182161250Y-63137500D03*
X154000000Y-95000000D03*
X151951554Y-73750000D03*
X123325000Y-63787500D03*
X186534574Y-73610000D03*
X184134574Y-74730000D03*
X146451554Y-78387500D03*
X135035000Y-78000000D03*
X167825000Y-74500000D03*
X112237500Y-63450000D03*
X119825000Y-57787500D03*
X146451554Y-70500000D03*
X128650000Y-78010426D03*
X161400000Y-74475000D03*
X182661250Y-59250000D03*
X150951554Y-73750000D03*
X180661250Y-64862500D03*
X150951554Y-74750000D03*
X122737500Y-52950000D03*
X149951554Y-73750000D03*
X117650000Y-64787500D03*
X116650000Y-64787500D03*
X183661250Y-59250000D03*
X153000000Y-112500000D03*
X184661250Y-59250000D03*
X118325000Y-59787500D03*
D40*
%TO.N,/Bat_Reg_2/V_Bat*%
X148400000Y-81500000D03*
X156900000Y-81500000D03*
%TO.N,/Bat_Reg_3/V_Bat*%
X188400000Y-70500000D03*
D41*
%TO.N,/Bat_Reg_1/VIN*%
X121605000Y-69332500D03*
X121337500Y-57937500D03*
%TO.N,Net-(C4-Pad1)*%
X113825000Y-67287500D03*
X117325000Y-61287500D03*
%TO.N,Net-(C7-Pad1)*%
X115825000Y-67287500D03*
X114325000Y-57287500D03*
X112400000Y-65037500D03*
%TO.N,/Bat_Reg_2/VIN*%
X146451554Y-80112500D03*
X145326554Y-69375000D03*
%TO.N,Net-(C11-Pad1)*%
X182911250Y-61750000D03*
X185911250Y-55750000D03*
%TO.N,Net-(C14-Pad1)*%
X186161250Y-65500000D03*
X187911250Y-57887500D03*
X185661250Y-54500000D03*
%TO.N,/Bat_Reg_3/VIN*%
X178244448Y-53818198D03*
X179161250Y-64862500D03*
%TO.N,Net-(C18-Pad1)*%
X149951554Y-77250000D03*
X152951554Y-71250000D03*
%TO.N,Net-(C21-Pad1)*%
X153451554Y-69750000D03*
X153451554Y-80750000D03*
X155451554Y-72887500D03*
%TO.N,Net-(D1-Pad2)*%
X132900000Y-56500000D03*
X160100000Y-49900000D03*
X146400000Y-50000000D03*
X146700000Y-56500000D03*
X132900000Y-50000000D03*
X160100000Y-56500000D03*
%TO.N,/Bat_Reg_1/TH*%
X152800000Y-95000000D03*
X124400000Y-65000000D03*
X124900000Y-68100000D03*
X123934506Y-85088841D03*
%TO.N,/Bat_Reg_2/TH*%
X151800000Y-112400000D03*
X144539054Y-72000000D03*
%TO.N,/Bat_Reg_3/TH*%
X177248750Y-57000000D03*
X151800000Y-129500000D03*
%TO.N,Net-(D2-Pad2)*%
X148900000Y-50000000D03*
X162500000Y-56500000D03*
X135400000Y-50000000D03*
X135400000Y-56500000D03*
X135150000Y-62000000D03*
X149100000Y-56500000D03*
X162500000Y-49900000D03*
%TO.N,Net-(D3-Pad2)*%
X137900000Y-56500000D03*
X165100000Y-56500000D03*
X151500000Y-49900000D03*
X151700000Y-56500000D03*
X137900000Y-50000000D03*
X165300000Y-49900000D03*
%TD*%
D42*
%TO.N,/Bat_Reg_1/V_Bat*%
X124900000Y-94500000D02*
X134400000Y-94500000D01*
X116325000Y-60200000D02*
X116825000Y-59700000D01*
X116825000Y-59425000D02*
X118325000Y-57925000D01*
X116000000Y-61000000D02*
X116000000Y-62000000D01*
D43*
X116825000Y-59700000D02*
X116825000Y-59425000D01*
D42*
X118400000Y-94500000D02*
X124900000Y-94500000D01*
X116325000Y-60200000D02*
X116325000Y-60675000D01*
D43*
X116325000Y-62287500D02*
X115825000Y-62287500D01*
D42*
X116325000Y-60675000D02*
X116000000Y-61000000D01*
D43*
%TO.N,GND*%
X184284574Y-73610000D02*
X184134574Y-73460000D01*
X186572074Y-73610000D02*
X185254574Y-73610000D01*
X114140000Y-63472500D02*
X114140000Y-62972500D01*
X114140000Y-63472500D02*
X115010000Y-63472500D01*
X146451554Y-78387500D02*
X146451554Y-78612500D01*
X186096250Y-60000000D02*
X186096250Y-59500000D01*
X128900000Y-72860426D02*
X128725000Y-73035426D01*
X128900000Y-70622926D02*
X128900000Y-71940426D01*
X180661250Y-64637500D02*
X179161250Y-63137500D01*
X161575000Y-67112500D02*
X161575000Y-69350000D01*
X161575000Y-69350000D02*
X161400000Y-69525000D01*
X147070000Y-53790000D02*
X149610000Y-53790000D01*
X128725000Y-73035426D02*
X129925000Y-73035426D01*
X149610000Y-53790000D02*
X152150000Y-53790000D01*
X182411250Y-60000000D02*
X183661250Y-58750000D01*
X117825000Y-62287500D02*
X117825000Y-62972500D01*
X186026250Y-59930000D02*
X185441250Y-59930000D01*
X185254574Y-73610000D02*
X184134574Y-74730000D01*
X182411250Y-60685000D02*
X182411250Y-60000000D01*
X118325000Y-59650000D02*
X118325000Y-59425000D01*
X138720000Y-53790000D02*
X147070000Y-53790000D01*
X186534574Y-73610000D02*
X184284574Y-73610000D01*
X186096250Y-60000000D02*
X186026250Y-59930000D01*
X133640000Y-53790000D02*
X136180000Y-53790000D01*
X128900000Y-71940426D02*
X129995000Y-73035426D01*
X121337500Y-59662500D02*
X121337500Y-59437500D01*
X160585000Y-53790000D02*
X163125000Y-53790000D01*
X138720000Y-60290000D02*
X147070000Y-60290000D01*
X113825000Y-61287500D02*
X114140000Y-61602500D01*
X153386554Y-75500000D02*
X153386554Y-75000000D01*
X149701554Y-75500000D02*
X150951554Y-74250000D01*
X153386554Y-75000000D02*
X151701554Y-75000000D01*
X136180000Y-53790000D02*
X138720000Y-53790000D01*
X114140000Y-62972500D02*
X114140000Y-61602500D01*
X186572074Y-73610000D02*
X186534574Y-73610000D01*
X165665000Y-53790000D02*
X163125000Y-53790000D01*
X136180000Y-60290000D02*
X133640000Y-60290000D01*
X128725000Y-77985426D02*
X128725000Y-73035426D01*
X185011250Y-59500000D02*
X184911250Y-59400000D01*
X152150000Y-60290000D02*
X149610000Y-60290000D01*
X179184574Y-73460000D02*
X184134574Y-73460000D01*
X117825000Y-62972500D02*
X116575000Y-64222500D01*
X160585000Y-60290000D02*
X152150000Y-60290000D01*
X146451554Y-78612500D02*
X147951554Y-80112500D01*
X161575000Y-68430000D02*
X162670000Y-69525000D01*
X152150000Y-53790000D02*
X160585000Y-53790000D01*
X153316554Y-75430000D02*
X152131554Y-75430000D01*
X186096250Y-59500000D02*
X185011250Y-59500000D01*
X165665000Y-60290000D02*
X163125000Y-60290000D01*
X163125000Y-60290000D02*
X160585000Y-60290000D01*
X152131554Y-75430000D02*
X150951554Y-74250000D01*
X149701554Y-76185000D02*
X149701554Y-75500000D01*
X180661250Y-64862500D02*
X180661250Y-64637500D01*
X161400000Y-69525000D02*
X162670000Y-69525000D01*
X161400000Y-69525000D02*
X161400000Y-74475000D01*
X161575000Y-67112500D02*
X161575000Y-68430000D01*
X151701554Y-75000000D02*
X150951554Y-74250000D01*
X147951554Y-80112500D02*
X147951554Y-79887500D01*
X180661250Y-64637500D02*
X182161250Y-63137500D01*
X184134574Y-73460000D02*
X184134574Y-74730000D01*
X149610000Y-60290000D02*
X147070000Y-60290000D01*
X185441250Y-59930000D02*
X184911250Y-59400000D01*
X118325000Y-59425000D02*
X119825000Y-57925000D01*
X153386554Y-75500000D02*
X153316554Y-75430000D01*
X115010000Y-63472500D02*
X115325000Y-63787500D01*
X129925000Y-73035426D02*
X129995000Y-73035426D01*
X121337500Y-59437500D02*
X119825000Y-57925000D01*
X138720000Y-60290000D02*
X136180000Y-60290000D01*
X128900000Y-70622926D02*
X128900000Y-72860426D01*
X147951554Y-79887500D02*
X149451554Y-78387500D01*
D42*
%TO.N,/Bat_Reg_2/V_Bat*%
X158400000Y-80000000D02*
X156900000Y-81500000D01*
D43*
X149451554Y-80112500D02*
X149451554Y-79837500D01*
D42*
X150951554Y-78048446D02*
X151000000Y-78000000D01*
X150951554Y-78337500D02*
X150951554Y-78048446D01*
X118400000Y-112000000D02*
X124900000Y-112000000D01*
X158575000Y-65375000D02*
X156900000Y-67050000D01*
X124900000Y-112000000D02*
X134400000Y-112000000D01*
X149451554Y-80112500D02*
X150951554Y-78337500D01*
X148400000Y-81500000D02*
X149451554Y-80448446D01*
X156900000Y-70000000D02*
X158400000Y-71500000D01*
X151000000Y-77147589D02*
X151336554Y-76811035D01*
D43*
X151201554Y-76185000D02*
X151701554Y-76185000D01*
D42*
X149451554Y-80448446D02*
X149451554Y-80112500D01*
X158400000Y-71500000D02*
X158400000Y-80000000D01*
X151000000Y-78000000D02*
X151000000Y-77147589D01*
X151336554Y-76811035D02*
X151336554Y-76185000D01*
X156900000Y-67050000D02*
X156900000Y-70000000D01*
%TO.N,/Bat_Reg_3/V_Bat*%
X182161250Y-64862500D02*
X183661250Y-63087500D01*
D43*
X183911250Y-60685000D02*
X184226250Y-60685000D01*
D42*
X187199574Y-69500000D02*
X184900000Y-69500000D01*
D43*
X182161250Y-64862500D02*
X182161250Y-64587500D01*
D42*
X188309574Y-70610000D02*
X187199574Y-69500000D01*
X182161250Y-66761250D02*
X182161250Y-64862500D01*
X184900000Y-69500000D02*
X182161250Y-66761250D01*
D43*
X184226250Y-60685000D02*
X184411250Y-60685000D01*
D42*
X184046250Y-62702500D02*
X184046250Y-60865000D01*
X134400000Y-129500000D02*
X118400000Y-129500000D01*
X183661250Y-63087500D02*
X184046250Y-62702500D01*
X184046250Y-60865000D02*
X184226250Y-60685000D01*
D43*
%TO.N,Net-(C1-Pad1)*%
X123737500Y-58812500D02*
X122837500Y-59712500D01*
X123737500Y-55562500D02*
X123737500Y-58812500D01*
X122737500Y-54562500D02*
X123737500Y-55562500D01*
D42*
%TO.N,/Bat_Reg_1/VIN*%
X122900000Y-69500000D02*
X122900000Y-72000000D01*
X128150000Y-62150000D02*
X128150000Y-59900000D01*
X121495000Y-73405000D02*
X121495000Y-73422500D01*
D43*
X121387500Y-57887500D02*
X121337500Y-57937500D01*
D42*
X121495000Y-73422500D02*
X121495000Y-74692500D01*
X122168750Y-68768750D02*
X121605000Y-69332500D01*
D43*
X121605000Y-69332500D02*
X121477158Y-69204658D01*
D42*
X125787500Y-65150000D02*
X125787500Y-64512500D01*
X125787500Y-64512500D02*
X128150000Y-62150000D01*
D43*
X119232500Y-69332500D02*
X121605000Y-69332500D01*
X117825000Y-66157500D02*
X117825000Y-67925000D01*
D42*
X125787500Y-65150000D02*
X122168750Y-68768750D01*
X121495000Y-73422500D02*
X121495000Y-72152500D01*
D43*
X122837500Y-57887500D02*
X121387500Y-57887500D01*
D42*
X122900000Y-72000000D02*
X121495000Y-73405000D01*
X122168750Y-68768750D02*
X122900000Y-69500000D01*
D43*
X121755000Y-72152500D02*
X121495000Y-72152500D01*
X117825000Y-67925000D02*
X119232500Y-69332500D01*
%TO.N,Net-(C3-Pad2)*%
X118325000Y-66157500D02*
X118325000Y-67012500D01*
X118325000Y-67012500D02*
X119100000Y-67787500D01*
%TO.N,Net-(C4-Pad1)*%
X114708548Y-67287500D02*
X113825000Y-67287500D01*
X117325000Y-61287500D02*
X117325000Y-62287500D01*
X115325000Y-66157500D02*
X115325000Y-66671048D01*
X115325000Y-66671048D02*
X114708548Y-67287500D01*
X117325000Y-61287500D02*
X118187500Y-61287500D01*
X118187500Y-61287500D02*
X119825000Y-59650000D01*
X116825000Y-61787500D02*
X117325000Y-61287500D01*
X116825000Y-62287500D02*
X116825000Y-61787500D01*
%TO.N,Net-(C5-Pad1)*%
X114470000Y-66512500D02*
X114825000Y-66157500D01*
X112187500Y-66512500D02*
X114470000Y-66512500D01*
X110825000Y-65150000D02*
X112187500Y-66512500D01*
%TO.N,Net-(C5-Pad2)*%
X113385000Y-63731048D02*
X113626452Y-63972500D01*
X114140000Y-64472500D02*
X114140000Y-63972500D01*
X112325000Y-61287500D02*
X111825000Y-60787500D01*
X112325000Y-61287500D02*
X112825000Y-61287500D01*
X111825000Y-61287500D02*
X112325000Y-61287500D01*
X110825000Y-63425000D02*
X110825000Y-62762195D01*
X110825000Y-62762195D02*
X111825000Y-61287500D01*
X113626452Y-63972500D02*
X114140000Y-63972500D01*
X112825000Y-61287500D02*
X113385000Y-62072500D01*
X111825000Y-60787500D02*
X111825000Y-60162500D01*
X113385000Y-62072500D02*
X113385000Y-63731048D01*
%TO.N,Net-(C7-Pad1)*%
X114412500Y-68700000D02*
X115825000Y-67287500D01*
X116325000Y-66157500D02*
X115825000Y-66157500D01*
X112502500Y-64972500D02*
X112325000Y-65150000D01*
X114140000Y-64972500D02*
X114140000Y-65472500D01*
X114140000Y-64972500D02*
X112502500Y-64972500D01*
X115825000Y-67287500D02*
X115825000Y-66157500D01*
X112325000Y-65150000D02*
X112325000Y-65287500D01*
X114412500Y-68787500D02*
X114412500Y-68700000D01*
%TO.N,Net-(C8-Pad1)*%
X177661250Y-63087500D02*
X176661250Y-64087500D01*
X177661250Y-68637500D02*
X177298750Y-68637500D01*
X177298750Y-68637500D02*
X176661250Y-68000000D01*
X176661250Y-64087500D02*
X176661250Y-68000000D01*
%TO.N,/Bat_Reg_2/VIN*%
X145531554Y-65365000D02*
X145531554Y-64095000D01*
X148951554Y-69500000D02*
X149701554Y-70250000D01*
X145001554Y-80112500D02*
X144951554Y-80162500D01*
X145326554Y-69375000D02*
X145451554Y-69500000D01*
D42*
X145531554Y-66635000D02*
X145271554Y-66635000D01*
X145531554Y-66635000D02*
X144765000Y-66635000D01*
X143900000Y-67500000D02*
X143900000Y-68500000D01*
X145531554Y-64095000D02*
X136205000Y-64095000D01*
D43*
X149701554Y-70250000D02*
X149701554Y-72315000D01*
D42*
X144765000Y-66635000D02*
X143900000Y-67500000D01*
D43*
X146451554Y-80112500D02*
X145001554Y-80112500D01*
D42*
X143900000Y-68500000D02*
X144775000Y-69375000D01*
X136205000Y-64095000D02*
X134650000Y-65650000D01*
X144775000Y-69375000D02*
X145326554Y-69375000D01*
D43*
X145531554Y-66635000D02*
X145531554Y-65365000D01*
X145451554Y-69500000D02*
X148951554Y-69500000D01*
%TO.N,Net-(C10-Pad2)*%
X181951250Y-56775000D02*
X181911250Y-56815000D01*
X181951250Y-56177500D02*
X181951250Y-56775000D01*
X181023750Y-55250000D02*
X181951250Y-56177500D01*
%TO.N,Net-(C11-Pad1)*%
X182386250Y-62275000D02*
X182911250Y-61750000D01*
X184911250Y-56301452D02*
X184911250Y-56815000D01*
X183096250Y-61565000D02*
X183096250Y-60685000D01*
X185462702Y-55750000D02*
X184911250Y-56301452D01*
X182911250Y-60685000D02*
X183096250Y-60685000D01*
X181523750Y-62275000D02*
X182386250Y-62275000D01*
X183096250Y-60685000D02*
X183411250Y-60685000D01*
X182911250Y-61750000D02*
X183096250Y-61565000D01*
X180661250Y-63137500D02*
X181523750Y-62275000D01*
X185911250Y-55750000D02*
X185462702Y-55750000D01*
%TO.N,Net-(C12-Pad1)*%
X185411250Y-56815000D02*
X188338750Y-56815000D01*
X188338750Y-56815000D02*
X189411250Y-57887500D01*
%TO.N,Net-(C12-Pad2)*%
X188661250Y-62875000D02*
X188661250Y-61810000D01*
X186851250Y-60000000D02*
X186851250Y-59241452D01*
X187326250Y-60475000D02*
X187256250Y-60405000D01*
X186851250Y-59241452D02*
X186609798Y-59000000D01*
X188661250Y-61810000D02*
X187256250Y-60405000D01*
X186096250Y-58500000D02*
X186096250Y-59000000D01*
X187256250Y-60405000D02*
X186851250Y-60000000D01*
X188548750Y-60475000D02*
X187326250Y-60475000D01*
X189411250Y-59612500D02*
X188548750Y-60475000D01*
X186609798Y-59000000D02*
X186096250Y-59000000D01*
%TO.N,Net-(C14-Pad1)*%
X183911250Y-56162500D02*
X183911250Y-56815000D01*
X185823750Y-54250000D02*
X183911250Y-56162500D01*
X186208750Y-57887500D02*
X186096250Y-58000000D01*
X187911250Y-57887500D02*
X186208750Y-57887500D01*
X186096250Y-58000000D02*
X186096250Y-57500000D01*
X183911250Y-56815000D02*
X184411250Y-56815000D01*
%TO.N,Net-(C15-Pad1)*%
X144151554Y-79137500D02*
X144951554Y-78337500D01*
X142900000Y-84225000D02*
X144151554Y-82973446D01*
X144151554Y-81748446D02*
X144151554Y-79137500D01*
X144151554Y-82973446D02*
X144151554Y-81748446D01*
%TO.N,/Bat_Reg_3/VIN*%
X179161250Y-64862500D02*
X177711250Y-64862500D01*
D42*
X172356250Y-56000000D02*
X178491250Y-49865000D01*
D43*
X177711250Y-64862500D02*
X177661250Y-64912500D01*
X177531250Y-53105000D02*
X177531250Y-51835000D01*
X178244448Y-53818198D02*
X177531250Y-53105000D01*
D42*
X171300000Y-56000000D02*
X172356250Y-56000000D01*
D43*
X178491250Y-51135000D02*
X178491250Y-48595000D01*
X178231250Y-51135000D02*
X178491250Y-51135000D01*
X181593052Y-53818198D02*
X178244448Y-53818198D01*
X178491250Y-49865000D02*
X178491250Y-48595000D01*
X178491250Y-49865000D02*
X178491250Y-51135000D01*
X177531250Y-51835000D02*
X178231250Y-51135000D01*
X182411250Y-56815000D02*
X182411250Y-54636396D01*
X182411250Y-54636396D02*
X181593052Y-53818198D01*
%TO.N,Net-(C17-Pad2)*%
X149201554Y-72315000D02*
X149201554Y-71500000D01*
X149201554Y-71500000D02*
X148201554Y-70500000D01*
%TO.N,Net-(C18-Pad1)*%
X150516554Y-76185000D02*
X150516554Y-76685000D01*
X152753006Y-71250000D02*
X152201554Y-71801452D01*
X150701554Y-76185000D02*
X150516554Y-76185000D01*
X147951554Y-78387500D02*
X148814054Y-77525000D01*
X150516554Y-76185000D02*
X150201554Y-76185000D01*
X149951554Y-77250000D02*
X149676554Y-77525000D01*
X148814054Y-77525000D02*
X149676554Y-77525000D01*
X152951554Y-71250000D02*
X152753006Y-71250000D01*
X150516554Y-76685000D02*
X149951554Y-77250000D01*
X152201554Y-71801452D02*
X152201554Y-72315000D01*
%TO.N,Net-(C19-Pad1)*%
X152661554Y-72275000D02*
X152701554Y-72315000D01*
X152661554Y-72250000D02*
X152661554Y-72275000D01*
X152766554Y-72250000D02*
X152661554Y-72250000D01*
X156951554Y-72887500D02*
X156089054Y-72025000D01*
X152991554Y-72025000D02*
X152766554Y-72250000D01*
X156089054Y-72025000D02*
X152991554Y-72025000D01*
%TO.N,Net-(C19-Pad2)*%
X155951554Y-78375000D02*
X154141554Y-76565000D01*
X153386554Y-74000000D02*
X153386554Y-74500000D01*
X156951554Y-74612500D02*
X156004054Y-75560000D01*
X156004054Y-75560000D02*
X154141554Y-75560000D01*
X154141554Y-76565000D02*
X154141554Y-75560000D01*
X154141554Y-74741452D02*
X153900102Y-74500000D01*
X153900102Y-74500000D02*
X153386554Y-74500000D01*
X154141554Y-75560000D02*
X154141554Y-74741452D01*
%TO.N,Net-(C21-Pad1)*%
X153499054Y-72887500D02*
X153386554Y-73000000D01*
X153364054Y-69750000D02*
X151161554Y-71952500D01*
X153386554Y-73000000D02*
X153386554Y-73500000D01*
X151161554Y-71952500D02*
X151161554Y-72250000D01*
X155451554Y-72887500D02*
X153499054Y-72887500D01*
X151201554Y-72315000D02*
X151701554Y-72315000D01*
D42*
%TO.N,/V_Reg_3.3_5V3/Vout*%
X134400000Y-84225000D02*
X115465000Y-84225000D01*
D43*
X184134574Y-81080000D02*
X183214574Y-82000000D01*
D42*
X165700000Y-83200000D02*
X146700000Y-83200000D01*
X146700000Y-83200000D02*
X143700000Y-86200000D01*
X136375000Y-86200000D02*
X134400000Y-84225000D01*
D43*
X184164574Y-81110000D02*
X184134574Y-81080000D01*
D42*
X143700000Y-86200000D02*
X136375000Y-86200000D01*
X114320000Y-83080000D02*
X111400000Y-83080000D01*
X183214574Y-82000000D02*
X166900000Y-82000000D01*
X186572074Y-81110000D02*
X184164574Y-81110000D01*
X166900000Y-82000000D02*
X165700000Y-83200000D01*
X115465000Y-84225000D02*
X114320000Y-83080000D01*
D43*
%TO.N,Net-(C30-Pad1)*%
X127412500Y-68897926D02*
X127400000Y-68885426D01*
X128900000Y-68897926D02*
X127412500Y-68897926D01*
D42*
%TO.N,/V_Reg_3.3_5V1/Vout*%
X136400000Y-72612500D02*
X136400000Y-73000000D01*
X137400000Y-71647926D02*
X137400000Y-74500000D01*
X136345000Y-70592926D02*
X136345000Y-73035426D01*
X136400000Y-73000000D02*
X136400000Y-72637500D01*
X135144998Y-82825000D02*
X116225000Y-82825000D01*
X137400000Y-74500000D02*
X136345000Y-73445000D01*
D43*
X136262500Y-70510426D02*
X136345000Y-70592926D01*
D42*
X116225000Y-82825000D02*
X111400000Y-78000000D01*
X137400000Y-74500000D02*
X137400000Y-80569998D01*
D43*
X136400000Y-72980426D02*
X136345000Y-73035426D01*
D42*
X136400000Y-72637500D02*
X136262500Y-72500000D01*
X136262500Y-70510426D02*
X137400000Y-71647926D01*
X136345000Y-73445000D02*
X136345000Y-73035426D01*
X137400000Y-80569998D02*
X135144998Y-82825000D01*
D43*
%TO.N,Net-(C32-Pad1)*%
X188297074Y-72122500D02*
X188309574Y-72110000D01*
X188297074Y-73610000D02*
X188297074Y-72122500D01*
D42*
%TO.N,/V_Reg_3.3_5V2/Vout*%
X115925000Y-83525000D02*
X112900000Y-80500000D01*
X169075000Y-67112500D02*
X169075000Y-69470000D01*
X170400000Y-76481444D02*
X164381444Y-82500000D01*
X170400000Y-70905000D02*
X170400000Y-76481444D01*
X112900000Y-80500000D02*
X112860000Y-80540000D01*
X169020000Y-69525000D02*
X170400000Y-70905000D01*
X164381444Y-82500000D02*
X146400000Y-82500000D01*
X112860000Y-80540000D02*
X111400000Y-80540000D01*
X134900000Y-83525000D02*
X115925000Y-83525000D01*
D43*
X169075000Y-69470000D02*
X169020000Y-69525000D01*
D42*
X136875000Y-85500000D02*
X134900000Y-83525000D01*
X143400000Y-85500000D02*
X136875000Y-85500000D01*
X146400000Y-82500000D02*
X143400000Y-85500000D01*
D43*
%TO.N,Net-(C34-Pad1)*%
X160075000Y-65375000D02*
X161562500Y-65375000D01*
X161562500Y-65375000D02*
X161575000Y-65387500D01*
%TO.N,Net-(D5-Pad2)*%
X127389574Y-70625000D02*
X127400000Y-70635426D01*
X127455000Y-77985426D02*
X127455000Y-73035426D01*
X127400000Y-70635426D02*
X127400000Y-72980426D01*
X127400000Y-72980426D02*
X127455000Y-73035426D01*
X125885000Y-70625000D02*
X127389574Y-70625000D01*
%TO.N,Net-(D6-Pad2)*%
X186559574Y-72110000D02*
X186559574Y-70610000D01*
X179184574Y-72190000D02*
X184134574Y-72190000D01*
X186559574Y-72110000D02*
X184214574Y-72110000D01*
X184214574Y-72110000D02*
X184134574Y-72190000D01*
%TO.N,Net-(D7-Pad2)*%
X160130000Y-74475000D02*
X160130000Y-69525000D01*
X158575000Y-67125000D02*
X160075000Y-67125000D01*
X160075000Y-67125000D02*
X160075000Y-69470000D01*
X160075000Y-69470000D02*
X160130000Y-69525000D01*
%TO.N,/Bat_Reg_1/DVCC*%
X123207995Y-51975000D02*
X124187500Y-52954505D01*
X124187500Y-60802500D02*
X123412500Y-61577500D01*
X122100000Y-51975000D02*
X123207995Y-51975000D01*
X119600000Y-49475000D02*
X122100000Y-51975000D01*
X123412500Y-61577500D02*
X119035000Y-61577500D01*
X124187500Y-52954505D02*
X124187500Y-60802500D01*
X118325000Y-62287500D02*
X119035000Y-61577500D01*
%TO.N,/Bat_Reg_1/SDA*%
X119425000Y-62557500D02*
X119010000Y-62972500D01*
X122140000Y-49475000D02*
X124637500Y-51972500D01*
X123598896Y-62027500D02*
X119948604Y-62027500D01*
X124637500Y-60988896D02*
X123598896Y-62027500D01*
X119425000Y-62551104D02*
X119425000Y-62557500D01*
X119948604Y-62027500D02*
X119425000Y-62551104D01*
X124637500Y-51972500D02*
X124637500Y-60988896D01*
%TO.N,/Bat_Reg_1/SCL*%
X123725292Y-62537500D02*
X125087500Y-61175292D01*
X119875000Y-63237500D02*
X119875000Y-62737500D01*
X119875000Y-62737500D02*
X120075000Y-62537500D01*
X124680000Y-49475000D02*
X125087500Y-49882500D01*
X120075000Y-62537500D02*
X123725292Y-62537500D01*
X119010000Y-63472500D02*
X119640000Y-63472500D01*
X119640000Y-63472500D02*
X119875000Y-63237500D01*
X125087500Y-49882500D02*
X125087500Y-61175292D01*
%TO.N,/Bat_Reg_1/{slash}SMBALERT*%
X127220000Y-49475000D02*
X125537500Y-51157500D01*
X124050000Y-63012500D02*
X124025000Y-62987500D01*
X125537500Y-61475000D02*
X124025000Y-62987500D01*
X120325000Y-63787500D02*
X120140000Y-63972500D01*
X120140000Y-63972500D02*
X119010000Y-63972500D01*
X120625000Y-62987500D02*
X120325000Y-63287500D01*
X124025000Y-62987500D02*
X120625000Y-62987500D01*
X125537500Y-51157500D02*
X125537500Y-61475000D01*
X120325000Y-63287500D02*
X120325000Y-63787500D01*
%TO.N,/Bat_Reg_2/DVCC*%
X144976554Y-76250000D02*
X149241554Y-76250000D01*
X141176554Y-80050000D02*
X144976554Y-76250000D01*
%TO.N,/Bat_Reg_2/SDA*%
X147451554Y-75750000D02*
X142936554Y-75750000D01*
X142936554Y-75750000D02*
X141176554Y-77510000D01*
X148516554Y-75500000D02*
X147701554Y-75500000D01*
X147701554Y-75500000D02*
X147451554Y-75750000D01*
%TO.N,/Bat_Reg_2/SCL*%
X142951554Y-75250000D02*
X147033445Y-75250000D01*
X147283445Y-75000000D02*
X148516554Y-75000000D01*
X142671554Y-74970000D02*
X142951554Y-75250000D01*
X147033445Y-75250000D02*
X147283445Y-75000000D01*
X141176554Y-74970000D02*
X142671554Y-74970000D01*
%TO.N,/Bat_Reg_2/{slash}SMBALERT*%
X146847049Y-74800000D02*
X143546554Y-74800000D01*
X147147049Y-74500000D02*
X146847049Y-74800000D01*
X148516554Y-74500000D02*
X147147049Y-74500000D01*
X143546554Y-74800000D02*
X141176554Y-72430000D01*
%TO.N,/Bat_Reg_3/DVCC*%
X180411250Y-61750000D02*
X176411250Y-61750000D01*
X176411250Y-61750000D02*
X174161250Y-65800000D01*
X181911250Y-60685000D02*
X180411250Y-61750000D01*
%TO.N,/Bat_Reg_3/SDA*%
X176161250Y-61170000D02*
X176161250Y-61260000D01*
X180849098Y-60000000D02*
X179679098Y-61170000D01*
X179679098Y-61170000D02*
X176161250Y-61170000D01*
X176161250Y-61260000D02*
X174161250Y-63260000D01*
X181226250Y-60000000D02*
X180849098Y-60000000D01*
%TO.N,/Bat_Reg_3/SCL*%
X181226250Y-59500000D02*
X180712702Y-59500000D01*
X179492702Y-60720000D02*
X174161250Y-60720000D01*
X180712702Y-59500000D02*
X179492702Y-60720000D01*
%TO.N,/Bat_Reg_3/{slash}SMBALERT*%
X180356745Y-59000000D02*
X179356745Y-60000000D01*
X179356745Y-60000000D02*
X175981250Y-60000000D01*
X181226250Y-59000000D02*
X180356745Y-59000000D01*
X175981250Y-60000000D02*
X174161250Y-58180000D01*
%TO.N,/V_Reg_3.3_5V3/3{slash}#5*%
X179184574Y-78540000D02*
X178879574Y-78235000D01*
X178879574Y-78235000D02*
X175659574Y-78235000D01*
%TO.N,/V_Reg_3.3_5V3/#STBY*%
X179184574Y-77270000D02*
X177234574Y-77270000D01*
X177234574Y-77270000D02*
X175659574Y-75695000D01*
%TO.N,/V_Reg_3.3_5V3/#SHDN*%
X179184574Y-76000000D02*
X178504574Y-76000000D01*
X178504574Y-76000000D02*
X175659574Y-73155000D01*
%TO.N,/V_Reg_3.3_5V1/3{slash}#5*%
X133805000Y-77985426D02*
X133560000Y-78230426D01*
X133560000Y-78230426D02*
X133560000Y-81525000D01*
%TO.N,/V_Reg_3.3_5V1/#STBY*%
X132535000Y-80010000D02*
X131020000Y-81525000D01*
X132535000Y-77985426D02*
X132535000Y-80010000D01*
%TO.N,/V_Reg_3.3_5V1/#SHDN*%
X131265000Y-78740000D02*
X128480000Y-81525000D01*
X131265000Y-77985426D02*
X131265000Y-78740000D01*
%TO.N,/V_Reg_3.3_5V2/3{slash}#5*%
X166325000Y-74630000D02*
X166325000Y-78025000D01*
X166480000Y-74475000D02*
X166325000Y-74630000D01*
%TO.N,/V_Reg_3.3_5V2/#STBY*%
X165210000Y-74475000D02*
X165210000Y-76600000D01*
X165210000Y-76600000D02*
X163785000Y-78025000D01*
%TO.N,/V_Reg_3.3_5V2/#SHDN*%
X163940000Y-74475000D02*
X163940000Y-75330000D01*
X163940000Y-75330000D02*
X161245000Y-78025000D01*
%TO.N,Net-(D1-Pad2)*%
X133640000Y-51250000D02*
X133640000Y-50740000D01*
X160585000Y-57750000D02*
X160585000Y-56985000D01*
X160585000Y-50385000D02*
X160100000Y-49900000D01*
X132900000Y-50000000D02*
X133625000Y-49275000D01*
X147070000Y-50670000D02*
X146400000Y-50000000D01*
X133640000Y-57240000D02*
X132900000Y-56500000D01*
X147070000Y-51250000D02*
X147070000Y-50670000D01*
D42*
X133640000Y-57750000D02*
X130550000Y-57750000D01*
X128300000Y-57750000D02*
X128150000Y-57600000D01*
D43*
X133640000Y-57750000D02*
X133640000Y-57240000D01*
X147070000Y-57750000D02*
X147070000Y-56870000D01*
X148900000Y-49275000D02*
X149000000Y-49175000D01*
X133625000Y-49275000D02*
X145675000Y-49275000D01*
X145675000Y-49275000D02*
X146400000Y-50000000D01*
X160585000Y-51250000D02*
X160585000Y-50385000D01*
X159375000Y-49175000D02*
X160100000Y-49900000D01*
X130550000Y-57750000D02*
X130400000Y-57600000D01*
D42*
X130550000Y-57750000D02*
X128300000Y-57750000D01*
D43*
X147070000Y-56870000D02*
X146700000Y-56500000D01*
X146400000Y-50000000D02*
X147125000Y-49275000D01*
X147125000Y-49275000D02*
X148900000Y-49275000D01*
X160585000Y-56985000D02*
X160100000Y-56500000D01*
X149000000Y-49175000D02*
X159375000Y-49175000D01*
X133640000Y-50740000D02*
X132900000Y-50000000D01*
%TO.N,Net-(L2-Pad2)*%
X185211250Y-66300000D02*
X185211250Y-63150000D01*
X185211250Y-63150000D02*
X185211250Y-63362500D01*
X185211250Y-63362500D02*
X183661250Y-64912500D01*
X188661250Y-64625000D02*
X186911250Y-66375000D01*
X186911250Y-66375000D02*
X185286250Y-66375000D01*
X185211250Y-63150000D02*
X184911250Y-62850000D01*
X184911250Y-62850000D02*
X184911250Y-60685000D01*
X185286250Y-66375000D02*
X185211250Y-66300000D01*
%TO.N,Net-(L3-Pad2)*%
X155951554Y-80125000D02*
X155951554Y-80200000D01*
X152664054Y-81875000D02*
X150951554Y-80162500D01*
X152501554Y-78650000D02*
X152464054Y-78650000D01*
X152464054Y-78650000D02*
X150951554Y-80162500D01*
X152201554Y-78350000D02*
X152201554Y-76185000D01*
X154276554Y-81875000D02*
X152664054Y-81875000D01*
X152501554Y-78650000D02*
X152201554Y-78350000D01*
X155951554Y-80200000D02*
X154276554Y-81875000D01*
%TO.N,Net-(Q1-Pad4)*%
X120900000Y-70000000D02*
X121495000Y-70595000D01*
X118900000Y-70000000D02*
X120900000Y-70000000D01*
X121495000Y-70882500D02*
X121123242Y-70882500D01*
X121495000Y-70595000D02*
X121495000Y-70882500D01*
X117365000Y-66197500D02*
X117365000Y-68465000D01*
X117325000Y-66157500D02*
X117365000Y-66197500D01*
X117365000Y-68465000D02*
X118900000Y-70000000D01*
D42*
%TO.N,Net-(Q1-Pad5_8)*%
X118825000Y-72787500D02*
X116237500Y-70200000D01*
D43*
X116825000Y-66157500D02*
X116825000Y-68200000D01*
D42*
X116237500Y-70200000D02*
X116237500Y-68787500D01*
D43*
X116825000Y-68200000D02*
X116237500Y-68787500D01*
%TO.N,Net-(Q2-Pad1)*%
X114825000Y-62287500D02*
X114825000Y-60837500D01*
X114825000Y-60837500D02*
X113375000Y-59387500D01*
%TO.N,Net-(Q3-Pad4)*%
X178491250Y-52580000D02*
X178491250Y-52405000D01*
X182911250Y-54500000D02*
X181661250Y-53250000D01*
X181661250Y-53250000D02*
X179161250Y-53250000D01*
X179161250Y-53250000D02*
X178491250Y-52580000D01*
X182911250Y-56815000D02*
X182911250Y-54500000D01*
D42*
%TO.N,Net-(Q3-Pad5_8)*%
X183998750Y-54250000D02*
X183998750Y-53337500D01*
D43*
X183411250Y-54837500D02*
X183411250Y-56815000D01*
X183998750Y-54250000D02*
X183411250Y-54837500D01*
D42*
X183998750Y-53337500D02*
X181161250Y-50500000D01*
D43*
%TO.N,Net-(Q4-Pad1)*%
X187111250Y-62385000D02*
X185411250Y-60685000D01*
X187111250Y-63150000D02*
X187111250Y-62385000D01*
%TO.N,Net-(Q5-Pad4)*%
X145531554Y-68080000D02*
X145531554Y-67905000D01*
X150201554Y-70000000D02*
X149201554Y-69000000D01*
X146451554Y-69000000D02*
X145531554Y-68080000D01*
X150201554Y-72315000D02*
X150201554Y-70000000D01*
X149201554Y-69000000D02*
X146451554Y-69000000D01*
%TO.N,Net-(Q5-Pad5_8)*%
X150661554Y-70627500D02*
X150661554Y-72540000D01*
X151539054Y-69750000D02*
X151539054Y-69337500D01*
X151539054Y-69750000D02*
X150661554Y-70627500D01*
D42*
X151539054Y-69337500D02*
X148201554Y-66000000D01*
D43*
%TO.N,Net-(Q6-Pad1)*%
X154401554Y-78650000D02*
X152701554Y-76950000D01*
X152701554Y-76950000D02*
X152701554Y-76185000D01*
%TO.N,Net-(R2-Pad1)*%
X121097500Y-65472500D02*
X121412500Y-65787500D01*
X119010000Y-65472500D02*
X121097500Y-65472500D01*
%TO.N,/Bat_Reg_1/TH*%
X122422500Y-64972500D02*
X123237500Y-65787500D01*
X124025000Y-65000000D02*
X123237500Y-65787500D01*
X124400000Y-65000000D02*
X124025000Y-65000000D01*
X109900000Y-83500000D02*
X109900000Y-76968556D01*
X111419086Y-85019086D02*
X109900000Y-83500000D01*
X123864751Y-85019086D02*
X111419086Y-85019086D01*
X124900000Y-73650000D02*
X124900000Y-68150000D01*
X119010000Y-64972500D02*
X122422500Y-64972500D01*
X123934506Y-85088841D02*
X123864751Y-85019086D01*
X109900000Y-76968556D02*
X110368556Y-76500000D01*
X122050000Y-76500000D02*
X124900000Y-73650000D01*
X110368556Y-76500000D02*
X122050000Y-76500000D01*
%TO.N,Net-(R4-Pad2)*%
X119010000Y-64472500D02*
X120727500Y-64472500D01*
X120727500Y-64472500D02*
X121412500Y-63787500D01*
%TO.N,Net-(R7-Pad1)*%
X181226250Y-57500000D02*
X179573750Y-57500000D01*
X179573750Y-57500000D02*
X179073750Y-57000000D01*
%TO.N,/Bat_Reg_2/TH*%
X148516554Y-73500000D02*
X147701554Y-73500000D01*
X147401554Y-73200000D02*
X145739054Y-73200000D01*
X145739054Y-73200000D02*
X144539054Y-72000000D01*
X147701554Y-73500000D02*
X147401554Y-73200000D01*
%TO.N,Net-(R9-Pad2)*%
X181226250Y-58500000D02*
X179573750Y-58500000D01*
X179573750Y-58500000D02*
X179073750Y-59000000D01*
%TO.N,Net-(R12-Pad1)*%
X148201554Y-72000000D02*
X146364054Y-72000000D01*
X148516554Y-72315000D02*
X148201554Y-72000000D01*
X148516554Y-73000000D02*
X148516554Y-72315000D01*
%TO.N,/Bat_Reg_3/TH*%
X178248750Y-58000000D02*
X177248750Y-57000000D01*
X181226250Y-58000000D02*
X178248750Y-58000000D01*
%TO.N,Net-(R14-Pad2)*%
X146364054Y-74000000D02*
X146404054Y-73960000D01*
X148476554Y-73960000D02*
X148516554Y-74000000D01*
X146404054Y-73960000D02*
X148476554Y-73960000D01*
%TO.N,Net-(U5-Pad11)*%
X132535000Y-75000000D02*
X129995000Y-77540000D01*
X133805000Y-73035426D02*
X132535000Y-73035426D01*
X132535000Y-73035426D02*
X132535000Y-75000000D01*
X129995000Y-77540000D02*
X129995000Y-77985426D01*
%TO.N,Net-(U5-Pad10)*%
X131265000Y-73035426D02*
X131265000Y-72590000D01*
X131265000Y-72590000D02*
X132129574Y-71725426D01*
X135075000Y-72185426D02*
X135075000Y-73035426D01*
X132129574Y-71725426D02*
X134615000Y-71725426D01*
X134615000Y-71725426D02*
X135075000Y-72185426D01*
%TO.N,Net-(U6-Pad11)*%
X184134574Y-77270000D02*
X182170000Y-77270000D01*
X182170000Y-77270000D02*
X179630000Y-74730000D01*
X179630000Y-74730000D02*
X179184574Y-74730000D01*
X184134574Y-77270000D02*
X184134574Y-78540000D01*
%TO.N,Net-(U6-Pad10)*%
X184134574Y-76000000D02*
X184580000Y-76000000D01*
X184580000Y-76000000D02*
X185444574Y-76864574D01*
X185444574Y-76864574D02*
X185444574Y-79400000D01*
X185034574Y-79810000D02*
X184134574Y-79810000D01*
X185444574Y-79400000D02*
X185034574Y-79810000D01*
%TO.N,Net-(U7-Pad11)*%
X165210000Y-69525000D02*
X165210000Y-71357600D01*
X165210000Y-71357600D02*
X162670000Y-73897600D01*
X165210000Y-69525000D02*
X166480000Y-69525000D01*
X162670000Y-73897600D02*
X162670000Y-74475000D01*
%TO.N,Net-(U7-Pad10)*%
X167750000Y-68425000D02*
X167750000Y-69525000D01*
X163940000Y-69079574D02*
X164804574Y-68215000D01*
X167540000Y-68215000D02*
X167750000Y-68425000D01*
X164804574Y-68215000D02*
X167540000Y-68215000D01*
X163940000Y-69525000D02*
X163940000Y-69079574D01*
%TO.N,Net-(D2-Pad2)*%
X163125000Y-57125000D02*
X162500000Y-56500000D01*
X149610000Y-51250000D02*
X149610000Y-50710000D01*
X163125000Y-50525000D02*
X162500000Y-49900000D01*
X136180000Y-51250000D02*
X136180000Y-50780000D01*
X135150000Y-62850000D02*
X134650000Y-63350000D01*
X149610000Y-50710000D02*
X148900000Y-50000000D01*
X149610000Y-57750000D02*
X149610000Y-57010000D01*
X135150000Y-62000000D02*
X135150000Y-62850000D01*
X136180000Y-57750000D02*
X136180000Y-57280000D01*
X136180000Y-57280000D02*
X135400000Y-56500000D01*
X136180000Y-50780000D02*
X135400000Y-50000000D01*
X163125000Y-51250000D02*
X163125000Y-50525000D01*
X149610000Y-57010000D02*
X149100000Y-56500000D01*
X163125000Y-57750000D02*
X163125000Y-57125000D01*
%TO.N,Net-(D3-Pad2)*%
X152150000Y-50550000D02*
X152150000Y-51250000D01*
X152150000Y-57750000D02*
X153325000Y-58925000D01*
X165665000Y-57750000D02*
X165665000Y-57065000D01*
D42*
X169000000Y-56000000D02*
X167415000Y-56000000D01*
D43*
X164490000Y-58925000D02*
X165665000Y-57750000D01*
X153325000Y-58925000D02*
X164490000Y-58925000D01*
X138720000Y-50820000D02*
X137900000Y-50000000D01*
X151500000Y-49900000D02*
X152150000Y-50550000D01*
X139597081Y-58925000D02*
X150975000Y-58925000D01*
X138720000Y-51250000D02*
X138720000Y-50820000D01*
X165665000Y-50265000D02*
X165300000Y-49900000D01*
X165665000Y-51250000D02*
X165665000Y-50265000D01*
X138720000Y-57750000D02*
X138720000Y-57320000D01*
X150975000Y-58925000D02*
X152150000Y-57750000D01*
X152150000Y-56950000D02*
X151700000Y-56500000D01*
X138720000Y-58047919D02*
X139597081Y-58925000D01*
X165665000Y-57065000D02*
X165100000Y-56500000D01*
X138720000Y-57320000D02*
X137900000Y-56500000D01*
X152150000Y-57750000D02*
X152150000Y-56950000D01*
X138720000Y-57750000D02*
X138720000Y-58047919D01*
D42*
X167415000Y-56000000D02*
X165665000Y-57750000D01*
D43*
%TO.N,Net-(L1-Pad2)*%
X115200000Y-56162500D02*
X115275000Y-56237500D01*
X115275000Y-59387500D02*
X115312500Y-59387500D01*
X115325000Y-59437500D02*
X115275000Y-59387500D01*
X115312500Y-59387500D02*
X116825000Y-57875000D01*
X115325000Y-62287500D02*
X115325000Y-59437500D01*
X111825000Y-58412500D02*
X111825000Y-57837500D01*
X115275000Y-56237500D02*
X115275000Y-59387500D01*
X113500000Y-56162500D02*
X115200000Y-56162500D01*
X111825000Y-57837500D02*
X113500000Y-56162500D01*
%TD*%
M02*
