%TF.GenerationSoftware,KiCad,Pcbnew,6.0.7*%
%TF.CreationDate,2022-11-21T21:51:01-06:00*%
%TF.ProjectId,CubesatPwrBoard,43756265-7361-4745-9077-72426f617264,rev?*%
%TF.SameCoordinates,Original*%
%TF.FileFunction,Legend,Top*%
%TF.FilePolarity,Positive*%
%FSLAX46Y46*%
G04 Gerber Fmt 4.6, Leading zero omitted, Abs format (unit mm)*
G04 Created by KiCad (PCBNEW 6.0.7) date 2022-11-21 21:51:01*
%MOMM*%
%LPD*%
G01*
G04 APERTURE LIST*
G04 Aperture macros list*
%AMRoundRect*
0 Rectangle with rounded corners*
0 $1 Rounding radius*
0 $2 $3 $4 $5 $6 $7 $8 $9 X,Y pos of 4 corners*
0 Add a 4 corners polygon primitive as box body*
4,1,4,$2,$3,$4,$5,$6,$7,$8,$9,$2,$3,0*
0 Add four circle primitives for the rounded corners*
1,1,$1+$1,$2,$3*
1,1,$1+$1,$4,$5*
1,1,$1+$1,$6,$7*
1,1,$1+$1,$8,$9*
0 Add four rect primitives between the rounded corners*
20,1,$1+$1,$2,$3,$4,$5,0*
20,1,$1+$1,$4,$5,$6,$7,0*
20,1,$1+$1,$6,$7,$8,$9,0*
20,1,$1+$1,$8,$9,$2,$3,0*%
G04 Aperture macros list end*
%ADD10C,0.100000*%
%ADD11C,0.150000*%
%ADD12C,0.125000*%
%ADD13C,0.300000*%
%ADD14C,0.120000*%
%ADD15C,0.127000*%
%ADD16C,0.203200*%
%ADD17C,0.200000*%
%ADD18C,0.010000*%
%ADD19RoundRect,0.237500X-0.237500X0.300000X-0.237500X-0.300000X0.237500X-0.300000X0.237500X0.300000X0*%
%ADD20RoundRect,0.237500X0.237500X-0.300000X0.237500X0.300000X-0.237500X0.300000X-0.237500X-0.300000X0*%
%ADD21R,1.700000X1.700000*%
%ADD22O,1.700000X1.700000*%
%ADD23R,1.000000X1.400000*%
%ADD24C,7.500000*%
%ADD25RoundRect,0.237500X-0.237500X0.287500X-0.237500X-0.287500X0.237500X-0.287500X0.237500X0.287500X0*%
%ADD26RoundRect,0.237500X0.237500X-0.250000X0.237500X0.250000X-0.237500X0.250000X-0.237500X-0.250000X0*%
%ADD27RoundRect,0.237500X-0.237500X0.250000X-0.237500X-0.250000X0.237500X-0.250000X0.237500X0.250000X0*%
%ADD28RoundRect,0.237500X0.300000X0.237500X-0.300000X0.237500X-0.300000X-0.237500X0.300000X-0.237500X0*%
%ADD29R,1.270000X0.750000*%
%ADD30RoundRect,0.041300X0.253700X-0.943700X0.253700X0.943700X-0.253700X0.943700X-0.253700X-0.943700X0*%
%ADD31RoundRect,0.237500X-0.250000X-0.237500X0.250000X-0.237500X0.250000X0.237500X-0.250000X0.237500X0*%
%ADD32RoundRect,0.237500X-0.300000X-0.237500X0.300000X-0.237500X0.300000X0.237500X-0.300000X0.237500X0*%
%ADD33RoundRect,0.237500X0.250000X0.237500X-0.250000X0.237500X-0.250000X-0.237500X0.250000X-0.237500X0*%
%ADD34RoundRect,0.018900X-0.116100X0.411100X-0.116100X-0.411100X0.116100X-0.411100X0.116100X0.411100X0*%
%ADD35RoundRect,0.018900X-0.411100X-0.116100X0.411100X-0.116100X0.411100X0.116100X-0.411100X0.116100X0*%
%ADD36RoundRect,0.018900X0.116100X-0.411100X0.116100X0.411100X-0.116100X0.411100X-0.116100X-0.411100X0*%
%ADD37RoundRect,0.018900X0.411100X0.116100X-0.411100X0.116100X-0.411100X-0.116100X0.411100X-0.116100X0*%
%ADD38R,3.650000X2.650000*%
%ADD39R,0.900000X0.800000*%
%ADD40RoundRect,0.160000X-0.197500X-0.160000X0.197500X-0.160000X0.197500X0.160000X-0.197500X0.160000X0*%
%ADD41RoundRect,0.041300X-0.943700X-0.253700X0.943700X-0.253700X0.943700X0.253700X-0.943700X0.253700X0*%
%ADD42RoundRect,0.237500X0.287500X0.237500X-0.287500X0.237500X-0.287500X-0.237500X0.287500X-0.237500X0*%
%ADD43RoundRect,0.237500X0.237500X-0.287500X0.237500X0.287500X-0.237500X0.287500X-0.237500X-0.287500X0*%
%ADD44R,0.800000X0.900000*%
G04 APERTURE END LIST*
D10*
X172904107Y-56726190D02*
X172904107Y-56226190D01*
X173075535Y-56273809D02*
X173094583Y-56250000D01*
X173132678Y-56226190D01*
X173227916Y-56226190D01*
X173266011Y-56250000D01*
X173285059Y-56273809D01*
X173304107Y-56321428D01*
X173304107Y-56369047D01*
X173285059Y-56440476D01*
X173056488Y-56726190D01*
X173304107Y-56726190D01*
X173704107Y-56678571D02*
X173685059Y-56702380D01*
X173627916Y-56726190D01*
X173589821Y-56726190D01*
X173532678Y-56702380D01*
X173494583Y-56654761D01*
X173475535Y-56607142D01*
X173456488Y-56511904D01*
X173456488Y-56440476D01*
X173475535Y-56345238D01*
X173494583Y-56297619D01*
X173532678Y-56250000D01*
X173589821Y-56226190D01*
X173627916Y-56226190D01*
X173685059Y-56250000D01*
X173704107Y-56273809D01*
X174313630Y-56464285D02*
X174370773Y-56488095D01*
X174389821Y-56511904D01*
X174408869Y-56559523D01*
X174408869Y-56630952D01*
X174389821Y-56678571D01*
X174370773Y-56702380D01*
X174332678Y-56726190D01*
X174180297Y-56726190D01*
X174180297Y-56226190D01*
X174313630Y-56226190D01*
X174351726Y-56250000D01*
X174370773Y-56273809D01*
X174389821Y-56321428D01*
X174389821Y-56369047D01*
X174370773Y-56416666D01*
X174351726Y-56440476D01*
X174313630Y-56464285D01*
X174180297Y-56464285D01*
X174561250Y-56583333D02*
X174751726Y-56583333D01*
X174523154Y-56726190D02*
X174656488Y-56226190D01*
X174789821Y-56726190D01*
X174866011Y-56226190D02*
X175094583Y-56226190D01*
X174980297Y-56726190D02*
X174980297Y-56226190D01*
X175208869Y-56273809D02*
X175227916Y-56250000D01*
X175266011Y-56226190D01*
X175361250Y-56226190D01*
X175399345Y-56250000D01*
X175418392Y-56273809D01*
X175437440Y-56321428D01*
X175437440Y-56369047D01*
X175418392Y-56440476D01*
X175189821Y-56726190D01*
X175437440Y-56726190D01*
D11*
X108190476Y-79952380D02*
X108523809Y-80952380D01*
X108857142Y-79952380D01*
X109095238Y-79952380D02*
X109714285Y-79952380D01*
X109380952Y-80333333D01*
X109523809Y-80333333D01*
X109619047Y-80380952D01*
X109666666Y-80428571D01*
X109714285Y-80523809D01*
X109714285Y-80761904D01*
X109666666Y-80857142D01*
X109619047Y-80904761D01*
X109523809Y-80952380D01*
X109238095Y-80952380D01*
X109142857Y-80904761D01*
X109095238Y-80857142D01*
D10*
X130702380Y-84292857D02*
X131345238Y-84635714D01*
X131202380Y-84178571D02*
X131226190Y-84121428D01*
X131226190Y-84026190D01*
X131202380Y-83988095D01*
X131178571Y-83969047D01*
X131130952Y-83950000D01*
X131083333Y-83950000D01*
X131035714Y-83969047D01*
X131011904Y-83988095D01*
X130988095Y-84026190D01*
X130964285Y-84102380D01*
X130940476Y-84140476D01*
X130916666Y-84159523D01*
X130869047Y-84178571D01*
X130821428Y-84178571D01*
X130773809Y-84159523D01*
X130750000Y-84140476D01*
X130726190Y-84102380D01*
X130726190Y-84007142D01*
X130750000Y-83950000D01*
X130726190Y-83835714D02*
X130726190Y-83607142D01*
X131226190Y-83721428D02*
X130726190Y-83721428D01*
X130964285Y-83340476D02*
X130988095Y-83283333D01*
X131011904Y-83264285D01*
X131059523Y-83245238D01*
X131130952Y-83245238D01*
X131178571Y-83264285D01*
X131202380Y-83283333D01*
X131226190Y-83321428D01*
X131226190Y-83473809D01*
X130726190Y-83473809D01*
X130726190Y-83340476D01*
X130750000Y-83302380D01*
X130773809Y-83283333D01*
X130821428Y-83264285D01*
X130869047Y-83264285D01*
X130916666Y-83283333D01*
X130940476Y-83302380D01*
X130964285Y-83340476D01*
X130964285Y-83473809D01*
X130988095Y-82997619D02*
X131226190Y-82997619D01*
X130726190Y-83130952D02*
X130988095Y-82997619D01*
X130726190Y-82864285D01*
D11*
X108190476Y-77452380D02*
X108523809Y-78452380D01*
X108857142Y-77452380D01*
X109714285Y-78452380D02*
X109142857Y-78452380D01*
X109428571Y-78452380D02*
X109428571Y-77452380D01*
X109333333Y-77595238D01*
X109238095Y-77690476D01*
X109142857Y-77738095D01*
D10*
X160952380Y-81388095D02*
X161595238Y-81730952D01*
X161452380Y-81273809D02*
X161476190Y-81216666D01*
X161476190Y-81121428D01*
X161452380Y-81083333D01*
X161428571Y-81064285D01*
X161380952Y-81045238D01*
X161333333Y-81045238D01*
X161285714Y-81064285D01*
X161261904Y-81083333D01*
X161238095Y-81121428D01*
X161214285Y-81197619D01*
X161190476Y-81235714D01*
X161166666Y-81254761D01*
X161119047Y-81273809D01*
X161071428Y-81273809D01*
X161023809Y-81254761D01*
X161000000Y-81235714D01*
X160976190Y-81197619D01*
X160976190Y-81102380D01*
X161000000Y-81045238D01*
X161476190Y-80873809D02*
X160976190Y-80873809D01*
X161214285Y-80873809D02*
X161214285Y-80645238D01*
X161476190Y-80645238D02*
X160976190Y-80645238D01*
X161476190Y-80454761D02*
X160976190Y-80454761D01*
X160976190Y-80359523D01*
X161000000Y-80302380D01*
X161047619Y-80264285D01*
X161095238Y-80245238D01*
X161190476Y-80226190D01*
X161261904Y-80226190D01*
X161357142Y-80245238D01*
X161404761Y-80264285D01*
X161452380Y-80302380D01*
X161476190Y-80359523D01*
X161476190Y-80454761D01*
X161476190Y-80054761D02*
X160976190Y-80054761D01*
X161476190Y-79826190D01*
X160976190Y-79826190D01*
D12*
X137975065Y-74952380D02*
X138046494Y-74976190D01*
X138165542Y-74976190D01*
X138213161Y-74952380D01*
X138236970Y-74928571D01*
X138260780Y-74880952D01*
X138260780Y-74833333D01*
X138236970Y-74785714D01*
X138213161Y-74761904D01*
X138165542Y-74738095D01*
X138070304Y-74714285D01*
X138022684Y-74690476D01*
X137998875Y-74666666D01*
X137975065Y-74619047D01*
X137975065Y-74571428D01*
X137998875Y-74523809D01*
X138022684Y-74500000D01*
X138070304Y-74476190D01*
X138189351Y-74476190D01*
X138260780Y-74500000D01*
X138760780Y-74928571D02*
X138736970Y-74952380D01*
X138665542Y-74976190D01*
X138617923Y-74976190D01*
X138546494Y-74952380D01*
X138498875Y-74904761D01*
X138475065Y-74857142D01*
X138451256Y-74761904D01*
X138451256Y-74690476D01*
X138475065Y-74595238D01*
X138498875Y-74547619D01*
X138546494Y-74500000D01*
X138617923Y-74476190D01*
X138665542Y-74476190D01*
X138736970Y-74500000D01*
X138760780Y-74523809D01*
X139213161Y-74976190D02*
X138975065Y-74976190D01*
X138975065Y-74476190D01*
X171054761Y-60952380D02*
X171126190Y-60976190D01*
X171245238Y-60976190D01*
X171292857Y-60952380D01*
X171316666Y-60928571D01*
X171340476Y-60880952D01*
X171340476Y-60833333D01*
X171316666Y-60785714D01*
X171292857Y-60761904D01*
X171245238Y-60738095D01*
X171150000Y-60714285D01*
X171102380Y-60690476D01*
X171078571Y-60666666D01*
X171054761Y-60619047D01*
X171054761Y-60571428D01*
X171078571Y-60523809D01*
X171102380Y-60500000D01*
X171150000Y-60476190D01*
X171269047Y-60476190D01*
X171340476Y-60500000D01*
X171840476Y-60928571D02*
X171816666Y-60952380D01*
X171745238Y-60976190D01*
X171697619Y-60976190D01*
X171626190Y-60952380D01*
X171578571Y-60904761D01*
X171554761Y-60857142D01*
X171530952Y-60761904D01*
X171530952Y-60690476D01*
X171554761Y-60595238D01*
X171578571Y-60547619D01*
X171626190Y-60500000D01*
X171697619Y-60476190D01*
X171745238Y-60476190D01*
X171816666Y-60500000D01*
X171840476Y-60523809D01*
X172292857Y-60976190D02*
X172054761Y-60976190D01*
X172054761Y-60476190D01*
D11*
X129638095Y-53750000D02*
X129542857Y-53702380D01*
X129400000Y-53702380D01*
X129257142Y-53750000D01*
X129161904Y-53845238D01*
X129114285Y-53940476D01*
X129066666Y-54130952D01*
X129066666Y-54273809D01*
X129114285Y-54464285D01*
X129161904Y-54559523D01*
X129257142Y-54654761D01*
X129400000Y-54702380D01*
X129495238Y-54702380D01*
X129638095Y-54654761D01*
X129685714Y-54607142D01*
X129685714Y-54273809D01*
X129495238Y-54273809D01*
X130114285Y-54702380D02*
X130114285Y-53702380D01*
X130685714Y-54702380D01*
X130685714Y-53702380D01*
X131161904Y-54702380D02*
X131161904Y-53702380D01*
X131400000Y-53702380D01*
X131542857Y-53750000D01*
X131638095Y-53845238D01*
X131685714Y-53940476D01*
X131733333Y-54130952D01*
X131733333Y-54273809D01*
X131685714Y-54464285D01*
X131638095Y-54559523D01*
X131542857Y-54654761D01*
X131400000Y-54702380D01*
X131161904Y-54702380D01*
D10*
X139919411Y-70726190D02*
X139919411Y-70226190D01*
X140090839Y-70273809D02*
X140109887Y-70250000D01*
X140147982Y-70226190D01*
X140243220Y-70226190D01*
X140281315Y-70250000D01*
X140300363Y-70273809D01*
X140319411Y-70321428D01*
X140319411Y-70369047D01*
X140300363Y-70440476D01*
X140071792Y-70726190D01*
X140319411Y-70726190D01*
X140719411Y-70678571D02*
X140700363Y-70702380D01*
X140643220Y-70726190D01*
X140605125Y-70726190D01*
X140547982Y-70702380D01*
X140509887Y-70654761D01*
X140490839Y-70607142D01*
X140471792Y-70511904D01*
X140471792Y-70440476D01*
X140490839Y-70345238D01*
X140509887Y-70297619D01*
X140547982Y-70250000D01*
X140605125Y-70226190D01*
X140643220Y-70226190D01*
X140700363Y-70250000D01*
X140719411Y-70273809D01*
X141328934Y-70464285D02*
X141386077Y-70488095D01*
X141405125Y-70511904D01*
X141424173Y-70559523D01*
X141424173Y-70630952D01*
X141405125Y-70678571D01*
X141386077Y-70702380D01*
X141347982Y-70726190D01*
X141195601Y-70726190D01*
X141195601Y-70226190D01*
X141328934Y-70226190D01*
X141367030Y-70250000D01*
X141386077Y-70273809D01*
X141405125Y-70321428D01*
X141405125Y-70369047D01*
X141386077Y-70416666D01*
X141367030Y-70440476D01*
X141328934Y-70464285D01*
X141195601Y-70464285D01*
X141576554Y-70583333D02*
X141767030Y-70583333D01*
X141538458Y-70726190D02*
X141671792Y-70226190D01*
X141805125Y-70726190D01*
X141881315Y-70226190D02*
X142109887Y-70226190D01*
X141995601Y-70726190D02*
X141995601Y-70226190D01*
X142205125Y-70226190D02*
X142452744Y-70226190D01*
X142319411Y-70416666D01*
X142376554Y-70416666D01*
X142414649Y-70440476D01*
X142433696Y-70464285D01*
X142452744Y-70511904D01*
X142452744Y-70630952D01*
X142433696Y-70678571D01*
X142414649Y-70702380D01*
X142376554Y-70726190D01*
X142262268Y-70726190D01*
X142224173Y-70702380D01*
X142205125Y-70678571D01*
D12*
X121697619Y-46392857D02*
X121673809Y-46464285D01*
X121673809Y-46583333D01*
X121697619Y-46630952D01*
X121721428Y-46654761D01*
X121769047Y-46678571D01*
X121816666Y-46678571D01*
X121864285Y-46654761D01*
X121888095Y-46630952D01*
X121911904Y-46583333D01*
X121935714Y-46488095D01*
X121959523Y-46440476D01*
X121983333Y-46416666D01*
X122030952Y-46392857D01*
X122078571Y-46392857D01*
X122126190Y-46416666D01*
X122150000Y-46440476D01*
X122173809Y-46488095D01*
X122173809Y-46607142D01*
X122150000Y-46678571D01*
X121673809Y-46892857D02*
X122173809Y-46892857D01*
X122173809Y-47011904D01*
X122150000Y-47083333D01*
X122102380Y-47130952D01*
X122054761Y-47154761D01*
X121959523Y-47178571D01*
X121888095Y-47178571D01*
X121792857Y-47154761D01*
X121745238Y-47130952D01*
X121697619Y-47083333D01*
X121673809Y-47011904D01*
X121673809Y-46892857D01*
X121816666Y-47369047D02*
X121816666Y-47607142D01*
X121673809Y-47321428D02*
X122173809Y-47488095D01*
X121673809Y-47654761D01*
D10*
X147285904Y-48633333D02*
X146904952Y-48900000D01*
X147285904Y-49090476D02*
X146485904Y-49090476D01*
X146485904Y-48785714D01*
X146524000Y-48709523D01*
X146562095Y-48671428D01*
X146638285Y-48633333D01*
X146752571Y-48633333D01*
X146828761Y-48671428D01*
X146866857Y-48709523D01*
X146904952Y-48785714D01*
X146904952Y-49090476D01*
X147285904Y-47871428D02*
X147285904Y-48328571D01*
X147285904Y-48100000D02*
X146485904Y-48100000D01*
X146600190Y-48176190D01*
X146676380Y-48252380D01*
X146714476Y-48328571D01*
X149861904Y-48633333D02*
X149480952Y-48900000D01*
X149861904Y-49090476D02*
X149061904Y-49090476D01*
X149061904Y-48785714D01*
X149100000Y-48709523D01*
X149138095Y-48671428D01*
X149214285Y-48633333D01*
X149328571Y-48633333D01*
X149404761Y-48671428D01*
X149442857Y-48709523D01*
X149480952Y-48785714D01*
X149480952Y-49090476D01*
X149061904Y-48366666D02*
X149061904Y-47871428D01*
X149366666Y-48138095D01*
X149366666Y-48023809D01*
X149404761Y-47947619D01*
X149442857Y-47909523D01*
X149519047Y-47871428D01*
X149709523Y-47871428D01*
X149785714Y-47909523D01*
X149823809Y-47947619D01*
X149861904Y-48023809D01*
X149861904Y-48252380D01*
X149823809Y-48328571D01*
X149785714Y-48366666D01*
X152437904Y-48633333D02*
X152056952Y-48900000D01*
X152437904Y-49090476D02*
X151637904Y-49090476D01*
X151637904Y-48785714D01*
X151676000Y-48709523D01*
X151714095Y-48671428D01*
X151790285Y-48633333D01*
X151904571Y-48633333D01*
X151980761Y-48671428D01*
X152018857Y-48709523D01*
X152056952Y-48785714D01*
X152056952Y-49090476D01*
X151714095Y-48328571D02*
X151676000Y-48290476D01*
X151637904Y-48214285D01*
X151637904Y-48023809D01*
X151676000Y-47947619D01*
X151714095Y-47909523D01*
X151790285Y-47871428D01*
X151866476Y-47871428D01*
X151980761Y-47909523D01*
X152437904Y-48366666D01*
X152437904Y-47871428D01*
D11*
X108190476Y-82452380D02*
X108523809Y-83452380D01*
X108857142Y-82452380D01*
X109142857Y-82547619D02*
X109190476Y-82500000D01*
X109285714Y-82452380D01*
X109523809Y-82452380D01*
X109619047Y-82500000D01*
X109666666Y-82547619D01*
X109714285Y-82642857D01*
X109714285Y-82738095D01*
X109666666Y-82880952D01*
X109095238Y-83452380D01*
X109714285Y-83452380D01*
D10*
X127197619Y-46380952D02*
X126554761Y-46038095D01*
X126697619Y-46495238D02*
X126673809Y-46552380D01*
X126673809Y-46647619D01*
X126697619Y-46685714D01*
X126721428Y-46704761D01*
X126769047Y-46723809D01*
X126816666Y-46723809D01*
X126864285Y-46704761D01*
X126888095Y-46685714D01*
X126911904Y-46647619D01*
X126935714Y-46571428D01*
X126959523Y-46533333D01*
X126983333Y-46514285D01*
X127030952Y-46495238D01*
X127078571Y-46495238D01*
X127126190Y-46514285D01*
X127150000Y-46533333D01*
X127173809Y-46571428D01*
X127173809Y-46666666D01*
X127150000Y-46723809D01*
X126673809Y-46895238D02*
X127173809Y-46895238D01*
X126816666Y-47028571D01*
X127173809Y-47161904D01*
X126673809Y-47161904D01*
X126935714Y-47485714D02*
X126911904Y-47542857D01*
X126888095Y-47561904D01*
X126840476Y-47580952D01*
X126769047Y-47580952D01*
X126721428Y-47561904D01*
X126697619Y-47542857D01*
X126673809Y-47504761D01*
X126673809Y-47352380D01*
X127173809Y-47352380D01*
X127173809Y-47485714D01*
X127150000Y-47523809D01*
X127126190Y-47542857D01*
X127078571Y-47561904D01*
X127030952Y-47561904D01*
X126983333Y-47542857D01*
X126959523Y-47523809D01*
X126935714Y-47485714D01*
X126935714Y-47352380D01*
X126816666Y-47733333D02*
X126816666Y-47923809D01*
X126673809Y-47695238D02*
X127173809Y-47828571D01*
X126673809Y-47961904D01*
X128773809Y-48217857D02*
X129273809Y-48217857D01*
X129226190Y-48389285D02*
X129250000Y-48408333D01*
X129273809Y-48446428D01*
X129273809Y-48541666D01*
X129250000Y-48579761D01*
X129226190Y-48598809D01*
X129178571Y-48617857D01*
X129130952Y-48617857D01*
X129059523Y-48598809D01*
X128773809Y-48370238D01*
X128773809Y-48617857D01*
X128821428Y-49017857D02*
X128797619Y-48998809D01*
X128773809Y-48941666D01*
X128773809Y-48903571D01*
X128797619Y-48846428D01*
X128845238Y-48808333D01*
X128892857Y-48789285D01*
X128988095Y-48770238D01*
X129059523Y-48770238D01*
X129154761Y-48789285D01*
X129202380Y-48808333D01*
X129250000Y-48846428D01*
X129273809Y-48903571D01*
X129273809Y-48941666D01*
X129250000Y-48998809D01*
X129226190Y-49017857D01*
X129035714Y-49627380D02*
X129011904Y-49684523D01*
X128988095Y-49703571D01*
X128940476Y-49722619D01*
X128869047Y-49722619D01*
X128821428Y-49703571D01*
X128797619Y-49684523D01*
X128773809Y-49646428D01*
X128773809Y-49494047D01*
X129273809Y-49494047D01*
X129273809Y-49627380D01*
X129250000Y-49665476D01*
X129226190Y-49684523D01*
X129178571Y-49703571D01*
X129130952Y-49703571D01*
X129083333Y-49684523D01*
X129059523Y-49665476D01*
X129035714Y-49627380D01*
X129035714Y-49494047D01*
X128916666Y-49875000D02*
X128916666Y-50065476D01*
X128773809Y-49836904D02*
X129273809Y-49970238D01*
X128773809Y-50103571D01*
X129273809Y-50179761D02*
X129273809Y-50408333D01*
X128773809Y-50294047D02*
X129273809Y-50294047D01*
X128773809Y-50751190D02*
X128773809Y-50522619D01*
X128773809Y-50636904D02*
X129273809Y-50636904D01*
X129202380Y-50598809D01*
X129154761Y-50560714D01*
X129130952Y-50522619D01*
D12*
X170892261Y-66189940D02*
X170892261Y-65689940D01*
X171011309Y-65689940D01*
X171082738Y-65713750D01*
X171130357Y-65761369D01*
X171154166Y-65808988D01*
X171177976Y-65904226D01*
X171177976Y-65975654D01*
X171154166Y-66070892D01*
X171130357Y-66118511D01*
X171082738Y-66166130D01*
X171011309Y-66189940D01*
X170892261Y-66189940D01*
X171320833Y-65689940D02*
X171487500Y-66189940D01*
X171654166Y-65689940D01*
X172106547Y-66142321D02*
X172082738Y-66166130D01*
X172011309Y-66189940D01*
X171963690Y-66189940D01*
X171892261Y-66166130D01*
X171844642Y-66118511D01*
X171820833Y-66070892D01*
X171797023Y-65975654D01*
X171797023Y-65904226D01*
X171820833Y-65808988D01*
X171844642Y-65761369D01*
X171892261Y-65713750D01*
X171963690Y-65689940D01*
X172011309Y-65689940D01*
X172082738Y-65713750D01*
X172106547Y-65737559D01*
X172606547Y-66142321D02*
X172582738Y-66166130D01*
X172511309Y-66189940D01*
X172463690Y-66189940D01*
X172392261Y-66166130D01*
X172344642Y-66118511D01*
X172320833Y-66070892D01*
X172297023Y-65975654D01*
X172297023Y-65904226D01*
X172320833Y-65808988D01*
X172344642Y-65761369D01*
X172392261Y-65713750D01*
X172463690Y-65689940D01*
X172511309Y-65689940D01*
X172582738Y-65713750D01*
X172606547Y-65737559D01*
D13*
X142714285Y-138178571D02*
X142714285Y-136678571D01*
X143285714Y-136678571D01*
X143428571Y-136750000D01*
X143500000Y-136821428D01*
X143571428Y-136964285D01*
X143571428Y-137178571D01*
X143500000Y-137321428D01*
X143428571Y-137392857D01*
X143285714Y-137464285D01*
X142714285Y-137464285D01*
X144428571Y-138178571D02*
X144285714Y-138107142D01*
X144214285Y-138035714D01*
X144142857Y-137892857D01*
X144142857Y-137464285D01*
X144214285Y-137321428D01*
X144285714Y-137250000D01*
X144428571Y-137178571D01*
X144642857Y-137178571D01*
X144785714Y-137250000D01*
X144857142Y-137321428D01*
X144928571Y-137464285D01*
X144928571Y-137892857D01*
X144857142Y-138035714D01*
X144785714Y-138107142D01*
X144642857Y-138178571D01*
X144428571Y-138178571D01*
X145428571Y-137178571D02*
X145714285Y-138178571D01*
X146000000Y-137464285D01*
X146285714Y-138178571D01*
X146571428Y-137178571D01*
X147714285Y-138107142D02*
X147571428Y-138178571D01*
X147285714Y-138178571D01*
X147142857Y-138107142D01*
X147071428Y-137964285D01*
X147071428Y-137392857D01*
X147142857Y-137250000D01*
X147285714Y-137178571D01*
X147571428Y-137178571D01*
X147714285Y-137250000D01*
X147785714Y-137392857D01*
X147785714Y-137535714D01*
X147071428Y-137678571D01*
X148428571Y-138178571D02*
X148428571Y-137178571D01*
X148428571Y-137464285D02*
X148500000Y-137321428D01*
X148571428Y-137250000D01*
X148714285Y-137178571D01*
X148857142Y-137178571D01*
X151000000Y-137392857D02*
X151214285Y-137464285D01*
X151285714Y-137535714D01*
X151357142Y-137678571D01*
X151357142Y-137892857D01*
X151285714Y-138035714D01*
X151214285Y-138107142D01*
X151071428Y-138178571D01*
X150500000Y-138178571D01*
X150500000Y-136678571D01*
X151000000Y-136678571D01*
X151142857Y-136750000D01*
X151214285Y-136821428D01*
X151285714Y-136964285D01*
X151285714Y-137107142D01*
X151214285Y-137250000D01*
X151142857Y-137321428D01*
X151000000Y-137392857D01*
X150500000Y-137392857D01*
X152214285Y-138178571D02*
X152071428Y-138107142D01*
X152000000Y-138035714D01*
X151928571Y-137892857D01*
X151928571Y-137464285D01*
X152000000Y-137321428D01*
X152071428Y-137250000D01*
X152214285Y-137178571D01*
X152428571Y-137178571D01*
X152571428Y-137250000D01*
X152642857Y-137321428D01*
X152714285Y-137464285D01*
X152714285Y-137892857D01*
X152642857Y-138035714D01*
X152571428Y-138107142D01*
X152428571Y-138178571D01*
X152214285Y-138178571D01*
X154000000Y-138178571D02*
X154000000Y-137392857D01*
X153928571Y-137250000D01*
X153785714Y-137178571D01*
X153500000Y-137178571D01*
X153357142Y-137250000D01*
X154000000Y-138107142D02*
X153857142Y-138178571D01*
X153500000Y-138178571D01*
X153357142Y-138107142D01*
X153285714Y-137964285D01*
X153285714Y-137821428D01*
X153357142Y-137678571D01*
X153500000Y-137607142D01*
X153857142Y-137607142D01*
X154000000Y-137535714D01*
X154714285Y-138178571D02*
X154714285Y-137178571D01*
X154714285Y-137464285D02*
X154785714Y-137321428D01*
X154857142Y-137250000D01*
X155000000Y-137178571D01*
X155142857Y-137178571D01*
X156285714Y-138178571D02*
X156285714Y-136678571D01*
X156285714Y-138107142D02*
X156142857Y-138178571D01*
X155857142Y-138178571D01*
X155714285Y-138107142D01*
X155642857Y-138035714D01*
X155571428Y-137892857D01*
X155571428Y-137464285D01*
X155642857Y-137321428D01*
X155714285Y-137250000D01*
X155857142Y-137178571D01*
X156142857Y-137178571D01*
X156285714Y-137250000D01*
X157928571Y-136678571D02*
X158428571Y-138178571D01*
X158928571Y-136678571D01*
X160071428Y-137178571D02*
X160071428Y-138178571D01*
X159714285Y-136607142D02*
X159357142Y-137678571D01*
X160285714Y-137678571D01*
X160857142Y-138035714D02*
X160928571Y-138107142D01*
X160857142Y-138178571D01*
X160785714Y-138107142D01*
X160857142Y-138035714D01*
X160857142Y-138178571D01*
X161857142Y-136678571D02*
X162000000Y-136678571D01*
X162142857Y-136750000D01*
X162214285Y-136821428D01*
X162285714Y-136964285D01*
X162357142Y-137250000D01*
X162357142Y-137607142D01*
X162285714Y-137892857D01*
X162214285Y-138035714D01*
X162142857Y-138107142D01*
X162000000Y-138178571D01*
X161857142Y-138178571D01*
X161714285Y-138107142D01*
X161642857Y-138035714D01*
X161571428Y-137892857D01*
X161500000Y-137607142D01*
X161500000Y-137250000D01*
X161571428Y-136964285D01*
X161642857Y-136821428D01*
X161714285Y-136750000D01*
X161857142Y-136678571D01*
D12*
X137725065Y-80476190D02*
X137725065Y-79976190D01*
X137844113Y-79976190D01*
X137915542Y-80000000D01*
X137963161Y-80047619D01*
X137986970Y-80095238D01*
X138010780Y-80190476D01*
X138010780Y-80261904D01*
X137986970Y-80357142D01*
X137963161Y-80404761D01*
X137915542Y-80452380D01*
X137844113Y-80476190D01*
X137725065Y-80476190D01*
X138153637Y-79976190D02*
X138320304Y-80476190D01*
X138486970Y-79976190D01*
X138939351Y-80428571D02*
X138915542Y-80452380D01*
X138844113Y-80476190D01*
X138796494Y-80476190D01*
X138725065Y-80452380D01*
X138677446Y-80404761D01*
X138653637Y-80357142D01*
X138629827Y-80261904D01*
X138629827Y-80190476D01*
X138653637Y-80095238D01*
X138677446Y-80047619D01*
X138725065Y-80000000D01*
X138796494Y-79976190D01*
X138844113Y-79976190D01*
X138915542Y-80000000D01*
X138939351Y-80023809D01*
X139439351Y-80428571D02*
X139415542Y-80452380D01*
X139344113Y-80476190D01*
X139296494Y-80476190D01*
X139225065Y-80452380D01*
X139177446Y-80404761D01*
X139153637Y-80357142D01*
X139129827Y-80261904D01*
X139129827Y-80190476D01*
X139153637Y-80095238D01*
X139177446Y-80047619D01*
X139225065Y-80000000D01*
X139296494Y-79976190D01*
X139344113Y-79976190D01*
X139415542Y-80000000D01*
X139439351Y-80023809D01*
D13*
X167257142Y-48107142D02*
X167471428Y-48178571D01*
X167828571Y-48178571D01*
X167971428Y-48107142D01*
X168042857Y-48035714D01*
X168114285Y-47892857D01*
X168114285Y-47750000D01*
X168042857Y-47607142D01*
X167971428Y-47535714D01*
X167828571Y-47464285D01*
X167542857Y-47392857D01*
X167400000Y-47321428D01*
X167328571Y-47250000D01*
X167257142Y-47107142D01*
X167257142Y-46964285D01*
X167328571Y-46821428D01*
X167400000Y-46750000D01*
X167542857Y-46678571D01*
X167900000Y-46678571D01*
X168114285Y-46750000D01*
X169542857Y-48178571D02*
X168685714Y-48178571D01*
X169114285Y-48178571D02*
X169114285Y-46678571D01*
X168971428Y-46892857D01*
X168828571Y-47035714D01*
X168685714Y-47107142D01*
D10*
X127952380Y-84388095D02*
X128595238Y-84730952D01*
X128452380Y-84273809D02*
X128476190Y-84216666D01*
X128476190Y-84121428D01*
X128452380Y-84083333D01*
X128428571Y-84064285D01*
X128380952Y-84045238D01*
X128333333Y-84045238D01*
X128285714Y-84064285D01*
X128261904Y-84083333D01*
X128238095Y-84121428D01*
X128214285Y-84197619D01*
X128190476Y-84235714D01*
X128166666Y-84254761D01*
X128119047Y-84273809D01*
X128071428Y-84273809D01*
X128023809Y-84254761D01*
X128000000Y-84235714D01*
X127976190Y-84197619D01*
X127976190Y-84102380D01*
X128000000Y-84045238D01*
X128476190Y-83873809D02*
X127976190Y-83873809D01*
X128214285Y-83873809D02*
X128214285Y-83645238D01*
X128476190Y-83645238D02*
X127976190Y-83645238D01*
X128476190Y-83454761D02*
X127976190Y-83454761D01*
X127976190Y-83359523D01*
X128000000Y-83302380D01*
X128047619Y-83264285D01*
X128095238Y-83245238D01*
X128190476Y-83226190D01*
X128261904Y-83226190D01*
X128357142Y-83245238D01*
X128404761Y-83264285D01*
X128452380Y-83302380D01*
X128476190Y-83359523D01*
X128476190Y-83454761D01*
X128476190Y-83054761D02*
X127976190Y-83054761D01*
X128476190Y-82826190D01*
X127976190Y-82826190D01*
D13*
X140757142Y-48107142D02*
X140971428Y-48178571D01*
X141328571Y-48178571D01*
X141471428Y-48107142D01*
X141542857Y-48035714D01*
X141614285Y-47892857D01*
X141614285Y-47750000D01*
X141542857Y-47607142D01*
X141471428Y-47535714D01*
X141328571Y-47464285D01*
X141042857Y-47392857D01*
X140900000Y-47321428D01*
X140828571Y-47250000D01*
X140757142Y-47107142D01*
X140757142Y-46964285D01*
X140828571Y-46821428D01*
X140900000Y-46750000D01*
X141042857Y-46678571D01*
X141400000Y-46678571D01*
X141614285Y-46750000D01*
X142114285Y-46678571D02*
X143042857Y-46678571D01*
X142542857Y-47250000D01*
X142757142Y-47250000D01*
X142900000Y-47321428D01*
X142971428Y-47392857D01*
X143042857Y-47535714D01*
X143042857Y-47892857D01*
X142971428Y-48035714D01*
X142900000Y-48107142D01*
X142757142Y-48178571D01*
X142328571Y-48178571D01*
X142185714Y-48107142D01*
X142114285Y-48035714D01*
X112392857Y-130714285D02*
X112464285Y-130500000D01*
X112535714Y-130428571D01*
X112678571Y-130357142D01*
X112892857Y-130357142D01*
X113035714Y-130428571D01*
X113107142Y-130500000D01*
X113178571Y-130642857D01*
X113178571Y-131214285D01*
X111678571Y-131214285D01*
X111678571Y-130714285D01*
X111750000Y-130571428D01*
X111821428Y-130500000D01*
X111964285Y-130428571D01*
X112107142Y-130428571D01*
X112250000Y-130500000D01*
X112321428Y-130571428D01*
X112392857Y-130714285D01*
X112392857Y-131214285D01*
X113178571Y-129071428D02*
X112392857Y-129071428D01*
X112250000Y-129142857D01*
X112178571Y-129285714D01*
X112178571Y-129571428D01*
X112250000Y-129714285D01*
X113107142Y-129071428D02*
X113178571Y-129214285D01*
X113178571Y-129571428D01*
X113107142Y-129714285D01*
X112964285Y-129785714D01*
X112821428Y-129785714D01*
X112678571Y-129714285D01*
X112607142Y-129571428D01*
X112607142Y-129214285D01*
X112535714Y-129071428D01*
X112178571Y-128571428D02*
X112178571Y-128000000D01*
X111678571Y-128357142D02*
X112964285Y-128357142D01*
X113107142Y-128285714D01*
X113178571Y-128142857D01*
X113178571Y-128000000D01*
X111678571Y-127642857D02*
X111678571Y-126714285D01*
X112250000Y-127214285D01*
X112250000Y-127000000D01*
X112321428Y-126857142D01*
X112392857Y-126785714D01*
X112535714Y-126714285D01*
X112892857Y-126714285D01*
X113035714Y-126785714D01*
X113107142Y-126857142D01*
X113178571Y-127000000D01*
X113178571Y-127428571D01*
X113107142Y-127571428D01*
X113035714Y-127642857D01*
X112392857Y-95714285D02*
X112464285Y-95500000D01*
X112535714Y-95428571D01*
X112678571Y-95357142D01*
X112892857Y-95357142D01*
X113035714Y-95428571D01*
X113107142Y-95500000D01*
X113178571Y-95642857D01*
X113178571Y-96214285D01*
X111678571Y-96214285D01*
X111678571Y-95714285D01*
X111750000Y-95571428D01*
X111821428Y-95500000D01*
X111964285Y-95428571D01*
X112107142Y-95428571D01*
X112250000Y-95500000D01*
X112321428Y-95571428D01*
X112392857Y-95714285D01*
X112392857Y-96214285D01*
X113178571Y-94071428D02*
X112392857Y-94071428D01*
X112250000Y-94142857D01*
X112178571Y-94285714D01*
X112178571Y-94571428D01*
X112250000Y-94714285D01*
X113107142Y-94071428D02*
X113178571Y-94214285D01*
X113178571Y-94571428D01*
X113107142Y-94714285D01*
X112964285Y-94785714D01*
X112821428Y-94785714D01*
X112678571Y-94714285D01*
X112607142Y-94571428D01*
X112607142Y-94214285D01*
X112535714Y-94071428D01*
X112178571Y-93571428D02*
X112178571Y-93000000D01*
X111678571Y-93357142D02*
X112964285Y-93357142D01*
X113107142Y-93285714D01*
X113178571Y-93142857D01*
X113178571Y-93000000D01*
X113178571Y-91714285D02*
X113178571Y-92571428D01*
X113178571Y-92142857D02*
X111678571Y-92142857D01*
X111892857Y-92285714D01*
X112035714Y-92428571D01*
X112107142Y-92571428D01*
D10*
X163702380Y-81292857D02*
X164345238Y-81635714D01*
X164202380Y-81178571D02*
X164226190Y-81121428D01*
X164226190Y-81026190D01*
X164202380Y-80988095D01*
X164178571Y-80969047D01*
X164130952Y-80950000D01*
X164083333Y-80950000D01*
X164035714Y-80969047D01*
X164011904Y-80988095D01*
X163988095Y-81026190D01*
X163964285Y-81102380D01*
X163940476Y-81140476D01*
X163916666Y-81159523D01*
X163869047Y-81178571D01*
X163821428Y-81178571D01*
X163773809Y-81159523D01*
X163750000Y-81140476D01*
X163726190Y-81102380D01*
X163726190Y-81007142D01*
X163750000Y-80950000D01*
X163726190Y-80835714D02*
X163726190Y-80607142D01*
X164226190Y-80721428D02*
X163726190Y-80721428D01*
X163964285Y-80340476D02*
X163988095Y-80283333D01*
X164011904Y-80264285D01*
X164059523Y-80245238D01*
X164130952Y-80245238D01*
X164178571Y-80264285D01*
X164202380Y-80283333D01*
X164226190Y-80321428D01*
X164226190Y-80473809D01*
X163726190Y-80473809D01*
X163726190Y-80340476D01*
X163750000Y-80302380D01*
X163773809Y-80283333D01*
X163821428Y-80264285D01*
X163869047Y-80264285D01*
X163916666Y-80283333D01*
X163940476Y-80302380D01*
X163964285Y-80340476D01*
X163964285Y-80473809D01*
X163988095Y-79997619D02*
X164226190Y-79997619D01*
X163726190Y-80130952D02*
X163988095Y-79997619D01*
X163726190Y-79864285D01*
X172266666Y-77976190D02*
X172514285Y-77976190D01*
X172380952Y-78166666D01*
X172438095Y-78166666D01*
X172476190Y-78190476D01*
X172495238Y-78214285D01*
X172514285Y-78261904D01*
X172514285Y-78380952D01*
X172495238Y-78428571D01*
X172476190Y-78452380D01*
X172438095Y-78476190D01*
X172323809Y-78476190D01*
X172285714Y-78452380D01*
X172266666Y-78428571D01*
X172971428Y-77952380D02*
X172628571Y-78595238D01*
X173085714Y-78142857D02*
X173371428Y-78142857D01*
X173200000Y-77928571D02*
X173085714Y-78571428D01*
X173333333Y-78357142D02*
X173047619Y-78357142D01*
X173219047Y-78571428D02*
X173333333Y-77928571D01*
X173695238Y-77976190D02*
X173504761Y-77976190D01*
X173485714Y-78214285D01*
X173504761Y-78190476D01*
X173542857Y-78166666D01*
X173638095Y-78166666D01*
X173676190Y-78190476D01*
X173695238Y-78214285D01*
X173714285Y-78261904D01*
X173714285Y-78380952D01*
X173695238Y-78428571D01*
X173676190Y-78452380D01*
X173638095Y-78476190D01*
X173542857Y-78476190D01*
X173504761Y-78452380D01*
X173485714Y-78428571D01*
D12*
X171130357Y-63702380D02*
X171201785Y-63726190D01*
X171320833Y-63726190D01*
X171368452Y-63702380D01*
X171392261Y-63678571D01*
X171416071Y-63630952D01*
X171416071Y-63583333D01*
X171392261Y-63535714D01*
X171368452Y-63511904D01*
X171320833Y-63488095D01*
X171225595Y-63464285D01*
X171177976Y-63440476D01*
X171154166Y-63416666D01*
X171130357Y-63369047D01*
X171130357Y-63321428D01*
X171154166Y-63273809D01*
X171177976Y-63250000D01*
X171225595Y-63226190D01*
X171344642Y-63226190D01*
X171416071Y-63250000D01*
X171630357Y-63726190D02*
X171630357Y-63226190D01*
X171749404Y-63226190D01*
X171820833Y-63250000D01*
X171868452Y-63297619D01*
X171892261Y-63345238D01*
X171916071Y-63440476D01*
X171916071Y-63511904D01*
X171892261Y-63607142D01*
X171868452Y-63654761D01*
X171820833Y-63702380D01*
X171749404Y-63726190D01*
X171630357Y-63726190D01*
X172106547Y-63583333D02*
X172344642Y-63583333D01*
X172058928Y-63726190D02*
X172225595Y-63226190D01*
X172392261Y-63726190D01*
X137963161Y-77652380D02*
X138034589Y-77676190D01*
X138153637Y-77676190D01*
X138201256Y-77652380D01*
X138225065Y-77628571D01*
X138248875Y-77580952D01*
X138248875Y-77533333D01*
X138225065Y-77485714D01*
X138201256Y-77461904D01*
X138153637Y-77438095D01*
X138058399Y-77414285D01*
X138010780Y-77390476D01*
X137986970Y-77366666D01*
X137963161Y-77319047D01*
X137963161Y-77271428D01*
X137986970Y-77223809D01*
X138010780Y-77200000D01*
X138058399Y-77176190D01*
X138177446Y-77176190D01*
X138248875Y-77200000D01*
X138463161Y-77676190D02*
X138463161Y-77176190D01*
X138582208Y-77176190D01*
X138653637Y-77200000D01*
X138701256Y-77247619D01*
X138725065Y-77295238D01*
X138748875Y-77390476D01*
X138748875Y-77461904D01*
X138725065Y-77557142D01*
X138701256Y-77604761D01*
X138653637Y-77652380D01*
X138582208Y-77676190D01*
X138463161Y-77676190D01*
X138939351Y-77533333D02*
X139177446Y-77533333D01*
X138891732Y-77676190D02*
X139058399Y-77176190D01*
X139225065Y-77676190D01*
D13*
X140757142Y-62607142D02*
X140971428Y-62678571D01*
X141328571Y-62678571D01*
X141471428Y-62607142D01*
X141542857Y-62535714D01*
X141614285Y-62392857D01*
X141614285Y-62250000D01*
X141542857Y-62107142D01*
X141471428Y-62035714D01*
X141328571Y-61964285D01*
X141042857Y-61892857D01*
X140900000Y-61821428D01*
X140828571Y-61750000D01*
X140757142Y-61607142D01*
X140757142Y-61464285D01*
X140828571Y-61321428D01*
X140900000Y-61250000D01*
X141042857Y-61178571D01*
X141400000Y-61178571D01*
X141614285Y-61250000D01*
X142900000Y-61678571D02*
X142900000Y-62678571D01*
X142542857Y-61107142D02*
X142185714Y-62178571D01*
X143114285Y-62178571D01*
D10*
X160785904Y-48633333D02*
X160404952Y-48900000D01*
X160785904Y-49090476D02*
X159985904Y-49090476D01*
X159985904Y-48785714D01*
X160024000Y-48709523D01*
X160062095Y-48671428D01*
X160138285Y-48633333D01*
X160252571Y-48633333D01*
X160328761Y-48671428D01*
X160366857Y-48709523D01*
X160404952Y-48785714D01*
X160404952Y-49090476D01*
X160785904Y-47871428D02*
X160785904Y-48328571D01*
X160785904Y-48100000D02*
X159985904Y-48100000D01*
X160100190Y-48176190D01*
X160176380Y-48252380D01*
X160214476Y-48328571D01*
X163361904Y-48633333D02*
X162980952Y-48900000D01*
X163361904Y-49090476D02*
X162561904Y-49090476D01*
X162561904Y-48785714D01*
X162600000Y-48709523D01*
X162638095Y-48671428D01*
X162714285Y-48633333D01*
X162828571Y-48633333D01*
X162904761Y-48671428D01*
X162942857Y-48709523D01*
X162980952Y-48785714D01*
X162980952Y-49090476D01*
X162561904Y-48366666D02*
X162561904Y-47871428D01*
X162866666Y-48138095D01*
X162866666Y-48023809D01*
X162904761Y-47947619D01*
X162942857Y-47909523D01*
X163019047Y-47871428D01*
X163209523Y-47871428D01*
X163285714Y-47909523D01*
X163323809Y-47947619D01*
X163361904Y-48023809D01*
X163361904Y-48252380D01*
X163323809Y-48328571D01*
X163285714Y-48366666D01*
X165937904Y-48633333D02*
X165556952Y-48900000D01*
X165937904Y-49090476D02*
X165137904Y-49090476D01*
X165137904Y-48785714D01*
X165176000Y-48709523D01*
X165214095Y-48671428D01*
X165290285Y-48633333D01*
X165404571Y-48633333D01*
X165480761Y-48671428D01*
X165518857Y-48709523D01*
X165556952Y-48785714D01*
X165556952Y-49090476D01*
X165214095Y-48328571D02*
X165176000Y-48290476D01*
X165137904Y-48214285D01*
X165137904Y-48023809D01*
X165176000Y-47947619D01*
X165214095Y-47909523D01*
X165290285Y-47871428D01*
X165366476Y-47871428D01*
X165480761Y-47909523D01*
X165937904Y-48366666D01*
X165937904Y-47871428D01*
X170618452Y-58166130D02*
X170275595Y-58808988D01*
X170732738Y-58666130D02*
X170789880Y-58689940D01*
X170885119Y-58689940D01*
X170923214Y-58666130D01*
X170942261Y-58642321D01*
X170961309Y-58594702D01*
X170961309Y-58547083D01*
X170942261Y-58499464D01*
X170923214Y-58475654D01*
X170885119Y-58451845D01*
X170808928Y-58428035D01*
X170770833Y-58404226D01*
X170751785Y-58380416D01*
X170732738Y-58332797D01*
X170732738Y-58285178D01*
X170751785Y-58237559D01*
X170770833Y-58213750D01*
X170808928Y-58189940D01*
X170904166Y-58189940D01*
X170961309Y-58213750D01*
X171132738Y-58689940D02*
X171132738Y-58189940D01*
X171266071Y-58547083D01*
X171399404Y-58189940D01*
X171399404Y-58689940D01*
X171723214Y-58428035D02*
X171780357Y-58451845D01*
X171799404Y-58475654D01*
X171818452Y-58523273D01*
X171818452Y-58594702D01*
X171799404Y-58642321D01*
X171780357Y-58666130D01*
X171742261Y-58689940D01*
X171589880Y-58689940D01*
X171589880Y-58189940D01*
X171723214Y-58189940D01*
X171761309Y-58213750D01*
X171780357Y-58237559D01*
X171799404Y-58285178D01*
X171799404Y-58332797D01*
X171780357Y-58380416D01*
X171761309Y-58404226D01*
X171723214Y-58428035D01*
X171589880Y-58428035D01*
X171970833Y-58547083D02*
X172161309Y-58547083D01*
X171932738Y-58689940D02*
X172066071Y-58189940D01*
X172199404Y-58689940D01*
X172457142Y-75452380D02*
X172114285Y-76095238D01*
X172571428Y-75952380D02*
X172628571Y-75976190D01*
X172723809Y-75976190D01*
X172761904Y-75952380D01*
X172780952Y-75928571D01*
X172800000Y-75880952D01*
X172800000Y-75833333D01*
X172780952Y-75785714D01*
X172761904Y-75761904D01*
X172723809Y-75738095D01*
X172647619Y-75714285D01*
X172609523Y-75690476D01*
X172590476Y-75666666D01*
X172571428Y-75619047D01*
X172571428Y-75571428D01*
X172590476Y-75523809D01*
X172609523Y-75500000D01*
X172647619Y-75476190D01*
X172742857Y-75476190D01*
X172800000Y-75500000D01*
X172914285Y-75476190D02*
X173142857Y-75476190D01*
X173028571Y-75976190D02*
X173028571Y-75476190D01*
X173409523Y-75714285D02*
X173466666Y-75738095D01*
X173485714Y-75761904D01*
X173504761Y-75809523D01*
X173504761Y-75880952D01*
X173485714Y-75928571D01*
X173466666Y-75952380D01*
X173428571Y-75976190D01*
X173276190Y-75976190D01*
X173276190Y-75476190D01*
X173409523Y-75476190D01*
X173447619Y-75500000D01*
X173466666Y-75523809D01*
X173485714Y-75571428D01*
X173485714Y-75619047D01*
X173466666Y-75666666D01*
X173447619Y-75690476D01*
X173409523Y-75714285D01*
X173276190Y-75714285D01*
X173752380Y-75738095D02*
X173752380Y-75976190D01*
X173619047Y-75476190D02*
X173752380Y-75738095D01*
X173885714Y-75476190D01*
D12*
X137296494Y-71952380D02*
X136867923Y-72595238D01*
X137439351Y-72452380D02*
X137510780Y-72476190D01*
X137629827Y-72476190D01*
X137677446Y-72452380D01*
X137701256Y-72428571D01*
X137725065Y-72380952D01*
X137725065Y-72333333D01*
X137701256Y-72285714D01*
X137677446Y-72261904D01*
X137629827Y-72238095D01*
X137534589Y-72214285D01*
X137486970Y-72190476D01*
X137463161Y-72166666D01*
X137439351Y-72119047D01*
X137439351Y-72071428D01*
X137463161Y-72023809D01*
X137486970Y-72000000D01*
X137534589Y-71976190D01*
X137653637Y-71976190D01*
X137725065Y-72000000D01*
X137939351Y-72476190D02*
X137939351Y-71976190D01*
X138106018Y-72333333D01*
X138272684Y-71976190D01*
X138272684Y-72476190D01*
X138677446Y-72214285D02*
X138748875Y-72238095D01*
X138772684Y-72261904D01*
X138796494Y-72309523D01*
X138796494Y-72380952D01*
X138772684Y-72428571D01*
X138748875Y-72452380D01*
X138701256Y-72476190D01*
X138510780Y-72476190D01*
X138510780Y-71976190D01*
X138677446Y-71976190D01*
X138725065Y-72000000D01*
X138748875Y-72023809D01*
X138772684Y-72071428D01*
X138772684Y-72119047D01*
X138748875Y-72166666D01*
X138725065Y-72190476D01*
X138677446Y-72214285D01*
X138510780Y-72214285D01*
X138986970Y-72333333D02*
X139225065Y-72333333D01*
X138939351Y-72476190D02*
X139106018Y-71976190D01*
X139272684Y-72476190D01*
D13*
X112392857Y-113714285D02*
X112464285Y-113500000D01*
X112535714Y-113428571D01*
X112678571Y-113357142D01*
X112892857Y-113357142D01*
X113035714Y-113428571D01*
X113107142Y-113500000D01*
X113178571Y-113642857D01*
X113178571Y-114214285D01*
X111678571Y-114214285D01*
X111678571Y-113714285D01*
X111750000Y-113571428D01*
X111821428Y-113500000D01*
X111964285Y-113428571D01*
X112107142Y-113428571D01*
X112250000Y-113500000D01*
X112321428Y-113571428D01*
X112392857Y-113714285D01*
X112392857Y-114214285D01*
X113178571Y-112071428D02*
X112392857Y-112071428D01*
X112250000Y-112142857D01*
X112178571Y-112285714D01*
X112178571Y-112571428D01*
X112250000Y-112714285D01*
X113107142Y-112071428D02*
X113178571Y-112214285D01*
X113178571Y-112571428D01*
X113107142Y-112714285D01*
X112964285Y-112785714D01*
X112821428Y-112785714D01*
X112678571Y-112714285D01*
X112607142Y-112571428D01*
X112607142Y-112214285D01*
X112535714Y-112071428D01*
X112178571Y-111571428D02*
X112178571Y-111000000D01*
X111678571Y-111357142D02*
X112964285Y-111357142D01*
X113107142Y-111285714D01*
X113178571Y-111142857D01*
X113178571Y-111000000D01*
X111821428Y-110571428D02*
X111750000Y-110500000D01*
X111678571Y-110357142D01*
X111678571Y-110000000D01*
X111750000Y-109857142D01*
X111821428Y-109785714D01*
X111964285Y-109714285D01*
X112107142Y-109714285D01*
X112321428Y-109785714D01*
X113178571Y-110642857D01*
X113178571Y-109714285D01*
D10*
X133226190Y-84483333D02*
X133226190Y-84235714D01*
X133416666Y-84369047D01*
X133416666Y-84311904D01*
X133440476Y-84273809D01*
X133464285Y-84254761D01*
X133511904Y-84235714D01*
X133630952Y-84235714D01*
X133678571Y-84254761D01*
X133702380Y-84273809D01*
X133726190Y-84311904D01*
X133726190Y-84426190D01*
X133702380Y-84464285D01*
X133678571Y-84483333D01*
X133202380Y-83778571D02*
X133845238Y-84121428D01*
X133392857Y-83664285D02*
X133392857Y-83378571D01*
X133178571Y-83550000D02*
X133821428Y-83664285D01*
X133607142Y-83416666D02*
X133607142Y-83702380D01*
X133821428Y-83530952D02*
X133178571Y-83416666D01*
X133226190Y-83054761D02*
X133226190Y-83245238D01*
X133464285Y-83264285D01*
X133440476Y-83245238D01*
X133416666Y-83207142D01*
X133416666Y-83111904D01*
X133440476Y-83073809D01*
X133464285Y-83054761D01*
X133511904Y-83035714D01*
X133630952Y-83035714D01*
X133678571Y-83054761D01*
X133702380Y-83073809D01*
X133726190Y-83111904D01*
X133726190Y-83207142D01*
X133702380Y-83245238D01*
X133678571Y-83264285D01*
D13*
X154257142Y-62607142D02*
X154471428Y-62678571D01*
X154828571Y-62678571D01*
X154971428Y-62607142D01*
X155042857Y-62535714D01*
X155114285Y-62392857D01*
X155114285Y-62250000D01*
X155042857Y-62107142D01*
X154971428Y-62035714D01*
X154828571Y-61964285D01*
X154542857Y-61892857D01*
X154400000Y-61821428D01*
X154328571Y-61750000D01*
X154257142Y-61607142D01*
X154257142Y-61464285D01*
X154328571Y-61321428D01*
X154400000Y-61250000D01*
X154542857Y-61178571D01*
X154900000Y-61178571D01*
X155114285Y-61250000D01*
X156471428Y-61178571D02*
X155757142Y-61178571D01*
X155685714Y-61892857D01*
X155757142Y-61821428D01*
X155900000Y-61750000D01*
X156257142Y-61750000D01*
X156400000Y-61821428D01*
X156471428Y-61892857D01*
X156542857Y-62035714D01*
X156542857Y-62392857D01*
X156471428Y-62535714D01*
X156400000Y-62607142D01*
X156257142Y-62678571D01*
X155900000Y-62678571D01*
X155757142Y-62607142D01*
X155685714Y-62535714D01*
X167757142Y-62607142D02*
X167971428Y-62678571D01*
X168328571Y-62678571D01*
X168471428Y-62607142D01*
X168542857Y-62535714D01*
X168614285Y-62392857D01*
X168614285Y-62250000D01*
X168542857Y-62107142D01*
X168471428Y-62035714D01*
X168328571Y-61964285D01*
X168042857Y-61892857D01*
X167900000Y-61821428D01*
X167828571Y-61750000D01*
X167757142Y-61607142D01*
X167757142Y-61464285D01*
X167828571Y-61321428D01*
X167900000Y-61250000D01*
X168042857Y-61178571D01*
X168400000Y-61178571D01*
X168614285Y-61250000D01*
X169900000Y-61178571D02*
X169614285Y-61178571D01*
X169471428Y-61250000D01*
X169400000Y-61321428D01*
X169257142Y-61535714D01*
X169185714Y-61821428D01*
X169185714Y-62392857D01*
X169257142Y-62535714D01*
X169328571Y-62607142D01*
X169471428Y-62678571D01*
X169757142Y-62678571D01*
X169900000Y-62607142D01*
X169971428Y-62535714D01*
X170042857Y-62392857D01*
X170042857Y-62035714D01*
X169971428Y-61892857D01*
X169900000Y-61821428D01*
X169757142Y-61750000D01*
X169471428Y-61750000D01*
X169328571Y-61821428D01*
X169257142Y-61892857D01*
X169185714Y-62035714D01*
D10*
X134185904Y-48633333D02*
X133804952Y-48900000D01*
X134185904Y-49090476D02*
X133385904Y-49090476D01*
X133385904Y-48785714D01*
X133424000Y-48709523D01*
X133462095Y-48671428D01*
X133538285Y-48633333D01*
X133652571Y-48633333D01*
X133728761Y-48671428D01*
X133766857Y-48709523D01*
X133804952Y-48785714D01*
X133804952Y-49090476D01*
X134185904Y-47871428D02*
X134185904Y-48328571D01*
X134185904Y-48100000D02*
X133385904Y-48100000D01*
X133500190Y-48176190D01*
X133576380Y-48252380D01*
X133614476Y-48328571D01*
X136761904Y-48633333D02*
X136380952Y-48900000D01*
X136761904Y-49090476D02*
X135961904Y-49090476D01*
X135961904Y-48785714D01*
X136000000Y-48709523D01*
X136038095Y-48671428D01*
X136114285Y-48633333D01*
X136228571Y-48633333D01*
X136304761Y-48671428D01*
X136342857Y-48709523D01*
X136380952Y-48785714D01*
X136380952Y-49090476D01*
X135961904Y-48366666D02*
X135961904Y-47871428D01*
X136266666Y-48138095D01*
X136266666Y-48023809D01*
X136304761Y-47947619D01*
X136342857Y-47909523D01*
X136419047Y-47871428D01*
X136609523Y-47871428D01*
X136685714Y-47909523D01*
X136723809Y-47947619D01*
X136761904Y-48023809D01*
X136761904Y-48252380D01*
X136723809Y-48328571D01*
X136685714Y-48366666D01*
X139337904Y-48633333D02*
X138956952Y-48900000D01*
X139337904Y-49090476D02*
X138537904Y-49090476D01*
X138537904Y-48785714D01*
X138576000Y-48709523D01*
X138614095Y-48671428D01*
X138690285Y-48633333D01*
X138804571Y-48633333D01*
X138880761Y-48671428D01*
X138918857Y-48709523D01*
X138956952Y-48785714D01*
X138956952Y-49090476D01*
X138614095Y-48328571D02*
X138576000Y-48290476D01*
X138537904Y-48214285D01*
X138537904Y-48023809D01*
X138576000Y-47947619D01*
X138614095Y-47909523D01*
X138690285Y-47871428D01*
X138766476Y-47871428D01*
X138880761Y-47909523D01*
X139337904Y-48366666D01*
X139337904Y-47871428D01*
D11*
X129738095Y-60350000D02*
X129642857Y-60302380D01*
X129500000Y-60302380D01*
X129357142Y-60350000D01*
X129261904Y-60445238D01*
X129214285Y-60540476D01*
X129166666Y-60730952D01*
X129166666Y-60873809D01*
X129214285Y-61064285D01*
X129261904Y-61159523D01*
X129357142Y-61254761D01*
X129500000Y-61302380D01*
X129595238Y-61302380D01*
X129738095Y-61254761D01*
X129785714Y-61207142D01*
X129785714Y-60873809D01*
X129595238Y-60873809D01*
X130214285Y-61302380D02*
X130214285Y-60302380D01*
X130785714Y-61302380D01*
X130785714Y-60302380D01*
X131261904Y-61302380D02*
X131261904Y-60302380D01*
X131500000Y-60302380D01*
X131642857Y-60350000D01*
X131738095Y-60445238D01*
X131785714Y-60540476D01*
X131833333Y-60730952D01*
X131833333Y-60873809D01*
X131785714Y-61064285D01*
X131738095Y-61159523D01*
X131642857Y-61254761D01*
X131500000Y-61302380D01*
X131261904Y-61302380D01*
D10*
X158976190Y-79605952D02*
X159476190Y-79472619D01*
X158976190Y-79339285D01*
X159476190Y-78977380D02*
X159238095Y-79110714D01*
X159476190Y-79205952D02*
X158976190Y-79205952D01*
X158976190Y-79053571D01*
X159000000Y-79015476D01*
X159023809Y-78996428D01*
X159071428Y-78977380D01*
X159142857Y-78977380D01*
X159190476Y-78996428D01*
X159214285Y-79015476D01*
X159238095Y-79053571D01*
X159238095Y-79205952D01*
X159214285Y-78805952D02*
X159214285Y-78672619D01*
X159476190Y-78615476D02*
X159476190Y-78805952D01*
X158976190Y-78805952D01*
X158976190Y-78615476D01*
X159000000Y-78234523D02*
X158976190Y-78272619D01*
X158976190Y-78329761D01*
X159000000Y-78386904D01*
X159047619Y-78425000D01*
X159095238Y-78444047D01*
X159190476Y-78463095D01*
X159261904Y-78463095D01*
X159357142Y-78444047D01*
X159404761Y-78425000D01*
X159452380Y-78386904D01*
X159476190Y-78329761D01*
X159476190Y-78291666D01*
X159452380Y-78234523D01*
X159428571Y-78215476D01*
X159261904Y-78215476D01*
X159261904Y-78291666D01*
X159523809Y-78139285D02*
X159523809Y-77834523D01*
X159214285Y-77605952D02*
X159238095Y-77548809D01*
X159261904Y-77529761D01*
X159309523Y-77510714D01*
X159380952Y-77510714D01*
X159428571Y-77529761D01*
X159452380Y-77548809D01*
X159476190Y-77586904D01*
X159476190Y-77739285D01*
X158976190Y-77739285D01*
X158976190Y-77605952D01*
X159000000Y-77567857D01*
X159023809Y-77548809D01*
X159071428Y-77529761D01*
X159119047Y-77529761D01*
X159166666Y-77548809D01*
X159190476Y-77567857D01*
X159214285Y-77605952D01*
X159214285Y-77739285D01*
X159333333Y-77358333D02*
X159333333Y-77167857D01*
X159476190Y-77396428D02*
X158976190Y-77263095D01*
X159476190Y-77129761D01*
X158976190Y-77053571D02*
X158976190Y-76825000D01*
X159476190Y-76939285D02*
X158976190Y-76939285D01*
X158976190Y-76729761D02*
X158976190Y-76482142D01*
X159166666Y-76615476D01*
X159166666Y-76558333D01*
X159190476Y-76520238D01*
X159214285Y-76501190D01*
X159261904Y-76482142D01*
X159380952Y-76482142D01*
X159428571Y-76501190D01*
X159452380Y-76520238D01*
X159476190Y-76558333D01*
X159476190Y-76672619D01*
X159452380Y-76710714D01*
X159428571Y-76729761D01*
D13*
X153257142Y-48107142D02*
X153471428Y-48178571D01*
X153828571Y-48178571D01*
X153971428Y-48107142D01*
X154042857Y-48035714D01*
X154114285Y-47892857D01*
X154114285Y-47750000D01*
X154042857Y-47607142D01*
X153971428Y-47535714D01*
X153828571Y-47464285D01*
X153542857Y-47392857D01*
X153400000Y-47321428D01*
X153328571Y-47250000D01*
X153257142Y-47107142D01*
X153257142Y-46964285D01*
X153328571Y-46821428D01*
X153400000Y-46750000D01*
X153542857Y-46678571D01*
X153900000Y-46678571D01*
X154114285Y-46750000D01*
X154685714Y-46821428D02*
X154757142Y-46750000D01*
X154900000Y-46678571D01*
X155257142Y-46678571D01*
X155400000Y-46750000D01*
X155471428Y-46821428D01*
X155542857Y-46964285D01*
X155542857Y-47107142D01*
X155471428Y-47321428D01*
X154614285Y-48178571D01*
X155542857Y-48178571D01*
D10*
X172361904Y-72702380D02*
X172019047Y-73345238D01*
X172476190Y-73202380D02*
X172533333Y-73226190D01*
X172628571Y-73226190D01*
X172666666Y-73202380D01*
X172685714Y-73178571D01*
X172704761Y-73130952D01*
X172704761Y-73083333D01*
X172685714Y-73035714D01*
X172666666Y-73011904D01*
X172628571Y-72988095D01*
X172552380Y-72964285D01*
X172514285Y-72940476D01*
X172495238Y-72916666D01*
X172476190Y-72869047D01*
X172476190Y-72821428D01*
X172495238Y-72773809D01*
X172514285Y-72750000D01*
X172552380Y-72726190D01*
X172647619Y-72726190D01*
X172704761Y-72750000D01*
X172876190Y-73226190D02*
X172876190Y-72726190D01*
X172876190Y-72964285D02*
X173104761Y-72964285D01*
X173104761Y-73226190D02*
X173104761Y-72726190D01*
X173295238Y-73226190D02*
X173295238Y-72726190D01*
X173390476Y-72726190D01*
X173447619Y-72750000D01*
X173485714Y-72797619D01*
X173504761Y-72845238D01*
X173523809Y-72940476D01*
X173523809Y-73011904D01*
X173504761Y-73107142D01*
X173485714Y-73154761D01*
X173447619Y-73202380D01*
X173390476Y-73226190D01*
X173295238Y-73226190D01*
X173695238Y-73226190D02*
X173695238Y-72726190D01*
X173923809Y-73226190D01*
X173923809Y-72726190D01*
D12*
X119173809Y-46154761D02*
X119673809Y-46154761D01*
X119673809Y-46273809D01*
X119650000Y-46345238D01*
X119602380Y-46392857D01*
X119554761Y-46416666D01*
X119459523Y-46440476D01*
X119388095Y-46440476D01*
X119292857Y-46416666D01*
X119245238Y-46392857D01*
X119197619Y-46345238D01*
X119173809Y-46273809D01*
X119173809Y-46154761D01*
X119673809Y-46583333D02*
X119173809Y-46750000D01*
X119673809Y-46916666D01*
X119221428Y-47369047D02*
X119197619Y-47345238D01*
X119173809Y-47273809D01*
X119173809Y-47226190D01*
X119197619Y-47154761D01*
X119245238Y-47107142D01*
X119292857Y-47083333D01*
X119388095Y-47059523D01*
X119459523Y-47059523D01*
X119554761Y-47083333D01*
X119602380Y-47107142D01*
X119650000Y-47154761D01*
X119673809Y-47226190D01*
X119673809Y-47273809D01*
X119650000Y-47345238D01*
X119626190Y-47369047D01*
X119221428Y-47869047D02*
X119197619Y-47845238D01*
X119173809Y-47773809D01*
X119173809Y-47726190D01*
X119197619Y-47654761D01*
X119245238Y-47607142D01*
X119292857Y-47583333D01*
X119388095Y-47559523D01*
X119459523Y-47559523D01*
X119554761Y-47583333D01*
X119602380Y-47607142D01*
X119650000Y-47654761D01*
X119673809Y-47726190D01*
X119673809Y-47773809D01*
X119650000Y-47845238D01*
X119626190Y-47869047D01*
D10*
X126226190Y-83080952D02*
X126726190Y-82947619D01*
X126226190Y-82814285D01*
X126726190Y-82452380D02*
X126488095Y-82585714D01*
X126726190Y-82680952D02*
X126226190Y-82680952D01*
X126226190Y-82528571D01*
X126250000Y-82490476D01*
X126273809Y-82471428D01*
X126321428Y-82452380D01*
X126392857Y-82452380D01*
X126440476Y-82471428D01*
X126464285Y-82490476D01*
X126488095Y-82528571D01*
X126488095Y-82680952D01*
X126464285Y-82280952D02*
X126464285Y-82147619D01*
X126726190Y-82090476D02*
X126726190Y-82280952D01*
X126226190Y-82280952D01*
X126226190Y-82090476D01*
X126250000Y-81709523D02*
X126226190Y-81747619D01*
X126226190Y-81804761D01*
X126250000Y-81861904D01*
X126297619Y-81900000D01*
X126345238Y-81919047D01*
X126440476Y-81938095D01*
X126511904Y-81938095D01*
X126607142Y-81919047D01*
X126654761Y-81900000D01*
X126702380Y-81861904D01*
X126726190Y-81804761D01*
X126726190Y-81766666D01*
X126702380Y-81709523D01*
X126678571Y-81690476D01*
X126511904Y-81690476D01*
X126511904Y-81766666D01*
X126773809Y-81614285D02*
X126773809Y-81309523D01*
X126464285Y-81080952D02*
X126488095Y-81023809D01*
X126511904Y-81004761D01*
X126559523Y-80985714D01*
X126630952Y-80985714D01*
X126678571Y-81004761D01*
X126702380Y-81023809D01*
X126726190Y-81061904D01*
X126726190Y-81214285D01*
X126226190Y-81214285D01*
X126226190Y-81080952D01*
X126250000Y-81042857D01*
X126273809Y-81023809D01*
X126321428Y-81004761D01*
X126369047Y-81004761D01*
X126416666Y-81023809D01*
X126440476Y-81042857D01*
X126464285Y-81080952D01*
X126464285Y-81214285D01*
X126583333Y-80833333D02*
X126583333Y-80642857D01*
X126726190Y-80871428D02*
X126226190Y-80738095D01*
X126726190Y-80604761D01*
X126226190Y-80528571D02*
X126226190Y-80300000D01*
X126726190Y-80414285D02*
X126226190Y-80414285D01*
X126726190Y-79957142D02*
X126726190Y-80185714D01*
X126726190Y-80071428D02*
X126226190Y-80071428D01*
X126297619Y-80109523D01*
X126345238Y-80147619D01*
X126369047Y-80185714D01*
X166226190Y-81483333D02*
X166226190Y-81235714D01*
X166416666Y-81369047D01*
X166416666Y-81311904D01*
X166440476Y-81273809D01*
X166464285Y-81254761D01*
X166511904Y-81235714D01*
X166630952Y-81235714D01*
X166678571Y-81254761D01*
X166702380Y-81273809D01*
X166726190Y-81311904D01*
X166726190Y-81426190D01*
X166702380Y-81464285D01*
X166678571Y-81483333D01*
X166202380Y-80778571D02*
X166845238Y-81121428D01*
X166392857Y-80664285D02*
X166392857Y-80378571D01*
X166178571Y-80550000D02*
X166821428Y-80664285D01*
X166607142Y-80416666D02*
X166607142Y-80702380D01*
X166821428Y-80530952D02*
X166178571Y-80416666D01*
X166226190Y-80054761D02*
X166226190Y-80245238D01*
X166464285Y-80264285D01*
X166440476Y-80245238D01*
X166416666Y-80207142D01*
X166416666Y-80111904D01*
X166440476Y-80073809D01*
X166464285Y-80054761D01*
X166511904Y-80035714D01*
X166630952Y-80035714D01*
X166678571Y-80054761D01*
X166702380Y-80073809D01*
X166726190Y-80111904D01*
X166726190Y-80207142D01*
X166702380Y-80245238D01*
X166678571Y-80264285D01*
X173919047Y-70976190D02*
X174052380Y-71476190D01*
X174185714Y-70976190D01*
X174547619Y-71476190D02*
X174414285Y-71238095D01*
X174319047Y-71476190D02*
X174319047Y-70976190D01*
X174471428Y-70976190D01*
X174509523Y-71000000D01*
X174528571Y-71023809D01*
X174547619Y-71071428D01*
X174547619Y-71142857D01*
X174528571Y-71190476D01*
X174509523Y-71214285D01*
X174471428Y-71238095D01*
X174319047Y-71238095D01*
X174719047Y-71214285D02*
X174852380Y-71214285D01*
X174909523Y-71476190D02*
X174719047Y-71476190D01*
X174719047Y-70976190D01*
X174909523Y-70976190D01*
X175290476Y-71000000D02*
X175252380Y-70976190D01*
X175195238Y-70976190D01*
X175138095Y-71000000D01*
X175100000Y-71047619D01*
X175080952Y-71095238D01*
X175061904Y-71190476D01*
X175061904Y-71261904D01*
X175080952Y-71357142D01*
X175100000Y-71404761D01*
X175138095Y-71452380D01*
X175195238Y-71476190D01*
X175233333Y-71476190D01*
X175290476Y-71452380D01*
X175309523Y-71428571D01*
X175309523Y-71261904D01*
X175233333Y-71261904D01*
X175385714Y-71523809D02*
X175690476Y-71523809D01*
X175919047Y-71214285D02*
X175976190Y-71238095D01*
X175995238Y-71261904D01*
X176014285Y-71309523D01*
X176014285Y-71380952D01*
X175995238Y-71428571D01*
X175976190Y-71452380D01*
X175938095Y-71476190D01*
X175785714Y-71476190D01*
X175785714Y-70976190D01*
X175919047Y-70976190D01*
X175957142Y-71000000D01*
X175976190Y-71023809D01*
X175995238Y-71071428D01*
X175995238Y-71119047D01*
X175976190Y-71166666D01*
X175957142Y-71190476D01*
X175919047Y-71214285D01*
X175785714Y-71214285D01*
X176166666Y-71333333D02*
X176357142Y-71333333D01*
X176128571Y-71476190D02*
X176261904Y-70976190D01*
X176395238Y-71476190D01*
X176471428Y-70976190D02*
X176700000Y-70976190D01*
X176585714Y-71476190D02*
X176585714Y-70976190D01*
X176814285Y-71023809D02*
X176833333Y-71000000D01*
X176871428Y-70976190D01*
X176966666Y-70976190D01*
X177004761Y-71000000D01*
X177023809Y-71023809D01*
X177042857Y-71071428D01*
X177042857Y-71119047D01*
X177023809Y-71190476D01*
X176795238Y-71476190D01*
X177042857Y-71476190D01*
D12*
X124437619Y-46404761D02*
X124413809Y-46476190D01*
X124413809Y-46595238D01*
X124437619Y-46642857D01*
X124461428Y-46666666D01*
X124509047Y-46690476D01*
X124556666Y-46690476D01*
X124604285Y-46666666D01*
X124628095Y-46642857D01*
X124651904Y-46595238D01*
X124675714Y-46500000D01*
X124699523Y-46452380D01*
X124723333Y-46428571D01*
X124770952Y-46404761D01*
X124818571Y-46404761D01*
X124866190Y-46428571D01*
X124890000Y-46452380D01*
X124913809Y-46500000D01*
X124913809Y-46619047D01*
X124890000Y-46690476D01*
X124461428Y-47190476D02*
X124437619Y-47166666D01*
X124413809Y-47095238D01*
X124413809Y-47047619D01*
X124437619Y-46976190D01*
X124485238Y-46928571D01*
X124532857Y-46904761D01*
X124628095Y-46880952D01*
X124699523Y-46880952D01*
X124794761Y-46904761D01*
X124842380Y-46928571D01*
X124890000Y-46976190D01*
X124913809Y-47047619D01*
X124913809Y-47095238D01*
X124890000Y-47166666D01*
X124866190Y-47190476D01*
X124413809Y-47642857D02*
X124413809Y-47404761D01*
X124913809Y-47404761D01*
D11*
%TO.C,C14*%
X188268392Y-56142857D02*
X188316011Y-56190476D01*
X188363630Y-56333333D01*
X188363630Y-56428571D01*
X188316011Y-56571428D01*
X188220773Y-56666666D01*
X188125535Y-56714285D01*
X187935059Y-56761904D01*
X187792202Y-56761904D01*
X187601726Y-56714285D01*
X187506488Y-56666666D01*
X187411250Y-56571428D01*
X187363630Y-56428571D01*
X187363630Y-56333333D01*
X187411250Y-56190476D01*
X187458869Y-56142857D01*
X188363630Y-55190476D02*
X188363630Y-55761904D01*
X188363630Y-55476190D02*
X187363630Y-55476190D01*
X187506488Y-55571428D01*
X187601726Y-55666666D01*
X187649345Y-55761904D01*
X187696964Y-54333333D02*
X188363630Y-54333333D01*
X187316011Y-54571428D02*
X188030297Y-54809523D01*
X188030297Y-54190476D01*
%TO.C,C2*%
X121594642Y-56366666D02*
X121642261Y-56414285D01*
X121689880Y-56557142D01*
X121689880Y-56652380D01*
X121642261Y-56795238D01*
X121547023Y-56890476D01*
X121451785Y-56938095D01*
X121261309Y-56985714D01*
X121118452Y-56985714D01*
X120927976Y-56938095D01*
X120832738Y-56890476D01*
X120737500Y-56795238D01*
X120689880Y-56652380D01*
X120689880Y-56557142D01*
X120737500Y-56414285D01*
X120785119Y-56366666D01*
X120785119Y-55985714D02*
X120737500Y-55938095D01*
X120689880Y-55842857D01*
X120689880Y-55604761D01*
X120737500Y-55509523D01*
X120785119Y-55461904D01*
X120880357Y-55414285D01*
X120975595Y-55414285D01*
X121118452Y-55461904D01*
X121689880Y-56033333D01*
X121689880Y-55414285D01*
%TO.C,BT4*%
X173614285Y-101928571D02*
X173757142Y-101976190D01*
X173804761Y-102023809D01*
X173852380Y-102119047D01*
X173852380Y-102261904D01*
X173804761Y-102357142D01*
X173757142Y-102404761D01*
X173661904Y-102452380D01*
X173280952Y-102452380D01*
X173280952Y-101452380D01*
X173614285Y-101452380D01*
X173709523Y-101500000D01*
X173757142Y-101547619D01*
X173804761Y-101642857D01*
X173804761Y-101738095D01*
X173757142Y-101833333D01*
X173709523Y-101880952D01*
X173614285Y-101928571D01*
X173280952Y-101928571D01*
X174138095Y-101452380D02*
X174709523Y-101452380D01*
X174423809Y-102452380D02*
X174423809Y-101452380D01*
X175471428Y-101785714D02*
X175471428Y-102452380D01*
X175233333Y-101404761D02*
X174995238Y-102119047D01*
X175614285Y-102119047D01*
%TO.C,C9*%
X179518392Y-67166666D02*
X179566011Y-67214285D01*
X179613630Y-67357142D01*
X179613630Y-67452380D01*
X179566011Y-67595238D01*
X179470773Y-67690476D01*
X179375535Y-67738095D01*
X179185059Y-67785714D01*
X179042202Y-67785714D01*
X178851726Y-67738095D01*
X178756488Y-67690476D01*
X178661250Y-67595238D01*
X178613630Y-67452380D01*
X178613630Y-67357142D01*
X178661250Y-67214285D01*
X178708869Y-67166666D01*
X179613630Y-66690476D02*
X179613630Y-66500000D01*
X179566011Y-66404761D01*
X179518392Y-66357142D01*
X179375535Y-66261904D01*
X179185059Y-66214285D01*
X178804107Y-66214285D01*
X178708869Y-66261904D01*
X178661250Y-66309523D01*
X178613630Y-66404761D01*
X178613630Y-66595238D01*
X178661250Y-66690476D01*
X178708869Y-66738095D01*
X178804107Y-66785714D01*
X179042202Y-66785714D01*
X179137440Y-66738095D01*
X179185059Y-66690476D01*
X179232678Y-66595238D01*
X179232678Y-66404761D01*
X179185059Y-66309523D01*
X179137440Y-66261904D01*
X179042202Y-66214285D01*
%TO.C,J11*%
X167887380Y-53329523D02*
X168601666Y-53329523D01*
X168744523Y-53377142D01*
X168839761Y-53472380D01*
X168887380Y-53615238D01*
X168887380Y-53710476D01*
X168887380Y-52329523D02*
X168887380Y-52900952D01*
X168887380Y-52615238D02*
X167887380Y-52615238D01*
X168030238Y-52710476D01*
X168125476Y-52805714D01*
X168173095Y-52900952D01*
X168887380Y-51377142D02*
X168887380Y-51948571D01*
X168887380Y-51662857D02*
X167887380Y-51662857D01*
X168030238Y-51758095D01*
X168125476Y-51853333D01*
X168173095Y-51948571D01*
%TO.C,J12*%
X154372380Y-53329523D02*
X155086666Y-53329523D01*
X155229523Y-53377142D01*
X155324761Y-53472380D01*
X155372380Y-53615238D01*
X155372380Y-53710476D01*
X155372380Y-52329523D02*
X155372380Y-52900952D01*
X155372380Y-52615238D02*
X154372380Y-52615238D01*
X154515238Y-52710476D01*
X154610476Y-52805714D01*
X154658095Y-52900952D01*
X154467619Y-51948571D02*
X154420000Y-51900952D01*
X154372380Y-51805714D01*
X154372380Y-51567619D01*
X154420000Y-51472380D01*
X154467619Y-51424761D01*
X154562857Y-51377142D01*
X154658095Y-51377142D01*
X154800952Y-51424761D01*
X155372380Y-51996190D01*
X155372380Y-51377142D01*
%TO.C,C19*%
X157308696Y-71392857D02*
X157356315Y-71440476D01*
X157403934Y-71583333D01*
X157403934Y-71678571D01*
X157356315Y-71821428D01*
X157261077Y-71916666D01*
X157165839Y-71964285D01*
X156975363Y-72011904D01*
X156832506Y-72011904D01*
X156642030Y-71964285D01*
X156546792Y-71916666D01*
X156451554Y-71821428D01*
X156403934Y-71678571D01*
X156403934Y-71583333D01*
X156451554Y-71440476D01*
X156499173Y-71392857D01*
X157403934Y-70440476D02*
X157403934Y-71011904D01*
X157403934Y-70726190D02*
X156403934Y-70726190D01*
X156546792Y-70821428D01*
X156642030Y-70916666D01*
X156689649Y-71011904D01*
X157403934Y-69964285D02*
X157403934Y-69773809D01*
X157356315Y-69678571D01*
X157308696Y-69630952D01*
X157165839Y-69535714D01*
X156975363Y-69488095D01*
X156594411Y-69488095D01*
X156499173Y-69535714D01*
X156451554Y-69583333D01*
X156403934Y-69678571D01*
X156403934Y-69869047D01*
X156451554Y-69964285D01*
X156499173Y-70011904D01*
X156594411Y-70059523D01*
X156832506Y-70059523D01*
X156927744Y-70011904D01*
X156975363Y-69964285D01*
X157022982Y-69869047D01*
X157022982Y-69678571D01*
X156975363Y-69583333D01*
X156927744Y-69535714D01*
X156832506Y-69488095D01*
%TO.C,Q2*%
X114763095Y-55363690D02*
X114725000Y-55439880D01*
X114648809Y-55516071D01*
X114534523Y-55630357D01*
X114496428Y-55706547D01*
X114496428Y-55782738D01*
X114686904Y-55744642D02*
X114648809Y-55820833D01*
X114572619Y-55897023D01*
X114420238Y-55935119D01*
X114153571Y-55935119D01*
X114001190Y-55897023D01*
X113925000Y-55820833D01*
X113886904Y-55744642D01*
X113886904Y-55592261D01*
X113925000Y-55516071D01*
X114001190Y-55439880D01*
X114153571Y-55401785D01*
X114420238Y-55401785D01*
X114572619Y-55439880D01*
X114648809Y-55516071D01*
X114686904Y-55592261D01*
X114686904Y-55744642D01*
X113963095Y-55097023D02*
X113925000Y-55058928D01*
X113886904Y-54982738D01*
X113886904Y-54792261D01*
X113925000Y-54716071D01*
X113963095Y-54677976D01*
X114039285Y-54639880D01*
X114115476Y-54639880D01*
X114229761Y-54677976D01*
X114686904Y-55135119D01*
X114686904Y-54639880D01*
%TO.C,C4*%
X120094642Y-56366666D02*
X120142261Y-56414285D01*
X120189880Y-56557142D01*
X120189880Y-56652380D01*
X120142261Y-56795238D01*
X120047023Y-56890476D01*
X119951785Y-56938095D01*
X119761309Y-56985714D01*
X119618452Y-56985714D01*
X119427976Y-56938095D01*
X119332738Y-56890476D01*
X119237500Y-56795238D01*
X119189880Y-56652380D01*
X119189880Y-56557142D01*
X119237500Y-56414285D01*
X119285119Y-56366666D01*
X119523214Y-55509523D02*
X120189880Y-55509523D01*
X119142261Y-55747619D02*
X119856547Y-55985714D01*
X119856547Y-55366666D01*
%TO.C,C21*%
X155808696Y-71392857D02*
X155856315Y-71440476D01*
X155903934Y-71583333D01*
X155903934Y-71678571D01*
X155856315Y-71821428D01*
X155761077Y-71916666D01*
X155665839Y-71964285D01*
X155475363Y-72011904D01*
X155332506Y-72011904D01*
X155142030Y-71964285D01*
X155046792Y-71916666D01*
X154951554Y-71821428D01*
X154903934Y-71678571D01*
X154903934Y-71583333D01*
X154951554Y-71440476D01*
X154999173Y-71392857D01*
X154999173Y-71011904D02*
X154951554Y-70964285D01*
X154903934Y-70869047D01*
X154903934Y-70630952D01*
X154951554Y-70535714D01*
X154999173Y-70488095D01*
X155094411Y-70440476D01*
X155189649Y-70440476D01*
X155332506Y-70488095D01*
X155903934Y-71059523D01*
X155903934Y-70440476D01*
X155903934Y-69488095D02*
X155903934Y-70059523D01*
X155903934Y-69773809D02*
X154903934Y-69773809D01*
X155046792Y-69869047D01*
X155142030Y-69964285D01*
X155189649Y-70059523D01*
%TO.C,H2*%
X116738095Y-137952380D02*
X116738095Y-136952380D01*
X116738095Y-137428571D02*
X117309523Y-137428571D01*
X117309523Y-137952380D02*
X117309523Y-136952380D01*
X117738095Y-137047619D02*
X117785714Y-137000000D01*
X117880952Y-136952380D01*
X118119047Y-136952380D01*
X118214285Y-137000000D01*
X118261904Y-137047619D01*
X118309523Y-137142857D01*
X118309523Y-137238095D01*
X118261904Y-137380952D01*
X117690476Y-137952380D01*
X118309523Y-137952380D01*
%TO.C,J5*%
X111066666Y-74682380D02*
X111066666Y-75396666D01*
X111019047Y-75539523D01*
X110923809Y-75634761D01*
X110780952Y-75682380D01*
X110685714Y-75682380D01*
X112019047Y-74682380D02*
X111542857Y-74682380D01*
X111495238Y-75158571D01*
X111542857Y-75110952D01*
X111638095Y-75063333D01*
X111876190Y-75063333D01*
X111971428Y-75110952D01*
X112019047Y-75158571D01*
X112066666Y-75253809D01*
X112066666Y-75491904D01*
X112019047Y-75587142D01*
X111971428Y-75634761D01*
X111876190Y-75682380D01*
X111638095Y-75682380D01*
X111542857Y-75634761D01*
X111495238Y-75587142D01*
%TO.C,C11*%
X181018392Y-67642857D02*
X181066011Y-67690476D01*
X181113630Y-67833333D01*
X181113630Y-67928571D01*
X181066011Y-68071428D01*
X180970773Y-68166666D01*
X180875535Y-68214285D01*
X180685059Y-68261904D01*
X180542202Y-68261904D01*
X180351726Y-68214285D01*
X180256488Y-68166666D01*
X180161250Y-68071428D01*
X180113630Y-67928571D01*
X180113630Y-67833333D01*
X180161250Y-67690476D01*
X180208869Y-67642857D01*
X181113630Y-66690476D02*
X181113630Y-67261904D01*
X181113630Y-66976190D02*
X180113630Y-66976190D01*
X180256488Y-67071428D01*
X180351726Y-67166666D01*
X180399345Y-67261904D01*
X181113630Y-65738095D02*
X181113630Y-66309523D01*
X181113630Y-66023809D02*
X180113630Y-66023809D01*
X180256488Y-66119047D01*
X180351726Y-66214285D01*
X180399345Y-66309523D01*
%TO.C,C20*%
X149808696Y-83030357D02*
X149856315Y-83077976D01*
X149903934Y-83220833D01*
X149903934Y-83316071D01*
X149856315Y-83458928D01*
X149761077Y-83554166D01*
X149665839Y-83601785D01*
X149475363Y-83649404D01*
X149332506Y-83649404D01*
X149142030Y-83601785D01*
X149046792Y-83554166D01*
X148951554Y-83458928D01*
X148903934Y-83316071D01*
X148903934Y-83220833D01*
X148951554Y-83077976D01*
X148999173Y-83030357D01*
X148999173Y-82649404D02*
X148951554Y-82601785D01*
X148903934Y-82506547D01*
X148903934Y-82268452D01*
X148951554Y-82173214D01*
X148999173Y-82125595D01*
X149094411Y-82077976D01*
X149189649Y-82077976D01*
X149332506Y-82125595D01*
X149903934Y-82697023D01*
X149903934Y-82077976D01*
X148903934Y-81458928D02*
X148903934Y-81363690D01*
X148951554Y-81268452D01*
X148999173Y-81220833D01*
X149094411Y-81173214D01*
X149284887Y-81125595D01*
X149522982Y-81125595D01*
X149713458Y-81173214D01*
X149808696Y-81220833D01*
X149856315Y-81268452D01*
X149903934Y-81363690D01*
X149903934Y-81458928D01*
X149856315Y-81554166D01*
X149808696Y-81601785D01*
X149713458Y-81649404D01*
X149522982Y-81697023D01*
X149284887Y-81697023D01*
X149094411Y-81649404D01*
X148999173Y-81601785D01*
X148951554Y-81554166D01*
X148903934Y-81458928D01*
%TO.C,H1*%
X184238095Y-137952380D02*
X184238095Y-136952380D01*
X184238095Y-137428571D02*
X184809523Y-137428571D01*
X184809523Y-137952380D02*
X184809523Y-136952380D01*
X185809523Y-137952380D02*
X185238095Y-137952380D01*
X185523809Y-137952380D02*
X185523809Y-136952380D01*
X185428571Y-137095238D01*
X185333333Y-137190476D01*
X185238095Y-137238095D01*
%TO.C,L5*%
X126337380Y-67416666D02*
X126337380Y-67892857D01*
X125337380Y-67892857D01*
X125337380Y-66607142D02*
X125337380Y-67083333D01*
X125813571Y-67130952D01*
X125765952Y-67083333D01*
X125718333Y-66988095D01*
X125718333Y-66750000D01*
X125765952Y-66654761D01*
X125813571Y-66607142D01*
X125908809Y-66559523D01*
X126146904Y-66559523D01*
X126242142Y-66607142D01*
X126289761Y-66654761D01*
X126337380Y-66750000D01*
X126337380Y-66988095D01*
X126289761Y-67083333D01*
X126242142Y-67130952D01*
%TO.C,J15*%
X154372380Y-59829523D02*
X155086666Y-59829523D01*
X155229523Y-59877142D01*
X155324761Y-59972380D01*
X155372380Y-60115238D01*
X155372380Y-60210476D01*
X155372380Y-58829523D02*
X155372380Y-59400952D01*
X155372380Y-59115238D02*
X154372380Y-59115238D01*
X154515238Y-59210476D01*
X154610476Y-59305714D01*
X154658095Y-59400952D01*
X154372380Y-57924761D02*
X154372380Y-58400952D01*
X154848571Y-58448571D01*
X154800952Y-58400952D01*
X154753333Y-58305714D01*
X154753333Y-58067619D01*
X154800952Y-57972380D01*
X154848571Y-57924761D01*
X154943809Y-57877142D01*
X155181904Y-57877142D01*
X155277142Y-57924761D01*
X155324761Y-57972380D01*
X155372380Y-58067619D01*
X155372380Y-58305714D01*
X155324761Y-58400952D01*
X155277142Y-58448571D01*
%TO.C,R11*%
X145403934Y-82892857D02*
X144927744Y-83226190D01*
X145403934Y-83464285D02*
X144403934Y-83464285D01*
X144403934Y-83083333D01*
X144451554Y-82988095D01*
X144499173Y-82940476D01*
X144594411Y-82892857D01*
X144737268Y-82892857D01*
X144832506Y-82940476D01*
X144880125Y-82988095D01*
X144927744Y-83083333D01*
X144927744Y-83464285D01*
X145403934Y-81940476D02*
X145403934Y-82511904D01*
X145403934Y-82226190D02*
X144403934Y-82226190D01*
X144546792Y-82321428D01*
X144642030Y-82416666D01*
X144689649Y-82511904D01*
X145403934Y-80988095D02*
X145403934Y-81559523D01*
X145403934Y-81273809D02*
X144403934Y-81273809D01*
X144546792Y-81369047D01*
X144642030Y-81464285D01*
X144689649Y-81559523D01*
%TO.C,H3*%
X111138095Y-46202380D02*
X111138095Y-45202380D01*
X111138095Y-45678571D02*
X111709523Y-45678571D01*
X111709523Y-46202380D02*
X111709523Y-45202380D01*
X112090476Y-45202380D02*
X112709523Y-45202380D01*
X112376190Y-45583333D01*
X112519047Y-45583333D01*
X112614285Y-45630952D01*
X112661904Y-45678571D01*
X112709523Y-45773809D01*
X112709523Y-46011904D01*
X112661904Y-46107142D01*
X112614285Y-46154761D01*
X112519047Y-46202380D01*
X112233333Y-46202380D01*
X112138095Y-46154761D01*
X112090476Y-46107142D01*
%TO.C,C12*%
X189768392Y-56142857D02*
X189816011Y-56190476D01*
X189863630Y-56333333D01*
X189863630Y-56428571D01*
X189816011Y-56571428D01*
X189720773Y-56666666D01*
X189625535Y-56714285D01*
X189435059Y-56761904D01*
X189292202Y-56761904D01*
X189101726Y-56714285D01*
X189006488Y-56666666D01*
X188911250Y-56571428D01*
X188863630Y-56428571D01*
X188863630Y-56333333D01*
X188911250Y-56190476D01*
X188958869Y-56142857D01*
X189863630Y-55190476D02*
X189863630Y-55761904D01*
X189863630Y-55476190D02*
X188863630Y-55476190D01*
X189006488Y-55571428D01*
X189101726Y-55666666D01*
X189149345Y-55761904D01*
X188958869Y-54809523D02*
X188911250Y-54761904D01*
X188863630Y-54666666D01*
X188863630Y-54428571D01*
X188911250Y-54333333D01*
X188958869Y-54285714D01*
X189054107Y-54238095D01*
X189149345Y-54238095D01*
X189292202Y-54285714D01*
X189863630Y-54857142D01*
X189863630Y-54238095D01*
%TO.C,H4*%
X191138095Y-46202380D02*
X191138095Y-45202380D01*
X191138095Y-45678571D02*
X191709523Y-45678571D01*
X191709523Y-46202380D02*
X191709523Y-45202380D01*
X192614285Y-45535714D02*
X192614285Y-46202380D01*
X192376190Y-45154761D02*
X192138095Y-45869047D01*
X192757142Y-45869047D01*
%TO.C,R10*%
X184113630Y-67642857D02*
X183637440Y-67976190D01*
X184113630Y-68214285D02*
X183113630Y-68214285D01*
X183113630Y-67833333D01*
X183161250Y-67738095D01*
X183208869Y-67690476D01*
X183304107Y-67642857D01*
X183446964Y-67642857D01*
X183542202Y-67690476D01*
X183589821Y-67738095D01*
X183637440Y-67833333D01*
X183637440Y-68214285D01*
X184113630Y-66690476D02*
X184113630Y-67261904D01*
X184113630Y-66976190D02*
X183113630Y-66976190D01*
X183256488Y-67071428D01*
X183351726Y-67166666D01*
X183399345Y-67261904D01*
X183113630Y-66071428D02*
X183113630Y-65976190D01*
X183161250Y-65880952D01*
X183208869Y-65833333D01*
X183304107Y-65785714D01*
X183494583Y-65738095D01*
X183732678Y-65738095D01*
X183923154Y-65785714D01*
X184018392Y-65833333D01*
X184066011Y-65880952D01*
X184113630Y-65976190D01*
X184113630Y-66071428D01*
X184066011Y-66166666D01*
X184018392Y-66214285D01*
X183923154Y-66261904D01*
X183732678Y-66309523D01*
X183494583Y-66309523D01*
X183304107Y-66261904D01*
X183208869Y-66214285D01*
X183161250Y-66166666D01*
X183113630Y-66071428D01*
%TO.C,L2*%
X189113630Y-66416666D02*
X189113630Y-66892857D01*
X188113630Y-66892857D01*
X188208869Y-66130952D02*
X188161250Y-66083333D01*
X188113630Y-65988095D01*
X188113630Y-65750000D01*
X188161250Y-65654761D01*
X188208869Y-65607142D01*
X188304107Y-65559523D01*
X188399345Y-65559523D01*
X188542202Y-65607142D01*
X189113630Y-66178571D01*
X189113630Y-65559523D01*
%TO.C,C1*%
X121664642Y-53866666D02*
X121712261Y-53914285D01*
X121759880Y-54057142D01*
X121759880Y-54152380D01*
X121712261Y-54295238D01*
X121617023Y-54390476D01*
X121521785Y-54438095D01*
X121331309Y-54485714D01*
X121188452Y-54485714D01*
X120997976Y-54438095D01*
X120902738Y-54390476D01*
X120807500Y-54295238D01*
X120759880Y-54152380D01*
X120759880Y-54057142D01*
X120807500Y-53914285D01*
X120855119Y-53866666D01*
X121759880Y-52914285D02*
X121759880Y-53485714D01*
X121759880Y-53200000D02*
X120759880Y-53200000D01*
X120902738Y-53295238D01*
X120997976Y-53390476D01*
X121045595Y-53485714D01*
%TO.C,C32*%
X189791716Y-73967142D02*
X189744097Y-74014761D01*
X189601240Y-74062380D01*
X189506002Y-74062380D01*
X189363145Y-74014761D01*
X189267907Y-73919523D01*
X189220288Y-73824285D01*
X189172669Y-73633809D01*
X189172669Y-73490952D01*
X189220288Y-73300476D01*
X189267907Y-73205238D01*
X189363145Y-73110000D01*
X189506002Y-73062380D01*
X189601240Y-73062380D01*
X189744097Y-73110000D01*
X189791716Y-73157619D01*
X190125050Y-73062380D02*
X190744097Y-73062380D01*
X190410764Y-73443333D01*
X190553621Y-73443333D01*
X190648859Y-73490952D01*
X190696478Y-73538571D01*
X190744097Y-73633809D01*
X190744097Y-73871904D01*
X190696478Y-73967142D01*
X190648859Y-74014761D01*
X190553621Y-74062380D01*
X190267907Y-74062380D01*
X190172669Y-74014761D01*
X190125050Y-73967142D01*
X191125050Y-73157619D02*
X191172669Y-73110000D01*
X191267907Y-73062380D01*
X191506002Y-73062380D01*
X191601240Y-73110000D01*
X191648859Y-73157619D01*
X191696478Y-73252857D01*
X191696478Y-73348095D01*
X191648859Y-73490952D01*
X191077431Y-74062380D01*
X191696478Y-74062380D01*
%TO.C,C6*%
X118682142Y-56454166D02*
X118729761Y-56501785D01*
X118777380Y-56644642D01*
X118777380Y-56739880D01*
X118729761Y-56882738D01*
X118634523Y-56977976D01*
X118539285Y-57025595D01*
X118348809Y-57073214D01*
X118205952Y-57073214D01*
X118015476Y-57025595D01*
X117920238Y-56977976D01*
X117825000Y-56882738D01*
X117777380Y-56739880D01*
X117777380Y-56644642D01*
X117825000Y-56501785D01*
X117872619Y-56454166D01*
X117777380Y-55597023D02*
X117777380Y-55787500D01*
X117825000Y-55882738D01*
X117872619Y-55930357D01*
X118015476Y-56025595D01*
X118205952Y-56073214D01*
X118586904Y-56073214D01*
X118682142Y-56025595D01*
X118729761Y-55977976D01*
X118777380Y-55882738D01*
X118777380Y-55692261D01*
X118729761Y-55597023D01*
X118682142Y-55549404D01*
X118586904Y-55501785D01*
X118348809Y-55501785D01*
X118253571Y-55549404D01*
X118205952Y-55597023D01*
X118158333Y-55692261D01*
X118158333Y-55882738D01*
X118205952Y-55977976D01*
X118253571Y-56025595D01*
X118348809Y-56073214D01*
%TO.C,C16*%
X146808696Y-83030357D02*
X146856315Y-83077976D01*
X146903934Y-83220833D01*
X146903934Y-83316071D01*
X146856315Y-83458928D01*
X146761077Y-83554166D01*
X146665839Y-83601785D01*
X146475363Y-83649404D01*
X146332506Y-83649404D01*
X146142030Y-83601785D01*
X146046792Y-83554166D01*
X145951554Y-83458928D01*
X145903934Y-83316071D01*
X145903934Y-83220833D01*
X145951554Y-83077976D01*
X145999173Y-83030357D01*
X146903934Y-82077976D02*
X146903934Y-82649404D01*
X146903934Y-82363690D02*
X145903934Y-82363690D01*
X146046792Y-82458928D01*
X146142030Y-82554166D01*
X146189649Y-82649404D01*
X145903934Y-81220833D02*
X145903934Y-81411309D01*
X145951554Y-81506547D01*
X145999173Y-81554166D01*
X146142030Y-81649404D01*
X146332506Y-81697023D01*
X146713458Y-81697023D01*
X146808696Y-81649404D01*
X146856315Y-81601785D01*
X146903934Y-81506547D01*
X146903934Y-81316071D01*
X146856315Y-81220833D01*
X146808696Y-81173214D01*
X146713458Y-81125595D01*
X146475363Y-81125595D01*
X146380125Y-81173214D01*
X146332506Y-81220833D01*
X146284887Y-81316071D01*
X146284887Y-81506547D01*
X146332506Y-81601785D01*
X146380125Y-81649404D01*
X146475363Y-81697023D01*
%TO.C,Q3*%
X180031259Y-47231196D02*
X179956268Y-47193701D01*
X179881278Y-47118710D01*
X179768792Y-47006224D01*
X179693801Y-46968729D01*
X179618810Y-46968729D01*
X179656306Y-47156205D02*
X179581315Y-47118710D01*
X179506324Y-47043719D01*
X179468829Y-46893738D01*
X179468829Y-46631271D01*
X179506324Y-46481289D01*
X179581315Y-46406299D01*
X179656306Y-46368803D01*
X179806287Y-46368803D01*
X179881278Y-46406299D01*
X179956268Y-46481289D01*
X179993764Y-46631271D01*
X179993764Y-46893738D01*
X179956268Y-47043719D01*
X179881278Y-47118710D01*
X179806287Y-47156205D01*
X179656306Y-47156205D01*
X180256231Y-46368803D02*
X180743670Y-46368803D01*
X180481203Y-46668766D01*
X180593689Y-46668766D01*
X180668680Y-46706261D01*
X180706175Y-46743757D01*
X180743670Y-46818747D01*
X180743670Y-47006224D01*
X180706175Y-47081215D01*
X180668680Y-47118710D01*
X180593689Y-47156205D01*
X180368717Y-47156205D01*
X180293726Y-47118710D01*
X180256231Y-47081215D01*
%TO.C,BT6*%
X171599285Y-119238571D02*
X171742142Y-119286190D01*
X171789761Y-119333809D01*
X171837380Y-119429047D01*
X171837380Y-119571904D01*
X171789761Y-119667142D01*
X171742142Y-119714761D01*
X171646904Y-119762380D01*
X171265952Y-119762380D01*
X171265952Y-118762380D01*
X171599285Y-118762380D01*
X171694523Y-118810000D01*
X171742142Y-118857619D01*
X171789761Y-118952857D01*
X171789761Y-119048095D01*
X171742142Y-119143333D01*
X171694523Y-119190952D01*
X171599285Y-119238571D01*
X171265952Y-119238571D01*
X172123095Y-118762380D02*
X172694523Y-118762380D01*
X172408809Y-119762380D02*
X172408809Y-118762380D01*
X173456428Y-118762380D02*
X173265952Y-118762380D01*
X173170714Y-118810000D01*
X173123095Y-118857619D01*
X173027857Y-119000476D01*
X172980238Y-119190952D01*
X172980238Y-119571904D01*
X173027857Y-119667142D01*
X173075476Y-119714761D01*
X173170714Y-119762380D01*
X173361190Y-119762380D01*
X173456428Y-119714761D01*
X173504047Y-119667142D01*
X173551666Y-119571904D01*
X173551666Y-119333809D01*
X173504047Y-119238571D01*
X173456428Y-119190952D01*
X173361190Y-119143333D01*
X173170714Y-119143333D01*
X173075476Y-119190952D01*
X173027857Y-119238571D01*
X172980238Y-119333809D01*
%TO.C,U5*%
X125480380Y-77067330D02*
X126289904Y-77067330D01*
X126385142Y-77019711D01*
X126432761Y-76972092D01*
X126480380Y-76876854D01*
X126480380Y-76686378D01*
X126432761Y-76591140D01*
X126385142Y-76543521D01*
X126289904Y-76495902D01*
X125480380Y-76495902D01*
X125480380Y-75543521D02*
X125480380Y-76019711D01*
X125956571Y-76067330D01*
X125908952Y-76019711D01*
X125861333Y-75924473D01*
X125861333Y-75686378D01*
X125908952Y-75591140D01*
X125956571Y-75543521D01*
X126051809Y-75495902D01*
X126289904Y-75495902D01*
X126385142Y-75543521D01*
X126432761Y-75591140D01*
X126480380Y-75686378D01*
X126480380Y-75924473D01*
X126432761Y-76019711D01*
X126385142Y-76067330D01*
%TO.C,R14*%
X145058696Y-75952380D02*
X144725363Y-75476190D01*
X144487268Y-75952380D02*
X144487268Y-74952380D01*
X144868220Y-74952380D01*
X144963458Y-75000000D01*
X145011077Y-75047619D01*
X145058696Y-75142857D01*
X145058696Y-75285714D01*
X145011077Y-75380952D01*
X144963458Y-75428571D01*
X144868220Y-75476190D01*
X144487268Y-75476190D01*
X146011077Y-75952380D02*
X145439649Y-75952380D01*
X145725363Y-75952380D02*
X145725363Y-74952380D01*
X145630125Y-75095238D01*
X145534887Y-75190476D01*
X145439649Y-75238095D01*
X146868220Y-75285714D02*
X146868220Y-75952380D01*
X146630125Y-74904761D02*
X146392030Y-75619047D01*
X147011077Y-75619047D01*
%TO.C,C10*%
X179518392Y-54177142D02*
X179470773Y-54224761D01*
X179327916Y-54272380D01*
X179232678Y-54272380D01*
X179089821Y-54224761D01*
X178994583Y-54129523D01*
X178946964Y-54034285D01*
X178899345Y-53843809D01*
X178899345Y-53700952D01*
X178946964Y-53510476D01*
X178994583Y-53415238D01*
X179089821Y-53320000D01*
X179232678Y-53272380D01*
X179327916Y-53272380D01*
X179470773Y-53320000D01*
X179518392Y-53367619D01*
X180470773Y-54272380D02*
X179899345Y-54272380D01*
X180185059Y-54272380D02*
X180185059Y-53272380D01*
X180089821Y-53415238D01*
X179994583Y-53510476D01*
X179899345Y-53558095D01*
X181089821Y-53272380D02*
X181185059Y-53272380D01*
X181280297Y-53320000D01*
X181327916Y-53367619D01*
X181375535Y-53462857D01*
X181423154Y-53653333D01*
X181423154Y-53891428D01*
X181375535Y-54081904D01*
X181327916Y-54177142D01*
X181280297Y-54224761D01*
X181185059Y-54272380D01*
X181089821Y-54272380D01*
X180994583Y-54224761D01*
X180946964Y-54177142D01*
X180899345Y-54081904D01*
X180851726Y-53891428D01*
X180851726Y-53653333D01*
X180899345Y-53462857D01*
X180946964Y-53367619D01*
X180994583Y-53320000D01*
X181089821Y-53272380D01*
%TO.C,R12*%
X143308696Y-70952380D02*
X142975363Y-70476190D01*
X142737268Y-70952380D02*
X142737268Y-69952380D01*
X143118220Y-69952380D01*
X143213458Y-70000000D01*
X143261077Y-70047619D01*
X143308696Y-70142857D01*
X143308696Y-70285714D01*
X143261077Y-70380952D01*
X143213458Y-70428571D01*
X143118220Y-70476190D01*
X142737268Y-70476190D01*
X144261077Y-70952380D02*
X143689649Y-70952380D01*
X143975363Y-70952380D02*
X143975363Y-69952380D01*
X143880125Y-70095238D01*
X143784887Y-70190476D01*
X143689649Y-70238095D01*
X144642030Y-70047619D02*
X144689649Y-70000000D01*
X144784887Y-69952380D01*
X145022982Y-69952380D01*
X145118220Y-70000000D01*
X145165839Y-70047619D01*
X145213458Y-70142857D01*
X145213458Y-70238095D01*
X145165839Y-70380952D01*
X144594411Y-70952380D01*
X145213458Y-70952380D01*
%TO.C,L3*%
X156403934Y-81916666D02*
X156403934Y-82392857D01*
X155403934Y-82392857D01*
X155403934Y-81678571D02*
X155403934Y-81059523D01*
X155784887Y-81392857D01*
X155784887Y-81250000D01*
X155832506Y-81154761D01*
X155880125Y-81107142D01*
X155975363Y-81059523D01*
X156213458Y-81059523D01*
X156308696Y-81107142D01*
X156356315Y-81154761D01*
X156403934Y-81250000D01*
X156403934Y-81535714D01*
X156356315Y-81630952D01*
X156308696Y-81678571D01*
%TO.C,R8*%
X185494583Y-52952380D02*
X185161250Y-52476190D01*
X184923154Y-52952380D02*
X184923154Y-51952380D01*
X185304107Y-51952380D01*
X185399345Y-52000000D01*
X185446964Y-52047619D01*
X185494583Y-52142857D01*
X185494583Y-52285714D01*
X185446964Y-52380952D01*
X185399345Y-52428571D01*
X185304107Y-52476190D01*
X184923154Y-52476190D01*
X186066011Y-52380952D02*
X185970773Y-52333333D01*
X185923154Y-52285714D01*
X185875535Y-52190476D01*
X185875535Y-52142857D01*
X185923154Y-52047619D01*
X185970773Y-52000000D01*
X186066011Y-51952380D01*
X186256488Y-51952380D01*
X186351726Y-52000000D01*
X186399345Y-52047619D01*
X186446964Y-52142857D01*
X186446964Y-52190476D01*
X186399345Y-52285714D01*
X186351726Y-52333333D01*
X186256488Y-52380952D01*
X186066011Y-52380952D01*
X185970773Y-52428571D01*
X185923154Y-52476190D01*
X185875535Y-52571428D01*
X185875535Y-52761904D01*
X185923154Y-52857142D01*
X185970773Y-52904761D01*
X186066011Y-52952380D01*
X186256488Y-52952380D01*
X186351726Y-52904761D01*
X186399345Y-52857142D01*
X186446964Y-52761904D01*
X186446964Y-52571428D01*
X186399345Y-52476190D01*
X186351726Y-52428571D01*
X186256488Y-52380952D01*
%TO.C,J13*%
X140942380Y-53329523D02*
X141656666Y-53329523D01*
X141799523Y-53377142D01*
X141894761Y-53472380D01*
X141942380Y-53615238D01*
X141942380Y-53710476D01*
X141942380Y-52329523D02*
X141942380Y-52900952D01*
X141942380Y-52615238D02*
X140942380Y-52615238D01*
X141085238Y-52710476D01*
X141180476Y-52805714D01*
X141228095Y-52900952D01*
X140942380Y-51996190D02*
X140942380Y-51377142D01*
X141323333Y-51710476D01*
X141323333Y-51567619D01*
X141370952Y-51472380D01*
X141418571Y-51424761D01*
X141513809Y-51377142D01*
X141751904Y-51377142D01*
X141847142Y-51424761D01*
X141894761Y-51472380D01*
X141942380Y-51567619D01*
X141942380Y-51853333D01*
X141894761Y-51948571D01*
X141847142Y-51996190D01*
%TO.C,U3*%
X142403934Y-67761904D02*
X143213458Y-67761904D01*
X143308696Y-67714285D01*
X143356315Y-67666666D01*
X143403934Y-67571428D01*
X143403934Y-67380952D01*
X143356315Y-67285714D01*
X143308696Y-67238095D01*
X143213458Y-67190476D01*
X142403934Y-67190476D01*
X142403934Y-66809523D02*
X142403934Y-66190476D01*
X142784887Y-66523809D01*
X142784887Y-66380952D01*
X142832506Y-66285714D01*
X142880125Y-66238095D01*
X142975363Y-66190476D01*
X143213458Y-66190476D01*
X143308696Y-66238095D01*
X143356315Y-66285714D01*
X143403934Y-66380952D01*
X143403934Y-66666666D01*
X143356315Y-66761904D01*
X143308696Y-66809523D01*
%TO.C,D5*%
X127852380Y-67748521D02*
X126852380Y-67748521D01*
X126852380Y-67510426D01*
X126900000Y-67367568D01*
X126995238Y-67272330D01*
X127090476Y-67224711D01*
X127280952Y-67177092D01*
X127423809Y-67177092D01*
X127614285Y-67224711D01*
X127709523Y-67272330D01*
X127804761Y-67367568D01*
X127852380Y-67510426D01*
X127852380Y-67748521D01*
X126852380Y-66272330D02*
X126852380Y-66748521D01*
X127328571Y-66796140D01*
X127280952Y-66748521D01*
X127233333Y-66653283D01*
X127233333Y-66415187D01*
X127280952Y-66319949D01*
X127328571Y-66272330D01*
X127423809Y-66224711D01*
X127661904Y-66224711D01*
X127757142Y-66272330D01*
X127804761Y-66319949D01*
X127852380Y-66415187D01*
X127852380Y-66653283D01*
X127804761Y-66748521D01*
X127757142Y-66796140D01*
%TO.C,BT5*%
X132629285Y-139618571D02*
X132772142Y-139666190D01*
X132819761Y-139713809D01*
X132867380Y-139809047D01*
X132867380Y-139951904D01*
X132819761Y-140047142D01*
X132772142Y-140094761D01*
X132676904Y-140142380D01*
X132295952Y-140142380D01*
X132295952Y-139142380D01*
X132629285Y-139142380D01*
X132724523Y-139190000D01*
X132772142Y-139237619D01*
X132819761Y-139332857D01*
X132819761Y-139428095D01*
X132772142Y-139523333D01*
X132724523Y-139570952D01*
X132629285Y-139618571D01*
X132295952Y-139618571D01*
X133153095Y-139142380D02*
X133724523Y-139142380D01*
X133438809Y-140142380D02*
X133438809Y-139142380D01*
X134534047Y-139142380D02*
X134057857Y-139142380D01*
X134010238Y-139618571D01*
X134057857Y-139570952D01*
X134153095Y-139523333D01*
X134391190Y-139523333D01*
X134486428Y-139570952D01*
X134534047Y-139618571D01*
X134581666Y-139713809D01*
X134581666Y-139951904D01*
X134534047Y-140047142D01*
X134486428Y-140094761D01*
X134391190Y-140142380D01*
X134153095Y-140142380D01*
X134057857Y-140094761D01*
X134010238Y-140047142D01*
%TO.C,R2*%
X122658333Y-62739880D02*
X122325000Y-62263690D01*
X122086904Y-62739880D02*
X122086904Y-61739880D01*
X122467857Y-61739880D01*
X122563095Y-61787500D01*
X122610714Y-61835119D01*
X122658333Y-61930357D01*
X122658333Y-62073214D01*
X122610714Y-62168452D01*
X122563095Y-62216071D01*
X122467857Y-62263690D01*
X122086904Y-62263690D01*
X123039285Y-61835119D02*
X123086904Y-61787500D01*
X123182142Y-61739880D01*
X123420238Y-61739880D01*
X123515476Y-61787500D01*
X123563095Y-61835119D01*
X123610714Y-61930357D01*
X123610714Y-62025595D01*
X123563095Y-62168452D01*
X122991666Y-62739880D01*
X123610714Y-62739880D01*
%TO.C,Q6*%
X153375363Y-83188095D02*
X153299173Y-83150000D01*
X153222982Y-83073809D01*
X153108696Y-82959523D01*
X153032506Y-82921428D01*
X152956315Y-82921428D01*
X152994411Y-83111904D02*
X152918220Y-83073809D01*
X152842030Y-82997619D01*
X152803934Y-82845238D01*
X152803934Y-82578571D01*
X152842030Y-82426190D01*
X152918220Y-82350000D01*
X152994411Y-82311904D01*
X153146792Y-82311904D01*
X153222982Y-82350000D01*
X153299173Y-82426190D01*
X153337268Y-82578571D01*
X153337268Y-82845238D01*
X153299173Y-82997619D01*
X153222982Y-83073809D01*
X153146792Y-83111904D01*
X152994411Y-83111904D01*
X154022982Y-82311904D02*
X153870601Y-82311904D01*
X153794411Y-82350000D01*
X153756315Y-82388095D01*
X153680125Y-82502380D01*
X153642030Y-82654761D01*
X153642030Y-82959523D01*
X153680125Y-83035714D01*
X153718220Y-83073809D01*
X153794411Y-83111904D01*
X153946792Y-83111904D01*
X154022982Y-83073809D01*
X154061077Y-83035714D01*
X154099173Y-82959523D01*
X154099173Y-82769047D01*
X154061077Y-82692857D01*
X154022982Y-82654761D01*
X153946792Y-82616666D01*
X153794411Y-82616666D01*
X153718220Y-82654761D01*
X153680125Y-82692857D01*
X153642030Y-82769047D01*
%TO.C,U7*%
X158155380Y-73556904D02*
X158964904Y-73556904D01*
X159060142Y-73509285D01*
X159107761Y-73461666D01*
X159155380Y-73366428D01*
X159155380Y-73175952D01*
X159107761Y-73080714D01*
X159060142Y-73033095D01*
X158964904Y-72985476D01*
X158155380Y-72985476D01*
X158155380Y-72604523D02*
X158155380Y-71937857D01*
X159155380Y-72366428D01*
%TO.C,D2*%
X133433123Y-65140380D02*
X132793123Y-65140380D01*
X132793123Y-64988000D01*
X132823600Y-64896571D01*
X132884552Y-64835619D01*
X132945504Y-64805142D01*
X133067409Y-64774666D01*
X133158838Y-64774666D01*
X133280742Y-64805142D01*
X133341695Y-64835619D01*
X133402647Y-64896571D01*
X133433123Y-64988000D01*
X133433123Y-65140380D01*
X132854076Y-64530857D02*
X132823600Y-64500380D01*
X132793123Y-64439428D01*
X132793123Y-64287047D01*
X132823600Y-64226095D01*
X132854076Y-64195619D01*
X132915028Y-64165142D01*
X132975980Y-64165142D01*
X133067409Y-64195619D01*
X133433123Y-64561333D01*
X133433123Y-64165142D01*
%TO.C,TH1*%
X152114285Y-93282380D02*
X152685714Y-93282380D01*
X152400000Y-94282380D02*
X152400000Y-93282380D01*
X153019047Y-94282380D02*
X153019047Y-93282380D01*
X153019047Y-93758571D02*
X153590476Y-93758571D01*
X153590476Y-94282380D02*
X153590476Y-93282380D01*
X154590476Y-94282380D02*
X154019047Y-94282380D01*
X154304761Y-94282380D02*
X154304761Y-93282380D01*
X154209523Y-93425238D01*
X154114285Y-93520476D01*
X154019047Y-93568095D01*
%TO.C,U2*%
X175113630Y-53761904D02*
X175923154Y-53761904D01*
X176018392Y-53714285D01*
X176066011Y-53666666D01*
X176113630Y-53571428D01*
X176113630Y-53380952D01*
X176066011Y-53285714D01*
X176018392Y-53238095D01*
X175923154Y-53190476D01*
X175113630Y-53190476D01*
X175208869Y-52761904D02*
X175161250Y-52714285D01*
X175113630Y-52619047D01*
X175113630Y-52380952D01*
X175161250Y-52285714D01*
X175208869Y-52238095D01*
X175304107Y-52190476D01*
X175399345Y-52190476D01*
X175542202Y-52238095D01*
X176113630Y-52809523D01*
X176113630Y-52190476D01*
%TO.C,L7*%
X159027380Y-63916666D02*
X159027380Y-64392857D01*
X158027380Y-64392857D01*
X158027380Y-63678571D02*
X158027380Y-63011904D01*
X159027380Y-63440476D01*
%TO.C,R1*%
X123289880Y-56466666D02*
X122813690Y-56800000D01*
X123289880Y-57038095D02*
X122289880Y-57038095D01*
X122289880Y-56657142D01*
X122337500Y-56561904D01*
X122385119Y-56514285D01*
X122480357Y-56466666D01*
X122623214Y-56466666D01*
X122718452Y-56514285D01*
X122766071Y-56561904D01*
X122813690Y-56657142D01*
X122813690Y-57038095D01*
X123289880Y-55514285D02*
X123289880Y-56085714D01*
X123289880Y-55800000D02*
X122289880Y-55800000D01*
X122432738Y-55895238D01*
X122527976Y-55990476D01*
X122575595Y-56085714D01*
%TO.C,C18*%
X148308696Y-82892857D02*
X148356315Y-82940476D01*
X148403934Y-83083333D01*
X148403934Y-83178571D01*
X148356315Y-83321428D01*
X148261077Y-83416666D01*
X148165839Y-83464285D01*
X147975363Y-83511904D01*
X147832506Y-83511904D01*
X147642030Y-83464285D01*
X147546792Y-83416666D01*
X147451554Y-83321428D01*
X147403934Y-83178571D01*
X147403934Y-83083333D01*
X147451554Y-82940476D01*
X147499173Y-82892857D01*
X148403934Y-81940476D02*
X148403934Y-82511904D01*
X148403934Y-82226190D02*
X147403934Y-82226190D01*
X147546792Y-82321428D01*
X147642030Y-82416666D01*
X147689649Y-82511904D01*
X147832506Y-81369047D02*
X147784887Y-81464285D01*
X147737268Y-81511904D01*
X147642030Y-81559523D01*
X147594411Y-81559523D01*
X147499173Y-81511904D01*
X147451554Y-81464285D01*
X147403934Y-81369047D01*
X147403934Y-81178571D01*
X147451554Y-81083333D01*
X147499173Y-81035714D01*
X147594411Y-80988095D01*
X147642030Y-80988095D01*
X147737268Y-81035714D01*
X147784887Y-81083333D01*
X147832506Y-81178571D01*
X147832506Y-81369047D01*
X147880125Y-81464285D01*
X147927744Y-81511904D01*
X148022982Y-81559523D01*
X148213458Y-81559523D01*
X148308696Y-81511904D01*
X148356315Y-81464285D01*
X148403934Y-81369047D01*
X148403934Y-81178571D01*
X148356315Y-81083333D01*
X148308696Y-81035714D01*
X148213458Y-80988095D01*
X148022982Y-80988095D01*
X147927744Y-81035714D01*
X147880125Y-81083333D01*
X147832506Y-81178571D01*
%TO.C,C34*%
X161932142Y-63892857D02*
X161979761Y-63940476D01*
X162027380Y-64083333D01*
X162027380Y-64178571D01*
X161979761Y-64321428D01*
X161884523Y-64416666D01*
X161789285Y-64464285D01*
X161598809Y-64511904D01*
X161455952Y-64511904D01*
X161265476Y-64464285D01*
X161170238Y-64416666D01*
X161075000Y-64321428D01*
X161027380Y-64178571D01*
X161027380Y-64083333D01*
X161075000Y-63940476D01*
X161122619Y-63892857D01*
X161027380Y-63559523D02*
X161027380Y-62940476D01*
X161408333Y-63273809D01*
X161408333Y-63130952D01*
X161455952Y-63035714D01*
X161503571Y-62988095D01*
X161598809Y-62940476D01*
X161836904Y-62940476D01*
X161932142Y-62988095D01*
X161979761Y-63035714D01*
X162027380Y-63130952D01*
X162027380Y-63416666D01*
X161979761Y-63511904D01*
X161932142Y-63559523D01*
X161360714Y-62083333D02*
X162027380Y-62083333D01*
X160979761Y-62321428D02*
X161694047Y-62559523D01*
X161694047Y-61940476D01*
%TO.C,J7*%
X175326240Y-80457380D02*
X175326240Y-81171666D01*
X175278621Y-81314523D01*
X175183383Y-81409761D01*
X175040526Y-81457380D01*
X174945288Y-81457380D01*
X175707193Y-80457380D02*
X176373859Y-80457380D01*
X175945288Y-81457380D01*
%TO.C,C29*%
X131507142Y-70867568D02*
X131459523Y-70915187D01*
X131316666Y-70962806D01*
X131221428Y-70962806D01*
X131078571Y-70915187D01*
X130983333Y-70819949D01*
X130935714Y-70724711D01*
X130888095Y-70534235D01*
X130888095Y-70391378D01*
X130935714Y-70200902D01*
X130983333Y-70105664D01*
X131078571Y-70010426D01*
X131221428Y-69962806D01*
X131316666Y-69962806D01*
X131459523Y-70010426D01*
X131507142Y-70058045D01*
X131888095Y-70058045D02*
X131935714Y-70010426D01*
X132030952Y-69962806D01*
X132269047Y-69962806D01*
X132364285Y-70010426D01*
X132411904Y-70058045D01*
X132459523Y-70153283D01*
X132459523Y-70248521D01*
X132411904Y-70391378D01*
X131840476Y-70962806D01*
X132459523Y-70962806D01*
X132935714Y-70962806D02*
X133126190Y-70962806D01*
X133221428Y-70915187D01*
X133269047Y-70867568D01*
X133364285Y-70724711D01*
X133411904Y-70534235D01*
X133411904Y-70153283D01*
X133364285Y-70058045D01*
X133316666Y-70010426D01*
X133221428Y-69962806D01*
X133030952Y-69962806D01*
X132935714Y-70010426D01*
X132888095Y-70058045D01*
X132840476Y-70153283D01*
X132840476Y-70391378D01*
X132888095Y-70486616D01*
X132935714Y-70534235D01*
X133030952Y-70581854D01*
X133221428Y-70581854D01*
X133316666Y-70534235D01*
X133364285Y-70486616D01*
X133411904Y-70391378D01*
%TO.C,BT3*%
X129614285Y-101928571D02*
X129757142Y-101976190D01*
X129804761Y-102023809D01*
X129852380Y-102119047D01*
X129852380Y-102261904D01*
X129804761Y-102357142D01*
X129757142Y-102404761D01*
X129661904Y-102452380D01*
X129280952Y-102452380D01*
X129280952Y-101452380D01*
X129614285Y-101452380D01*
X129709523Y-101500000D01*
X129757142Y-101547619D01*
X129804761Y-101642857D01*
X129804761Y-101738095D01*
X129757142Y-101833333D01*
X129709523Y-101880952D01*
X129614285Y-101928571D01*
X129280952Y-101928571D01*
X130138095Y-101452380D02*
X130709523Y-101452380D01*
X130423809Y-102452380D02*
X130423809Y-101452380D01*
X130947619Y-101452380D02*
X131566666Y-101452380D01*
X131233333Y-101833333D01*
X131376190Y-101833333D01*
X131471428Y-101880952D01*
X131519047Y-101928571D01*
X131566666Y-102023809D01*
X131566666Y-102261904D01*
X131519047Y-102357142D01*
X131471428Y-102404761D01*
X131376190Y-102452380D01*
X131090476Y-102452380D01*
X130995238Y-102404761D01*
X130947619Y-102357142D01*
%TO.C,D7*%
X160527380Y-64238095D02*
X159527380Y-64238095D01*
X159527380Y-64000000D01*
X159575000Y-63857142D01*
X159670238Y-63761904D01*
X159765476Y-63714285D01*
X159955952Y-63666666D01*
X160098809Y-63666666D01*
X160289285Y-63714285D01*
X160384523Y-63761904D01*
X160479761Y-63857142D01*
X160527380Y-64000000D01*
X160527380Y-64238095D01*
X159527380Y-63333333D02*
X159527380Y-62666666D01*
X160527380Y-63095238D01*
%TO.C,U6*%
X180102669Y-70215380D02*
X180102669Y-71024904D01*
X180150288Y-71120142D01*
X180197907Y-71167761D01*
X180293145Y-71215380D01*
X180483621Y-71215380D01*
X180578859Y-71167761D01*
X180626478Y-71120142D01*
X180674097Y-71024904D01*
X180674097Y-70215380D01*
X181578859Y-70215380D02*
X181388383Y-70215380D01*
X181293145Y-70263000D01*
X181245526Y-70310619D01*
X181150288Y-70453476D01*
X181102669Y-70643952D01*
X181102669Y-71024904D01*
X181150288Y-71120142D01*
X181197907Y-71167761D01*
X181293145Y-71215380D01*
X181483621Y-71215380D01*
X181578859Y-71167761D01*
X181626478Y-71120142D01*
X181674097Y-71024904D01*
X181674097Y-70786809D01*
X181626478Y-70691571D01*
X181578859Y-70643952D01*
X181483621Y-70596333D01*
X181293145Y-70596333D01*
X181197907Y-70643952D01*
X181150288Y-70691571D01*
X181102669Y-70786809D01*
%TO.C,TH2*%
X151114285Y-110782380D02*
X151685714Y-110782380D01*
X151400000Y-111782380D02*
X151400000Y-110782380D01*
X152019047Y-111782380D02*
X152019047Y-110782380D01*
X152019047Y-111258571D02*
X152590476Y-111258571D01*
X152590476Y-111782380D02*
X152590476Y-110782380D01*
X153019047Y-110877619D02*
X153066666Y-110830000D01*
X153161904Y-110782380D01*
X153400000Y-110782380D01*
X153495238Y-110830000D01*
X153542857Y-110877619D01*
X153590476Y-110972857D01*
X153590476Y-111068095D01*
X153542857Y-111210952D01*
X152971428Y-111782380D01*
X153590476Y-111782380D01*
%TO.C,C13*%
X182478392Y-67722857D02*
X182526011Y-67770476D01*
X182573630Y-67913333D01*
X182573630Y-68008571D01*
X182526011Y-68151428D01*
X182430773Y-68246666D01*
X182335535Y-68294285D01*
X182145059Y-68341904D01*
X182002202Y-68341904D01*
X181811726Y-68294285D01*
X181716488Y-68246666D01*
X181621250Y-68151428D01*
X181573630Y-68008571D01*
X181573630Y-67913333D01*
X181621250Y-67770476D01*
X181668869Y-67722857D01*
X182573630Y-66770476D02*
X182573630Y-67341904D01*
X182573630Y-67056190D02*
X181573630Y-67056190D01*
X181716488Y-67151428D01*
X181811726Y-67246666D01*
X181859345Y-67341904D01*
X181573630Y-66437142D02*
X181573630Y-65818095D01*
X181954583Y-66151428D01*
X181954583Y-66008571D01*
X182002202Y-65913333D01*
X182049821Y-65865714D01*
X182145059Y-65818095D01*
X182383154Y-65818095D01*
X182478392Y-65865714D01*
X182526011Y-65913333D01*
X182573630Y-66008571D01*
X182573630Y-66294285D01*
X182526011Y-66389523D01*
X182478392Y-66437142D01*
%TO.C,C15*%
X140257142Y-84857142D02*
X140209523Y-84904761D01*
X140066666Y-84952380D01*
X139971428Y-84952380D01*
X139828571Y-84904761D01*
X139733333Y-84809523D01*
X139685714Y-84714285D01*
X139638095Y-84523809D01*
X139638095Y-84380952D01*
X139685714Y-84190476D01*
X139733333Y-84095238D01*
X139828571Y-84000000D01*
X139971428Y-83952380D01*
X140066666Y-83952380D01*
X140209523Y-84000000D01*
X140257142Y-84047619D01*
X141209523Y-84952380D02*
X140638095Y-84952380D01*
X140923809Y-84952380D02*
X140923809Y-83952380D01*
X140828571Y-84095238D01*
X140733333Y-84190476D01*
X140638095Y-84238095D01*
X142114285Y-83952380D02*
X141638095Y-83952380D01*
X141590476Y-84428571D01*
X141638095Y-84380952D01*
X141733333Y-84333333D01*
X141971428Y-84333333D01*
X142066666Y-84380952D01*
X142114285Y-84428571D01*
X142161904Y-84523809D01*
X142161904Y-84761904D01*
X142114285Y-84857142D01*
X142066666Y-84904761D01*
X141971428Y-84952380D01*
X141733333Y-84952380D01*
X141638095Y-84904761D01*
X141590476Y-84857142D01*
%TO.C,R3*%
X113820833Y-70902380D02*
X113487500Y-70426190D01*
X113249404Y-70902380D02*
X113249404Y-69902380D01*
X113630357Y-69902380D01*
X113725595Y-69950000D01*
X113773214Y-69997619D01*
X113820833Y-70092857D01*
X113820833Y-70235714D01*
X113773214Y-70330952D01*
X113725595Y-70378571D01*
X113630357Y-70426190D01*
X113249404Y-70426190D01*
X114154166Y-69902380D02*
X114773214Y-69902380D01*
X114439880Y-70283333D01*
X114582738Y-70283333D01*
X114677976Y-70330952D01*
X114725595Y-70378571D01*
X114773214Y-70473809D01*
X114773214Y-70711904D01*
X114725595Y-70807142D01*
X114677976Y-70854761D01*
X114582738Y-70902380D01*
X114297023Y-70902380D01*
X114201785Y-70854761D01*
X114154166Y-70807142D01*
%TO.C,Q1*%
X114337509Y-74218696D02*
X114262518Y-74181201D01*
X114187528Y-74106210D01*
X114075042Y-73993724D01*
X114000051Y-73956229D01*
X113925060Y-73956229D01*
X113962556Y-74143705D02*
X113887565Y-74106210D01*
X113812574Y-74031219D01*
X113775079Y-73881238D01*
X113775079Y-73618771D01*
X113812574Y-73468789D01*
X113887565Y-73393799D01*
X113962556Y-73356303D01*
X114112537Y-73356303D01*
X114187528Y-73393799D01*
X114262518Y-73468789D01*
X114300014Y-73618771D01*
X114300014Y-73881238D01*
X114262518Y-74031219D01*
X114187528Y-74106210D01*
X114112537Y-74143705D01*
X113962556Y-74143705D01*
X115049920Y-74143705D02*
X114599976Y-74143705D01*
X114824948Y-74143705D02*
X114824948Y-73356303D01*
X114749958Y-73468789D01*
X114674967Y-73543780D01*
X114599976Y-73581275D01*
%TO.C,R15*%
X151403934Y-82892857D02*
X150927744Y-83226190D01*
X151403934Y-83464285D02*
X150403934Y-83464285D01*
X150403934Y-83083333D01*
X150451554Y-82988095D01*
X150499173Y-82940476D01*
X150594411Y-82892857D01*
X150737268Y-82892857D01*
X150832506Y-82940476D01*
X150880125Y-82988095D01*
X150927744Y-83083333D01*
X150927744Y-83464285D01*
X151403934Y-81940476D02*
X151403934Y-82511904D01*
X151403934Y-82226190D02*
X150403934Y-82226190D01*
X150546792Y-82321428D01*
X150642030Y-82416666D01*
X150689649Y-82511904D01*
X150403934Y-81035714D02*
X150403934Y-81511904D01*
X150880125Y-81559523D01*
X150832506Y-81511904D01*
X150784887Y-81416666D01*
X150784887Y-81178571D01*
X150832506Y-81083333D01*
X150880125Y-81035714D01*
X150975363Y-80988095D01*
X151213458Y-80988095D01*
X151308696Y-81035714D01*
X151356315Y-81083333D01*
X151403934Y-81178571D01*
X151403934Y-81416666D01*
X151356315Y-81511904D01*
X151308696Y-81559523D01*
%TO.C,C7*%
X112594642Y-67116666D02*
X112642261Y-67164285D01*
X112689880Y-67307142D01*
X112689880Y-67402380D01*
X112642261Y-67545238D01*
X112547023Y-67640476D01*
X112451785Y-67688095D01*
X112261309Y-67735714D01*
X112118452Y-67735714D01*
X111927976Y-67688095D01*
X111832738Y-67640476D01*
X111737500Y-67545238D01*
X111689880Y-67402380D01*
X111689880Y-67307142D01*
X111737500Y-67164285D01*
X111785119Y-67116666D01*
X111689880Y-66783333D02*
X111689880Y-66116666D01*
X112689880Y-66545238D01*
%TO.C,J6*%
X135782380Y-81858333D02*
X136496666Y-81858333D01*
X136639523Y-81905952D01*
X136734761Y-82001190D01*
X136782380Y-82144047D01*
X136782380Y-82239285D01*
X135782380Y-80953571D02*
X135782380Y-81144047D01*
X135830000Y-81239285D01*
X135877619Y-81286904D01*
X136020476Y-81382142D01*
X136210952Y-81429761D01*
X136591904Y-81429761D01*
X136687142Y-81382142D01*
X136734761Y-81334523D01*
X136782380Y-81239285D01*
X136782380Y-81048809D01*
X136734761Y-80953571D01*
X136687142Y-80905952D01*
X136591904Y-80858333D01*
X136353809Y-80858333D01*
X136258571Y-80905952D01*
X136210952Y-80953571D01*
X136163333Y-81048809D01*
X136163333Y-81239285D01*
X136210952Y-81334523D01*
X136258571Y-81382142D01*
X136353809Y-81429761D01*
%TO.C,C31*%
X190041716Y-81567142D02*
X189994097Y-81614761D01*
X189851240Y-81662380D01*
X189756002Y-81662380D01*
X189613145Y-81614761D01*
X189517907Y-81519523D01*
X189470288Y-81424285D01*
X189422669Y-81233809D01*
X189422669Y-81090952D01*
X189470288Y-80900476D01*
X189517907Y-80805238D01*
X189613145Y-80710000D01*
X189756002Y-80662380D01*
X189851240Y-80662380D01*
X189994097Y-80710000D01*
X190041716Y-80757619D01*
X190375050Y-80662380D02*
X190994097Y-80662380D01*
X190660764Y-81043333D01*
X190803621Y-81043333D01*
X190898859Y-81090952D01*
X190946478Y-81138571D01*
X190994097Y-81233809D01*
X190994097Y-81471904D01*
X190946478Y-81567142D01*
X190898859Y-81614761D01*
X190803621Y-81662380D01*
X190517907Y-81662380D01*
X190422669Y-81614761D01*
X190375050Y-81567142D01*
X191946478Y-81662380D02*
X191375050Y-81662380D01*
X191660764Y-81662380D02*
X191660764Y-80662380D01*
X191565526Y-80805238D01*
X191470288Y-80900476D01*
X191375050Y-80948095D01*
%TO.C,BT1*%
X132629285Y-104618571D02*
X132772142Y-104666190D01*
X132819761Y-104713809D01*
X132867380Y-104809047D01*
X132867380Y-104951904D01*
X132819761Y-105047142D01*
X132772142Y-105094761D01*
X132676904Y-105142380D01*
X132295952Y-105142380D01*
X132295952Y-104142380D01*
X132629285Y-104142380D01*
X132724523Y-104190000D01*
X132772142Y-104237619D01*
X132819761Y-104332857D01*
X132819761Y-104428095D01*
X132772142Y-104523333D01*
X132724523Y-104570952D01*
X132629285Y-104618571D01*
X132295952Y-104618571D01*
X133153095Y-104142380D02*
X133724523Y-104142380D01*
X133438809Y-105142380D02*
X133438809Y-104142380D01*
X134581666Y-105142380D02*
X134010238Y-105142380D01*
X134295952Y-105142380D02*
X134295952Y-104142380D01*
X134200714Y-104285238D01*
X134105476Y-104380476D01*
X134010238Y-104428095D01*
%TO.C,J2*%
X173827916Y-68022380D02*
X173827916Y-68736666D01*
X173780297Y-68879523D01*
X173685059Y-68974761D01*
X173542202Y-69022380D01*
X173446964Y-69022380D01*
X174256488Y-68117619D02*
X174304107Y-68070000D01*
X174399345Y-68022380D01*
X174637440Y-68022380D01*
X174732678Y-68070000D01*
X174780297Y-68117619D01*
X174827916Y-68212857D01*
X174827916Y-68308095D01*
X174780297Y-68450952D01*
X174208869Y-69022380D01*
X174827916Y-69022380D01*
%TO.C,J1*%
X116282380Y-49808333D02*
X116996666Y-49808333D01*
X117139523Y-49855952D01*
X117234761Y-49951190D01*
X117282380Y-50094047D01*
X117282380Y-50189285D01*
X117282380Y-48808333D02*
X117282380Y-49379761D01*
X117282380Y-49094047D02*
X116282380Y-49094047D01*
X116425238Y-49189285D01*
X116520476Y-49284523D01*
X116568095Y-49379761D01*
%TO.C,J8*%
X168547380Y-78358333D02*
X169261666Y-78358333D01*
X169404523Y-78405952D01*
X169499761Y-78501190D01*
X169547380Y-78644047D01*
X169547380Y-78739285D01*
X168975952Y-77739285D02*
X168928333Y-77834523D01*
X168880714Y-77882142D01*
X168785476Y-77929761D01*
X168737857Y-77929761D01*
X168642619Y-77882142D01*
X168595000Y-77834523D01*
X168547380Y-77739285D01*
X168547380Y-77548809D01*
X168595000Y-77453571D01*
X168642619Y-77405952D01*
X168737857Y-77358333D01*
X168785476Y-77358333D01*
X168880714Y-77405952D01*
X168928333Y-77453571D01*
X168975952Y-77548809D01*
X168975952Y-77739285D01*
X169023571Y-77834523D01*
X169071190Y-77882142D01*
X169166428Y-77929761D01*
X169356904Y-77929761D01*
X169452142Y-77882142D01*
X169499761Y-77834523D01*
X169547380Y-77739285D01*
X169547380Y-77548809D01*
X169499761Y-77453571D01*
X169452142Y-77405952D01*
X169356904Y-77358333D01*
X169166428Y-77358333D01*
X169071190Y-77405952D01*
X169023571Y-77453571D01*
X168975952Y-77548809D01*
%TO.C,J14*%
X140942380Y-59829523D02*
X141656666Y-59829523D01*
X141799523Y-59877142D01*
X141894761Y-59972380D01*
X141942380Y-60115238D01*
X141942380Y-60210476D01*
X141942380Y-58829523D02*
X141942380Y-59400952D01*
X141942380Y-59115238D02*
X140942380Y-59115238D01*
X141085238Y-59210476D01*
X141180476Y-59305714D01*
X141228095Y-59400952D01*
X141275714Y-57972380D02*
X141942380Y-57972380D01*
X140894761Y-58210476D02*
X141609047Y-58448571D01*
X141609047Y-57829523D01*
%TO.C,Q5*%
X147071563Y-62731196D02*
X146996572Y-62693701D01*
X146921582Y-62618710D01*
X146809096Y-62506224D01*
X146734105Y-62468729D01*
X146659114Y-62468729D01*
X146696610Y-62656205D02*
X146621619Y-62618710D01*
X146546628Y-62543719D01*
X146509133Y-62393738D01*
X146509133Y-62131271D01*
X146546628Y-61981289D01*
X146621619Y-61906299D01*
X146696610Y-61868803D01*
X146846591Y-61868803D01*
X146921582Y-61906299D01*
X146996572Y-61981289D01*
X147034068Y-62131271D01*
X147034068Y-62393738D01*
X146996572Y-62543719D01*
X146921582Y-62618710D01*
X146846591Y-62656205D01*
X146696610Y-62656205D01*
X147746479Y-61868803D02*
X147371526Y-61868803D01*
X147334030Y-62243757D01*
X147371526Y-62206261D01*
X147446516Y-62168766D01*
X147633993Y-62168766D01*
X147708984Y-62206261D01*
X147746479Y-62243757D01*
X147783974Y-62318747D01*
X147783974Y-62506224D01*
X147746479Y-62581215D01*
X147708984Y-62618710D01*
X147633993Y-62656205D01*
X147446516Y-62656205D01*
X147371526Y-62618710D01*
X147334030Y-62581215D01*
%TO.C,R6*%
X178113630Y-66916666D02*
X177637440Y-67250000D01*
X178113630Y-67488095D02*
X177113630Y-67488095D01*
X177113630Y-67107142D01*
X177161250Y-67011904D01*
X177208869Y-66964285D01*
X177304107Y-66916666D01*
X177446964Y-66916666D01*
X177542202Y-66964285D01*
X177589821Y-67011904D01*
X177637440Y-67107142D01*
X177637440Y-67488095D01*
X177113630Y-66059523D02*
X177113630Y-66250000D01*
X177161250Y-66345238D01*
X177208869Y-66392857D01*
X177351726Y-66488095D01*
X177542202Y-66535714D01*
X177923154Y-66535714D01*
X178018392Y-66488095D01*
X178066011Y-66440476D01*
X178113630Y-66345238D01*
X178113630Y-66154761D01*
X178066011Y-66059523D01*
X178018392Y-66011904D01*
X177923154Y-65964285D01*
X177685059Y-65964285D01*
X177589821Y-66011904D01*
X177542202Y-66059523D01*
X177494583Y-66154761D01*
X177494583Y-66345238D01*
X177542202Y-66440476D01*
X177589821Y-66488095D01*
X177685059Y-66535714D01*
%TO.C,C8*%
X179518392Y-69916666D02*
X179566011Y-69964285D01*
X179613630Y-70107142D01*
X179613630Y-70202380D01*
X179566011Y-70345238D01*
X179470773Y-70440476D01*
X179375535Y-70488095D01*
X179185059Y-70535714D01*
X179042202Y-70535714D01*
X178851726Y-70488095D01*
X178756488Y-70440476D01*
X178661250Y-70345238D01*
X178613630Y-70202380D01*
X178613630Y-70107142D01*
X178661250Y-69964285D01*
X178708869Y-69916666D01*
X179042202Y-69345238D02*
X178994583Y-69440476D01*
X178946964Y-69488095D01*
X178851726Y-69535714D01*
X178804107Y-69535714D01*
X178708869Y-69488095D01*
X178661250Y-69440476D01*
X178613630Y-69345238D01*
X178613630Y-69154761D01*
X178661250Y-69059523D01*
X178708869Y-69011904D01*
X178804107Y-68964285D01*
X178851726Y-68964285D01*
X178946964Y-69011904D01*
X178994583Y-69059523D01*
X179042202Y-69154761D01*
X179042202Y-69345238D01*
X179089821Y-69440476D01*
X179137440Y-69488095D01*
X179232678Y-69535714D01*
X179423154Y-69535714D01*
X179518392Y-69488095D01*
X179566011Y-69440476D01*
X179613630Y-69345238D01*
X179613630Y-69154761D01*
X179566011Y-69059523D01*
X179518392Y-69011904D01*
X179423154Y-68964285D01*
X179232678Y-68964285D01*
X179137440Y-69011904D01*
X179089821Y-69059523D01*
X179042202Y-69154761D01*
%TO.C,C30*%
X129257142Y-67153283D02*
X129304761Y-67200902D01*
X129352380Y-67343759D01*
X129352380Y-67438997D01*
X129304761Y-67581854D01*
X129209523Y-67677092D01*
X129114285Y-67724711D01*
X128923809Y-67772330D01*
X128780952Y-67772330D01*
X128590476Y-67724711D01*
X128495238Y-67677092D01*
X128400000Y-67581854D01*
X128352380Y-67438997D01*
X128352380Y-67343759D01*
X128400000Y-67200902D01*
X128447619Y-67153283D01*
X128352380Y-66819949D02*
X128352380Y-66200902D01*
X128733333Y-66534235D01*
X128733333Y-66391378D01*
X128780952Y-66296140D01*
X128828571Y-66248521D01*
X128923809Y-66200902D01*
X129161904Y-66200902D01*
X129257142Y-66248521D01*
X129304761Y-66296140D01*
X129352380Y-66391378D01*
X129352380Y-66677092D01*
X129304761Y-66772330D01*
X129257142Y-66819949D01*
X128352380Y-65581854D02*
X128352380Y-65486616D01*
X128400000Y-65391378D01*
X128447619Y-65343759D01*
X128542857Y-65296140D01*
X128733333Y-65248521D01*
X128971428Y-65248521D01*
X129161904Y-65296140D01*
X129257142Y-65343759D01*
X129304761Y-65391378D01*
X129352380Y-65486616D01*
X129352380Y-65581854D01*
X129304761Y-65677092D01*
X129257142Y-65724711D01*
X129161904Y-65772330D01*
X128971428Y-65819949D01*
X128733333Y-65819949D01*
X128542857Y-65772330D01*
X128447619Y-65724711D01*
X128400000Y-65677092D01*
X128352380Y-65581854D01*
%TO.C,C17*%
X146808696Y-69607142D02*
X146761077Y-69654761D01*
X146618220Y-69702380D01*
X146522982Y-69702380D01*
X146380125Y-69654761D01*
X146284887Y-69559523D01*
X146237268Y-69464285D01*
X146189649Y-69273809D01*
X146189649Y-69130952D01*
X146237268Y-68940476D01*
X146284887Y-68845238D01*
X146380125Y-68750000D01*
X146522982Y-68702380D01*
X146618220Y-68702380D01*
X146761077Y-68750000D01*
X146808696Y-68797619D01*
X147761077Y-69702380D02*
X147189649Y-69702380D01*
X147475363Y-69702380D02*
X147475363Y-68702380D01*
X147380125Y-68845238D01*
X147284887Y-68940476D01*
X147189649Y-68988095D01*
X148094411Y-68702380D02*
X148761077Y-68702380D01*
X148332506Y-69702380D01*
%TO.C,J3*%
X140843220Y-82272380D02*
X140843220Y-82986666D01*
X140795601Y-83129523D01*
X140700363Y-83224761D01*
X140557506Y-83272380D01*
X140462268Y-83272380D01*
X141224173Y-82272380D02*
X141843220Y-82272380D01*
X141509887Y-82653333D01*
X141652744Y-82653333D01*
X141747982Y-82700952D01*
X141795601Y-82748571D01*
X141843220Y-82843809D01*
X141843220Y-83081904D01*
X141795601Y-83177142D01*
X141747982Y-83224761D01*
X141652744Y-83272380D01*
X141367030Y-83272380D01*
X141271792Y-83224761D01*
X141224173Y-83177142D01*
%TO.C,BT2*%
X171599285Y-84238571D02*
X171742142Y-84286190D01*
X171789761Y-84333809D01*
X171837380Y-84429047D01*
X171837380Y-84571904D01*
X171789761Y-84667142D01*
X171742142Y-84714761D01*
X171646904Y-84762380D01*
X171265952Y-84762380D01*
X171265952Y-83762380D01*
X171599285Y-83762380D01*
X171694523Y-83810000D01*
X171742142Y-83857619D01*
X171789761Y-83952857D01*
X171789761Y-84048095D01*
X171742142Y-84143333D01*
X171694523Y-84190952D01*
X171599285Y-84238571D01*
X171265952Y-84238571D01*
X172123095Y-83762380D02*
X172694523Y-83762380D01*
X172408809Y-84762380D02*
X172408809Y-83762380D01*
X172980238Y-83857619D02*
X173027857Y-83810000D01*
X173123095Y-83762380D01*
X173361190Y-83762380D01*
X173456428Y-83810000D01*
X173504047Y-83857619D01*
X173551666Y-83952857D01*
X173551666Y-84048095D01*
X173504047Y-84190952D01*
X172932619Y-84762380D01*
X173551666Y-84762380D01*
%TO.C,R13*%
X152721196Y-68702380D02*
X152387863Y-68226190D01*
X152149768Y-68702380D02*
X152149768Y-67702380D01*
X152530720Y-67702380D01*
X152625958Y-67750000D01*
X152673577Y-67797619D01*
X152721196Y-67892857D01*
X152721196Y-68035714D01*
X152673577Y-68130952D01*
X152625958Y-68178571D01*
X152530720Y-68226190D01*
X152149768Y-68226190D01*
X153673577Y-68702380D02*
X153102149Y-68702380D01*
X153387863Y-68702380D02*
X153387863Y-67702380D01*
X153292625Y-67845238D01*
X153197387Y-67940476D01*
X153102149Y-67988095D01*
X154006911Y-67702380D02*
X154625958Y-67702380D01*
X154292625Y-68083333D01*
X154435482Y-68083333D01*
X154530720Y-68130952D01*
X154578339Y-68178571D01*
X154625958Y-68273809D01*
X154625958Y-68511904D01*
X154578339Y-68607142D01*
X154530720Y-68654761D01*
X154435482Y-68702380D01*
X154149768Y-68702380D01*
X154054530Y-68654761D01*
X154006911Y-68607142D01*
%TO.C,D6*%
X189446478Y-72562380D02*
X189446478Y-71562380D01*
X189684574Y-71562380D01*
X189827431Y-71610000D01*
X189922669Y-71705238D01*
X189970288Y-71800476D01*
X190017907Y-71990952D01*
X190017907Y-72133809D01*
X189970288Y-72324285D01*
X189922669Y-72419523D01*
X189827431Y-72514761D01*
X189684574Y-72562380D01*
X189446478Y-72562380D01*
X190875050Y-71562380D02*
X190684574Y-71562380D01*
X190589335Y-71610000D01*
X190541716Y-71657619D01*
X190446478Y-71800476D01*
X190398859Y-71990952D01*
X190398859Y-72371904D01*
X190446478Y-72467142D01*
X190494097Y-72514761D01*
X190589335Y-72562380D01*
X190779812Y-72562380D01*
X190875050Y-72514761D01*
X190922669Y-72467142D01*
X190970288Y-72371904D01*
X190970288Y-72133809D01*
X190922669Y-72038571D01*
X190875050Y-71990952D01*
X190779812Y-71943333D01*
X190589335Y-71943333D01*
X190494097Y-71990952D01*
X190446478Y-72038571D01*
X190398859Y-72133809D01*
%TO.C,L1*%
X112189880Y-57116666D02*
X112189880Y-57592857D01*
X111189880Y-57592857D01*
X112189880Y-56259523D02*
X112189880Y-56830952D01*
X112189880Y-56545238D02*
X111189880Y-56545238D01*
X111332738Y-56640476D01*
X111427976Y-56735714D01*
X111475595Y-56830952D01*
%TO.C,L6*%
X189767907Y-71062380D02*
X189291716Y-71062380D01*
X189291716Y-70062380D01*
X190529812Y-70062380D02*
X190339335Y-70062380D01*
X190244097Y-70110000D01*
X190196478Y-70157619D01*
X190101240Y-70300476D01*
X190053621Y-70490952D01*
X190053621Y-70871904D01*
X190101240Y-70967142D01*
X190148859Y-71014761D01*
X190244097Y-71062380D01*
X190434574Y-71062380D01*
X190529812Y-71014761D01*
X190577431Y-70967142D01*
X190625050Y-70871904D01*
X190625050Y-70633809D01*
X190577431Y-70538571D01*
X190529812Y-70490952D01*
X190434574Y-70443333D01*
X190244097Y-70443333D01*
X190148859Y-70490952D01*
X190101240Y-70538571D01*
X190053621Y-70633809D01*
%TO.C,R9*%
X177739859Y-60952380D02*
X177406526Y-60476190D01*
X177168430Y-60952380D02*
X177168430Y-59952380D01*
X177549383Y-59952380D01*
X177644621Y-60000000D01*
X177692240Y-60047619D01*
X177739859Y-60142857D01*
X177739859Y-60285714D01*
X177692240Y-60380952D01*
X177644621Y-60428571D01*
X177549383Y-60476190D01*
X177168430Y-60476190D01*
X178216049Y-60952380D02*
X178406526Y-60952380D01*
X178501764Y-60904761D01*
X178549383Y-60857142D01*
X178644621Y-60714285D01*
X178692240Y-60523809D01*
X178692240Y-60142857D01*
X178644621Y-60047619D01*
X178597002Y-60000000D01*
X178501764Y-59952380D01*
X178311287Y-59952380D01*
X178216049Y-60000000D01*
X178168430Y-60047619D01*
X178120811Y-60142857D01*
X178120811Y-60380952D01*
X178168430Y-60476190D01*
X178216049Y-60523809D01*
X178311287Y-60571428D01*
X178501764Y-60571428D01*
X178597002Y-60523809D01*
X178644621Y-60476190D01*
X178692240Y-60380952D01*
%TO.C,Q4*%
X186085059Y-67438095D02*
X186008869Y-67400000D01*
X185932678Y-67323809D01*
X185818392Y-67209523D01*
X185742202Y-67171428D01*
X185666011Y-67171428D01*
X185704107Y-67361904D02*
X185627916Y-67323809D01*
X185551726Y-67247619D01*
X185513630Y-67095238D01*
X185513630Y-66828571D01*
X185551726Y-66676190D01*
X185627916Y-66600000D01*
X185704107Y-66561904D01*
X185856488Y-66561904D01*
X185932678Y-66600000D01*
X186008869Y-66676190D01*
X186046964Y-66828571D01*
X186046964Y-67095238D01*
X186008869Y-67247619D01*
X185932678Y-67323809D01*
X185856488Y-67361904D01*
X185704107Y-67361904D01*
X186732678Y-66828571D02*
X186732678Y-67361904D01*
X186542202Y-66523809D02*
X186351726Y-67095238D01*
X186846964Y-67095238D01*
%TO.C,C33*%
X168002142Y-66892857D02*
X168049761Y-66940476D01*
X168097380Y-67083333D01*
X168097380Y-67178571D01*
X168049761Y-67321428D01*
X167954523Y-67416666D01*
X167859285Y-67464285D01*
X167668809Y-67511904D01*
X167525952Y-67511904D01*
X167335476Y-67464285D01*
X167240238Y-67416666D01*
X167145000Y-67321428D01*
X167097380Y-67178571D01*
X167097380Y-67083333D01*
X167145000Y-66940476D01*
X167192619Y-66892857D01*
X167097380Y-66559523D02*
X167097380Y-65940476D01*
X167478333Y-66273809D01*
X167478333Y-66130952D01*
X167525952Y-66035714D01*
X167573571Y-65988095D01*
X167668809Y-65940476D01*
X167906904Y-65940476D01*
X168002142Y-65988095D01*
X168049761Y-66035714D01*
X168097380Y-66130952D01*
X168097380Y-66416666D01*
X168049761Y-66511904D01*
X168002142Y-66559523D01*
X167097380Y-65607142D02*
X167097380Y-64988095D01*
X167478333Y-65321428D01*
X167478333Y-65178571D01*
X167525952Y-65083333D01*
X167573571Y-65035714D01*
X167668809Y-64988095D01*
X167906904Y-64988095D01*
X168002142Y-65035714D01*
X168049761Y-65083333D01*
X168097380Y-65178571D01*
X168097380Y-65464285D01*
X168049761Y-65559523D01*
X168002142Y-65607142D01*
%TO.C,C3*%
X119795833Y-69574642D02*
X119748214Y-69622261D01*
X119605357Y-69669880D01*
X119510119Y-69669880D01*
X119367261Y-69622261D01*
X119272023Y-69527023D01*
X119224404Y-69431785D01*
X119176785Y-69241309D01*
X119176785Y-69098452D01*
X119224404Y-68907976D01*
X119272023Y-68812738D01*
X119367261Y-68717500D01*
X119510119Y-68669880D01*
X119605357Y-68669880D01*
X119748214Y-68717500D01*
X119795833Y-68765119D01*
X120129166Y-68669880D02*
X120748214Y-68669880D01*
X120414880Y-69050833D01*
X120557738Y-69050833D01*
X120652976Y-69098452D01*
X120700595Y-69146071D01*
X120748214Y-69241309D01*
X120748214Y-69479404D01*
X120700595Y-69574642D01*
X120652976Y-69622261D01*
X120557738Y-69669880D01*
X120272023Y-69669880D01*
X120176785Y-69622261D01*
X120129166Y-69574642D01*
%TO.C,C5*%
X111094642Y-67116666D02*
X111142261Y-67164285D01*
X111189880Y-67307142D01*
X111189880Y-67402380D01*
X111142261Y-67545238D01*
X111047023Y-67640476D01*
X110951785Y-67688095D01*
X110761309Y-67735714D01*
X110618452Y-67735714D01*
X110427976Y-67688095D01*
X110332738Y-67640476D01*
X110237500Y-67545238D01*
X110189880Y-67402380D01*
X110189880Y-67307142D01*
X110237500Y-67164285D01*
X110285119Y-67116666D01*
X110189880Y-66211904D02*
X110189880Y-66688095D01*
X110666071Y-66735714D01*
X110618452Y-66688095D01*
X110570833Y-66592857D01*
X110570833Y-66354761D01*
X110618452Y-66259523D01*
X110666071Y-66211904D01*
X110761309Y-66164285D01*
X110999404Y-66164285D01*
X111094642Y-66211904D01*
X111142261Y-66259523D01*
X111189880Y-66354761D01*
X111189880Y-66592857D01*
X111142261Y-66688095D01*
X111094642Y-66735714D01*
%TO.C,U1*%
X123852380Y-71549404D02*
X124661904Y-71549404D01*
X124757142Y-71501785D01*
X124804761Y-71454166D01*
X124852380Y-71358928D01*
X124852380Y-71168452D01*
X124804761Y-71073214D01*
X124757142Y-71025595D01*
X124661904Y-70977976D01*
X123852380Y-70977976D01*
X124852380Y-69977976D02*
X124852380Y-70549404D01*
X124852380Y-70263690D02*
X123852380Y-70263690D01*
X123995238Y-70358928D01*
X124090476Y-70454166D01*
X124138095Y-70549404D01*
%TO.C,D3*%
X169845619Y-57795923D02*
X169845619Y-57155923D01*
X169998000Y-57155923D01*
X170089428Y-57186400D01*
X170150380Y-57247352D01*
X170180857Y-57308304D01*
X170211333Y-57430209D01*
X170211333Y-57521638D01*
X170180857Y-57643542D01*
X170150380Y-57704495D01*
X170089428Y-57765447D01*
X169998000Y-57795923D01*
X169845619Y-57795923D01*
X170424666Y-57155923D02*
X170820857Y-57155923D01*
X170607523Y-57399733D01*
X170698952Y-57399733D01*
X170759904Y-57430209D01*
X170790380Y-57460685D01*
X170820857Y-57521638D01*
X170820857Y-57674019D01*
X170790380Y-57734971D01*
X170759904Y-57765447D01*
X170698952Y-57795923D01*
X170516095Y-57795923D01*
X170455142Y-57765447D01*
X170424666Y-57734971D01*
%TO.C,TH3*%
X151114285Y-127782380D02*
X151685714Y-127782380D01*
X151400000Y-128782380D02*
X151400000Y-127782380D01*
X152019047Y-128782380D02*
X152019047Y-127782380D01*
X152019047Y-128258571D02*
X152590476Y-128258571D01*
X152590476Y-128782380D02*
X152590476Y-127782380D01*
X152971428Y-127782380D02*
X153590476Y-127782380D01*
X153257142Y-128163333D01*
X153400000Y-128163333D01*
X153495238Y-128210952D01*
X153542857Y-128258571D01*
X153590476Y-128353809D01*
X153590476Y-128591904D01*
X153542857Y-128687142D01*
X153495238Y-128734761D01*
X153400000Y-128782380D01*
X153114285Y-128782380D01*
X153019047Y-128734761D01*
X152971428Y-128687142D01*
%TO.C,J10*%
X167887380Y-59829523D02*
X168601666Y-59829523D01*
X168744523Y-59877142D01*
X168839761Y-59972380D01*
X168887380Y-60115238D01*
X168887380Y-60210476D01*
X168887380Y-58829523D02*
X168887380Y-59400952D01*
X168887380Y-59115238D02*
X167887380Y-59115238D01*
X168030238Y-59210476D01*
X168125476Y-59305714D01*
X168173095Y-59400952D01*
X167887380Y-58210476D02*
X167887380Y-58115238D01*
X167935000Y-58020000D01*
X167982619Y-57972380D01*
X168077857Y-57924761D01*
X168268333Y-57877142D01*
X168506428Y-57877142D01*
X168696904Y-57924761D01*
X168792142Y-57972380D01*
X168839761Y-58020000D01*
X168887380Y-58115238D01*
X168887380Y-58210476D01*
X168839761Y-58305714D01*
X168792142Y-58353333D01*
X168696904Y-58400952D01*
X168506428Y-58448571D01*
X168268333Y-58448571D01*
X168077857Y-58400952D01*
X167982619Y-58353333D01*
X167935000Y-58305714D01*
X167887380Y-58210476D01*
%TO.C,R5*%
X117277380Y-56454166D02*
X116801190Y-56787500D01*
X117277380Y-57025595D02*
X116277380Y-57025595D01*
X116277380Y-56644642D01*
X116325000Y-56549404D01*
X116372619Y-56501785D01*
X116467857Y-56454166D01*
X116610714Y-56454166D01*
X116705952Y-56501785D01*
X116753571Y-56549404D01*
X116801190Y-56644642D01*
X116801190Y-57025595D01*
X116277380Y-55549404D02*
X116277380Y-56025595D01*
X116753571Y-56073214D01*
X116705952Y-56025595D01*
X116658333Y-55930357D01*
X116658333Y-55692261D01*
X116705952Y-55597023D01*
X116753571Y-55549404D01*
X116848809Y-55501785D01*
X117086904Y-55501785D01*
X117182142Y-55549404D01*
X117229761Y-55597023D01*
X117277380Y-55692261D01*
X117277380Y-55930357D01*
X117229761Y-56025595D01*
X117182142Y-56073214D01*
%TO.C,D1*%
X126933123Y-59390380D02*
X126293123Y-59390380D01*
X126293123Y-59238000D01*
X126323600Y-59146571D01*
X126384552Y-59085619D01*
X126445504Y-59055142D01*
X126567409Y-59024666D01*
X126658838Y-59024666D01*
X126780742Y-59055142D01*
X126841695Y-59085619D01*
X126902647Y-59146571D01*
X126933123Y-59238000D01*
X126933123Y-59390380D01*
X126933123Y-58415142D02*
X126933123Y-58780857D01*
X126933123Y-58598000D02*
X126293123Y-58598000D01*
X126384552Y-58658952D01*
X126445504Y-58719904D01*
X126475980Y-58780857D01*
%TO.C,R4*%
X122658333Y-67739880D02*
X122325000Y-67263690D01*
X122086904Y-67739880D02*
X122086904Y-66739880D01*
X122467857Y-66739880D01*
X122563095Y-66787500D01*
X122610714Y-66835119D01*
X122658333Y-66930357D01*
X122658333Y-67073214D01*
X122610714Y-67168452D01*
X122563095Y-67216071D01*
X122467857Y-67263690D01*
X122086904Y-67263690D01*
X123515476Y-67073214D02*
X123515476Y-67739880D01*
X123277380Y-66692261D02*
X123039285Y-67406547D01*
X123658333Y-67406547D01*
%TO.C,R7*%
X177494583Y-55952380D02*
X177161250Y-55476190D01*
X176923154Y-55952380D02*
X176923154Y-54952380D01*
X177304107Y-54952380D01*
X177399345Y-55000000D01*
X177446964Y-55047619D01*
X177494583Y-55142857D01*
X177494583Y-55285714D01*
X177446964Y-55380952D01*
X177399345Y-55428571D01*
X177304107Y-55476190D01*
X176923154Y-55476190D01*
X177827916Y-54952380D02*
X178494583Y-54952380D01*
X178066011Y-55952380D01*
D14*
%TO.C,C14*%
X187401250Y-58603733D02*
X187401250Y-58896267D01*
X188421250Y-58603733D02*
X188421250Y-58896267D01*
%TO.C,C2*%
X121847500Y-58653733D02*
X121847500Y-58946267D01*
X120827500Y-58653733D02*
X120827500Y-58946267D01*
D15*
%TO.C,BT4*%
X182990000Y-103695000D02*
X182990000Y-107555000D01*
X168908000Y-111873000D02*
X167908000Y-111873000D01*
X182990000Y-107555000D02*
X186460000Y-107555000D01*
X182990000Y-116445000D02*
X182990000Y-120305000D01*
X173460000Y-103695000D02*
X182990000Y-103695000D01*
X190773000Y-111500000D02*
X190773000Y-112500000D01*
X186460000Y-114000000D02*
X186460000Y-116445000D01*
X186460000Y-116445000D02*
X182990000Y-116445000D01*
X182990000Y-120305000D02*
X173460000Y-120305000D01*
X173460000Y-120305000D02*
X173460000Y-114950000D01*
X173460000Y-109050000D02*
X173460000Y-103695000D01*
X186460000Y-107555000D02*
X186460000Y-110000000D01*
X168408000Y-111373000D02*
X168408000Y-112373000D01*
X190273000Y-112000000D02*
X191273000Y-112000000D01*
D14*
%TO.C,C9*%
X179671250Y-64146267D02*
X179671250Y-63853733D01*
X178651250Y-64146267D02*
X178651250Y-63853733D01*
%TO.C,J11*%
X166995000Y-49920000D02*
X159255000Y-49920000D01*
X164395000Y-52520000D02*
X164395000Y-55120000D01*
X164395000Y-55120000D02*
X159255000Y-55120000D01*
X166995000Y-49920000D02*
X166995000Y-52520000D01*
X166995000Y-53790000D02*
X166995000Y-55120000D01*
X159255000Y-49920000D02*
X159255000Y-55120000D01*
X166995000Y-52520000D02*
X164395000Y-52520000D01*
X166995000Y-55120000D02*
X165665000Y-55120000D01*
%TO.C,J12*%
X153480000Y-53790000D02*
X153480000Y-55120000D01*
X153480000Y-49920000D02*
X145740000Y-49920000D01*
X150880000Y-55120000D02*
X145740000Y-55120000D01*
X153480000Y-52520000D02*
X150880000Y-52520000D01*
X153480000Y-49920000D02*
X153480000Y-52520000D01*
X153480000Y-55120000D02*
X152150000Y-55120000D01*
X145740000Y-49920000D02*
X145740000Y-55120000D01*
X150880000Y-52520000D02*
X150880000Y-55120000D01*
%TO.C,C19*%
X156441554Y-73603733D02*
X156441554Y-73896267D01*
X157461554Y-73603733D02*
X157461554Y-73896267D01*
D16*
%TO.C,Q2*%
X115088600Y-57627100D02*
X115747400Y-57627100D01*
X115747400Y-57627100D02*
X115747400Y-58439900D01*
X112902600Y-57627100D02*
X113561400Y-57627100D01*
X112902600Y-58439900D02*
X112902600Y-57627100D01*
D14*
%TO.C,C4*%
X119315000Y-58933767D02*
X119315000Y-58641233D01*
X120335000Y-58933767D02*
X120335000Y-58641233D01*
%TO.C,C21*%
X154941554Y-73603733D02*
X154941554Y-73896267D01*
X155961554Y-73603733D02*
X155961554Y-73896267D01*
%TO.C,J5*%
X112730000Y-76670000D02*
X112730000Y-78000000D01*
X110070000Y-84410000D02*
X112730000Y-84410000D01*
X111400000Y-76670000D02*
X112730000Y-76670000D01*
X110070000Y-79270000D02*
X112730000Y-79270000D01*
X110070000Y-79270000D02*
X110070000Y-84410000D01*
X112730000Y-79270000D02*
X112730000Y-84410000D01*
%TO.C,C11*%
X180151250Y-63853733D02*
X180151250Y-64146267D01*
X181171250Y-63853733D02*
X181171250Y-64146267D01*
%TO.C,C20*%
X148941554Y-79396267D02*
X148941554Y-79103733D01*
X149961554Y-79396267D02*
X149961554Y-79103733D01*
%TO.C,L5*%
X126395000Y-69578733D02*
X126395000Y-69921267D01*
X125375000Y-69578733D02*
X125375000Y-69921267D01*
%TO.C,J15*%
X153480000Y-56420000D02*
X145740000Y-56420000D01*
X153480000Y-60290000D02*
X153480000Y-61620000D01*
X150880000Y-59020000D02*
X150880000Y-61620000D01*
X145740000Y-56420000D02*
X145740000Y-61620000D01*
X150880000Y-61620000D02*
X145740000Y-61620000D01*
X153480000Y-56420000D02*
X153480000Y-59020000D01*
X153480000Y-59020000D02*
X150880000Y-59020000D01*
X153480000Y-61620000D02*
X152150000Y-61620000D01*
%TO.C,R11*%
X144429054Y-79504724D02*
X144429054Y-78995276D01*
X145474054Y-79504724D02*
X145474054Y-78995276D01*
%TO.C,C12*%
X188901250Y-58603733D02*
X188901250Y-58896267D01*
X189921250Y-58603733D02*
X189921250Y-58896267D01*
%TO.C,R10*%
X184183750Y-63745276D02*
X184183750Y-64254724D01*
X183138750Y-63745276D02*
X183138750Y-64254724D01*
%TO.C,L2*%
X189171250Y-63578733D02*
X189171250Y-63921267D01*
X188151250Y-63578733D02*
X188151250Y-63921267D01*
%TO.C,C1*%
X123247500Y-53846267D02*
X123247500Y-53553733D01*
X122227500Y-53846267D02*
X122227500Y-53553733D01*
%TO.C,C32*%
X187580841Y-73100000D02*
X187288307Y-73100000D01*
X187580841Y-74120000D02*
X187288307Y-74120000D01*
%TO.C,C6*%
X117815000Y-58641233D02*
X117815000Y-58933767D01*
X118835000Y-58641233D02*
X118835000Y-58933767D01*
%TO.C,C16*%
X145941554Y-79396267D02*
X145941554Y-79103733D01*
X146961554Y-79396267D02*
X146961554Y-79103733D01*
D15*
%TO.C,Q3*%
X183161250Y-48050000D02*
X179446250Y-48050000D01*
X179446250Y-52950000D02*
X183161250Y-52950000D01*
D17*
X177341250Y-48595000D02*
G75*
G03*
X177341250Y-48595000I-100000J0D01*
G01*
D15*
%TO.C,BT6*%
X190273000Y-129500000D02*
X191273000Y-129500000D01*
X168408000Y-128873000D02*
X168408000Y-129873000D01*
X182990000Y-137805000D02*
X173460000Y-137805000D01*
X182990000Y-121195000D02*
X182990000Y-125055000D01*
X190773000Y-129000000D02*
X190773000Y-130000000D01*
X173460000Y-126550000D02*
X173460000Y-121195000D01*
X173460000Y-137805000D02*
X173460000Y-132450000D01*
X186460000Y-133945000D02*
X182990000Y-133945000D01*
X186460000Y-131500000D02*
X186460000Y-133945000D01*
X173460000Y-121195000D02*
X182990000Y-121195000D01*
X182990000Y-125055000D02*
X186460000Y-125055000D01*
X168908000Y-129373000D02*
X167908000Y-129373000D01*
X182990000Y-133945000D02*
X182990000Y-137805000D01*
X186460000Y-125055000D02*
X186460000Y-127500000D01*
%TO.C,U5*%
X126840000Y-77510426D02*
X126840000Y-73510426D01*
X136960000Y-77510426D02*
X136960000Y-73510426D01*
D17*
X126965000Y-79955426D02*
G75*
G03*
X126965000Y-79955426I-100000J0D01*
G01*
D14*
%TO.C,R14*%
X145196830Y-74522500D02*
X145706278Y-74522500D01*
X145196830Y-73477500D02*
X145706278Y-73477500D01*
%TO.C,C10*%
X180014983Y-55760000D02*
X180307517Y-55760000D01*
X180014983Y-54740000D02*
X180307517Y-54740000D01*
%TO.C,R12*%
X145706278Y-72522500D02*
X145196830Y-72522500D01*
X145706278Y-71477500D02*
X145196830Y-71477500D01*
%TO.C,L3*%
X155441554Y-79078733D02*
X155441554Y-79421267D01*
X156461554Y-79078733D02*
X156461554Y-79421267D01*
%TO.C,R8*%
X185165974Y-53727500D02*
X184656526Y-53727500D01*
X185165974Y-54772500D02*
X184656526Y-54772500D01*
%TO.C,J13*%
X140050000Y-49920000D02*
X140050000Y-52520000D01*
X140050000Y-53790000D02*
X140050000Y-55120000D01*
X137450000Y-52520000D02*
X137450000Y-55120000D01*
X140050000Y-52520000D02*
X137450000Y-52520000D01*
X140050000Y-55120000D02*
X138720000Y-55120000D01*
X132310000Y-49920000D02*
X132310000Y-55120000D01*
X137450000Y-55120000D02*
X132310000Y-55120000D01*
X140050000Y-49920000D02*
X132310000Y-49920000D01*
D15*
%TO.C,U3*%
X153501554Y-75950000D02*
X153501554Y-76300000D01*
X148401554Y-76300000D02*
X148751554Y-76300000D01*
X153501554Y-76300000D02*
X153151554Y-76300000D01*
X148401554Y-72200000D02*
X148751554Y-72200000D01*
X148401554Y-72550000D02*
X148401554Y-72200000D01*
X148401554Y-75950000D02*
X148401554Y-76300000D01*
X153501554Y-72550000D02*
X153501554Y-72200000D01*
X153501554Y-72200000D02*
X153151554Y-72200000D01*
D17*
X152951554Y-71350000D02*
G75*
G03*
X152951554Y-71350000I-100000J0D01*
G01*
D14*
%TO.C,D5*%
X128135000Y-68100426D02*
X126665000Y-68100426D01*
X126665000Y-68100426D02*
X126665000Y-70560426D01*
X128135000Y-70560426D02*
X128135000Y-68100426D01*
D15*
%TO.C,BT5*%
X119340000Y-125055000D02*
X122810000Y-125055000D01*
X122810000Y-133945000D02*
X119340000Y-133945000D01*
X122810000Y-121195000D02*
X132340000Y-121195000D01*
X137392000Y-130127000D02*
X137392000Y-129127000D01*
X119340000Y-127500000D02*
X119340000Y-125055000D01*
X115527000Y-129500000D02*
X114527000Y-129500000D01*
X122810000Y-137805000D02*
X122810000Y-133945000D01*
X115027000Y-130000000D02*
X115027000Y-129000000D01*
X136892000Y-129627000D02*
X137892000Y-129627000D01*
X119340000Y-133945000D02*
X119340000Y-131500000D01*
X132340000Y-121195000D02*
X132340000Y-126550000D01*
X132340000Y-132450000D02*
X132340000Y-137805000D01*
X132340000Y-137805000D02*
X122810000Y-137805000D01*
X122810000Y-125055000D02*
X122810000Y-121195000D01*
D14*
%TO.C,R2*%
X122070276Y-65265000D02*
X122579724Y-65265000D01*
X122070276Y-66310000D02*
X122579724Y-66310000D01*
D16*
%TO.C,Q6*%
X154873954Y-79597600D02*
X154873954Y-80410400D01*
X152029154Y-80410400D02*
X152029154Y-79597600D01*
X152687954Y-80410400D02*
X152029154Y-80410400D01*
X154873954Y-80410400D02*
X154215154Y-80410400D01*
D15*
%TO.C,U7*%
X169635000Y-74000000D02*
X169635000Y-70000000D01*
X159515000Y-74000000D02*
X159515000Y-70000000D01*
D17*
X159640000Y-76445000D02*
G75*
G03*
X159640000Y-76445000I-100000J0D01*
G01*
D15*
%TO.C,D2*%
X135420000Y-65350000D02*
X135420000Y-63650000D01*
X133880000Y-65350000D02*
X133880000Y-63650000D01*
D17*
X134750000Y-66600000D02*
G75*
G03*
X134750000Y-66600000I-100000J0D01*
G01*
D14*
%TO.C,TH1*%
X153232379Y-95380000D02*
X153567621Y-95380000D01*
X153232379Y-94620000D02*
X153567621Y-94620000D01*
D15*
%TO.C,U2*%
X181111250Y-60450000D02*
X181111250Y-60800000D01*
X181111250Y-56700000D02*
X181461250Y-56700000D01*
X186211250Y-56700000D02*
X185861250Y-56700000D01*
X186211250Y-57050000D02*
X186211250Y-56700000D01*
X186211250Y-60800000D02*
X185861250Y-60800000D01*
X186211250Y-60450000D02*
X186211250Y-60800000D01*
X181111250Y-57050000D02*
X181111250Y-56700000D01*
X181111250Y-60800000D02*
X181461250Y-60800000D01*
D17*
X185661250Y-55850000D02*
G75*
G03*
X185661250Y-55850000I-100000J0D01*
G01*
D14*
%TO.C,L7*%
X158065000Y-66078733D02*
X158065000Y-66421267D01*
X159085000Y-66078733D02*
X159085000Y-66421267D01*
%TO.C,R1*%
X122315000Y-58545276D02*
X122315000Y-59054724D01*
X123360000Y-58545276D02*
X123360000Y-59054724D01*
%TO.C,C18*%
X148461554Y-79103733D02*
X148461554Y-79396267D01*
X147441554Y-79103733D02*
X147441554Y-79396267D01*
%TO.C,C34*%
X161065000Y-66103733D02*
X161065000Y-66396267D01*
X162085000Y-66103733D02*
X162085000Y-66396267D01*
%TO.C,J7*%
X176989574Y-71825000D02*
X174329574Y-71825000D01*
X176989574Y-76965000D02*
X176989574Y-71825000D01*
X174329574Y-79565000D02*
X174329574Y-78235000D01*
X174329574Y-76965000D02*
X174329574Y-71825000D01*
X175659574Y-79565000D02*
X174329574Y-79565000D01*
X176989574Y-76965000D02*
X174329574Y-76965000D01*
%TO.C,C29*%
X135546267Y-70000426D02*
X135253733Y-70000426D01*
X135546267Y-71020426D02*
X135253733Y-71020426D01*
D15*
%TO.C,BT3*%
X122810000Y-116445000D02*
X119340000Y-116445000D01*
X132340000Y-114950000D02*
X132340000Y-120305000D01*
X119340000Y-116445000D02*
X119340000Y-114000000D01*
X119340000Y-107555000D02*
X122810000Y-107555000D01*
X122810000Y-107555000D02*
X122810000Y-103695000D01*
X132340000Y-103695000D02*
X132340000Y-109050000D01*
X122810000Y-120305000D02*
X122810000Y-116445000D01*
X132340000Y-120305000D02*
X122810000Y-120305000D01*
X122810000Y-103695000D02*
X132340000Y-103695000D01*
X136892000Y-112127000D02*
X137892000Y-112127000D01*
X115527000Y-112000000D02*
X114527000Y-112000000D01*
X137392000Y-112627000D02*
X137392000Y-111627000D01*
X115027000Y-112500000D02*
X115027000Y-111500000D01*
X119340000Y-110000000D02*
X119340000Y-107555000D01*
D14*
%TO.C,D7*%
X159340000Y-64590000D02*
X159340000Y-67050000D01*
X160810000Y-67050000D02*
X160810000Y-64590000D01*
X160810000Y-64590000D02*
X159340000Y-64590000D01*
D15*
%TO.C,U6*%
X179659574Y-81695000D02*
X183659574Y-81695000D01*
X179659574Y-71575000D02*
X183659574Y-71575000D01*
D17*
X177314574Y-71600000D02*
G75*
G03*
X177314574Y-71600000I-100000J0D01*
G01*
D14*
%TO.C,TH2*%
X152232379Y-112880000D02*
X152567621Y-112880000D01*
X152232379Y-112120000D02*
X152567621Y-112120000D01*
%TO.C,C13*%
X182671250Y-64146267D02*
X182671250Y-63853733D01*
X181651250Y-64146267D02*
X181651250Y-63853733D01*
%TO.C,C15*%
X142390000Y-83508767D02*
X142390000Y-83216233D01*
X143410000Y-83508767D02*
X143410000Y-83216233D01*
%TO.C,R3*%
X115070276Y-69310000D02*
X115579724Y-69310000D01*
X115070276Y-68265000D02*
X115579724Y-68265000D01*
D15*
%TO.C,Q1*%
X120540000Y-70337500D02*
X116825000Y-70337500D01*
X116825000Y-75237500D02*
X120540000Y-75237500D01*
D17*
X122845000Y-74692500D02*
G75*
G03*
X122845000Y-74692500I-100000J0D01*
G01*
D14*
%TO.C,R15*%
X150429054Y-78995276D02*
X150429054Y-79504724D01*
X151474054Y-78995276D02*
X151474054Y-79504724D01*
%TO.C,C7*%
X111815000Y-64433767D02*
X111815000Y-64141233D01*
X112835000Y-64433767D02*
X112835000Y-64141233D01*
%TO.C,J6*%
X134890000Y-81525000D02*
X134890000Y-82855000D01*
X127150000Y-80195000D02*
X127150000Y-82855000D01*
X134890000Y-82855000D02*
X133560000Y-82855000D01*
X132290000Y-82855000D02*
X127150000Y-82855000D01*
X132290000Y-80195000D02*
X127150000Y-80195000D01*
X132290000Y-80195000D02*
X132290000Y-82855000D01*
%TO.C,C31*%
X187288307Y-80600000D02*
X187580841Y-80600000D01*
X187288307Y-81620000D02*
X187580841Y-81620000D01*
D15*
%TO.C,BT1*%
X122810000Y-102805000D02*
X122810000Y-98945000D01*
X115027000Y-95000000D02*
X115027000Y-94000000D01*
X132340000Y-86195000D02*
X132340000Y-91550000D01*
X137392000Y-95127000D02*
X137392000Y-94127000D01*
X132340000Y-97450000D02*
X132340000Y-102805000D01*
X122810000Y-90055000D02*
X122810000Y-86195000D01*
X119340000Y-98945000D02*
X119340000Y-96500000D01*
X119340000Y-92500000D02*
X119340000Y-90055000D01*
X132340000Y-102805000D02*
X122810000Y-102805000D01*
X119340000Y-90055000D02*
X122810000Y-90055000D01*
X115527000Y-94500000D02*
X114527000Y-94500000D01*
X136892000Y-94627000D02*
X137892000Y-94627000D01*
X122810000Y-86195000D02*
X132340000Y-86195000D01*
X122810000Y-98945000D02*
X119340000Y-98945000D01*
D14*
%TO.C,J2*%
X175491250Y-64530000D02*
X175491250Y-56850000D01*
X175491250Y-56850000D02*
X172831250Y-56850000D01*
X172831250Y-67130000D02*
X172831250Y-65800000D01*
X174161250Y-67130000D02*
X172831250Y-67130000D01*
X172831250Y-64530000D02*
X172831250Y-56850000D01*
X175491250Y-64530000D02*
X172831250Y-64530000D01*
%TO.C,J1*%
X128550000Y-50805000D02*
X128550000Y-48145000D01*
X120870000Y-50805000D02*
X120870000Y-48145000D01*
X120870000Y-48145000D02*
X128550000Y-48145000D01*
X118270000Y-49475000D02*
X118270000Y-48145000D01*
X120870000Y-50805000D02*
X128550000Y-50805000D01*
X118270000Y-48145000D02*
X119600000Y-48145000D01*
%TO.C,J8*%
X165055000Y-79355000D02*
X159915000Y-79355000D01*
X167655000Y-79355000D02*
X166325000Y-79355000D01*
X159915000Y-76695000D02*
X159915000Y-79355000D01*
X165055000Y-76695000D02*
X159915000Y-76695000D01*
X165055000Y-76695000D02*
X165055000Y-79355000D01*
X167655000Y-78025000D02*
X167655000Y-79355000D01*
%TO.C,J14*%
X137450000Y-61620000D02*
X132310000Y-61620000D01*
X140050000Y-56420000D02*
X132310000Y-56420000D01*
X140050000Y-60290000D02*
X140050000Y-61620000D01*
X137450000Y-59020000D02*
X137450000Y-61620000D01*
X132310000Y-56420000D02*
X132310000Y-61620000D01*
X140050000Y-56420000D02*
X140050000Y-59020000D01*
X140050000Y-61620000D02*
X138720000Y-61620000D01*
X140050000Y-59020000D02*
X137450000Y-59020000D01*
D15*
%TO.C,Q5*%
X146486554Y-68450000D02*
X150201554Y-68450000D01*
X150201554Y-63550000D02*
X146486554Y-63550000D01*
D17*
X144381554Y-64095000D02*
G75*
G03*
X144381554Y-64095000I-100000J0D01*
G01*
D14*
%TO.C,R6*%
X177138750Y-64254724D02*
X177138750Y-63745276D01*
X178183750Y-64254724D02*
X178183750Y-63745276D01*
%TO.C,C8*%
X177151250Y-69353733D02*
X177151250Y-69646267D01*
X178171250Y-69353733D02*
X178171250Y-69646267D01*
%TO.C,C30*%
X129410000Y-69614159D02*
X129410000Y-69906693D01*
X128390000Y-69614159D02*
X128390000Y-69906693D01*
%TO.C,C17*%
X147192787Y-71010000D02*
X147485321Y-71010000D01*
X147192787Y-69990000D02*
X147485321Y-69990000D01*
%TO.C,J3*%
X139846554Y-81380000D02*
X139846554Y-80050000D01*
X141176554Y-81380000D02*
X139846554Y-81380000D01*
X139846554Y-78780000D02*
X139846554Y-71100000D01*
X142506554Y-78780000D02*
X142506554Y-71100000D01*
X142506554Y-71100000D02*
X139846554Y-71100000D01*
X142506554Y-78780000D02*
X139846554Y-78780000D01*
D15*
%TO.C,BT2*%
X168908000Y-94373000D02*
X167908000Y-94373000D01*
X168408000Y-93873000D02*
X168408000Y-94873000D01*
X186460000Y-98945000D02*
X182990000Y-98945000D01*
X190773000Y-94000000D02*
X190773000Y-95000000D01*
X173460000Y-102805000D02*
X173460000Y-97450000D01*
X182990000Y-98945000D02*
X182990000Y-102805000D01*
X186460000Y-96500000D02*
X186460000Y-98945000D01*
X173460000Y-86195000D02*
X182990000Y-86195000D01*
X186460000Y-90055000D02*
X186460000Y-92500000D01*
X182990000Y-102805000D02*
X173460000Y-102805000D01*
X182990000Y-90055000D02*
X186460000Y-90055000D01*
X182990000Y-86195000D02*
X182990000Y-90055000D01*
X190273000Y-94500000D02*
X191273000Y-94500000D01*
X173460000Y-91550000D02*
X173460000Y-86195000D01*
D14*
%TO.C,R13*%
X152706278Y-70272500D02*
X152196830Y-70272500D01*
X152706278Y-69227500D02*
X152196830Y-69227500D01*
%TO.C,D6*%
X189094574Y-72845000D02*
X189094574Y-71375000D01*
X189094574Y-71375000D02*
X186634574Y-71375000D01*
X186634574Y-72845000D02*
X189094574Y-72845000D01*
%TO.C,L1*%
X112335000Y-59458767D02*
X112335000Y-59116233D01*
X111315000Y-59458767D02*
X111315000Y-59116233D01*
%TO.C,L6*%
X187605841Y-70100000D02*
X187263307Y-70100000D01*
X187605841Y-71120000D02*
X187263307Y-71120000D01*
%TO.C,R9*%
X177906526Y-58477500D02*
X178415974Y-58477500D01*
X177906526Y-59522500D02*
X178415974Y-59522500D01*
D16*
%TO.C,Q4*%
X184738850Y-64910400D02*
X184738850Y-64097600D01*
X187583650Y-64097600D02*
X187583650Y-64910400D01*
X187583650Y-64910400D02*
X186924850Y-64910400D01*
X185397650Y-64910400D02*
X184738850Y-64910400D01*
D14*
%TO.C,C33*%
X169585000Y-66396267D02*
X169585000Y-66103733D01*
X168565000Y-66396267D02*
X168565000Y-66103733D01*
%TO.C,C3*%
X120108767Y-68297500D02*
X119816233Y-68297500D01*
X120108767Y-67277500D02*
X119816233Y-67277500D01*
%TO.C,C5*%
X110315000Y-64433767D02*
X110315000Y-64141233D01*
X111335000Y-64433767D02*
X111335000Y-64141233D01*
D15*
%TO.C,U1*%
X114025000Y-62172500D02*
X114375000Y-62172500D01*
X119125000Y-62522500D02*
X119125000Y-62172500D01*
X114025000Y-65922500D02*
X114025000Y-66272500D01*
X119125000Y-65922500D02*
X119125000Y-66272500D01*
X114025000Y-62522500D02*
X114025000Y-62172500D01*
X119125000Y-66272500D02*
X118775000Y-66272500D01*
X114025000Y-66272500D02*
X114375000Y-66272500D01*
X119125000Y-62172500D02*
X118775000Y-62172500D01*
D17*
X114775000Y-67122500D02*
G75*
G03*
X114775000Y-67122500I-100000J0D01*
G01*
D15*
%TO.C,D3*%
X171000000Y-55230000D02*
X169300000Y-55230000D01*
X171000000Y-56770000D02*
X169300000Y-56770000D01*
D17*
X172350000Y-56000000D02*
G75*
G03*
X172350000Y-56000000I-100000J0D01*
G01*
D14*
%TO.C,TH3*%
X152232379Y-129880000D02*
X152567621Y-129880000D01*
X152232379Y-129120000D02*
X152567621Y-129120000D01*
%TO.C,J10*%
X166995000Y-61620000D02*
X165665000Y-61620000D01*
X164395000Y-59020000D02*
X164395000Y-61620000D01*
X166995000Y-59020000D02*
X164395000Y-59020000D01*
X166995000Y-56420000D02*
X159255000Y-56420000D01*
X166995000Y-56420000D02*
X166995000Y-59020000D01*
X159255000Y-56420000D02*
X159255000Y-61620000D01*
X164395000Y-61620000D02*
X159255000Y-61620000D01*
X166995000Y-60290000D02*
X166995000Y-61620000D01*
%TO.C,R5*%
X116302500Y-59042224D02*
X116302500Y-58532776D01*
X117347500Y-59042224D02*
X117347500Y-58532776D01*
D15*
%TO.C,D1*%
X128920000Y-59600000D02*
X128920000Y-57900000D01*
X127380000Y-59600000D02*
X127380000Y-57900000D01*
D17*
X128250000Y-60850000D02*
G75*
G03*
X128250000Y-60850000I-100000J0D01*
G01*
D14*
%TO.C,R4*%
X122579724Y-63265000D02*
X122070276Y-63265000D01*
X122579724Y-64310000D02*
X122070276Y-64310000D01*
%TO.C,R7*%
X178415974Y-56477500D02*
X177906526Y-56477500D01*
X178415974Y-57522500D02*
X177906526Y-57522500D01*
%TD*%
%LPC*%
%TO.C,BT4*%
G36*
X189820000Y-113750000D02*
G01*
X185380000Y-113750000D01*
X185380000Y-110250000D01*
X189820000Y-110250000D01*
X189820000Y-113750000D01*
G37*
D18*
X189820000Y-113750000D02*
X185380000Y-113750000D01*
X185380000Y-110250000D01*
X189820000Y-110250000D01*
X189820000Y-113750000D01*
G36*
X173810000Y-114700000D02*
G01*
X169370000Y-114700000D01*
X169370000Y-109300000D01*
X173810000Y-109300000D01*
X173810000Y-114700000D01*
G37*
X173810000Y-114700000D02*
X169370000Y-114700000D01*
X169370000Y-109300000D01*
X173810000Y-109300000D01*
X173810000Y-114700000D01*
%TO.C,Q3*%
G36*
X184566250Y-49070000D02*
G01*
X183856250Y-49070000D01*
X183856250Y-49390000D01*
X184566250Y-49390000D01*
X184566250Y-50340000D01*
X183856250Y-50340000D01*
X183856250Y-50660000D01*
X184566250Y-50660000D01*
X184566250Y-51610000D01*
X183856250Y-51610000D01*
X183856250Y-51930000D01*
X184566250Y-51930000D01*
X184566250Y-52880000D01*
X183346250Y-52880000D01*
X183346250Y-52555000D01*
X179846250Y-52555000D01*
X179846250Y-48445000D01*
X183346250Y-48445000D01*
X183346250Y-48120000D01*
X184566250Y-48120000D01*
X184566250Y-49070000D01*
G37*
X184566250Y-49070000D02*
X183856250Y-49070000D01*
X183856250Y-49390000D01*
X184566250Y-49390000D01*
X184566250Y-50340000D01*
X183856250Y-50340000D01*
X183856250Y-50660000D01*
X184566250Y-50660000D01*
X184566250Y-51610000D01*
X183856250Y-51610000D01*
X183856250Y-51930000D01*
X184566250Y-51930000D01*
X184566250Y-52880000D01*
X183346250Y-52880000D01*
X183346250Y-52555000D01*
X179846250Y-52555000D01*
X179846250Y-48445000D01*
X183346250Y-48445000D01*
X183346250Y-48120000D01*
X184566250Y-48120000D01*
X184566250Y-49070000D01*
%TO.C,BT6*%
G36*
X189820000Y-131250000D02*
G01*
X185380000Y-131250000D01*
X185380000Y-127750000D01*
X189820000Y-127750000D01*
X189820000Y-131250000D01*
G37*
X189820000Y-131250000D02*
X185380000Y-131250000D01*
X185380000Y-127750000D01*
X189820000Y-127750000D01*
X189820000Y-131250000D01*
G36*
X173810000Y-132200000D02*
G01*
X169370000Y-132200000D01*
X169370000Y-126800000D01*
X173810000Y-126800000D01*
X173810000Y-132200000D01*
G37*
X173810000Y-132200000D02*
X169370000Y-132200000D01*
X169370000Y-126800000D01*
X173810000Y-126800000D01*
X173810000Y-132200000D01*
%TO.C,BT5*%
G36*
X120420000Y-131250000D02*
G01*
X115980000Y-131250000D01*
X115980000Y-127750000D01*
X120420000Y-127750000D01*
X120420000Y-131250000D01*
G37*
X120420000Y-131250000D02*
X115980000Y-131250000D01*
X115980000Y-127750000D01*
X120420000Y-127750000D01*
X120420000Y-131250000D01*
G36*
X136430000Y-132200000D02*
G01*
X131990000Y-132200000D01*
X131990000Y-126800000D01*
X136430000Y-126800000D01*
X136430000Y-132200000D01*
G37*
X136430000Y-132200000D02*
X131990000Y-132200000D01*
X131990000Y-126800000D01*
X136430000Y-126800000D01*
X136430000Y-132200000D01*
%TO.C,BT3*%
G36*
X120420000Y-113750000D02*
G01*
X115980000Y-113750000D01*
X115980000Y-110250000D01*
X120420000Y-110250000D01*
X120420000Y-113750000D01*
G37*
X120420000Y-113750000D02*
X115980000Y-113750000D01*
X115980000Y-110250000D01*
X120420000Y-110250000D01*
X120420000Y-113750000D01*
G36*
X136430000Y-114700000D02*
G01*
X131990000Y-114700000D01*
X131990000Y-109300000D01*
X136430000Y-109300000D01*
X136430000Y-114700000D01*
G37*
X136430000Y-114700000D02*
X131990000Y-114700000D01*
X131990000Y-109300000D01*
X136430000Y-109300000D01*
X136430000Y-114700000D01*
%TO.C,Q1*%
G36*
X116640000Y-70732500D02*
G01*
X120140000Y-70732500D01*
X120140000Y-74842500D01*
X116640000Y-74842500D01*
X116640000Y-75167500D01*
X115420000Y-75167500D01*
X115420000Y-74217500D01*
X116130000Y-74217500D01*
X116130000Y-73897500D01*
X115420000Y-73897500D01*
X115420000Y-72947500D01*
X116130000Y-72947500D01*
X116130000Y-72627500D01*
X115420000Y-72627500D01*
X115420000Y-71677500D01*
X116130000Y-71677500D01*
X116130000Y-71357500D01*
X115420000Y-71357500D01*
X115420000Y-70407500D01*
X116640000Y-70407500D01*
X116640000Y-70732500D01*
G37*
X116640000Y-70732500D02*
X120140000Y-70732500D01*
X120140000Y-74842500D01*
X116640000Y-74842500D01*
X116640000Y-75167500D01*
X115420000Y-75167500D01*
X115420000Y-74217500D01*
X116130000Y-74217500D01*
X116130000Y-73897500D01*
X115420000Y-73897500D01*
X115420000Y-72947500D01*
X116130000Y-72947500D01*
X116130000Y-72627500D01*
X115420000Y-72627500D01*
X115420000Y-71677500D01*
X116130000Y-71677500D01*
X116130000Y-71357500D01*
X115420000Y-71357500D01*
X115420000Y-70407500D01*
X116640000Y-70407500D01*
X116640000Y-70732500D01*
%TO.C,BT1*%
G36*
X120420000Y-96250000D02*
G01*
X115980000Y-96250000D01*
X115980000Y-92750000D01*
X120420000Y-92750000D01*
X120420000Y-96250000D01*
G37*
X120420000Y-96250000D02*
X115980000Y-96250000D01*
X115980000Y-92750000D01*
X120420000Y-92750000D01*
X120420000Y-96250000D01*
G36*
X136430000Y-97200000D02*
G01*
X131990000Y-97200000D01*
X131990000Y-91800000D01*
X136430000Y-91800000D01*
X136430000Y-97200000D01*
G37*
X136430000Y-97200000D02*
X131990000Y-97200000D01*
X131990000Y-91800000D01*
X136430000Y-91800000D01*
X136430000Y-97200000D01*
%TO.C,Q5*%
G36*
X151606554Y-64570000D02*
G01*
X150896554Y-64570000D01*
X150896554Y-64890000D01*
X151606554Y-64890000D01*
X151606554Y-65840000D01*
X150896554Y-65840000D01*
X150896554Y-66160000D01*
X151606554Y-66160000D01*
X151606554Y-67110000D01*
X150896554Y-67110000D01*
X150896554Y-67430000D01*
X151606554Y-67430000D01*
X151606554Y-68380000D01*
X150386554Y-68380000D01*
X150386554Y-68055000D01*
X146886554Y-68055000D01*
X146886554Y-63945000D01*
X150386554Y-63945000D01*
X150386554Y-63620000D01*
X151606554Y-63620000D01*
X151606554Y-64570000D01*
G37*
X151606554Y-64570000D02*
X150896554Y-64570000D01*
X150896554Y-64890000D01*
X151606554Y-64890000D01*
X151606554Y-65840000D01*
X150896554Y-65840000D01*
X150896554Y-66160000D01*
X151606554Y-66160000D01*
X151606554Y-67110000D01*
X150896554Y-67110000D01*
X150896554Y-67430000D01*
X151606554Y-67430000D01*
X151606554Y-68380000D01*
X150386554Y-68380000D01*
X150386554Y-68055000D01*
X146886554Y-68055000D01*
X146886554Y-63945000D01*
X150386554Y-63945000D01*
X150386554Y-63620000D01*
X151606554Y-63620000D01*
X151606554Y-64570000D01*
%TO.C,BT2*%
G36*
X173810000Y-97200000D02*
G01*
X169370000Y-97200000D01*
X169370000Y-91800000D01*
X173810000Y-91800000D01*
X173810000Y-97200000D01*
G37*
X173810000Y-97200000D02*
X169370000Y-97200000D01*
X169370000Y-91800000D01*
X173810000Y-91800000D01*
X173810000Y-97200000D01*
G36*
X189820000Y-96250000D02*
G01*
X185380000Y-96250000D01*
X185380000Y-92750000D01*
X189820000Y-92750000D01*
X189820000Y-96250000D01*
G37*
X189820000Y-96250000D02*
X185380000Y-96250000D01*
X185380000Y-92750000D01*
X189820000Y-92750000D01*
X189820000Y-96250000D01*
%TD*%
D19*
%TO.C,C14*%
X187911250Y-57887500D03*
X187911250Y-59612500D03*
%TD*%
%TO.C,C2*%
X121337500Y-57937500D03*
X121337500Y-59662500D03*
%TD*%
D20*
%TO.C,C9*%
X179161250Y-64862500D03*
X179161250Y-63137500D03*
%TD*%
D21*
%TO.C,J11*%
X165665000Y-53790000D03*
D22*
X165665000Y-51250000D03*
X163125000Y-53790000D03*
X163125000Y-51250000D03*
X160585000Y-53790000D03*
X160585000Y-51250000D03*
%TD*%
D21*
%TO.C,J12*%
X152150000Y-53790000D03*
D22*
X152150000Y-51250000D03*
X149610000Y-53790000D03*
X149610000Y-51250000D03*
X147070000Y-53790000D03*
X147070000Y-51250000D03*
%TD*%
D19*
%TO.C,C19*%
X156951554Y-72887500D03*
X156951554Y-74612500D03*
%TD*%
D23*
%TO.C,Q2*%
X113375000Y-59387500D03*
X115275000Y-59387500D03*
X114325000Y-57187500D03*
%TD*%
D20*
%TO.C,C4*%
X119825000Y-59650000D03*
X119825000Y-57925000D03*
%TD*%
D19*
%TO.C,C21*%
X155451554Y-72887500D03*
X155451554Y-74612500D03*
%TD*%
D24*
%TO.C,H2*%
X111900000Y-136500000D03*
%TD*%
D21*
%TO.C,J5*%
X111400000Y-78000000D03*
D22*
X111400000Y-80540000D03*
X111400000Y-83080000D03*
%TD*%
D19*
%TO.C,C11*%
X180661250Y-63137500D03*
X180661250Y-64862500D03*
%TD*%
D20*
%TO.C,C20*%
X149451554Y-80112500D03*
X149451554Y-78387500D03*
%TD*%
D24*
%TO.C,H1*%
X191900000Y-136500000D03*
%TD*%
D25*
%TO.C,L5*%
X125885000Y-68875000D03*
X125885000Y-70625000D03*
%TD*%
D21*
%TO.C,J15*%
X152150000Y-60290000D03*
D22*
X152150000Y-57750000D03*
X149610000Y-60290000D03*
X149610000Y-57750000D03*
X147070000Y-60290000D03*
X147070000Y-57750000D03*
%TD*%
D26*
%TO.C,R11*%
X144951554Y-80162500D03*
X144951554Y-78337500D03*
%TD*%
D24*
%TO.C,H3*%
X111900000Y-50500000D03*
%TD*%
D19*
%TO.C,C12*%
X189411250Y-57887500D03*
X189411250Y-59612500D03*
%TD*%
D24*
%TO.C,H4*%
X191900000Y-50500000D03*
%TD*%
D27*
%TO.C,R10*%
X183661250Y-63087500D03*
X183661250Y-64912500D03*
%TD*%
D25*
%TO.C,L2*%
X188661250Y-62875000D03*
X188661250Y-64625000D03*
%TD*%
D20*
%TO.C,C1*%
X122737500Y-54562500D03*
X122737500Y-52837500D03*
%TD*%
D28*
%TO.C,C32*%
X188297074Y-73610000D03*
X186572074Y-73610000D03*
%TD*%
D19*
%TO.C,C6*%
X118325000Y-57925000D03*
X118325000Y-59650000D03*
%TD*%
D20*
%TO.C,C16*%
X146451554Y-80112500D03*
X146451554Y-78387500D03*
%TD*%
D29*
%TO.C,Q3*%
X178491250Y-48595000D03*
X178491250Y-49865000D03*
X178491250Y-51135000D03*
X178491250Y-52405000D03*
%TD*%
D30*
%TO.C,U5*%
X127455000Y-77985426D03*
X128725000Y-77985426D03*
X129995000Y-77985426D03*
X131265000Y-77985426D03*
X132535000Y-77985426D03*
X133805000Y-77985426D03*
X135075000Y-77985426D03*
X136345000Y-77985426D03*
X136345000Y-73035426D03*
X135075000Y-73035426D03*
X133805000Y-73035426D03*
X132535000Y-73035426D03*
X131265000Y-73035426D03*
X129995000Y-73035426D03*
X128725000Y-73035426D03*
X127455000Y-73035426D03*
%TD*%
D31*
%TO.C,R14*%
X144539054Y-74000000D03*
X146364054Y-74000000D03*
%TD*%
D32*
%TO.C,C10*%
X179298750Y-55250000D03*
X181023750Y-55250000D03*
%TD*%
D33*
%TO.C,R12*%
X146364054Y-72000000D03*
X144539054Y-72000000D03*
%TD*%
D25*
%TO.C,L3*%
X155951554Y-78375000D03*
X155951554Y-80125000D03*
%TD*%
D33*
%TO.C,R8*%
X185823750Y-54250000D03*
X183998750Y-54250000D03*
%TD*%
D21*
%TO.C,J13*%
X138720000Y-53790000D03*
D22*
X138720000Y-51250000D03*
X136180000Y-53790000D03*
X136180000Y-51250000D03*
X133640000Y-53790000D03*
X133640000Y-51250000D03*
%TD*%
D34*
%TO.C,U3*%
X152701554Y-72315000D03*
X152201554Y-72315000D03*
X151701554Y-72315000D03*
X151201554Y-72315000D03*
X150701554Y-72315000D03*
X150201554Y-72315000D03*
X149701554Y-72315000D03*
X149201554Y-72315000D03*
D35*
X148516554Y-73000000D03*
X148516554Y-73500000D03*
X148516554Y-74000000D03*
X148516554Y-74500000D03*
X148516554Y-75000000D03*
X148516554Y-75500000D03*
D36*
X149201554Y-76185000D03*
X149701554Y-76185000D03*
X150201554Y-76185000D03*
X150701554Y-76185000D03*
X151201554Y-76185000D03*
X151701554Y-76185000D03*
X152201554Y-76185000D03*
X152701554Y-76185000D03*
D37*
X153386554Y-75500000D03*
X153386554Y-75000000D03*
X153386554Y-74500000D03*
X153386554Y-74000000D03*
X153386554Y-73500000D03*
X153386554Y-73000000D03*
D38*
X150951554Y-74250000D03*
%TD*%
D25*
%TO.C,D5*%
X127400000Y-68885426D03*
X127400000Y-70635426D03*
%TD*%
D31*
%TO.C,R2*%
X121412500Y-65787500D03*
X123237500Y-65787500D03*
%TD*%
D23*
%TO.C,Q6*%
X154401554Y-78650000D03*
X152501554Y-78650000D03*
X153451554Y-80850000D03*
%TD*%
D30*
%TO.C,U7*%
X160130000Y-74475000D03*
X161400000Y-74475000D03*
X162670000Y-74475000D03*
X163940000Y-74475000D03*
X165210000Y-74475000D03*
X166480000Y-74475000D03*
X167750000Y-74475000D03*
X169020000Y-74475000D03*
X169020000Y-69525000D03*
X167750000Y-69525000D03*
X166480000Y-69525000D03*
X165210000Y-69525000D03*
X163940000Y-69525000D03*
X162670000Y-69525000D03*
X161400000Y-69525000D03*
X160130000Y-69525000D03*
%TD*%
D39*
%TO.C,D2*%
X134650000Y-65650000D03*
X134650000Y-63350000D03*
%TD*%
D40*
%TO.C,TH1*%
X152802500Y-95000000D03*
X153997500Y-95000000D03*
%TD*%
D34*
%TO.C,U2*%
X185411250Y-56815000D03*
X184911250Y-56815000D03*
X184411250Y-56815000D03*
X183911250Y-56815000D03*
X183411250Y-56815000D03*
X182911250Y-56815000D03*
X182411250Y-56815000D03*
X181911250Y-56815000D03*
D35*
X181226250Y-57500000D03*
X181226250Y-58000000D03*
X181226250Y-58500000D03*
X181226250Y-59000000D03*
X181226250Y-59500000D03*
X181226250Y-60000000D03*
D36*
X181911250Y-60685000D03*
X182411250Y-60685000D03*
X182911250Y-60685000D03*
X183411250Y-60685000D03*
X183911250Y-60685000D03*
X184411250Y-60685000D03*
X184911250Y-60685000D03*
X185411250Y-60685000D03*
D37*
X186096250Y-60000000D03*
X186096250Y-59500000D03*
X186096250Y-59000000D03*
X186096250Y-58500000D03*
X186096250Y-58000000D03*
X186096250Y-57500000D03*
D38*
X183661250Y-58750000D03*
%TD*%
D25*
%TO.C,L7*%
X158575000Y-65375000D03*
X158575000Y-67125000D03*
%TD*%
D27*
%TO.C,R1*%
X122837500Y-57887500D03*
X122837500Y-59712500D03*
%TD*%
D19*
%TO.C,C18*%
X147951554Y-78387500D03*
X147951554Y-80112500D03*
%TD*%
%TO.C,C34*%
X161575000Y-65387500D03*
X161575000Y-67112500D03*
%TD*%
D21*
%TO.C,J7*%
X175659574Y-78235000D03*
D22*
X175659574Y-75695000D03*
X175659574Y-73155000D03*
%TD*%
D28*
%TO.C,C29*%
X136262500Y-70510426D03*
X134537500Y-70510426D03*
%TD*%
D25*
%TO.C,D7*%
X160075000Y-65375000D03*
X160075000Y-67125000D03*
%TD*%
D41*
%TO.C,U6*%
X179184574Y-72190000D03*
X179184574Y-73460000D03*
X179184574Y-74730000D03*
X179184574Y-76000000D03*
X179184574Y-77270000D03*
X179184574Y-78540000D03*
X179184574Y-79810000D03*
X179184574Y-81080000D03*
X184134574Y-81080000D03*
X184134574Y-79810000D03*
X184134574Y-78540000D03*
X184134574Y-77270000D03*
X184134574Y-76000000D03*
X184134574Y-74730000D03*
X184134574Y-73460000D03*
X184134574Y-72190000D03*
%TD*%
D40*
%TO.C,TH2*%
X151802500Y-112500000D03*
X152997500Y-112500000D03*
%TD*%
D20*
%TO.C,C13*%
X182161250Y-64862500D03*
X182161250Y-63137500D03*
%TD*%
%TO.C,C15*%
X142900000Y-84225000D03*
X142900000Y-82500000D03*
%TD*%
D31*
%TO.C,R3*%
X114412500Y-68787500D03*
X116237500Y-68787500D03*
%TD*%
D29*
%TO.C,Q1*%
X121495000Y-74692500D03*
X121495000Y-73422500D03*
X121495000Y-72152500D03*
X121495000Y-70882500D03*
%TD*%
D27*
%TO.C,R15*%
X150951554Y-78337500D03*
X150951554Y-80162500D03*
%TD*%
D20*
%TO.C,C7*%
X112325000Y-65150000D03*
X112325000Y-63425000D03*
%TD*%
D21*
%TO.C,J6*%
X133560000Y-81525000D03*
D22*
X131020000Y-81525000D03*
X128480000Y-81525000D03*
%TD*%
D32*
%TO.C,C31*%
X186572074Y-81110000D03*
X188297074Y-81110000D03*
%TD*%
D21*
%TO.C,J2*%
X174161250Y-65800000D03*
D22*
X174161250Y-63260000D03*
X174161250Y-60720000D03*
X174161250Y-58180000D03*
%TD*%
D21*
%TO.C,J1*%
X119600000Y-49475000D03*
D22*
X122140000Y-49475000D03*
X124680000Y-49475000D03*
X127220000Y-49475000D03*
%TD*%
D21*
%TO.C,J8*%
X166325000Y-78025000D03*
D22*
X163785000Y-78025000D03*
X161245000Y-78025000D03*
%TD*%
D21*
%TO.C,J14*%
X138720000Y-60290000D03*
D22*
X138720000Y-57750000D03*
X136180000Y-60290000D03*
X136180000Y-57750000D03*
X133640000Y-60290000D03*
X133640000Y-57750000D03*
%TD*%
D29*
%TO.C,Q5*%
X145531554Y-64095000D03*
X145531554Y-65365000D03*
X145531554Y-66635000D03*
X145531554Y-67905000D03*
%TD*%
D26*
%TO.C,R6*%
X177661250Y-64912500D03*
X177661250Y-63087500D03*
%TD*%
D19*
%TO.C,C8*%
X177661250Y-68637500D03*
X177661250Y-70362500D03*
%TD*%
%TO.C,C30*%
X128900000Y-68897926D03*
X128900000Y-70622926D03*
%TD*%
D32*
%TO.C,C17*%
X146476554Y-70500000D03*
X148201554Y-70500000D03*
%TD*%
D21*
%TO.C,J3*%
X141176554Y-80050000D03*
D22*
X141176554Y-77510000D03*
X141176554Y-74970000D03*
X141176554Y-72430000D03*
%TD*%
D33*
%TO.C,R13*%
X153364054Y-69750000D03*
X151539054Y-69750000D03*
%TD*%
D42*
%TO.C,D6*%
X188309574Y-72110000D03*
X186559574Y-72110000D03*
%TD*%
D43*
%TO.C,L1*%
X111825000Y-60162500D03*
X111825000Y-58412500D03*
%TD*%
D42*
%TO.C,L6*%
X188309574Y-70610000D03*
X186559574Y-70610000D03*
%TD*%
D31*
%TO.C,R9*%
X177248750Y-59000000D03*
X179073750Y-59000000D03*
%TD*%
D23*
%TO.C,Q4*%
X187111250Y-63150000D03*
X185211250Y-63150000D03*
X186161250Y-65350000D03*
%TD*%
D20*
%TO.C,C33*%
X169075000Y-67112500D03*
X169075000Y-65387500D03*
%TD*%
D28*
%TO.C,C3*%
X120825000Y-67787500D03*
X119100000Y-67787500D03*
%TD*%
D20*
%TO.C,C5*%
X110825000Y-65150000D03*
X110825000Y-63425000D03*
%TD*%
D36*
%TO.C,U1*%
X114825000Y-66157500D03*
X115325000Y-66157500D03*
X115825000Y-66157500D03*
X116325000Y-66157500D03*
X116825000Y-66157500D03*
X117325000Y-66157500D03*
X117825000Y-66157500D03*
X118325000Y-66157500D03*
D37*
X119010000Y-65472500D03*
X119010000Y-64972500D03*
X119010000Y-64472500D03*
X119010000Y-63972500D03*
X119010000Y-63472500D03*
X119010000Y-62972500D03*
D34*
X118325000Y-62287500D03*
X117825000Y-62287500D03*
X117325000Y-62287500D03*
X116825000Y-62287500D03*
X116325000Y-62287500D03*
X115825000Y-62287500D03*
X115325000Y-62287500D03*
X114825000Y-62287500D03*
D35*
X114140000Y-62972500D03*
X114140000Y-63472500D03*
X114140000Y-63972500D03*
X114140000Y-64472500D03*
X114140000Y-64972500D03*
X114140000Y-65472500D03*
D38*
X116575000Y-64222500D03*
%TD*%
D44*
%TO.C,D3*%
X171300000Y-56000000D03*
X169000000Y-56000000D03*
%TD*%
D40*
%TO.C,TH3*%
X151802500Y-129500000D03*
X152997500Y-129500000D03*
%TD*%
D21*
%TO.C,J10*%
X165665000Y-60290000D03*
D22*
X165665000Y-57750000D03*
X163125000Y-60290000D03*
X163125000Y-57750000D03*
X160585000Y-60290000D03*
X160585000Y-57750000D03*
%TD*%
D26*
%TO.C,R5*%
X116825000Y-59700000D03*
X116825000Y-57875000D03*
%TD*%
D39*
%TO.C,D1*%
X128150000Y-59900000D03*
X128150000Y-57600000D03*
%TD*%
D33*
%TO.C,R4*%
X123237500Y-63787500D03*
X121412500Y-63787500D03*
%TD*%
%TO.C,R7*%
X179073750Y-57000000D03*
X177248750Y-57000000D03*
%TD*%
M02*
