%TF.GenerationSoftware,KiCad,Pcbnew,6.0.7*%
%TF.CreationDate,2022-11-21T22:22:32-06:00*%
%TF.ProjectId,CubesatPwrBoard,43756265-7361-4745-9077-72426f617264,rev?*%
%TF.SameCoordinates,Original*%
%TF.FileFunction,Drillmap*%
%TF.FilePolarity,Positive*%
%FSLAX45Y45*%
G04 Gerber Fmt 4.5, Leading zero omitted, Abs format (unit mm)*
G04 Created by KiCad (PCBNEW 6.0.7) date 2022-11-21 22:22:32*
%MOMM*%
%LPD*%
G01*
G04 APERTURE LIST*
%ADD10C,0.050000*%
%ADD11C,0.200000*%
G04 APERTURE END LIST*
D10*
X10665000Y-13950000D02*
X10665000Y-4800000D01*
X19465000Y-14150000D02*
G75*
G03*
X19665000Y-13950000I0J200000D01*
G01*
X10915000Y-4550000D02*
X19465000Y-4550000D01*
X19665000Y-4750000D02*
G75*
G03*
X19465000Y-4550000I-200000J0D01*
G01*
X10865000Y-14150000D02*
X19465000Y-14150000D01*
X10665000Y-13950000D02*
G75*
G03*
X10865000Y-14150000I200000J0D01*
G01*
X10915000Y-4550000D02*
G75*
G03*
X10665000Y-4800000I0J-250000D01*
G01*
X19665000Y-13950000D02*
X19665000Y-4750000D01*
D11*
X10920119Y-14462976D02*
X10920119Y-14262976D01*
X10967738Y-14262976D01*
X10996310Y-14272500D01*
X11015357Y-14291548D01*
X11024881Y-14310595D01*
X11034405Y-14348690D01*
X11034405Y-14377262D01*
X11024881Y-14415357D01*
X11015357Y-14434405D01*
X10996310Y-14453452D01*
X10967738Y-14462976D01*
X10920119Y-14462976D01*
X11120119Y-14462976D02*
X11120119Y-14329643D01*
X11120119Y-14367738D02*
X11129643Y-14348690D01*
X11139167Y-14339167D01*
X11158214Y-14329643D01*
X11177262Y-14329643D01*
X11243928Y-14462976D02*
X11243928Y-14329643D01*
X11243928Y-14262976D02*
X11234405Y-14272500D01*
X11243928Y-14282024D01*
X11253452Y-14272500D01*
X11243928Y-14262976D01*
X11243928Y-14282024D01*
X11367738Y-14462976D02*
X11348690Y-14453452D01*
X11339167Y-14434405D01*
X11339167Y-14262976D01*
X11472500Y-14462976D02*
X11453452Y-14453452D01*
X11443928Y-14434405D01*
X11443928Y-14262976D01*
X11701071Y-14462976D02*
X11701071Y-14262976D01*
X11767738Y-14405833D01*
X11834405Y-14262976D01*
X11834405Y-14462976D01*
X12015357Y-14462976D02*
X12015357Y-14358214D01*
X12005833Y-14339167D01*
X11986786Y-14329643D01*
X11948690Y-14329643D01*
X11929643Y-14339167D01*
X12015357Y-14453452D02*
X11996309Y-14462976D01*
X11948690Y-14462976D01*
X11929643Y-14453452D01*
X11920119Y-14434405D01*
X11920119Y-14415357D01*
X11929643Y-14396309D01*
X11948690Y-14386786D01*
X11996309Y-14386786D01*
X12015357Y-14377262D01*
X12110595Y-14329643D02*
X12110595Y-14529643D01*
X12110595Y-14339167D02*
X12129643Y-14329643D01*
X12167738Y-14329643D01*
X12186786Y-14339167D01*
X12196309Y-14348690D01*
X12205833Y-14367738D01*
X12205833Y-14424881D01*
X12196309Y-14443928D01*
X12186786Y-14453452D01*
X12167738Y-14462976D01*
X12129643Y-14462976D01*
X12110595Y-14453452D01*
X12291548Y-14443928D02*
X12301071Y-14453452D01*
X12291548Y-14462976D01*
X12282024Y-14453452D01*
X12291548Y-14443928D01*
X12291548Y-14462976D01*
X12291548Y-14339167D02*
X12301071Y-14348690D01*
X12291548Y-14358214D01*
X12282024Y-14348690D01*
X12291548Y-14339167D01*
X12291548Y-14358214D01*
M02*
